solid OBJECT
  facet normal -0 -1 -0
    outer loop
      vertex 0 -0.25532293319702148 0.4285714328289032
      vertex 0 -0.25532293319702148 0
      vertex 0.28571429848670959 -0.25532293319702148 0
    endloop
  endfacet
  facet normal 0 -1 -0
    outer loop
      vertex 0.28571429848670959 -0.25532293319702148 3
      vertex 0 -0.25532293319702148 3
      vertex 0 -0.25532293319702148 2.5714285373687744
    endloop
  endfacet
  facet normal -0 -1 0
    outer loop
      vertex 1.7142857313156128 -0.25532293319702148 0
      vertex 2 -0.25532293319702148 0
      vertex 2 -0.25532293319702148 0.4285714328289032
    endloop
  endfacet
  facet normal 0 -1 0
    outer loop
      vertex 2 -0.25532293319702148 2.5714285373687744
      vertex 2 -0.25532293319702148 3
      vertex 1.7142857313156128 -0.25532293319702148 3
    endloop
  endfacet
  facet normal 0 -1 0
    outer loop
      vertex 0.32700002193450928 -0.25532293319702148 0.39650145173072815
      vertex 0 -0.25532293319702148 0.4285714328289032
      vertex 0.28571429848670959 -0.25532293319702148 0
    endloop
  endfacet
  facet normal -0 -1 0
    outer loop
      vertex 0.28571429848670959 -0.25532293319702148 0
      vertex 0.57142859697341919 -0.25532293319702148 0
      vertex 0.59619998931884766 -0.25532293319702148 0.39650145173072815
    endloop
  endfacet
  facet normal 0 -1 0
    outer loop
      vertex 0.28571429848670959 -0.25532293319702148 0
      vertex 0.59619998931884766 -0.25532293319702148 0.39650145173072815
      vertex 0.32700002193450928 -0.25532293319702148 0.39650145173072815
    endloop
  endfacet
  facet normal 0 -1 0
    outer loop
      vertex 0 -0.25532293319702148 0.8571428656578064
      vertex 0 -0.25532293319702148 0.4285714328289032
      vertex 0.32700002193450928 -0.25532293319702148 0.39650145173072815
    endloop
  endfacet
  facet normal -0 -1 -0
    outer loop
      vertex 0 -0.25532293319702148 0.8571428656578064
      vertex 0.32700002193450928 -0.25532293319702148 0.39650145173072815
      vertex 0.32700002193450928 -0.25532293319702148 0.70035821199417114
    endloop
  endfacet
  facet normal -0 -1 -0
    outer loop
      vertex 0 -0.25532293319702148 1.2857142686843872
      vertex 0 -0.25532293319702148 0.8571428656578064
      vertex 0.28571429848670959 -0.25532293319702148 0.8571428656578064
    endloop
  endfacet
  facet normal -0 -1 -0
    outer loop
      vertex 0 -0.25532293319702148 1.2857142686843872
      vertex 0.28571429848670959 -0.25532293319702148 0.8571428656578064
      vertex 0.28571429848670959 -0.25532293319702148 1.2857142686843872
    endloop
  endfacet
  facet normal -0 -1 -0
    outer loop
      vertex 0.28571429848670959 -0.25532293319702148 1.2857142686843872
      vertex 0.28571429848670959 -0.25532293319702148 0.8571428656578064
      vertex 0.32700002193450928 -0.25532293319702148 1.004214882850647
    endloop
  endfacet
  facet normal -0 -1 0
    outer loop
      vertex 0.28571429848670959 -0.25532293319702148 1.2857142686843872
      vertex 0.32700002193450928 -0.25532293319702148 1.004214882850647
      vertex 0.32700002193450928 -0.25532293319702148 1.3080716133117676
    endloop
  endfacet
  facet normal 0 -1 0
    outer loop
      vertex 0.32700002193450928 -0.25532293319702148 0.70035821199417114
      vertex 0.28571429848670959 -0.25532293319702148 0.8571428656578064
      vertex 0 -0.25532293319702148 0.8571428656578064
    endloop
  endfacet
  facet normal -0 -1 -0
    outer loop
      vertex 0.28571429848670959 -0.25532293319702148 1.7142857313156128
      vertex 0.28571429848670959 -0.25532293319702148 1.2857142686843872
      vertex 0.32700002193450928 -0.25532293319702148 1.3080716133117676
    endloop
  endfacet
  facet normal -0 -1 -0
    outer loop
      vertex 0.28571429848670959 -0.25532293319702148 1.7142857313156128
      vertex 0.32700002193450928 -0.25532293319702148 1.3080716133117676
      vertex 0.32700002193450928 -0.25532293319702148 1.6119283437728882
    endloop
  endfacet
  facet normal -0 -1 0
    outer loop
      vertex 0.57142859697341919 -0.25532293319702148 0
      vertex 0.8571428656578064 -0.25532293319702148 0
      vertex 0.86540001630783081 -0.25532293319702148 0.39650145173072815
    endloop
  endfacet
  facet normal 0 -1 0
    outer loop
      vertex 0.57142859697341919 -0.25532293319702148 0
      vertex 0.86540001630783081 -0.25532293319702148 0.39650145173072815
      vertex 0.59619998931884766 -0.25532293319702148 0.39650145173072815
    endloop
  endfacet
  facet normal -0 -1 0
    outer loop
      vertex 0.8571428656578064 -0.25532293319702148 0
      vertex 1.1428571939468384 -0.25532293319702148 0
      vertex 1.134600043296814 -0.25532293319702148 0.39650145173072815
    endloop
  endfacet
  facet normal 0 -1 0
    outer loop
      vertex 0.8571428656578064 -0.25532293319702148 0
      vertex 1.134600043296814 -0.25532293319702148 0.39650145173072815
      vertex 0.86540001630783081 -0.25532293319702148 0.39650145173072815
    endloop
  endfacet
  facet normal -0 -1 0
    outer loop
      vertex 0.28571429848670959 -0.25532293319702148 0.8571428656578064
      vertex 0.32700002193450928 -0.25532293319702148 0.70035821199417114
      vertex 0.32700002193450928 -0.25532293319702148 1.004214882850647
    endloop
  endfacet
  facet normal -0 -1 -0
    outer loop
      vertex 0 -0.25532293319702148 1.7142857313156128
      vertex 0 -0.25532293319702148 1.2857142686843872
      vertex 0.28571429848670959 -0.25532293319702148 1.2857142686843872
    endloop
  endfacet
  facet normal -0 -1 -0
    outer loop
      vertex 0 -0.25532293319702148 1.7142857313156128
      vertex 0.28571429848670959 -0.25532293319702148 1.2857142686843872
      vertex 0.28571429848670959 -0.25532293319702148 1.7142857313156128
    endloop
  endfacet
  facet normal -0 -1 -0
    outer loop
      vertex 0 -0.25532293319702148 2.1428570747375488
      vertex 0 -0.25532293319702148 1.7142857313156128
      vertex 0.28571429848670959 -0.25532293319702148 1.7142857313156128
    endloop
  endfacet
  facet normal -0 -1 -0
    outer loop
      vertex 0 -0.25532293319702148 2.1428570747375488
      vertex 0.28571429848670959 -0.25532293319702148 1.7142857313156128
      vertex 0.28571429848670959 -0.25532293319702148 2.1428570747375488
    endloop
  endfacet
  facet normal -0 -1 -0
    outer loop
      vertex 0.28571429848670959 -0.25532293319702148 2.1428570747375488
      vertex 0.28571429848670959 -0.25532293319702148 1.7142857313156128
      vertex 0.32700002193450928 -0.25532293319702148 1.9157850742340088
    endloop
  endfacet
  facet normal -0 -1 0
    outer loop
      vertex 0.28571429848670959 -0.25532293319702148 2.1428570747375488
      vertex 0.32700002193450928 -0.25532293319702148 1.9157850742340088
      vertex 0.32700002193450928 -0.25532293319702148 2.2196419239044189
    endloop
  endfacet
  facet normal -0 -1 0
    outer loop
      vertex 0.32700002193450928 -0.25532293319702148 1.9157850742340088
      vertex 0.28571429848670959 -0.25532293319702148 1.7142857313156128
      vertex 0.32700002193450928 -0.25532293319702148 1.6119283437728882
    endloop
  endfacet
  facet normal 0 -1 0
    outer loop
      vertex 0.28571429848670959 -0.25532293319702148 2.1428570747375488
      vertex 0.28571429848670959 -0.25532293319702148 2.5714285373687744
      vertex 0 -0.25532293319702148 2.5714285373687744
    endloop
  endfacet
  facet normal 0 -1 0
    outer loop
      vertex 0.28571429848670959 -0.25532293319702148 2.1428570747375488
      vertex 0 -0.25532293319702148 2.5714285373687744
      vertex 0 -0.25532293319702148 2.1428570747375488
    endloop
  endfacet
  facet normal -0 -1 0
    outer loop
      vertex 0 -0.25532293319702148 2.5714285373687744
      vertex 0.28571429848670959 -0.25532293319702148 2.5714285373687744
      vertex 0.28571429848670959 -0.25532293319702148 3
    endloop
  endfacet
  facet normal -0 -1 -0
    outer loop
      vertex 0.28571429848670959 -0.25532293319702148 3
      vertex 0.28571429848670959 -0.25532293319702148 2.5714285373687744
      vertex 0.57142859697341919 -0.25532293319702148 2.5714285373687744
    endloop
  endfacet
  facet normal -0 -1 -0
    outer loop
      vertex 0.28571429848670959 -0.25532293319702148 3
      vertex 0.57142859697341919 -0.25532293319702148 2.5714285373687744
      vertex 0.57142859697341919 -0.25532293319702148 3
    endloop
  endfacet
  facet normal -0 -1 -0
    outer loop
      vertex 0.28571429848670959 -0.25532293319702148 2.5714285373687744
      vertex 0.28571429848670959 -0.25532293319702148 2.1428570747375488
      vertex 0.32700002193450928 -0.25532293319702148 2.2196419239044189
    endloop
  endfacet
  facet normal -0 -1 -0
    outer loop
      vertex 0.28571429848670959 -0.25532293319702148 2.5714285373687744
      vertex 0.32700002193450928 -0.25532293319702148 2.2196419239044189
      vertex 0.32700002193450928 -0.25532293319702148 2.52349853515625
    endloop
  endfacet
  facet normal 0 -1 -0
    outer loop
      vertex 0.59619998931884766 -0.25532293319702148 2.52349853515625
      vertex 0.86540001630783081 -0.25532293319702148 2.52349853515625
      vertex 0.8571428656578064 -0.25532293319702148 2.5714285373687744
    endloop
  endfacet
  facet normal -0 -1 -0
    outer loop
      vertex 0.59619998931884766 -0.25532293319702148 2.52349853515625
      vertex 0.8571428656578064 -0.25532293319702148 2.5714285373687744
      vertex 0.57142859697341919 -0.25532293319702148 2.5714285373687744
    endloop
  endfacet
  facet normal 0 -1 -0
    outer loop
      vertex 0.32700002193450928 -0.25532293319702148 2.52349853515625
      vertex 0.59619998931884766 -0.25532293319702148 2.52349853515625
      vertex 0.57142859697341919 -0.25532293319702148 2.5714285373687744
    endloop
  endfacet
  facet normal -0 -1 -0
    outer loop
      vertex 0.32700002193450928 -0.25532293319702148 2.52349853515625
      vertex 0.57142859697341919 -0.25532293319702148 2.5714285373687744
      vertex 0.28571429848670959 -0.25532293319702148 2.5714285373687744
    endloop
  endfacet
  facet normal -0 -1 -0
    outer loop
      vertex 0.57142859697341919 -0.25532293319702148 3
      vertex 0.57142859697341919 -0.25532293319702148 2.5714285373687744
      vertex 0.8571428656578064 -0.25532293319702148 2.5714285373687744
    endloop
  endfacet
  facet normal -0 -1 -0
    outer loop
      vertex 0.57142859697341919 -0.25532293319702148 3
      vertex 0.8571428656578064 -0.25532293319702148 2.5714285373687744
      vertex 0.8571428656578064 -0.25532293319702148 3
    endloop
  endfacet
  facet normal -0 -1 -0
    outer loop
      vertex 0.8571428656578064 -0.25532293319702148 3
      vertex 0.8571428656578064 -0.25532293319702148 2.5714285373687744
      vertex 1.1428571939468384 -0.25532293319702148 2.5714285373687744
    endloop
  endfacet
  facet normal -0 -1 -0
    outer loop
      vertex 0.8571428656578064 -0.25532293319702148 3
      vertex 1.1428571939468384 -0.25532293319702148 2.5714285373687744
      vertex 1.1428571939468384 -0.25532293319702148 3
    endloop
  endfacet
  facet normal -0 -1 0
    outer loop
      vertex 1.1428571939468384 -0.25532293319702148 2.5714285373687744
      vertex 0.8571428656578064 -0.25532293319702148 2.5714285373687744
      vertex 0.86540001630783081 -0.25532293319702148 2.52349853515625
    endloop
  endfacet
  facet normal 0 -1 -0
    outer loop
      vertex 1.1428571939468384 -0.25532293319702148 2.5714285373687744
      vertex 0.86540001630783081 -0.25532293319702148 2.52349853515625
      vertex 1.134600043296814 -0.25532293319702148 2.52349853515625
    endloop
  endfacet
  facet normal 0 -1 0
    outer loop
      vertex 1.4038000106811523 -0.25532293319702148 0.39650145173072815
      vertex 1.134600043296814 -0.25532293319702148 0.39650145173072815
      vertex 1.1428571939468384 -0.25532293319702148 0
    endloop
  endfacet
  facet normal -0 -1 0
    outer loop
      vertex 1.4038000106811523 -0.25532293319702148 0.39650145173072815
      vertex 1.1428571939468384 -0.25532293319702148 0
      vertex 1.4285714626312256 -0.25532293319702148 0
    endloop
  endfacet
  facet normal 0 -1 0
    outer loop
      vertex 1.6729999780654907 -0.25532293319702148 0.39650145173072815
      vertex 1.4038000106811523 -0.25532293319702148 0.39650145173072815
      vertex 1.4285714626312256 -0.25532293319702148 0
    endloop
  endfacet
  facet normal -0 -1 0
    outer loop
      vertex 1.6729999780654907 -0.25532293319702148 0.39650145173072815
      vertex 1.4285714626312256 -0.25532293319702148 0
      vertex 1.7142857313156128 -0.25532293319702148 0
    endloop
  endfacet
  facet normal 0 -1 -0
    outer loop
      vertex 1.7142857313156128 -0.25532293319702148 0.8571428656578064
      vertex 1.6729999780654907 -0.25532293319702148 1.004214882850647
      vertex 1.6729999780654907 -0.25532293319702148 0.70035821199417114
    endloop
  endfacet
  facet normal 0 -1 0
    outer loop
      vertex 1.6729999780654907 -0.25532293319702148 0.70035821199417114
      vertex 1.6729999780654907 -0.25532293319702148 0.39650145173072815
      vertex 2 -0.25532293319702148 0.4285714328289032
    endloop
  endfacet
  facet normal 0 -1 0
    outer loop
      vertex 2 -0.25532293319702148 0.8571428656578064
      vertex 2 -0.25532293319702148 1.2857142686843872
      vertex 1.7142857313156128 -0.25532293319702148 1.2857142686843872
    endloop
  endfacet
  facet normal 0 -1 0
    outer loop
      vertex 2 -0.25532293319702148 0.8571428656578064
      vertex 1.7142857313156128 -0.25532293319702148 1.2857142686843872
      vertex 1.7142857313156128 -0.25532293319702148 0.8571428656578064
    endloop
  endfacet
  facet normal -0 -1 0
    outer loop
      vertex 1.6729999780654907 -0.25532293319702148 0.70035821199417114
      vertex 2 -0.25532293319702148 0.4285714328289032
      vertex 2 -0.25532293319702148 0.8571428656578064
    endloop
  endfacet
  facet normal 0 -1 -0
    outer loop
      vertex 1.6729999780654907 -0.25532293319702148 0.70035821199417114
      vertex 2 -0.25532293319702148 0.8571428656578064
      vertex 1.7142857313156128 -0.25532293319702148 0.8571428656578064
    endloop
  endfacet
  facet normal -0 -1 0
    outer loop
      vertex 1.6729999780654907 -0.25532293319702148 1.6119283437728882
      vertex 1.6729999780654907 -0.25532293319702148 1.3080716133117676
      vertex 1.7142857313156128 -0.25532293319702148 1.2857142686843872
    endloop
  endfacet
  facet normal -0 -1 0
    outer loop
      vertex 1.6729999780654907 -0.25532293319702148 1.6119283437728882
      vertex 1.7142857313156128 -0.25532293319702148 1.2857142686843872
      vertex 1.7142857313156128 -0.25532293319702148 1.7142857313156128
    endloop
  endfacet
  facet normal 0 -1 0
    outer loop
      vertex 2 -0.25532293319702148 1.2857142686843872
      vertex 2 -0.25532293319702148 1.7142857313156128
      vertex 1.7142857313156128 -0.25532293319702148 1.7142857313156128
    endloop
  endfacet
  facet normal 0 -1 0
    outer loop
      vertex 2 -0.25532293319702148 1.2857142686843872
      vertex 1.7142857313156128 -0.25532293319702148 1.7142857313156128
      vertex 1.7142857313156128 -0.25532293319702148 1.2857142686843872
    endloop
  endfacet
  facet normal 0 -1 0
    outer loop
      vertex 1.7142857313156128 -0.25532293319702148 0.8571428656578064
      vertex 1.7142857313156128 -0.25532293319702148 1.2857142686843872
      vertex 1.6729999780654907 -0.25532293319702148 1.3080716133117676
    endloop
  endfacet
  facet normal 0 -1 0
    outer loop
      vertex 1.7142857313156128 -0.25532293319702148 0.8571428656578064
      vertex 1.6729999780654907 -0.25532293319702148 1.3080716133117676
      vertex 1.6729999780654907 -0.25532293319702148 1.004214882850647
    endloop
  endfacet
  facet normal 0 -1 0
    outer loop
      vertex 2 -0.25532293319702148 0.4285714328289032
      vertex 1.6729999780654907 -0.25532293319702148 0.39650145173072815
      vertex 1.7142857313156128 -0.25532293319702148 0
    endloop
  endfacet
  facet normal -0 -1 0
    outer loop
      vertex 1.134600043296814 -0.25532293319702148 2.52349853515625
      vertex 1.4038000106811523 -0.25532293319702148 2.52349853515625
      vertex 1.4285714626312256 -0.25532293319702148 2.5714285373687744
    endloop
  endfacet
  facet normal 0 -1 -0
    outer loop
      vertex 1.134600043296814 -0.25532293319702148 2.52349853515625
      vertex 1.4285714626312256 -0.25532293319702148 2.5714285373687744
      vertex 1.1428571939468384 -0.25532293319702148 2.5714285373687744
    endloop
  endfacet
  facet normal 0 -1 -0
    outer loop
      vertex 1.7142857313156128 -0.25532293319702148 2.1428570747375488
      vertex 1.6729999780654907 -0.25532293319702148 2.2196419239044189
      vertex 1.6729999780654907 -0.25532293319702148 1.9157850742340088
    endloop
  endfacet
  facet normal 0 -1 -0
    outer loop
      vertex 1.4038000106811523 -0.25532293319702148 2.52349853515625
      vertex 1.6729999780654907 -0.25532293319702148 2.52349853515625
      vertex 1.7142857313156128 -0.25532293319702148 2.5714285373687744
    endloop
  endfacet
  facet normal 0 -1 -0
    outer loop
      vertex 1.4038000106811523 -0.25532293319702148 2.52349853515625
      vertex 1.7142857313156128 -0.25532293319702148 2.5714285373687744
      vertex 1.4285714626312256 -0.25532293319702148 2.5714285373687744
    endloop
  endfacet
  facet normal -0 -1 -0
    outer loop
      vertex 1.1428571939468384 -0.25532293319702148 3
      vertex 1.1428571939468384 -0.25532293319702148 2.5714285373687744
      vertex 1.4285714626312256 -0.25532293319702148 2.5714285373687744
    endloop
  endfacet
  facet normal -0 -1 -0
    outer loop
      vertex 1.1428571939468384 -0.25532293319702148 3
      vertex 1.4285714626312256 -0.25532293319702148 2.5714285373687744
      vertex 1.4285714626312256 -0.25532293319702148 3
    endloop
  endfacet
  facet normal -0 -1 -0
    outer loop
      vertex 1.4285714626312256 -0.25532293319702148 3
      vertex 1.4285714626312256 -0.25532293319702148 2.5714285373687744
      vertex 1.7142857313156128 -0.25532293319702148 2.5714285373687744
    endloop
  endfacet
  facet normal -0 -1 -0
    outer loop
      vertex 1.4285714626312256 -0.25532293319702148 3
      vertex 1.7142857313156128 -0.25532293319702148 2.5714285373687744
      vertex 1.7142857313156128 -0.25532293319702148 3
    endloop
  endfacet
  facet normal 0 -1 0
    outer loop
      vertex 1.7142857313156128 -0.25532293319702148 2.1428570747375488
      vertex 1.7142857313156128 -0.25532293319702148 2.5714285373687744
      vertex 1.6729999780654907 -0.25532293319702148 2.52349853515625
    endloop
  endfacet
  facet normal 0 -1 0
    outer loop
      vertex 1.7142857313156128 -0.25532293319702148 2.1428570747375488
      vertex 1.6729999780654907 -0.25532293319702148 2.52349853515625
      vertex 1.6729999780654907 -0.25532293319702148 2.2196419239044189
    endloop
  endfacet
  facet normal -0 -1 -0
    outer loop
      vertex 1.7142857313156128 -0.25532293319702148 2.1428570747375488
      vertex 1.7142857313156128 -0.25532293319702148 1.7142857313156128
      vertex 2 -0.25532293319702148 1.7142857313156128
    endloop
  endfacet
  facet normal -0 -1 -0
    outer loop
      vertex 1.7142857313156128 -0.25532293319702148 2.1428570747375488
      vertex 2 -0.25532293319702148 1.7142857313156128
      vertex 2 -0.25532293319702148 2.1428570747375488
    endloop
  endfacet
  facet normal 0 -1 0
    outer loop
      vertex 1.7142857313156128 -0.25532293319702148 1.7142857313156128
      vertex 1.7142857313156128 -0.25532293319702148 2.1428570747375488
      vertex 1.6729999780654907 -0.25532293319702148 1.9157850742340088
    endloop
  endfacet
  facet normal 0 -1 0
    outer loop
      vertex 2 -0.25532293319702148 2.1428570747375488
      vertex 2 -0.25532293319702148 2.5714285373687744
      vertex 1.7142857313156128 -0.25532293319702148 2.5714285373687744
    endloop
  endfacet
  facet normal 0 -1 0
    outer loop
      vertex 2 -0.25532293319702148 2.1428570747375488
      vertex 1.7142857313156128 -0.25532293319702148 2.5714285373687744
      vertex 1.7142857313156128 -0.25532293319702148 2.1428570747375488
    endloop
  endfacet
  facet normal -0 -1 0
    outer loop
      vertex 1.7142857313156128 -0.25532293319702148 2.5714285373687744
      vertex 2 -0.25532293319702148 2.5714285373687744
      vertex 1.7142857313156128 -0.25532293319702148 3
    endloop
  endfacet
  facet normal -0 -1 -0
    outer loop
      vertex 1.6729999780654907 -0.25532293319702148 1.9157850742340088
      vertex 1.6729999780654907 -0.25532293319702148 1.6119283437728882
      vertex 1.7142857313156128 -0.25532293319702148 1.7142857313156128
    endloop
  endfacet
  facet normal 0 -0 1
    outer loop
      vertex 2 -0.25532293319702148 3
      vertex 0 -0.25532293319702148 3
      vertex 0 -1 3
    endloop
  endfacet
  facet normal 0 -0 1
    outer loop
      vertex 2 -0.25532293319702148 3
      vertex 0 -1 3
      vertex 2 -1 3
    endloop
  endfacet
  facet normal -1 -0 -0
    outer loop
      vertex 2 -1 3
      vertex 2 -0.25532293319702148 3
      vertex 2 -0.25532293319702148 0
    endloop
  endfacet
  facet normal -1 0 0
    outer loop
      vertex 2 -1 3
      vertex 2 -0.25532293319702148 0
      vertex 2 -1 0
    endloop
  endfacet
  facet normal -1 -0 -0
    outer loop
      vertex 0 -1 3
      vertex 0 -0.25532293319702148 3
      vertex 0 -0.25532293319702148 0
    endloop
  endfacet
  facet normal -1 0 0
    outer loop
      vertex 0 -1 3
      vertex 0 -0.25532293319702148 0
      vertex 0 -1 0
    endloop
  endfacet
  facet normal 0 -1 -0
    outer loop
      vertex 2 -1 3
      vertex 0 -1 3
      vertex 0 -1 0
    endloop
  endfacet
  facet normal -0 -1 0
    outer loop
      vertex 2 -1 3
      vertex 0 -1 0
      vertex 2 -1 0
    endloop
  endfacet
endsolid OBJECT
