solid OBJECT
  facet normal 0 1 -0
    outer loop
      vertex 1.5428363084793091 -0.019999999552965164 2.3231682777404785
      vertex 1.5428363084793091 -0.019999999552965164 1.8373302221298218
      vertex 0.45716372132301331 -0.019999999552965164 1.8373302221298218
    endloop
  endfacet
  facet normal 0 1 0
    outer loop
      vertex 1.5428363084793091 -0.019999999552965164 2.3231682777404785
      vertex 0.45716372132301331 -0.019999999552965164 1.8373302221298218
      vertex 0.45716372132301331 -0.019999999552965164 2.3231682777404785
    endloop
  endfacet
  facet normal -0 1 -0
    outer loop
      vertex 1.5428363084793091 -0.019999999552965164 0.59666520357131958
      vertex 0.45716372132301331 -0.019999999552965164 0.59666520357131958
      vertex 0.45716372132301331 -0.019999999552965164 1.6825031042098999
    endloop
  endfacet
  facet normal 0 1 0
    outer loop
      vertex 1.5428363084793091 -0.019999999552965164 0.59666520357131958
      vertex 0.45716372132301331 -0.019999999552965164 1.6825031042098999
      vertex 1.5428363084793091 -0.019999999552965164 1.6825031042098999
    endloop
  endfacet
endsolid OBJECT
