# Wavefront OBJ file written 2025-10-21T19:16:22
o atmosphere_outlet_edgeMesh

# points : 56
# lines  : 63

# <points count="56">
v 0 -1 3
v 2 -1 3
v 0 -1 0
v 2 -1 0
v 0 -0.255323 3
v 0 -0.255323 0
v 2 -0.255323 3
v 2 -0.255323 0
v 0.327 -0.255323 0.396501
v 0.327 -0.255323 2.5235
v 1.673 -0.255323 0.396501
v 1.673 -0.255323 2.5235
v 0 -0.255323 0.428571
v 0.285714 -0.255323 0
v 0.285714 -0.255323 3
v 0 -0.255323 2.57143
v 1.71429 -0.255323 0
v 2 -0.255323 0.428571
v 2 -0.255323 2.57143
v 1.71429 -0.255323 3
v 0.571429 -0.255323 0
v 0.5962 -0.255323 0.396501
v 0 -0.255323 0.857143
v 0.327 -0.255323 0.700358
v 0 -0.255323 1.28571
v 0.327 -0.255323 1.00421
v 0.327 -0.255323 1.30807
v 0.327 -0.255323 1.61193
v 0.857143 -0.255323 0
v 0.8654 -0.255323 0.396501
v 1.14286 -0.255323 0
v 1.1346 -0.255323 0.396501
v 0 -0.255323 1.71429
v 0 -0.255323 2.14286
v 0.327 -0.255323 1.91579
v 0.327 -0.255323 2.21964
v 0.571429 -0.255323 3
v 0.5962 -0.255323 2.5235
v 0.8654 -0.255323 2.5235
v 0.857143 -0.255323 3
v 1.14286 -0.255323 3
v 1.1346 -0.255323 2.5235
v 1.4038 -0.255323 0.396501
v 1.42857 -0.255323 0
v 1.673 -0.255323 1.00421
v 1.673 -0.255323 0.700358
v 2 -0.255323 0.857143
v 2 -0.255323 1.28571
v 1.673 -0.255323 1.61193
v 1.673 -0.255323 1.30807
v 2 -0.255323 1.71429
v 1.4038 -0.255323 2.5235
v 1.673 -0.255323 2.21964
v 1.673 -0.255323 1.91579
v 1.42857 -0.255323 3
v 2 -0.255323 2.14286
# </points>

# <edges count="63">
l 1 3
l 2 1
l 4 2
l 1 5
l 2 7
l 3 4
l 5 6
l 6 3
l 7 8
l 8 4
l 7 5
l 13 6
l 6 14
l 15 5
l 5 16
l 17 8
l 8 18
l 19 7
l 7 20
l 14 21
l 22 9
l 23 13
l 9 24
l 25 23
l 26 27
l 27 28
l 21 29
l 30 22
l 29 31
l 32 30
l 24 26
l 33 25
l 34 33
l 35 36
l 28 35
l 16 34
l 37 15
l 36 10
l 38 39
l 10 38
l 40 37
l 41 40
l 39 42
l 43 32
l 31 44
l 11 43
l 44 17
l 45 46
l 46 11
l 47 48
l 18 47
l 49 50
l 48 51
l 50 45
l 42 52
l 53 54
l 52 12
l 55 41
l 20 55
l 12 53
l 51 56
l 56 19
l 54 49
# </edges>
