# Wavefront OBJ file written 2025-10-21T18:17:53
o walls_edgeMesh

# points : 58
# lines  : 67

# <points count="58">
v 2 1 0.1
v 0 1 0.1
v 0 1 3
v 2 1 3
v 2 1 0
v 0 1 0
v 0 0 0
v 2 0 0
v 0 0 3
v 2 0 3
v 0.272 -2.9287e-13 2.5235
v 0.272 -2.92877e-13 0.396501
v 1.728 -2.9287e-13 2.5235
v 1.728 -2.9287e-13 0.396501
v 0.285714 0 3
v 0 0 2.57143
v 0.272 -2.92871e-13 2.21964
v 0 0 2.14286
v 0 0 1.71429
v 0.272 -2.92872e-13 1.91579
v 0.272 -2.92873e-13 1.61193
v 0.571429 0 3
v 0.857143 0 3
v 0.8544 -2.9287e-13 2.5235
v 0.5632 -2.9287e-13 2.5235
v 1.14286 0 3
v 0.272 -2.92874e-13 1.30807
v 0 0 1.28571
v 0.272 -2.92875e-13 1.00421
v 0 0 0.857143
v 0 0 0.428571
v 0.272 -2.92876e-13 0.700358
v 0.5632 -2.92875e-13 0.396501
v 0.571429 0 0
v 0.285714 0 0
v 0.857143 0 0
v 0.8544 -2.92874e-13 0.396501
v 1.14286 0 0
v 1.1456 -2.92873e-13 0.396501
v 1.1456 -2.9287e-13 2.5235
v 1.42857 0 3
v 1.71429 0 3
v 1.4368 -2.9287e-13 2.5235
v 2 0 2.57143
v 1.728 -2.9287e-13 2.21964
v 2 0 2.14286
v 2 0 1.71429
v 1.728 -2.9287e-13 1.91579
v 1.728 -2.9287e-13 1.30807
v 1.728 -2.9287e-13 1.61193
v 2 0 1.28571
v 1.42857 0 0
v 1.4368 -2.92871e-13 0.396501
v 1.71429 0 0
v 1.728 -2.9287e-13 1.00421
v 2 0 0.857143
v 1.728 -2.9287e-13 0.700358
v 2 0 0.428571
# </points>

# <edges count="67">
l 3 4
l 3 9
l 10 4
l 6 7
l 8 5
l 1 2
l 2 3
l 4 1
l 5 6
l 7 8
l 9 10
l 6 3
l 9 7
l 5 4
l 10 8
l 9 15
l 16 9
l 11 17
l 18 16
l 19 18
l 17 20
l 20 21
l 15 22
l 22 23
l 24 25
l 25 11
l 23 26
l 21 27
l 28 19
l 27 29
l 30 28
l 31 30
l 32 12
l 29 32
l 7 31
l 12 33
l 34 35
l 36 34
l 33 37
l 38 36
l 37 39
l 35 7
l 40 24
l 26 41
l 41 42
l 43 40
l 13 43
l 10 44
l 42 10
l 45 13
l 44 46
l 46 47
l 48 45
l 49 50
l 47 51
l 52 38
l 39 53
l 54 52
l 53 14
l 55 49
l 51 56
l 57 55
l 14 57
l 58 8
l 56 58
l 8 54
l 50 48
# </edges>
