# Wavefront OBJ file written 2025-10-21T18:17:53
o window_edgeMesh

# points : 802
# lines  : 866

# <points count="802">
v 1.728 -0.047998 0.396501
v 1.728 -0.047998 2.5235
v 1.728 -2.9287e-13 0.396501
v 1.728 -2.92877e-13 2.5235
v 1.673 -0.255323 0.396501
v 1.673 -0.198825 0.396501
v 1.673 -0.198825 2.5235
v 1.673 -0.255323 2.5235
v 0.425665 0.00849965 0.396501
v 0.425665 0.00849965 0.565166
v 1.57433 0.00849965 0.565166
v 1.57433 0.00849965 0.396501
v 0.425665 -0.304156 0.565166
v 1.57433 -0.304156 0.565166
v 0.425665 -0.304156 0.396501
v 1.57433 -0.304156 0.396501
v 0.425665 0.00849965 2.35483
v 0.425665 0.00849965 2.5235
v 0.425665 -0.304156 2.35483
v 1.57433 -0.304156 2.35483
v 1.57433 0.00849965 2.35483
v 1.57433 0.00849965 2.5235
v 0.425665 -0.304156 2.5235
v 1.57433 -0.304156 2.5235
v 0.272 -0.047998 0.396501
v 0.272 -0.047998 2.5235
v 0.272 -2.9287e-13 0.396501
v 0.272 -2.92877e-13 2.5235
v 0.327 -0.255323 0.396501
v 0.327 -0.255323 2.5235
v 0.327 -0.198825 0.396501
v 0.327 -0.198825 2.5235
v 0.467663 -0.205992 0.565166
v 1.53234 -0.205992 0.565166
v 0.467663 -0.255156 0.565166
v 1.53234 -0.255156 0.565166
v 0.457164 -0.0413317 0.565166
v 1.54284 -0.0413317 0.565166
v 0.425665 -0.198825 0.565166
v 1.57433 -0.198825 0.565166
v 0.425665 -0.0414983 0.565166
v 1.57433 -0.0414983 0.565166
v 0.425665 -0.198825 1.686
v 1.57433 -0.198825 1.686
v 0.425665 -0.198825 1.86116
v 1.57433 -0.198825 1.86116
v 0.467663 -0.205992 2.35483
v 1.53234 -0.205992 2.35483
v 0.467663 -0.255156 2.35483
v 1.53234 -0.255156 2.35483
v 0.425665 -0.0414983 2.35483
v 0.457164 -0.0413317 2.35483
v 0.425665 -0.198825 2.35483
v 1.54284 -0.0413317 2.35483
v 1.57433 -0.0414983 2.35483
v 1.57433 -0.198825 2.35483
v 1.615 -0.047998 0.396501
v 1.615 -0.047998 2.5235
v 1.615 -0.198825 0.396501
v 1.615 -0.198825 2.5235
v 0.467663 -0.205992 0.659663
v 1.53234 -0.205992 0.659663
v 0.467663 -0.255156 0.659663
v 1.53234 -0.255156 0.659663
v 0.457164 1.64481e-15 0.596665
v 0.457164 -0.0413317 0.596665
v 1.54284 -0.0413317 0.596665
v 1.54284 -2.84573e-13 0.596665
v 0.425665 -2.92865e-13 0.396501
v 0.425665 3.55271e-15 0.565166
v 1.57433 -2.92877e-13 0.565166
v 0.467663 -0.198825 0.565166
v 1.53234 -0.198825 0.565166
v 0.457164 -0.0414983 0.565166
v 1.54284 -0.0414983 0.565166
v 0.425665 -0.255323 0.565166
v 1.57433 -0.255323 0.565166
v 0.467663 -0.255323 0.565166
v 1.53234 -0.255323 0.565166
v 1.57433 -2.9287e-13 0.396501
v 0.457164 -0.0413317 1.6825
v 0.457164 -6.41254e-14 1.6825
v 1.54284 -2.86427e-13 1.6825
v 1.54284 -0.0413317 1.6825
v 0.457164 -7.38515e-14 1.83733
v 0.457164 -0.0413317 1.83733
v 1.54284 -0.0413317 1.83733
v 1.54284 -2.92877e-13 1.83733
v 0.425665 -0.177826 1.686
v 0.467663 -0.198825 1.686
v 1.57433 -0.177826 1.686
v 1.53234 -0.198825 1.686
v 0.467663 -0.228991 1.686
v 1.53234 -0.228991 1.686
v 0.425665 -0.177826 1.86116
v 1.57433 -0.177826 1.86116
v 0.467663 -0.228991 1.86116
v 0.467663 -0.198825 1.86116
v 1.53234 -0.228991 1.86116
v 1.53234 -0.198825 1.86116
v 0.467663 -0.205992 2.26417
v 1.53234 -0.205992 2.26417
v 0.467663 -0.255156 2.26417
v 1.53234 -0.255156 2.26417
v 0.425665 0 2.35483
v 0.425665 -2.92877e-13 2.5235
v 0.467663 -0.255323 2.35483
v 0.425665 -0.255323 2.35483
v 1.53234 -0.255323 2.35483
v 1.57433 -0.255323 2.35483
v 0.457164 -0.0414983 2.35483
v 1.54284 -0.0414983 2.35483
v 0.467663 -0.198825 2.35483
v 1.53234 -0.198825 2.35483
v 1.57433 -2.92877e-13 2.35483
v 1.57433 -2.92877e-13 2.5235
v 0.457164 -0.0413317 2.32317
v 0.457164 0 2.32317
v 1.54284 -2.84619e-13 2.32317
v 1.54284 -0.0413317 2.32317
v 0.385 -0.047998 0.396501
v 0.385 -0.047998 2.5235
v 0.385 -0.198825 0.396501
v 0.385 -0.198825 2.5235
v 0.425665 -0.255323 0.396501
v 0.425665 -0.255323 2.5235
v 1.57433 -0.255323 0.396501
v 1.57433 -0.255323 2.5235
v 1.728 -0.047998 0.589865
v 1.728 -0.047998 0.783228
v 1.728 -0.047998 0.976592
v 1.728 -0.047998 1.16995
v 1.728 -0.047998 1.36332
v 1.728 -0.047998 1.55668
v 1.728 -0.047998 1.75005
v 1.728 -0.047998 1.94341
v 1.728 -0.047998 2.13677
v 1.728 -0.047998 2.33014
v 1.728 -2.9287e-13 0.529439
v 1.728 -2.92871e-13 0.662376
v 1.728 -2.92871e-13 0.795313
v 1.728 -2.92872e-13 0.928251
v 1.728 -2.92872e-13 1.06119
v 1.728 -2.92872e-13 1.19413
v 1.728 -2.92873e-13 1.32706
v 1.728 -2.92873e-13 1.46
v 1.728 -2.92874e-13 1.59294
v 1.728 -2.92874e-13 1.72587
v 1.728 -2.92875e-13 1.85881
v 1.728 -2.92875e-13 1.99175
v 1.728 -2.92876e-13 2.12469
v 1.728 -2.92876e-13 2.25762
v 1.728 -2.92876e-13 2.39056
v 1.673 -0.255323 0.609201
v 1.673 -0.198825 0.609201
v 1.673 -0.255323 1.0346
v 1.673 -0.255323 0.821901
v 1.673 -0.198825 0.821901
v 1.673 -0.198825 1.0346
v 1.673 -0.255323 1.2473
v 1.673 -0.198825 1.2473
v 1.673 -0.255323 1.6727
v 1.673 -0.255323 1.46
v 1.673 -0.198825 1.46
v 1.673 -0.198825 1.6727
v 1.673 -0.255323 1.8854
v 1.673 -0.198825 1.8854
v 1.673 -0.255323 2.3108
v 1.673 -0.255323 2.0981
v 1.673 -0.198825 2.0981
v 1.673 -0.198825 2.3108
v 0.645109 -0.205992 0.659663
v 0.822554 -0.205992 0.659663
v 1 -0.205992 0.659663
v 1.17745 -0.205992 0.659663
v 1.35489 -0.205992 0.659663
v 0.645109 -0.255156 0.659663
v 0.822554 -0.255156 0.659663
v 1 -0.255156 0.659663
v 1.17745 -0.255156 0.659663
v 1.35489 -0.255156 0.659663
v 0.577794 -3.01571e-14 0.596665
v 0.592873 -0.0413317 0.596665
v 0.819055 -9.37611e-14 0.596665
v 0.698424 -6.19591e-14 0.596665
v 0.728582 -0.0413317 0.596665
v 0.864291 -0.0413317 0.596665
v 1.18095 -1.89167e-13 0.596665
v 1.06032 -1.57365e-13 0.596665
v 1 -0.0413317 0.596665
v 1.13571 -0.0413317 0.596665
v 1.42221 -2.52771e-13 0.596665
v 1.30158 -2.20969e-13 0.596665
v 1.27142 -0.0413317 0.596665
v 1.40713 -0.0413317 0.596665
v 0.939685 -1.25563e-13 0.596665
v 0.425665 0.00849965 0.424612
v 0.425665 0.00849965 0.452723
v 0.425665 0.00849965 0.508945
v 0.425665 0.00849965 0.480834
v 0.425665 0.00849965 0.537056
v 0.462719 0.00849965 0.565166
v 0.499773 0.00849965 0.565166
v 0.536827 0.00849965 0.565166
v 0.57388 0.00849965 0.565166
v 0.610934 0.00849965 0.565166
v 0.647988 0.00849965 0.565166
v 0.685042 0.00849965 0.565166
v 0.722096 0.00849965 0.565166
v 0.75915 0.00849965 0.565166
v 0.796204 0.00849965 0.565166
v 0.833258 0.00849965 0.565166
v 0.870311 0.00849965 0.565166
v 0.907365 0.00849965 0.565166
v 0.944419 0.00849965 0.565166
v 0.981473 0.00849965 0.565166
v 1.01853 0.00849965 0.565166
v 1.05558 0.00849965 0.565166
v 1.09263 0.00849965 0.565166
v 1.16674 0.00849965 0.565166
v 1.2038 0.00849965 0.565166
v 1.24085 0.00849965 0.565166
v 1.2779 0.00849965 0.565166
v 1.31496 0.00849965 0.565166
v 1.12969 0.00849965 0.565166
v 1.38907 0.00849965 0.565166
v 1.42612 0.00849965 0.565166
v 1.35201 0.00849965 0.565166
v 1.46317 0.00849965 0.565166
v 1.50023 0.00849965 0.565166
v 1.53728 0.00849965 0.565166
v 1.57433 0.00849965 0.537056
v 0.885133 0.00849965 0.396501
v 0.655399 0.00849965 0.396501
v 1.11487 0.00849965 0.396501
v 1.57433 0.00849965 0.508945
v 1.57433 0.00849965 0.480834
v 1.57433 0.00849965 0.452723
v 1.3446 0.00849965 0.396501
v 1.57433 0.00849965 0.424612
v 0.61711 -0.304156 0.565166
v 0.808555 -0.304156 0.565166
v 1 -0.304156 0.565166
v 1.19144 -0.304156 0.565166
v 1.38289 -0.304156 0.565166
v 0.425665 -0.304156 0.480834
v 0.655399 -0.304156 0.396501
v 0.885133 -0.304156 0.396501
v 1.11487 -0.304156 0.396501
v 1.57433 -0.304156 0.480834
v 1.3446 -0.304156 0.396501
v 0.61226 -0.0413317 1.6825
v 0.577794 -8.88256e-14 1.6825
v 0.698424 -1.13526e-13 1.6825
v 0.819055 -1.38226e-13 1.6825
v 1.07755 -0.0413317 1.6825
v 0.922452 -0.0413317 1.6825
v 0.939685 -1.62926e-13 1.6825
v 1.06032 -1.87626e-13 1.6825
v 1.18095 -2.12327e-13 1.6825
v 1.30158 -2.37027e-13 1.6825
v 1.42221 -2.61727e-13 1.6825
v 1.23264 -0.0413317 1.6825
v 0.767356 -0.0413317 1.6825
v 1.38774 -0.0413317 1.6825
v 0.577794 -9.81877e-14 1.83733
v 0.61226 -0.0413317 1.83733
v 0.939685 -1.71196e-13 1.83733
v 0.819055 -1.4686e-13 1.83733
v 0.767356 -0.0413317 1.83733
v 0.922452 -0.0413317 1.83733
v 0.698424 -1.22524e-13 1.83733
v 1.06032 -1.95532e-13 1.83733
v 1.07755 -0.0413317 1.83733
v 1.42221 -2.68541e-13 1.83733
v 1.30158 -2.44205e-13 1.83733
v 1.23264 -0.0413317 1.83733
v 1.38774 -0.0413317 1.83733
v 1.18095 -2.19868e-13 1.83733
v 0.61711 -0.177826 1.686
v 0.808555 -0.177826 1.686
v 1 -0.177826 1.686
v 1.19144 -0.177826 1.686
v 1.38289 -0.177826 1.686
v 0.680598 -0.228991 1.686
v 0.893533 -0.228991 1.686
v 1.10647 -0.228991 1.686
v 1.3194 -0.228991 1.686
v 0.61711 -0.177826 1.86116
v 0.808555 -0.177826 1.86116
v 1 -0.177826 1.86116
v 1.19144 -0.177826 1.86116
v 1.38289 -0.177826 1.86116
v 0.680598 -0.228991 1.86116
v 0.893533 -0.228991 1.86116
v 1.10647 -0.228991 1.86116
v 1.3194 -0.228991 1.86116
v 0.645109 -0.205992 2.26417
v 0.822554 -0.205992 2.26417
v 1 -0.255156 2.26417
v 0.822554 -0.255156 2.26417
v 1 -0.205992 2.26417
v 1.17745 -0.205992 2.26417
v 1.35489 -0.205992 2.26417
v 1.17745 -0.255156 2.26417
v 0.645109 -0.255156 2.26417
v 1.35489 -0.255156 2.26417
v 0.425665 0.00849965 2.38294
v 0.425665 0.00849965 2.41106
v 0.425665 0.00849965 2.46728
v 0.425665 0.00849965 2.43917
v 0.425665 0.00849965 2.49539
v 0.61711 -0.304156 2.35483
v 1 -0.304156 2.35483
v 0.808555 -0.304156 2.35483
v 1.19144 -0.304156 2.35483
v 1.38289 -0.304156 2.35483
v 0.462719 0.00849965 2.35483
v 0.499773 0.00849965 2.35483
v 0.536827 0.00849965 2.35483
v 0.57388 0.00849965 2.35483
v 0.610934 0.00849965 2.35483
v 0.647988 0.00849965 2.35483
v 0.685042 0.00849965 2.35483
v 0.722096 0.00849965 2.35483
v 0.75915 0.00849965 2.35483
v 0.796204 0.00849965 2.35483
v 0.833258 0.00849965 2.35483
v 0.870311 0.00849965 2.35483
v 0.907365 0.00849965 2.35483
v 0.944419 0.00849965 2.35483
v 0.981473 0.00849965 2.35483
v 1.01853 0.00849965 2.35483
v 1.05558 0.00849965 2.35483
v 1.09263 0.00849965 2.35483
v 1.12969 0.00849965 2.35483
v 1.16674 0.00849965 2.35483
v 1.2038 0.00849965 2.35483
v 1.24085 0.00849965 2.35483
v 1.2779 0.00849965 2.35483
v 1.31496 0.00849965 2.35483
v 1.35201 0.00849965 2.35483
v 1.38907 0.00849965 2.35483
v 1.42612 0.00849965 2.35483
v 1.46317 0.00849965 2.35483
v 1.50023 0.00849965 2.35483
v 1.53728 0.00849965 2.35483
v 0.655399 0.00849965 2.5235
v 0.885133 0.00849965 2.5235
v 1.11487 0.00849965 2.5235
v 1.3446 0.00849965 2.5235
v 1.57433 0.00849965 2.49539
v 1.57433 0.00849965 2.46728
v 1.57433 0.00849965 2.43917
v 1.57433 0.00849965 2.41106
v 1.57433 0.00849965 2.38294
v 0.425665 -0.304156 2.43917
v 1.57433 -0.304156 2.43917
v 0.655399 -0.304156 2.5235
v 0.885133 -0.304156 2.5235
v 1.11487 -0.304156 2.5235
v 1.3446 -0.304156 2.5235
v 0.592873 -0.0413317 2.32317
v 0.577794 -3.16244e-14 2.32317
v 0.864291 -0.0413317 2.32317
v 0.728582 -0.0413317 2.32317
v 0.698424 -6.32487e-14 2.32317
v 0.819055 -9.48731e-14 2.32317
v 0.939685 -1.26497e-13 2.32317
v 1.06032 -1.58122e-13 2.32317
v 1.27142 -0.0413317 2.32317
v 1.13571 -0.0413317 2.32317
v 1.18095 -1.89746e-13 2.32317
v 1.30158 -2.2137e-13 2.32317
v 1.40713 -0.0413317 2.32317
v 1.42221 -2.52995e-13 2.32317
v 1 -0.0413317 2.32317
v 0.457164 -0.0414983 0.693
v 0.457164 -0.0414983 0.820833
v 0.457164 -0.0414983 0.948667
v 0.457164 -0.0414983 1.0765
v 0.457164 -0.0414983 1.20433
v 0.457164 -0.0414983 1.33217
v 0.457164 -0.0414983 1.46
v 0.457164 -0.0414983 1.58783
v 0.457164 -0.0414983 1.71567
v 0.457164 -0.0414983 1.8435
v 0.457164 -0.0414983 1.97133
v 0.457164 -0.0414983 2.09917
v 0.457164 -0.0414983 2.227
v 0.457164 -1.29708e-14 0.837963
v 0.457164 -2.02786e-14 0.958611
v 0.457164 -2.75864e-14 1.07926
v 0.457164 -3.48942e-14 1.19991
v 0.457164 -4.2202e-14 1.32056
v 0.457164 -4.95098e-14 1.44121
v 0.457164 -5.68176e-14 1.56185
v 0.457164 -5.53887e-14 1.95879
v 0.457164 -3.69258e-14 2.08025
v 0.457164 -5.66299e-15 0.717314
v 0.457164 -1.84629e-14 2.20171
v 0.272 -0.047998 0.589865
v 0.272 -0.047998 0.976592
v 0.272 -0.047998 0.783228
v 0.272 -0.047998 1.36332
v 0.272 -0.047998 1.16995
v 0.272 -0.047998 1.75005
v 0.272 -0.047998 1.55668
v 0.272 -0.047998 1.94341
v 0.272 -0.047998 2.13677
v 0.272 -0.047998 2.33014
v 0.272 -2.9287e-13 0.529439
v 0.272 -2.92871e-13 0.662376
v 0.272 -2.92872e-13 0.928251
v 0.272 -2.92871e-13 0.795313
v 0.272 -2.92872e-13 1.19413
v 0.272 -2.92872e-13 1.06119
v 0.272 -2.92873e-13 1.46
v 0.272 -2.92873e-13 1.32706
v 0.272 -2.92874e-13 1.59294
v 0.272 -2.92875e-13 1.85881
v 0.272 -2.92874e-13 1.72587
v 0.272 -2.92876e-13 2.12469
v 0.272 -2.92875e-13 1.99175
v 0.272 -2.92876e-13 2.39056
v 0.272 -2.92876e-13 2.25762
v 0.327 -0.255323 0.609201
v 0.327 -0.255323 0.821901
v 0.327 -0.255323 1.0346
v 0.327 -0.255323 1.2473
v 0.467663 -0.255323 1.12444
v 0.467663 -0.255323 1.23629
v 0.327 -0.255323 1.46
v 0.467663 -0.255323 1.34815
v 0.467663 -0.255323 1.46
v 0.327 -0.255323 1.8854
v 0.327 -0.255323 1.6727
v 0.467663 -0.255323 1.68371
v 0.467663 -0.255323 1.79556
v 0.327 -0.255323 2.3108
v 0.327 -0.255323 2.0981
v 0.467663 -0.255323 1.57185
v 0.467663 -0.255323 0.677021
v 0.467663 -0.255323 0.788875
v 0.467663 -0.255323 0.900729
v 0.467663 -0.255323 1.01258
v 0.467663 -0.255323 1.90742
v 0.467663 -0.255323 2.01927
v 0.467663 -0.255323 2.24298
v 0.467663 -0.255323 2.13113
v 0.327 -0.198825 0.609201
v 0.327 -0.198825 1.0346
v 0.327 -0.198825 0.821901
v 0.327 -0.198825 1.2473
v 0.327 -0.198825 1.6727
v 0.327 -0.198825 1.46
v 0.327 -0.198825 1.8854
v 0.327 -0.198825 2.3108
v 0.327 -0.198825 2.0981
v 0.467663 -0.198825 1.89202
v 0.467663 -0.198825 1.95373
v 0.467663 -0.198825 1.92287
v 0.467663 -0.198825 1.98458
v 0.467663 -0.198825 2.04629
v 0.467663 -0.198825 2.01543
v 0.467663 -0.198825 2.108
v 0.467663 -0.198825 2.07714
v 0.467663 -0.198825 2.13885
v 0.467663 -0.198825 2.20056
v 0.467663 -0.198825 2.16971
v 0.467663 -0.198825 2.23142
v 0.467663 -0.198825 2.26227
v 0.467663 -0.198825 2.29312
v 0.467663 -0.198825 2.32398
v 0.467663 -0.198825 0.75731
v 0.467663 -0.198825 0.789334
v 0.467663 -0.198825 0.725286
v 0.467663 -0.198825 0.821358
v 0.467663 -0.198825 0.853382
v 0.467663 -0.198825 0.59719
v 0.467663 -0.198825 0.885405
v 0.467663 -0.198825 0.917429
v 0.467663 -0.198825 0.949453
v 0.467663 -0.198825 0.981477
v 0.467663 -0.198825 1.0135
v 0.467663 -0.198825 1.04552
v 0.467663 -0.198825 1.07755
v 0.467663 -0.198825 1.10957
v 0.467663 -0.198825 1.1416
v 0.467663 -0.198825 1.17362
v 0.467663 -0.198825 1.20564
v 0.467663 -0.198825 1.23767
v 0.467663 -0.198825 1.26969
v 0.467663 -0.198825 1.30172
v 0.467663 -0.198825 1.33374
v 0.467663 -0.198825 1.36576
v 0.467663 -0.198825 1.39779
v 0.467663 -0.198825 1.42981
v 0.467663 -0.198825 1.46184
v 0.467663 -0.198825 1.49386
v 0.467663 -0.198825 1.52588
v 0.467663 -0.198825 1.55791
v 0.467663 -0.198825 1.58993
v 0.467663 -0.198825 1.62196
v 0.467663 -0.198825 1.65398
v 0.467663 -0.198825 0.629214
v 0.467663 -0.198825 0.661238
v 0.467663 -0.198825 0.693262
v 1.53234 -0.255323 1.23629
v 1.53234 -0.255323 1.12444
v 1.53234 -0.255323 1.46
v 1.53234 -0.255323 1.34815
v 1.53234 -0.255323 1.79556
v 1.53234 -0.255323 1.68371
v 1.53234 -0.255323 1.57185
v 1.53234 -0.255323 0.677021
v 1.53234 -0.255323 0.788875
v 1.53234 -0.255323 0.900729
v 1.53234 -0.255323 1.01258
v 1.53234 -0.255323 1.90742
v 1.53234 -0.255323 2.01927
v 1.53234 -0.255323 2.24298
v 1.53234 -0.255323 2.13113
v 1.53234 -0.198825 1.89202
v 1.53234 -0.198825 1.92287
v 1.53234 -0.198825 1.95373
v 1.53234 -0.198825 1.98458
v 1.53234 -0.198825 2.01543
v 1.53234 -0.198825 2.04629
v 1.53234 -0.198825 2.07714
v 1.53234 -0.198825 2.108
v 1.53234 -0.198825 2.13885
v 1.53234 -0.198825 2.16971
v 1.53234 -0.198825 2.20056
v 1.53234 -0.198825 2.23142
v 1.53234 -0.198825 2.26227
v 1.53234 -0.198825 2.29312
v 1.53234 -0.198825 2.32398
v 1.53234 -0.198825 0.59719
v 1.53234 -0.198825 0.629214
v 1.53234 -0.198825 0.661238
v 1.53234 -0.198825 0.693262
v 1.53234 -0.198825 0.725286
v 1.53234 -0.198825 0.75731
v 1.53234 -0.198825 0.789334
v 1.53234 -0.198825 0.821358
v 1.53234 -0.198825 0.853382
v 1.53234 -0.198825 0.885405
v 1.53234 -0.198825 0.917429
v 1.53234 -0.198825 0.949453
v 1.53234 -0.198825 0.981477
v 1.53234 -0.198825 1.0135
v 1.53234 -0.198825 1.04552
v 1.53234 -0.198825 1.07755
v 1.53234 -0.198825 1.10957
v 1.53234 -0.198825 1.1416
v 1.53234 -0.198825 1.17362
v 1.53234 -0.198825 1.20564
v 1.53234 -0.198825 1.23767
v 1.53234 -0.198825 1.26969
v 1.53234 -0.198825 1.30172
v 1.53234 -0.198825 1.33374
v 1.53234 -0.198825 1.36576
v 1.53234 -0.198825 1.39779
v 1.53234 -0.198825 1.42981
v 1.53234 -0.198825 1.46184
v 1.53234 -0.198825 1.49386
v 1.53234 -0.198825 1.52588
v 1.53234 -0.198825 1.55791
v 1.53234 -0.198825 1.58993
v 1.53234 -0.198825 1.62196
v 1.53234 -0.198825 1.65398
v 1.54284 -0.0414983 0.693
v 1.54284 -0.0414983 0.820833
v 1.54284 -0.0414983 1.0765
v 1.54284 -0.0414983 0.948667
v 1.54284 -0.0414983 1.33217
v 1.54284 -0.0414983 1.20433
v 1.54284 -0.0414983 1.58783
v 1.54284 -0.0414983 1.46
v 1.54284 -0.0414983 1.8435
v 1.54284 -0.0414983 1.71567
v 1.54284 -0.0414983 2.09917
v 1.54284 -0.0414983 1.97133
v 1.54284 -0.0414983 2.227
v 1.54284 -2.85191e-13 0.958611
v 1.54284 -2.84985e-13 0.837963
v 1.54284 -2.85397e-13 1.07926
v 1.54284 -2.85809e-13 1.32056
v 1.54284 -2.85603e-13 1.19991
v 1.54284 -2.86015e-13 1.44121
v 1.54284 -2.86221e-13 1.56185
v 1.54284 -2.90812e-13 1.95879
v 1.54284 -2.88748e-13 2.08025
v 1.54284 -2.84779e-13 0.717314
v 1.54284 -2.86684e-13 2.20171
v 0.348833 -2.92867e-13 0.396501
v 0.348833 -2.92877e-13 2.5235
v 1.65117 -2.9287e-13 0.396501
v 1.65117 -2.92877e-13 2.5235
v 1.615 -0.047998 1.46
v 1.615 -0.047998 1.1055
v 1.615 -0.047998 1.8145
v 1.615 -0.047998 0.751001
v 1.615 -0.047998 2.169
v 1.615 -0.198825 0.609201
v 1.615 -0.198825 1.0346
v 1.615 -0.198825 0.821901
v 1.615 -0.198825 1.46
v 1.615 -0.198825 1.2473
v 1.615 -0.198825 2.0981
v 1.615 -0.198825 1.8854
v 1.615 -0.198825 2.3108
v 1.615 -0.198825 1.6727
v 0.467663 -0.205992 0.628164
v 1.53234 -0.205992 0.628164
v 0.467663 -0.205992 0.596665
v 0.822554 -0.205992 0.565166
v 1.17745 -0.205992 0.565166
v 1.53234 -0.205992 0.596665
v 0.467663 -0.229157 0.659663
v 0.467663 -0.206158 0.659663
v 1.53234 -0.229157 0.659663
v 1.53234 -0.206158 0.659663
v 0.680598 -0.255156 0.565166
v 0.893533 -0.255156 0.565166
v 1.10647 -0.255156 0.565166
v 1.3194 -0.255156 0.565166
v 0.592873 -0.0413317 0.565166
v 0.728582 -0.0413317 0.565166
v 0.864291 -0.0413317 0.565166
v 1 -0.0413317 0.565166
v 1.13571 -0.0413317 0.565166
v 1.27142 -0.0413317 0.565166
v 1.40713 -0.0413317 0.565166
v 0.425665 -2.43462e-13 0.424612
v 0.425665 -1.94059e-13 0.452723
v 0.425665 -1.44656e-13 0.480834
v 0.425665 -9.52531e-14 0.508945
v 0.425665 -4.58502e-14 0.537056
v 0.462719 -6.00953e-15 0.565166
v 0.499773 -1.55718e-14 0.565166
v 0.536827 -2.5134e-14 0.565166
v 0.57388 -3.46963e-14 0.565166
v 0.610934 -4.42585e-14 0.565166
v 0.647988 -5.38207e-14 0.565166
v 0.685042 -6.3383e-14 0.565166
v 0.722096 -7.29452e-14 0.565166
v 0.75915 -8.25075e-14 0.565166
v 0.796204 -9.20697e-14 0.565166
v 0.833258 -1.01632e-13 0.565166
v 0.870311 -1.11194e-13 0.565166
v 0.907365 -1.20756e-13 0.565166
v 0.944419 -1.30319e-13 0.565166
v 0.981473 -1.39881e-13 0.565166
v 1.01853 -1.49443e-13 0.565166
v 1.05558 -1.59005e-13 0.565166
v 1.09263 -1.68568e-13 0.565166
v 1.12969 -1.7813e-13 0.565166
v 1.16674 -1.87692e-13 0.565166
v 1.2038 -1.97254e-13 0.565166
v 1.24085 -2.06817e-13 0.565166
v 1.2779 -2.16379e-13 0.565166
v 1.31496 -2.25941e-13 0.565166
v 1.35201 -2.35503e-13 0.565166
v 1.38907 -2.45066e-13 0.565166
v 1.42612 -2.54628e-13 0.565166
v 1.46317 -2.6419e-13 0.565166
v 1.50023 -2.73752e-13 0.565166
v 1.53728 -2.83315e-13 0.565166
v 1.57433 -2.92871e-13 0.424612
v 1.57433 -2.92872e-13 0.452723
v 1.57433 -2.92875e-13 0.508945
v 1.57433 -2.92873e-13 0.480834
v 1.57433 -2.92876e-13 0.537056
v 0.467663 -0.206158 1.686
v 1.53234 -0.206158 1.686
v 0.467663 -0.206158 1.86116
v 1.53234 -0.206158 1.86116
v 0.467663 -0.228991 1.77358
v 1.53234 -0.228991 1.77358
v 0.467663 -0.206158 2.26417
v 0.467663 -0.229157 2.26417
v 1.53234 -0.206158 2.26417
v 1.53234 -0.229157 2.26417
v 0.467663 -0.205992 2.32461
v 0.822554 -0.205992 2.35483
v 0.467663 -0.205992 2.29439
v 1.17745 -0.205992 2.35483
v 1.53234 -0.205992 2.32461
v 1.53234 -0.205992 2.29439
v 0.680598 -0.255156 2.35483
v 0.893533 -0.255156 2.35483
v 1.3194 -0.255156 2.35483
v 1.10647 -0.255156 2.35483
v 0.425665 -4.88128e-14 2.38294
v 0.425665 -9.76256e-14 2.41106
v 0.425665 -1.46438e-13 2.43917
v 0.425665 -1.95251e-13 2.46728
v 0.425665 -2.44064e-13 2.49539
v 0.592873 -0.0413317 2.35483
v 0.728582 -0.0413317 2.35483
v 0.864291 -0.0413317 2.35483
v 1 -0.0413317 2.35483
v 1.13571 -0.0413317 2.35483
v 1.27142 -0.0413317 2.35483
v 1.40713 -0.0413317 2.35483
v 0.462719 -9.44764e-15 2.35483
v 0.536827 -2.83429e-14 2.35483
v 0.499773 -1.88953e-14 2.35483
v 0.610934 -4.72382e-14 2.35483
v 0.57388 -3.77906e-14 2.35483
v 0.685042 -6.61335e-14 2.35483
v 0.647988 -5.66858e-14 2.35483
v 0.75915 -8.50288e-14 2.35483
v 0.722096 -7.55811e-14 2.35483
v 0.833258 -1.03924e-13 2.35483
v 0.796204 -9.44764e-14 2.35483
v 0.907365 -1.22819e-13 2.35483
v 0.870311 -1.13372e-13 2.35483
v 0.981473 -1.41715e-13 2.35483
v 0.944419 -1.32267e-13 2.35483
v 1.05558 -1.6061e-13 2.35483
v 1.01853 -1.51162e-13 2.35483
v 1.12969 -1.79505e-13 2.35483
v 1.09263 -1.70058e-13 2.35483
v 1.2038 -1.984e-13 2.35483
v 1.16674 -1.88953e-13 2.35483
v 1.2779 -2.17296e-13 2.35483
v 1.24085 -2.07848e-13 2.35483
v 1.35201 -2.36191e-13 2.35483
v 1.31496 -2.26743e-13 2.35483
v 1.42612 -2.55086e-13 2.35483
v 1.38907 -2.45639e-13 2.35483
v 1.50023 -2.73982e-13 2.35483
v 1.46317 -2.64534e-13 2.35483
v 1.53728 -2.83429e-13 2.35483
v 1.57433 -2.92877e-13 2.38294
v 1.57433 -2.92877e-13 2.41106
v 1.57433 -2.92877e-13 2.46728
v 1.57433 -2.92877e-13 2.43917
v 1.57433 -2.92877e-13 2.49539
v 0.425665 -0.0414983 0.693
v 0.425665 -0.0414983 0.820833
v 0.425665 -0.0414983 1.0765
v 0.425665 -0.0414983 0.948667
v 0.425665 -0.0414983 1.33217
v 0.425665 -0.0414983 1.20433
v 0.425665 -0.0414983 1.58783
v 0.425665 -0.0414983 1.46
v 0.425665 -0.0414983 1.8435
v 0.425665 -0.0414983 1.71567
v 0.425665 -0.0414983 2.09917
v 0.425665 -0.0414983 1.97133
v 0.425665 -0.0414983 2.227
v 0.385 -0.047998 1.1055
v 0.385 -0.047998 1.46
v 0.385 -0.047998 1.8145
v 0.385 -0.047998 0.751001
v 0.385 -0.047998 2.169
v 0.385 -0.198825 0.609201
v 0.385 -0.198825 0.821901
v 0.385 -0.198825 1.0346
v 0.385 -0.198825 1.2473
v 0.385 -0.198825 1.46
v 0.385 -0.198825 1.8854
v 0.385 -0.198825 2.0981
v 0.385 -0.198825 2.3108
v 0.385 -0.198825 1.6727
v 0.425665 -0.255323 0.480834
v 0.425665 -0.255323 2.43917
v 0.425665 -0.198825 2.02572
v 0.425665 -0.198825 2.19028
v 0.425665 -0.198825 0.725286
v 0.425665 -0.198825 0.885405
v 0.425665 -0.198825 1.04552
v 0.425665 -0.198825 1.20564
v 0.425665 -0.198825 1.36576
v 0.425665 -0.198825 1.52588
v 1.57433 -0.255323 0.480834
v 1.57433 -0.255323 2.43917
v 1.57433 -0.198825 2.19028
v 1.57433 -0.198825 2.02572
v 1.57433 -0.198825 0.885405
v 1.57433 -0.198825 0.725286
v 1.57433 -0.198825 1.04552
v 1.57433 -0.198825 1.36576
v 1.57433 -0.198825 1.20564
v 1.57433 -0.198825 1.52588
v 1.57433 -0.0414983 0.693
v 1.57433 -0.0414983 0.820833
v 1.57433 -0.0414983 0.948667
v 1.57433 -0.0414983 1.0765
v 1.57433 -0.0414983 1.20433
v 1.57433 -0.0414983 1.33217
v 1.57433 -0.0414983 1.46
v 1.57433 -0.0414983 1.58783
v 1.57433 -0.0414983 1.71567
v 1.57433 -0.0414983 1.8435
v 1.57433 -0.0414983 1.97133
v 1.57433 -0.0414983 2.09917
v 1.57433 -0.0414983 2.227
# </points>

# <edges count="866">
l 1 129
l 57 1
l 130 131
l 129 130
l 132 133
l 134 135
l 135 136
l 133 134
l 131 132
l 136 137
l 137 138
l 138 2
l 2 58
l 3 139
l 1 3
l 139 140
l 141 142
l 143 144
l 142 143
l 140 141
l 145 146
l 146 147
l 148 149
l 150 151
l 149 150
l 147 148
l 144 145
l 152 153
l 4 2
l 153 4
l 151 152
l 59 57
l 58 60
l 154 5
l 6 155
l 5 6
l 156 157
l 158 159
l 160 156
l 159 161
l 157 154
l 155 158
l 162 163
l 164 165
l 166 162
l 165 167
l 168 169
l 170 171
l 8 168
l 7 8
l 171 7
l 169 166
l 167 170
l 163 160
l 161 164
l 6 59
l 60 7
l 61 172
l 172 173
l 173 174
l 175 176
l 176 62
l 174 175
l 63 177
l 177 178
l 178 179
l 180 181
l 181 64
l 179 180
l 182 65
l 66 183
l 184 185
l 186 187
l 185 182
l 183 186
l 188 189
l 190 191
l 192 193
l 194 195
l 68 192
l 195 67
l 193 188
l 191 194
l 196 184
l 187 190
l 189 196
l 197 9
l 9 69
l 198 197
l 199 200
l 10 201
l 70 10
l 201 199
l 200 198
l 10 202
l 203 204
l 204 205
l 202 203
l 206 207
l 208 209
l 209 210
l 207 208
l 205 206
l 211 212
l 213 214
l 212 213
l 214 215
l 210 211
l 215 216
l 217 218
l 218 219
l 216 217
l 220 221
l 222 223
l 223 224
l 221 222
l 219 225
l 226 227
l 228 226
l 227 229
l 224 228
l 229 230
l 230 231
l 231 11
l 11 232
l 225 220
l 233 234
l 234 9
l 235 233
l 232 236
l 236 237
l 237 238
l 239 235
l 12 239
l 238 240
l 240 12
l 71 11
l 13 241
l 241 242
l 76 13
l 242 243
l 243 244
l 244 245
l 245 14
l 14 77
l 246 15
l 15 247
l 247 248
l 248 249
l 16 250
l 251 16
l 249 251
l 250 14
l 13 246
l 80 12
l 252 81
l 82 253
l 254 255
l 253 254
l 256 257
l 258 259
l 260 261
l 261 262
l 263 256
l 259 260
l 257 264
l 255 258
l 264 252
l 265 263
l 262 83
l 84 265
l 266 85
l 86 267
l 268 269
l 270 271
l 272 266
l 267 270
l 273 268
l 271 274
l 275 276
l 277 278
l 88 275
l 278 87
l 279 273
l 274 277
l 269 272
l 276 279
l 280 281
l 89 280
l 281 282
l 282 283
l 283 284
l 284 91
l 285 93
l 286 285
l 287 286
l 288 287
l 94 288
l 95 289
l 289 290
l 291 292
l 293 96
l 292 293
l 290 291
l 294 295
l 97 294
l 295 296
l 296 297
l 297 99
l 298 299
l 101 298
l 300 301
l 299 302
l 303 304
l 304 102
l 305 300
l 302 303
l 306 103
l 301 306
l 307 305
l 104 307
l 308 17
l 17 105
l 309 308
l 310 311
l 18 312
l 106 18
l 312 310
l 311 309
l 313 19
l 314 315
l 316 314
l 315 313
l 19 108
l 317 316
l 20 317
l 110 20
l 17 318
l 319 320
l 318 319
l 321 322
l 323 324
l 322 323
l 320 321
l 325 326
l 327 328
l 326 327
l 329 330
l 331 332
l 330 331
l 328 329
l 324 325
l 333 334
l 335 336
l 334 335
l 337 338
l 339 340
l 338 339
l 336 337
l 341 342
l 343 344
l 342 343
l 345 346
l 21 115
l 347 21
l 346 347
l 344 345
l 340 341
l 332 333
l 18 348
l 348 349
l 350 351
l 351 22
l 349 350
l 22 352
l 352 353
l 353 354
l 354 355
l 355 356
l 356 21
l 357 19
l 20 358
l 23 357
l 359 23
l 360 359
l 361 360
l 362 361
l 358 24
l 24 362
l 22 116
l 363 117
l 118 364
l 365 366
l 367 368
l 366 363
l 364 367
l 369 370
l 371 372
l 373 374
l 375 371
l 374 376
l 370 373
l 377 365
l 368 369
l 372 377
l 376 119
l 120 375
l 74 378
l 378 379
l 380 381
l 382 383
l 381 382
l 379 380
l 384 385
l 386 387
l 385 386
l 388 389
l 390 111
l 389 390
l 387 388
l 383 384
l 391 392
l 392 393
l 394 395
l 393 394
l 395 396
l 396 397
l 85 398
l 398 399
l 65 400
l 400 391
l 397 82
l 399 401
l 401 118
l 402 25
l 25 121
l 403 404
l 404 402
l 405 406
l 407 408
l 409 407
l 408 405
l 406 403
l 410 409
l 411 410
l 26 411
l 122 26
l 412 27
l 27 25
l 413 412
l 414 415
l 416 417
l 417 414
l 415 413
l 418 419
l 420 418
l 421 422
l 423 424
l 424 421
l 422 420
l 419 416
l 425 426
l 28 425
l 26 28
l 426 423
l 121 123
l 124 122
l 427 29
l 428 427
l 429 428
l 430 429
l 431 432
l 29 125
l 433 430
l 434 435
l 436 437
l 438 439
l 440 441
l 30 440
l 441 436
l 437 433
l 435 442
l 126 30
l 78 443
l 443 444
l 444 445
l 445 446
l 432 434
l 446 431
l 442 438
l 439 447
l 447 448
l 449 107
l 450 449
l 448 450
l 451 31
l 31 29
l 452 453
l 454 452
l 453 451
l 455 456
l 457 455
l 458 459
l 32 458
l 30 32
l 459 457
l 456 454
l 123 31
l 32 124
l 460 98
l 461 462
l 463 461
l 462 460
l 464 465
l 466 467
l 468 466
l 467 464
l 465 463
l 469 470
l 470 468
l 471 469
l 472 471
l 473 472
l 113 474
l 474 473
l 475 476
l 477 475
l 476 478
l 478 479
l 72 480
l 479 481
l 481 482
l 482 483
l 484 485
l 485 486
l 483 484
l 487 488
l 488 489
l 490 491
l 492 493
l 491 492
l 489 490
l 486 487
l 494 495
l 495 496
l 497 498
l 498 499
l 496 497
l 500 501
l 501 502
l 503 504
l 505 90
l 504 505
l 502 503
l 499 500
l 493 494
l 480 506
l 506 507
l 507 508
l 508 477
l 23 126
l 125 15
l 509 510
l 127 5
l 511 512
l 513 514
l 515 511
l 8 128
l 516 79
l 517 516
l 518 517
l 519 518
l 512 509
l 510 519
l 514 515
l 520 513
l 521 520
l 109 522
l 522 523
l 523 521
l 100 524
l 525 526
l 526 527
l 524 525
l 528 529
l 530 531
l 531 532
l 529 530
l 527 528
l 533 534
l 532 533
l 534 535
l 535 536
l 536 537
l 538 114
l 537 538
l 73 539
l 540 541
l 541 542
l 539 540
l 543 544
l 544 545
l 546 547
l 547 548
l 545 546
l 542 543
l 549 550
l 551 552
l 552 553
l 550 551
l 554 555
l 555 556
l 557 558
l 558 559
l 556 557
l 553 554
l 548 549
l 560 561
l 562 563
l 563 564
l 561 562
l 559 560
l 564 565
l 565 566
l 567 568
l 568 569
l 566 567
l 570 571
l 569 570
l 572 92
l 571 572
l 16 127
l 128 24
l 573 75
l 574 573
l 575 576
l 577 578
l 578 575
l 576 574
l 579 580
l 581 582
l 582 579
l 583 584
l 112 585
l 585 583
l 584 581
l 580 577
l 586 587
l 588 586
l 589 590
l 590 588
l 591 589
l 592 591
l 593 88
l 594 593
l 595 68
l 587 595
l 83 592
l 596 594
l 119 596
l 597 27
l 69 597
l 28 598
l 598 106
l 599 80
l 3 599
l 600 4
l 116 600
l 601 602
l 603 601
l 602 604
l 605 603
l 58 605
l 604 57
l 606 59
l 607 608
l 609 610
l 611 612
l 60 613
l 614 609
l 608 606
l 610 607
l 612 614
l 613 611
l 615 61
l 62 616
l 617 615
l 33 617
l 618 33
l 619 618
l 616 620
l 34 619
l 620 34
l 621 63
l 622 621
l 64 623
l 61 622
l 624 62
l 623 624
l 35 625
l 63 35
l 625 626
l 627 628
l 36 64
l 628 36
l 626 627
l 65 66
l 67 68
l 37 629
l 66 37
l 630 631
l 629 630
l 632 633
l 634 635
l 38 67
l 635 38
l 633 634
l 631 632
l 69 636
l 636 637
l 638 639
l 640 70
l 639 640
l 637 638
l 70 641
l 642 643
l 641 642
l 644 645
l 646 647
l 645 646
l 643 644
l 648 649
l 650 651
l 649 650
l 652 653
l 654 655
l 653 654
l 651 652
l 647 648
l 656 657
l 658 659
l 657 658
l 660 661
l 662 663
l 661 662
l 659 660
l 664 665
l 666 667
l 665 666
l 668 669
l 670 71
l 669 670
l 667 668
l 663 664
l 655 656
l 72 33
l 39 72
l 34 73
l 73 40
l 74 41
l 37 74
l 41 39
l 40 42
l 75 38
l 42 75
l 78 76
l 35 78
l 79 36
l 77 79
l 671 80
l 672 671
l 673 674
l 71 675
l 675 673
l 674 672
l 81 82
l 83 84
l 85 86
l 87 88
l 86 81
l 84 87
l 43 89
l 90 43
l 44 92
l 91 44
l 676 90
l 93 676
l 92 677
l 677 94
l 89 95
l 96 91
l 678 97
l 98 678
l 679 100
l 99 679
l 95 45
l 45 98
l 100 46
l 46 96
l 680 93
l 94 681
l 681 99
l 97 680
l 682 101
l 683 682
l 102 684
l 103 683
l 685 104
l 684 685
l 686 47
l 47 687
l 688 686
l 689 48
l 48 690
l 687 689
l 101 688
l 690 691
l 691 102
l 692 49
l 49 103
l 693 692
l 694 695
l 695 693
l 50 694
l 104 50
l 105 696
l 696 697
l 698 699
l 700 106
l 699 700
l 697 698
l 108 107
l 107 49
l 50 109
l 109 110
l 51 111
l 111 52
l 701 702
l 52 701
l 53 51
l 702 703
l 704 705
l 706 707
l 707 54
l 703 704
l 54 112
l 112 55
l 705 706
l 55 56
l 47 113
l 113 53
l 114 48
l 56 114
l 708 105
l 709 710
l 710 708
l 711 712
l 713 714
l 714 711
l 712 709
l 715 716
l 717 718
l 718 715
l 719 720
l 721 722
l 722 719
l 720 717
l 716 713
l 723 724
l 725 726
l 726 723
l 727 728
l 729 730
l 730 727
l 728 725
l 731 732
l 733 734
l 734 731
l 735 736
l 115 737
l 737 735
l 736 733
l 732 729
l 724 721
l 738 115
l 739 738
l 740 741
l 116 742
l 742 740
l 741 739
l 117 118
l 119 120
l 52 117
l 120 54
l 743 41
l 744 743
l 745 746
l 747 748
l 748 745
l 746 744
l 749 750
l 751 752
l 752 749
l 753 754
l 51 755
l 755 753
l 754 751
l 750 747
l 756 757
l 757 758
l 759 756
l 758 760
l 760 122
l 121 759
l 123 761
l 762 763
l 764 765
l 766 767
l 768 124
l 765 769
l 761 762
l 763 764
l 769 766
l 767 768
l 770 76
l 771 126
l 108 771
l 125 770
l 772 773
l 45 772
l 773 53
l 774 775
l 775 776
l 777 778
l 776 777
l 39 774
l 779 43
l 778 779
l 77 780
l 128 781
l 781 110
l 780 127
l 782 783
l 783 46
l 56 782
l 784 785
l 786 784
l 787 788
l 788 786
l 785 40
l 44 789
l 789 787
l 42 790
l 790 791
l 792 793
l 794 795
l 793 794
l 791 792
l 796 797
l 798 799
l 797 798
l 800 801
l 802 55
l 801 802
l 799 800
l 795 796
# </edges>
