# Wavefront OBJ file written 2025-10-10T09:08:17
o glass_inside_edgeMesh

# points : 10
# lines  : 10

# <points count="10">
v 0.467663 -0.218991 1.686
v 1.53234 -0.218991 1.686
v 1.53234 -0.218991 0.659663
v 0.467663 -0.218991 0.659663
v 0.467663 -0.218991 1.86116
v 1.53234 -0.218991 1.86116
v 1.53234 -0.219157 2.26417
v 0.467663 -0.219157 2.26417
v 0.467663 -0.219074 2.06267
v 1.53234 -0.219074 2.06267
# </points>

# <edges count="10">
l 1 2
l 2 3
l 3 4
l 4 1
l 9 5
l 5 6
l 6 10
l 7 8
l 8 9
l 10 7
# </edges>
