# Wavefront OBJ file written 2025-10-09T17:09:24
o glass_edgeMesh

# points : 18
# lines  : 18

# <points count="18">
v 0.467663 -0.218991 1.686
v 1.53234 -0.218991 1.686
v 1.53234 -0.218991 0.659663
v 0.467663 -0.218991 0.659663
v 0.467663 -0.218991 1.86116
v 1.53234 -0.218991 1.86116
v 1.53234 -0.219157 2.26417
v 0.467663 -0.219157 2.26417
v 1.54284 -0.02 2.32317
v 1.54284 -0.02 1.83733
v 0.457164 -0.02 1.83733
v 0.457164 -0.02 2.32317
v 1.54284 -0.02 0.596665
v 0.457164 -0.02 0.596665
v 0.457164 -0.02 1.6825
v 1.54284 -0.02 1.6825
v 0.467663 -0.219074 2.06267
v 1.53234 -0.219074 2.06267
# </points>

# <edges count="18">
l 1 2
l 2 3
l 3 4
l 4 1
l 17 5
l 5 6
l 6 18
l 7 8
l 8 17
l 18 7
l 9 10
l 10 11
l 11 12
l 12 9
l 13 14
l 14 15
l 15 16
l 16 13
# </edges>
