# Wavefront OBJ file written 2025-10-10T09:08:17
o walls_edgeMesh

# points : 56
# lines  : 64

# <points count="56">
v 2 1 3
v 0 1 0
v 0.272 -2.9287e-13 2.5235
v 0 0 3
v 0.272 -2.92877e-13 0.396501
v 0 0 0
v 1.728 -2.9287e-13 2.5235
v 2 0 3
v 1.728 -2.9287e-13 0.396501
v 2 0 0
v 2 1 0
v 0 1 3
v 0.285714 0 3
v 0 0 2.57143
v 0.272 -2.92871e-13 2.21964
v 0 0 2.14286
v 0 0 1.71429
v 0.272 -2.92872e-13 1.91579
v 0.272 -2.92873e-13 1.61193
v 0.571429 0 3
v 0.857143 0 3
v 0.8544 -2.9287e-13 2.5235
v 0.5632 -2.9287e-13 2.5235
v 1.14286 0 3
v 0.272 -2.92874e-13 1.30807
v 0 0 1.28571
v 0.272 -2.92875e-13 1.00421
v 0 0 0.857143
v 0 0 0.428571
v 0.272 -2.92876e-13 0.700358
v 0.5632 -2.92875e-13 0.396501
v 0.571429 0 0
v 0.285714 0 0
v 0.857143 0 0
v 0.8544 -2.92874e-13 0.396501
v 1.14286 0 0
v 1.1456 -2.92873e-13 0.396501
v 1.1456 -2.9287e-13 2.5235
v 1.42857 0 3
v 1.71429 0 3
v 1.4368 -2.9287e-13 2.5235
v 2 0 2.57143
v 1.728 -2.9287e-13 2.21964
v 2 0 2.14286
v 2 0 1.71429
v 1.728 -2.9287e-13 1.91579
v 1.728 -2.9287e-13 1.30807
v 1.728 -2.9287e-13 1.61193
v 2 0 1.28571
v 1.42857 0 0
v 1.4368 -2.92871e-13 0.396501
v 1.71429 0 0
v 1.728 -2.9287e-13 1.00421
v 2 0 0.857143
v 1.728 -2.9287e-13 0.700358
v 2 0 0.428571
# </points>

# <edges count="64">
l 11 1
l 10 11
l 1 8
l 1 12
l 2 12
l 6 2
l 12 4
l 2 11
l 4 13
l 14 4
l 3 15
l 16 14
l 17 16
l 15 18
l 18 19
l 13 20
l 20 21
l 22 23
l 23 3
l 21 24
l 19 25
l 26 17
l 25 27
l 28 26
l 29 28
l 30 5
l 27 30
l 6 29
l 5 31
l 32 33
l 34 32
l 31 35
l 36 34
l 35 37
l 33 6
l 38 22
l 24 39
l 39 40
l 41 38
l 7 41
l 8 42
l 40 8
l 43 7
l 42 44
l 44 45
l 46 43
l 47 48
l 45 49
l 50 36
l 37 51
l 52 50
l 51 9
l 53 47
l 49 54
l 55 53
l 9 55
l 56 10
l 54 56
l 10 52
l 48 46
l 8 10
l 4 6
l 4 8
l 6 10
# </edges>
