# Wavefront OBJ file written 2025-10-10T09:08:17
o window_edgeMesh

# points : 1058
# lines  : 1184

# <points count="1058">
v 1.54284 -0.0414983 0.396501
v 1.54284 -2.9287e-13 0.396501
v 1.57433 -2.9287e-13 0.396501
v 1.57433 -0.0414983 0.396501
v 1.57433 -0.0414983 2.5235
v 1.54284 -0.0414983 2.5235
v 1.57433 -2.92877e-13 2.5235
v 1.54284 -2.92877e-13 2.5235
v 1.728 -0.047998 0.396501
v 1.728 -2.9287e-13 0.396501
v 1.728 -0.047998 2.5235
v 1.728 -2.92877e-13 2.5235
v 1.53234 -0.255323 0.396501
v 1.53234 -0.198825 0.396501
v 1.673 -0.255323 0.396501
v 1.673 -0.198825 0.396501
v 1.673 -0.255323 2.5235
v 1.53234 -0.255323 2.5235
v 1.673 -0.198825 2.5235
v 1.53234 -0.198825 2.5235
v 0.425665 -0.255156 0.659663
v 0.425665 -0.205992 0.659663
v 1.57433 -0.205992 0.659663
v 1.57433 -0.255156 0.659663
v 0.425665 -0.0413317 0.565166
v 0.425665 -0.0413317 0.596665
v 0.425665 3.55271e-15 0.596665
v 0.425665 3.55271e-15 0.565166
v 1.57433 3.55271e-15 0.565166
v 1.57433 -0.0413317 0.565166
v 1.57433 3.55271e-15 0.596665
v 1.57433 -0.0413317 0.596665
v 0.425665 -0.304156 0.396501
v 0.425665 0.00849965 0.396501
v 0.425665 -0.304156 0.565166
v 0.425665 0.00849965 0.565166
v 1.57433 0.00849965 0.396501
v 1.57433 -0.304156 0.396501
v 1.57433 0.00849965 0.565166
v 1.57433 -0.304156 0.565166
v 0.425665 -3.08642e-14 1.6825
v 0.425665 -0.0413317 1.6825
v 0.425665 -0.0413317 1.83733
v 0.425665 -3.08642e-14 1.83733
v 1.57433 -3.08642e-14 1.6825
v 1.57433 -0.0413317 1.6825
v 1.57433 -3.08642e-14 1.83733
v 1.57433 -0.0413317 1.83733
v 0.425665 -0.177826 1.686
v 0.425665 -0.228991 1.686
v 0.425665 -0.228991 1.86116
v 0.425665 -0.177826 1.86116
v 1.57433 -0.177826 1.686
v 1.57433 -0.228991 1.686
v 1.57433 -0.177826 1.86116
v 1.57433 -0.228991 1.86116
v 0.425665 -0.205992 2.26417
v 0.425665 -0.255156 2.26417
v 1.57433 -0.205992 2.26417
v 1.57433 -0.255156 2.26417
v 0.425665 -0.304156 2.35483
v 0.425665 -0.0413317 2.35483
v 0.425665 -0.304156 2.5235
v 0.425665 0.00849965 2.35483
v 0.425665 0 2.35483
v 0.425665 0.00849965 2.5235
v 1.57433 -0.304156 2.35483
v 1.57433 -0.0413317 2.35483
v 1.57433 0 2.35483
v 1.57433 0.00849965 2.35483
v 1.57433 0.00849965 2.5235
v 1.57433 -0.304156 2.5235
v 0.425665 -0.0413317 2.32317
v 0.425665 0 2.32317
v 1.57433 0 2.32317
v 1.57433 -0.0413317 2.32317
v 0.457164 -0.0414983 0.396501
v 0.457164 -2.9287e-13 0.396501
v 0.425665 -2.9287e-13 0.396501
v 0.425665 -0.0414983 0.396501
v 0.425665 -0.0414983 2.5235
v 0.457164 -0.0414983 2.5235
v 0.425665 -2.92877e-13 2.5235
v 0.457164 -2.92877e-13 2.5235
v 0.272 -0.047998 0.396501
v 0.272 -2.9287e-13 0.396501
v 0.272 -0.047998 2.5235
v 0.272 -2.92877e-13 2.5235
v 0.467663 -0.255323 0.396501
v 0.467663 -0.198825 0.396501
v 0.327 -0.255323 0.396501
v 0.327 -0.198825 0.396501
v 0.327 -0.255323 2.5235
v 0.467663 -0.255323 2.5235
v 0.327 -0.198825 2.5235
v 0.467663 -0.198825 2.5235
v 1.615 -0.047998 0.396501
v 1.57433 -0.047998 0.396501
v 1.615 -0.047998 2.5235
v 1.57433 -0.047998 2.5235
v 1.615 -0.198825 0.396501
v 1.57433 -0.198825 0.396501
v 1.615 -0.198825 0.560117
v 1.57433 -0.198825 0.560117
v 1.615 -0.198825 0.723732
v 1.57433 -0.198825 0.723732
v 1.615 -0.198825 1.05096
v 1.57433 -0.198825 1.05096
v 1.57433 -0.198825 0.887347
v 1.615 -0.198825 0.887347
v 1.615 -0.198825 1.37819
v 1.57433 -0.198825 1.37819
v 1.57433 -0.198825 1.21458
v 1.615 -0.198825 1.21458
v 1.615 -0.198825 1.70542
v 1.57433 -0.198825 1.70542
v 1.57433 -0.198825 1.54181
v 1.615 -0.198825 1.54181
v 1.615 -0.198825 1.86904
v 1.57433 -0.198825 1.86904
v 1.615 -0.198825 2.19627
v 1.57433 -0.198825 2.19627
v 1.57433 -0.198825 2.03265
v 1.615 -0.198825 2.03265
v 1.615 -0.198825 2.5235
v 1.57433 -0.198825 2.5235
v 1.57433 -0.198825 2.35988
v 1.615 -0.198825 2.35988
v 0.425665 -0.205992 0.565166
v 0.425665 -0.255156 0.565166
v 0.61711 -0.205992 0.565166
v 0.61711 -0.255156 0.565166
v 0.808555 -0.205992 0.565166
v 0.808555 -0.255156 0.565166
v 1.19144 -0.205992 0.565166
v 1.19144 -0.255156 0.565166
v 1 -0.255156 0.565166
v 1 -0.205992 0.565166
v 1.57433 -0.205992 0.565166
v 1.57433 -0.255156 0.565166
v 1.38289 -0.255156 0.565166
v 1.38289 -0.205992 0.565166
v 0.425665 -0.255156 2.35483
v 0.425665 -0.205992 2.35483
v 0.61711 -0.205992 2.35483
v 0.808555 -0.205992 2.35483
v 1 -0.205992 2.35483
v 1.19144 -0.205992 2.35483
v 1.38289 -0.205992 2.35483
v 1.57433 -0.205992 2.35483
v 0.61711 -0.255156 2.35483
v 0.808555 -0.255156 2.35483
v 1.19144 -0.255156 2.35483
v 1 -0.255156 2.35483
v 1.57433 -0.255156 2.35483
v 1.38289 -0.255156 2.35483
v 0.385 -0.047998 0.396501
v 0.425665 -0.047998 0.396501
v 0.385 -0.047998 2.5235
v 0.425665 -0.047998 2.5235
v 0.425665 -0.198825 0.396501
v 0.385 -0.198825 0.396501
v 0.385 -0.198825 0.560117
v 0.425665 -0.198825 0.560117
v 0.385 -0.198825 0.723732
v 0.425665 -0.198825 0.723732
v 0.385 -0.198825 1.05096
v 0.385 -0.198825 0.887347
v 0.425665 -0.198825 0.887347
v 0.425665 -0.198825 1.05096
v 0.385 -0.198825 1.37819
v 0.385 -0.198825 1.21458
v 0.425665 -0.198825 1.21458
v 0.425665 -0.198825 1.37819
v 0.385 -0.198825 1.70542
v 0.385 -0.198825 1.54181
v 0.425665 -0.198825 1.54181
v 0.425665 -0.198825 1.70542
v 0.385 -0.198825 1.86904
v 0.425665 -0.198825 1.86904
v 0.385 -0.198825 2.19627
v 0.385 -0.198825 2.03265
v 0.425665 -0.198825 2.03265
v 0.425665 -0.198825 2.19627
v 0.385 -0.198825 2.5235
v 0.385 -0.198825 2.35988
v 0.425665 -0.198825 2.35988
v 0.425665 -0.198825 2.5235
v 1.615 -0.047998 0.560117
v 1.615 -0.047998 0.723732
v 1.615 -0.047998 0.887347
v 1.615 -0.047998 1.05096
v 1.615 -0.047998 1.21458
v 1.615 -0.047998 1.37819
v 1.615 -0.047998 1.54181
v 1.615 -0.047998 1.70542
v 1.615 -0.047998 1.86904
v 1.615 -0.047998 2.03265
v 1.615 -0.047998 2.19627
v 1.615 -0.047998 2.35988
v 0.385 -0.047998 0.560117
v 0.385 -0.047998 0.723732
v 0.385 -0.047998 0.887347
v 0.385 -0.047998 1.21458
v 0.385 -0.047998 1.05096
v 0.385 -0.047998 1.54181
v 0.385 -0.047998 1.37819
v 0.385 -0.047998 1.70542
v 0.385 -0.047998 1.86904
v 0.385 -0.047998 2.03265
v 0.385 -0.047998 2.35988
v 0.385 -0.047998 2.19627
v 1.55859 -0.0414983 0.396501
v 1.54284 -0.0207492 0.396501
v 1.55859 -2.9287e-13 0.396501
v 1.57433 -0.0207492 0.396501
v 1.57433 -0.0414983 0.529439
v 1.57433 -0.0414983 0.662376
v 1.54284 -0.0414983 0.928251
v 1.54284 -0.0414983 0.795313
v 1.57433 -0.0414983 0.795313
v 1.57433 -0.0414983 0.928251
v 1.54284 -0.0414983 1.06119
v 1.57433 -0.0414983 1.06119
v 1.54284 -0.0414983 0.662376
v 1.54284 -0.0414983 1.19413
v 1.57433 -0.0414983 1.19413
v 1.54284 -0.0414983 1.32706
v 1.57433 -0.0414983 1.32706
v 1.54284 -0.0414983 1.46
v 1.57433 -0.0414983 1.46
v 1.54284 -0.0414983 1.59294
v 1.57433 -0.0414983 1.59294
v 1.54284 -0.0414983 1.99175
v 1.54284 -0.0414983 1.85881
v 1.57433 -0.0414983 1.85881
v 1.57433 -0.0414983 1.99175
v 1.54284 -0.0414983 2.12469
v 1.57433 -0.0414983 2.12469
v 1.54284 -0.0414983 1.72587
v 1.57433 -0.0414983 1.72587
v 1.57433 -0.0414983 2.25762
v 1.57433 -0.0414983 2.39056
v 1.55859 -0.0414983 2.5235
v 1.54284 -0.0414983 2.25762
v 1.54284 -0.0414983 0.529439
v 1.54284 -0.0414983 2.39056
v 1.57433 -2.92877e-13 0.529439
v 1.57433 -2.92877e-13 0.662376
v 1.57433 -2.92877e-13 0.795313
v 1.57433 -2.92877e-13 0.928251
v 1.57433 -2.92877e-13 1.06119
v 1.57433 -2.92877e-13 1.19413
v 1.57433 -2.92877e-13 1.32706
v 1.57433 -2.92877e-13 1.46
v 1.57433 -2.92877e-13 1.59294
v 1.57433 -2.92877e-13 1.72587
v 1.57433 -2.92877e-13 1.85881
v 1.57433 -2.92877e-13 1.99175
v 1.57433 -2.92877e-13 2.12469
v 1.57433 -2.92877e-13 2.25762
v 1.57433 -2.92877e-13 2.39056
v 1.57433 -0.0207492 2.5235
v 1.54284 -2.92877e-13 0.529439
v 1.54284 -2.92877e-13 0.662376
v 1.54284 -2.92877e-13 0.795313
v 1.54284 -2.92877e-13 0.928251
v 1.54284 -2.92877e-13 1.06119
v 1.54284 -2.92877e-13 1.19413
v 1.54284 -2.92877e-13 1.32706
v 1.54284 -2.92877e-13 1.46
v 1.54284 -2.92877e-13 1.59294
v 1.54284 -2.92877e-13 1.85881
v 1.54284 -2.92877e-13 1.99175
v 1.54284 -2.92877e-13 2.12469
v 1.54284 -2.92877e-13 1.72587
v 1.54284 -2.92877e-13 2.25762
v 1.54284 -2.92877e-13 2.39056
v 1.55859 -2.9287e-13 2.5235
v 1.54284 -0.0207492 2.5235
v 1.65117 -2.9287e-13 0.396501
v 1.57433 -0.047998 0.425245
v 1.57433 -0.047998 0.453988
v 1.57433 -0.047998 0.482731
v 1.57433 -0.047998 0.65519
v 1.57433 -0.047998 0.626447
v 1.57433 -0.047998 0.82765
v 1.57433 -0.047998 0.798906
v 1.57433 -0.047998 0.540217
v 1.57433 -0.047998 0.511474
v 1.57433 -0.047998 0.568961
v 1.57433 -0.047998 0.597704
v 1.57433 -0.047998 0.683933
v 1.57433 -0.047998 0.712677
v 1.57433 -0.047998 0.770163
v 1.57433 -0.047998 0.74142
v 1.57433 -0.047998 0.856393
v 1.57433 -0.047998 0.885136
v 1.57433 -0.047998 0.913879
v 1.57433 -0.047998 1.14382
v 1.57433 -0.047998 1.11508
v 1.57433 -0.047998 1.31628
v 1.57433 -0.047998 1.28754
v 1.57433 -0.047998 1.63246
v 1.57433 -0.047998 1.60372
v 1.57433 -0.047998 0.942622
v 1.57433 -0.047998 1.80492
v 1.57433 -0.047998 1.77618
v 1.57433 -0.047998 1.97738
v 1.57433 -0.047998 1.94863
v 1.57433 -0.047998 2.29355
v 1.57433 -0.047998 2.26481
v 1.57433 -0.047998 2.46601
v 1.57433 -0.047998 2.43727
v 1.57433 -0.047998 2.12109
v 1.57433 -0.047998 2.09235
v 1.57433 -0.047998 0.971366
v 1.57433 -0.047998 1.02885
v 1.57433 -0.047998 1.00011
v 1.57433 -0.047998 1.0576
v 1.57433 -0.047998 1.08634
v 1.57433 -0.047998 1.20131
v 1.57433 -0.047998 1.17257
v 1.57433 -0.047998 1.23005
v 1.57433 -0.047998 1.2588
v 1.57433 -0.047998 1.34503
v 1.57433 -0.047998 1.37377
v 1.57433 -0.047998 1.43126
v 1.57433 -0.047998 1.40251
v 1.57433 -0.047998 1.46
v 1.57433 -0.047998 1.51749
v 1.57433 -0.047998 1.48874
v 1.57433 -0.047998 1.54623
v 1.57433 -0.047998 1.57497
v 1.57433 -0.047998 1.6612
v 1.57433 -0.047998 1.68995
v 1.57433 -0.047998 1.74743
v 1.57433 -0.047998 1.71869
v 1.57433 -0.047998 1.83366
v 1.57433 -0.047998 1.8624
v 1.57433 -0.047998 1.91989
v 1.57433 -0.047998 1.89115
v 1.57433 -0.047998 2.00612
v 1.57433 -0.047998 2.06361
v 1.57433 -0.047998 2.03486
v 1.57433 -0.047998 2.14984
v 1.57433 -0.047998 2.17858
v 1.57433 -0.047998 2.23607
v 1.57433 -0.047998 2.20732
v 1.57433 -0.047998 2.3223
v 1.57433 -0.047998 2.35104
v 1.57433 -0.047998 2.40853
v 1.57433 -0.047998 2.37978
v 1.57433 -0.047998 2.49476
v 1.728 -0.047998 0.589865
v 1.728 -0.047998 0.783228
v 1.728 -0.047998 0.976592
v 1.728 -0.047998 1.16995
v 1.728 -0.047998 1.36332
v 1.728 -0.047998 1.55668
v 1.728 -0.047998 1.75005
v 1.728 -0.047998 1.94341
v 1.728 -0.047998 2.13677
v 1.728 -0.047998 2.33014
v 1.728 -2.92877e-13 0.589865
v 1.728 -2.92877e-13 0.783228
v 1.728 -2.92877e-13 0.976592
v 1.728 -2.92877e-13 1.16995
v 1.728 -2.92877e-13 1.36332
v 1.728 -2.92877e-13 1.55668
v 1.728 -2.92877e-13 1.75005
v 1.728 -2.92877e-13 1.94341
v 1.728 -2.92877e-13 2.13677
v 1.728 -2.92877e-13 2.33014
v 1.57433 -2.92877e-13 0.560117
v 1.57433 -2.92877e-13 0.723732
v 1.57433 -2.92877e-13 0.887347
v 1.57433 -2.92877e-13 1.05096
v 1.57433 -2.92877e-13 1.21458
v 1.57433 -2.92877e-13 1.37819
v 1.57433 -2.92877e-13 1.54181
v 1.57433 -2.92877e-13 1.86904
v 1.57433 -2.92877e-13 2.03265
v 1.57433 -2.92877e-13 1.70542
v 1.57433 -2.92877e-13 2.19627
v 1.57433 -2.92877e-13 2.35988
v 1.65117 -2.9287e-13 2.5235
v 1.615 -0.123412 0.396501
v 1.57433 -0.123412 0.396501
v 1.615 -0.123412 2.5235
v 1.57433 -0.047998 0.560117
v 1.57433 -0.047998 0.723732
v 1.57433 -0.047998 0.887347
v 1.57433 -0.047998 1.05096
v 1.57433 -0.047998 1.21458
v 1.57433 -0.047998 1.37819
v 1.57433 -0.047998 1.54181
v 1.57433 -0.047998 1.70542
v 1.57433 -0.047998 1.86904
v 1.57433 -0.047998 2.03265
v 1.57433 -0.047998 2.19627
v 1.57433 -0.047998 2.35988
v 1.57433 -0.123412 2.5235
v 1.53234 -0.229157 0.396501
v 1.60267 -0.255323 0.396501
v 1.53234 -0.206158 0.396501
v 1.673 -0.255323 0.609201
v 1.673 -0.255323 0.821901
v 1.673 -0.255323 1.0346
v 1.53234 -0.255323 1.18013
v 1.53234 -0.255323 1.06818
v 1.673 -0.255323 1.2473
v 1.53234 -0.255323 1.40403
v 1.53234 -0.255323 1.29208
v 1.673 -0.255323 1.46
v 1.53234 -0.255323 1.85182
v 1.53234 -0.255323 1.73987
v 1.673 -0.255323 1.6727
v 1.673 -0.255323 1.8854
v 1.673 -0.255323 2.0981
v 1.673 -0.255323 2.3108
v 1.60267 -0.255323 2.5235
v 1.53234 -0.255323 1.62792
v 1.53234 -0.255323 1.51597
v 1.53234 -0.255323 0.620396
v 1.53234 -0.255323 0.508449
v 1.53234 -0.255323 0.732343
v 1.53234 -0.255323 0.84429
v 1.53234 -0.255323 0.956238
v 1.53234 -0.255323 2.2996
v 1.53234 -0.255323 2.18766
v 1.53234 -0.255323 1.96376
v 1.53234 -0.255323 2.07571
v 1.53234 -0.255323 2.41155
v 1.673 -0.198825 0.609201
v 1.673 -0.198825 0.821901
v 1.673 -0.198825 1.0346
v 1.673 -0.198825 1.2473
v 1.673 -0.198825 1.46
v 1.673 -0.198825 1.6727
v 1.673 -0.198825 1.8854
v 1.673 -0.198825 2.0981
v 1.673 -0.198825 2.3108
v 1.53234 -0.198825 0.428729
v 1.53234 -0.198825 0.460956
v 1.53234 -0.198825 0.493183
v 1.53234 -0.198825 0.52541
v 1.53234 -0.198825 0.557638
v 1.53234 -0.198825 0.589865
v 1.53234 -0.198825 0.622092
v 1.53234 -0.198825 0.654319
v 1.53234 -0.198825 0.686547
v 1.53234 -0.198825 0.718774
v 1.53234 -0.198825 0.751001
v 1.53234 -0.198825 0.783228
v 1.53234 -0.198825 0.815455
v 1.53234 -0.198825 0.847683
v 1.53234 -0.198825 0.87991
v 1.53234 -0.198825 0.912137
v 1.53234 -0.198825 0.944364
v 1.53234 -0.198825 0.976592
v 1.53234 -0.198825 1.00882
v 1.53234 -0.198825 1.04105
v 1.53234 -0.198825 1.07327
v 1.53234 -0.198825 1.1055
v 1.53234 -0.198825 1.13773
v 1.53234 -0.198825 1.16995
v 1.53234 -0.198825 1.20218
v 1.53234 -0.198825 1.23441
v 1.53234 -0.198825 1.26664
v 1.53234 -0.198825 1.29886
v 1.53234 -0.198825 1.33109
v 1.53234 -0.198825 1.36332
v 1.53234 -0.198825 1.39555
v 1.53234 -0.198825 1.42777
v 1.53234 -0.198825 1.46
v 1.53234 -0.198825 1.49223
v 1.53234 -0.198825 1.52445
v 1.53234 -0.198825 1.55668
v 1.53234 -0.198825 1.58891
v 1.53234 -0.198825 1.62114
v 1.53234 -0.198825 1.65336
v 1.53234 -0.198825 1.68559
v 1.53234 -0.198825 1.71782
v 1.53234 -0.198825 1.75005
v 1.53234 -0.198825 1.78227
v 1.53234 -0.198825 1.8145
v 1.53234 -0.198825 1.84673
v 1.53234 -0.198825 1.87895
v 1.53234 -0.198825 1.91118
v 1.53234 -0.198825 1.94341
v 1.53234 -0.198825 1.97564
v 1.53234 -0.198825 2.00786
v 1.53234 -0.198825 2.04009
v 1.53234 -0.198825 2.07232
v 1.53234 -0.198825 2.10454
v 1.53234 -0.198825 2.13677
v 1.53234 -0.198825 2.169
v 1.53234 -0.198825 2.20123
v 1.53234 -0.198825 2.23345
v 1.53234 -0.198825 2.26568
v 1.53234 -0.198825 2.29791
v 1.53234 -0.198825 2.33014
v 1.53234 -0.198825 2.36236
v 1.53234 -0.198825 2.39459
v 1.53234 -0.198825 2.42682
v 1.53234 -0.198825 2.45904
v 1.53234 -0.198825 2.49127
v 1.53234 -0.206158 2.5235
v 1.53234 -0.229157 2.5235
v 0.425665 -0.205992 0.612415
v 0.425665 -0.255156 0.612415
v 0.61711 -0.205992 0.659663
v 0.808555 -0.205992 0.659663
v 1 -0.205992 0.659663
v 1.19144 -0.205992 0.659663
v 1.38289 -0.205992 0.659663
v 1.57433 -0.205992 0.612415
v 0.61711 -0.255156 0.659663
v 0.808555 -0.255156 0.659663
v 1 -0.255156 0.659663
v 1.19144 -0.255156 0.659663
v 1.38289 -0.255156 0.659663
v 1.57433 -0.255156 0.612415
v 0.425665 -0.0206658 0.565166
v 0.425665 -0.0413317 0.580916
v 0.425665 -0.0206658 0.596665
v 0.425665 3.55271e-15 0.580916
v 0.540532 3.55271e-15 0.565166
v 0.770266 -0.0413317 0.565166
v 0.655399 -0.0413317 0.565166
v 0.655399 3.55271e-15 0.565166
v 0.770266 3.55271e-15 0.565166
v 0.885133 -0.0413317 0.565166
v 0.885133 3.55271e-15 0.565166
v 1 -0.0413317 0.565166
v 1 3.55271e-15 0.565166
v 1.22973 -0.0413317 0.565166
v 1.11487 -0.0413317 0.565166
v 1.11487 3.55271e-15 0.565166
v 1.22973 3.55271e-15 0.565166
v 1.3446 -0.0413317 0.565166
v 1.3446 3.55271e-15 0.565166
v 1.45947 3.55271e-15 0.565166
v 1.57433 -0.0206658 0.565166
v 0.540532 -0.0413317 0.565166
v 1.45947 -0.0413317 0.565166
v 0.540532 3.55271e-15 0.596665
v 0.655399 3.55271e-15 0.596665
v 0.770266 3.55271e-15 0.596665
v 0.885133 3.55271e-15 0.596665
v 1 3.55271e-15 0.596665
v 1.11487 3.55271e-15 0.596665
v 1.22973 3.55271e-15 0.596665
v 1.3446 3.55271e-15 0.596665
v 1.45947 3.55271e-15 0.596665
v 1.57433 3.55271e-15 0.580916
v 0.540532 -0.0413317 0.596665
v 0.655399 -0.0413317 0.596665
v 0.770266 -0.0413317 0.596665
v 0.885133 -0.0413317 0.596665
v 1 -0.0413317 0.596665
v 1.11487 -0.0413317 0.596665
v 1.22973 -0.0413317 0.596665
v 1.3446 -0.0413317 0.596665
v 1.45947 -0.0413317 0.596665
v 1.57433 -0.0206658 0.596665
v 1.57433 -0.0413317 0.580916
v 0.425665 -0.147828 0.396501
v 0.808555 0.00849965 0.396501
v 1.19144 0.00849965 0.396501
v 1.57433 -0.147828 0.396501
v 1.19144 -0.304156 0.396501
v 0.808555 -0.304156 0.396501
v 0.462719 0.00849965 0.565166
v 0.499773 0.00849965 0.565166
v 0.536827 0.00849965 0.565166
v 0.57388 0.00849965 0.565166
v 0.610934 0.00849965 0.565166
v 0.647988 0.00849965 0.565166
v 0.685042 0.00849965 0.565166
v 0.722096 0.00849965 0.565166
v 0.75915 0.00849965 0.565166
v 0.796204 0.00849965 0.565166
v 0.833258 0.00849965 0.565166
v 0.870311 0.00849965 0.565166
v 0.907365 0.00849965 0.565166
v 0.944419 0.00849965 0.565166
v 0.981473 0.00849965 0.565166
v 1.01853 0.00849965 0.565166
v 1.05558 0.00849965 0.565166
v 1.09263 0.00849965 0.565166
v 1.12969 0.00849965 0.565166
v 1.16674 0.00849965 0.565166
v 1.2038 0.00849965 0.565166
v 1.24085 0.00849965 0.565166
v 1.2779 0.00849965 0.565166
v 1.31496 0.00849965 0.565166
v 1.35201 0.00849965 0.565166
v 1.38907 0.00849965 0.565166
v 1.42612 0.00849965 0.565166
v 1.46317 0.00849965 0.565166
v 1.50023 0.00849965 0.565166
v 1.53728 0.00849965 0.565166
v 0.61711 -0.304156 0.565166
v 0.808555 -0.304156 0.565166
v 1 -0.304156 0.565166
v 1.19144 -0.304156 0.565166
v 1.38289 -0.304156 0.565166
v 0.425665 -3.08642e-14 1.75992
v 0.425665 -0.0413317 1.75992
v 0.589761 -0.0413317 1.6825
v 0.589761 -3.08642e-14 1.6825
v 0.917952 -0.0413317 1.6825
v 0.753856 -0.0413317 1.6825
v 0.753856 -3.08642e-14 1.6825
v 0.917952 -3.08642e-14 1.6825
v 1.24614 -0.0413317 1.6825
v 1.08205 -0.0413317 1.6825
v 1.08205 -3.08642e-14 1.6825
v 1.24614 -3.08642e-14 1.6825
v 1.41024 -0.0413317 1.6825
v 1.41024 -3.08642e-14 1.6825
v 0.589761 -3.08642e-14 1.83733
v 0.753856 -3.08642e-14 1.83733
v 0.917952 -3.08642e-14 1.83733
v 1.08205 -3.08642e-14 1.83733
v 1.24614 -3.08642e-14 1.83733
v 1.41024 -3.08642e-14 1.83733
v 1.57433 -3.08642e-14 1.75992
v 0.589761 -0.0413317 1.83733
v 0.753856 -0.0413317 1.83733
v 0.917952 -0.0413317 1.83733
v 1.08205 -0.0413317 1.83733
v 1.24614 -0.0413317 1.83733
v 1.41024 -0.0413317 1.83733
v 1.57433 -0.0413317 1.75992
v 0.425665 -0.177826 1.77358
v 0.425665 -0.228991 1.77358
v 0.61711 -0.228991 1.686
v 0.61711 -0.177826 1.686
v 0.808555 -0.228991 1.686
v 0.808555 -0.177826 1.686
v 1.19144 -0.228991 1.686
v 1 -0.228991 1.686
v 1 -0.177826 1.686
v 1.19144 -0.177826 1.686
v 1.38289 -0.228991 1.686
v 1.38289 -0.177826 1.686
v 0.61711 -0.177826 1.86116
v 0.808555 -0.177826 1.86116
v 1 -0.177826 1.86116
v 1.19144 -0.177826 1.86116
v 1.38289 -0.177826 1.86116
v 1.57433 -0.177826 1.77358
v 0.61711 -0.228991 1.86116
v 0.808555 -0.228991 1.86116
v 1 -0.228991 1.86116
v 1.19144 -0.228991 1.86116
v 1.38289 -0.228991 1.86116
v 1.57433 -0.228991 1.77358
v 0.425665 -0.205992 2.3095
v 0.425665 -0.255156 2.3095
v 0.61711 -0.255156 2.26417
v 0.61711 -0.205992 2.26417
v 0.808555 -0.255156 2.26417
v 0.808555 -0.205992 2.26417
v 1.19144 -0.255156 2.26417
v 1 -0.255156 2.26417
v 1 -0.205992 2.26417
v 1.19144 -0.205992 2.26417
v 1.38289 -0.255156 2.26417
v 1.38289 -0.205992 2.26417
v 1.57433 -0.205992 2.3095
v 1.57433 -0.255156 2.3095
v 0.425665 -0.147828 2.5235
v 0.61711 -0.304156 2.35483
v 0.808555 -0.304156 2.35483
v 1.19144 -0.304156 2.35483
v 1 -0.304156 2.35483
v 1.38289 -0.304156 2.35483
v 0.462719 0.00849965 2.35483
v 0.499773 0.00849965 2.35483
v 0.536827 0.00849965 2.35483
v 0.57388 0.00849965 2.35483
v 0.610934 0.00849965 2.35483
v 0.647988 0.00849965 2.35483
v 0.685042 0.00849965 2.35483
v 0.722096 0.00849965 2.35483
v 0.75915 0.00849965 2.35483
v 0.796204 0.00849965 2.35483
v 0.833258 0.00849965 2.35483
v 0.870311 0.00849965 2.35483
v 0.907365 0.00849965 2.35483
v 0.944419 0.00849965 2.35483
v 0.981473 0.00849965 2.35483
v 1.01853 0.00849965 2.35483
v 1.05558 0.00849965 2.35483
v 1.09263 0.00849965 2.35483
v 1.12969 0.00849965 2.35483
v 1.16674 0.00849965 2.35483
v 1.2038 0.00849965 2.35483
v 1.24085 0.00849965 2.35483
v 1.2779 0.00849965 2.35483
v 1.31496 0.00849965 2.35483
v 1.35201 0.00849965 2.35483
v 1.38907 0.00849965 2.35483
v 1.42612 0.00849965 2.35483
v 1.46317 0.00849965 2.35483
v 1.50023 0.00849965 2.35483
v 1.53728 0.00849965 2.35483
v 0.808555 0.00849965 2.5235
v 1.19144 0.00849965 2.5235
v 0.808555 -0.304156 2.5235
v 1.19144 -0.304156 2.5235
v 1.57433 -0.147828 2.5235
v 0.425665 -0.0206658 2.32317
v 0.425665 -0.0413317 2.339
v 0.425665 -0.0206658 2.35483
v 0.425665 0 2.339
v 0.540532 0 2.32317
v 0.770266 -0.0413317 2.32317
v 0.655399 -0.0413317 2.32317
v 0.655399 0 2.32317
v 0.770266 0 2.32317
v 0.885133 -0.0413317 2.32317
v 0.885133 0 2.32317
v 1 -0.0413317 2.32317
v 1 0 2.32317
v 1.22973 -0.0413317 2.32317
v 1.11487 -0.0413317 2.32317
v 1.11487 0 2.32317
v 1.22973 0 2.32317
v 1.3446 -0.0413317 2.32317
v 1.3446 0 2.32317
v 1.45947 0 2.32317
v 1.57433 -0.0206658 2.32317
v 0.540532 -0.0413317 2.32317
v 1.45947 -0.0413317 2.32317
v 0.540532 0 2.35483
v 0.655399 0 2.35483
v 0.770266 0 2.35483
v 0.885133 0 2.35483
v 1 0 2.35483
v 1.11487 0 2.35483
v 1.22973 0 2.35483
v 1.3446 0 2.35483
v 1.57433 0 2.339
v 1.45947 0 2.35483
v 0.540532 -0.0413317 2.35483
v 0.655399 -0.0413317 2.35483
v 0.770266 -0.0413317 2.35483
v 0.885133 -0.0413317 2.35483
v 1 -0.0413317 2.35483
v 1.11487 -0.0413317 2.35483
v 1.22973 -0.0413317 2.35483
v 1.3446 -0.0413317 2.35483
v 1.45947 -0.0413317 2.35483
v 1.57433 -0.0206658 2.35483
v 1.57433 -0.0413317 2.339
v 0.441414 -0.0414983 0.396501
v 0.457164 -0.0207492 0.396501
v 0.441414 -2.9287e-13 0.396501
v 0.425665 -0.0207492 0.396501
v 0.425665 -0.0414983 0.529439
v 0.425665 -0.0414983 0.662376
v 0.425665 -0.0414983 0.928251
v 0.425665 -0.0414983 0.795313
v 0.457164 -0.0414983 0.795313
v 0.457164 -0.0414983 0.928251
v 0.425665 -0.0414983 1.06119
v 0.457164 -0.0414983 1.06119
v 0.457164 -0.0414983 0.662376
v 0.425665 -0.0414983 1.19413
v 0.457164 -0.0414983 1.19413
v 0.425665 -0.0414983 1.32706
v 0.457164 -0.0414983 1.32706
v 0.425665 -0.0414983 1.46
v 0.457164 -0.0414983 1.46
v 0.425665 -0.0414983 1.59294
v 0.457164 -0.0414983 1.59294
v 0.425665 -0.0414983 1.99175
v 0.425665 -0.0414983 1.85881
v 0.457164 -0.0414983 1.85881
v 0.457164 -0.0414983 1.99175
v 0.425665 -0.0414983 2.12469
v 0.457164 -0.0414983 2.12469
v 0.425665 -0.0414983 1.72587
v 0.457164 -0.0414983 1.72587
v 0.425665 -0.0414983 2.39056
v 0.425665 -0.0414983 2.25762
v 0.441414 -0.0414983 2.5235
v 0.457164 -0.0414983 2.25762
v 0.457164 -0.0414983 0.529439
v 0.457164 -0.0414983 2.39056
v 0.425665 -2.92877e-13 0.529439
v 0.425665 -2.92877e-13 0.662376
v 0.425665 -2.92877e-13 0.928251
v 0.425665 -2.92877e-13 0.795313
v 0.425665 -2.92877e-13 1.06119
v 0.425665 -2.92877e-13 1.19413
v 0.425665 -2.92877e-13 1.32706
v 0.425665 -2.92877e-13 1.46
v 0.425665 -2.92877e-13 1.72587
v 0.425665 -2.92877e-13 1.59294
v 0.425665 -2.92877e-13 1.85881
v 0.425665 -2.92877e-13 2.12469
v 0.425665 -2.92877e-13 1.99175
v 0.425665 -2.92877e-13 2.25762
v 0.425665 -2.92877e-13 2.39056
v 0.425665 -0.0207492 2.5235
v 0.457164 -2.92877e-13 0.529439
v 0.457164 -2.92877e-13 0.662376
v 0.457164 -2.92877e-13 0.928251
v 0.457164 -2.92877e-13 0.795313
v 0.457164 -2.92877e-13 1.06119
v 0.457164 -2.92877e-13 1.19413
v 0.457164 -2.92877e-13 1.32706
v 0.457164 -2.92877e-13 1.46
v 0.457164 -2.92877e-13 1.59294
v 0.457164 -2.92877e-13 1.99175
v 0.457164 -2.92877e-13 1.85881
v 0.457164 -2.92877e-13 2.12469
v 0.457164 -2.92877e-13 1.72587
v 0.457164 -2.92877e-13 2.39056
v 0.457164 -2.92877e-13 2.25762
v 0.441414 -2.9287e-13 2.5235
v 0.457164 -0.0207492 2.5235
v 0.348833 -2.9287e-13 0.396501
v 0.425665 -0.047998 0.425245
v 0.425665 -0.047998 0.453988
v 0.425665 -0.047998 0.482731
v 0.425665 -0.047998 0.626447
v 0.425665 -0.047998 0.65519
v 0.425665 -0.047998 0.798906
v 0.425665 -0.047998 0.82765
v 0.425665 -0.047998 0.511474
v 0.425665 -0.047998 0.540217
v 0.425665 -0.047998 0.568961
v 0.425665 -0.047998 0.597704
v 0.425665 -0.047998 0.683933
v 0.425665 -0.047998 0.712677
v 0.425665 -0.047998 0.74142
v 0.425665 -0.047998 0.770163
v 0.425665 -0.047998 0.856393
v 0.425665 -0.047998 0.885136
v 0.425665 -0.047998 0.913879
v 0.425665 -0.047998 1.11508
v 0.425665 -0.047998 1.14382
v 0.425665 -0.047998 1.28754
v 0.425665 -0.047998 1.31628
v 0.425665 -0.047998 1.60372
v 0.425665 -0.047998 1.63246
v 0.425665 -0.047998 0.942622
v 0.425665 -0.047998 1.77618
v 0.425665 -0.047998 1.80492
v 0.425665 -0.047998 1.94863
v 0.425665 -0.047998 1.97738
v 0.425665 -0.047998 2.26481
v 0.425665 -0.047998 2.29355
v 0.425665 -0.047998 2.43727
v 0.425665 -0.047998 2.46601
v 0.425665 -0.047998 2.09235
v 0.425665 -0.047998 2.12109
v 0.425665 -0.047998 0.971366
v 0.425665 -0.047998 1.00011
v 0.425665 -0.047998 1.02885
v 0.425665 -0.047998 1.0576
v 0.425665 -0.047998 1.08634
v 0.425665 -0.047998 1.17257
v 0.425665 -0.047998 1.20131
v 0.425665 -0.047998 1.23005
v 0.425665 -0.047998 1.2588
v 0.425665 -0.047998 1.34503
v 0.425665 -0.047998 1.37377
v 0.425665 -0.047998 1.40251
v 0.425665 -0.047998 1.43126
v 0.425665 -0.047998 1.46
v 0.425665 -0.047998 1.48874
v 0.425665 -0.047998 1.51749
v 0.425665 -0.047998 1.54623
v 0.425665 -0.047998 1.57497
v 0.425665 -0.047998 1.6612
v 0.425665 -0.047998 1.68995
v 0.425665 -0.047998 1.71869
v 0.425665 -0.047998 1.74743
v 0.425665 -0.047998 1.83366
v 0.425665 -0.047998 1.8624
v 0.425665 -0.047998 1.89115
v 0.425665 -0.047998 1.91989
v 0.425665 -0.047998 2.00612
v 0.425665 -0.047998 2.03486
v 0.425665 -0.047998 2.06361
v 0.425665 -0.047998 2.14984
v 0.425665 -0.047998 2.17858
v 0.425665 -0.047998 2.20732
v 0.425665 -0.047998 2.23607
v 0.425665 -0.047998 2.3223
v 0.425665 -0.047998 2.35104
v 0.425665 -0.047998 2.37978
v 0.425665 -0.047998 2.40853
v 0.425665 -0.047998 2.49476
v 0.272 -0.047998 0.589865
v 0.272 -0.047998 0.783228
v 0.272 -0.047998 1.16995
v 0.272 -0.047998 0.976592
v 0.272 -0.047998 1.36332
v 0.272 -0.047998 1.55668
v 0.272 -0.047998 1.75005
v 0.272 -0.047998 2.13677
v 0.272 -0.047998 1.94341
v 0.272 -0.047998 2.33014
v 0.272 -2.92877e-13 0.589865
v 0.272 -2.92877e-13 0.783228
v 0.272 -2.92877e-13 1.16995
v 0.272 -2.92877e-13 0.976592
v 0.272 -2.92877e-13 1.36332
v 0.272 -2.92877e-13 1.75005
v 0.272 -2.92877e-13 1.55668
v 0.272 -2.92877e-13 1.94341
v 0.272 -2.92877e-13 2.33014
v 0.272 -2.92877e-13 2.13677
v 0.425665 -2.92877e-13 0.560117
v 0.425665 -2.92877e-13 0.887347
v 0.425665 -2.92877e-13 0.723732
v 0.425665 -2.92877e-13 1.05096
v 0.425665 -2.92877e-13 1.21458
v 0.425665 -2.92877e-13 1.37819
v 0.425665 -2.92877e-13 1.54181
v 0.425665 -2.92877e-13 2.03265
v 0.425665 -2.92877e-13 1.86904
v 0.425665 -2.92877e-13 1.70542
v 0.425665 -2.92877e-13 2.35988
v 0.425665 -2.92877e-13 2.19627
v 0.348833 -2.9287e-13 2.5235
v 0.425665 -0.123412 0.396501
v 0.385 -0.123412 0.396501
v 0.385 -0.123412 2.5235
v 0.425665 -0.047998 0.560117
v 0.425665 -0.047998 0.723732
v 0.425665 -0.047998 1.05096
v 0.425665 -0.047998 0.887347
v 0.425665 -0.047998 1.37819
v 0.425665 -0.047998 1.21458
v 0.425665 -0.047998 1.70542
v 0.425665 -0.047998 1.54181
v 0.425665 -0.047998 1.86904
v 0.425665 -0.047998 2.19627
v 0.425665 -0.047998 2.03265
v 0.425665 -0.047998 2.35988
v 0.425665 -0.123412 2.5235
v 0.467663 -0.229157 0.396501
v 0.397332 -0.255323 0.396501
v 0.467663 -0.206158 0.396501
v 0.327 -0.255323 0.609201
v 0.327 -0.255323 1.0346
v 0.327 -0.255323 0.821901
v 0.327 -0.255323 1.2473
v 0.467663 -0.255323 1.06818
v 0.467663 -0.255323 1.18013
v 0.327 -0.255323 1.46
v 0.467663 -0.255323 1.29208
v 0.467663 -0.255323 1.40403
v 0.327 -0.255323 1.8854
v 0.327 -0.255323 1.6727
v 0.467663 -0.255323 1.73987
v 0.467663 -0.255323 1.85182
v 0.327 -0.255323 2.0981
v 0.327 -0.255323 2.3108
v 0.397332 -0.255323 2.5235
v 0.467663 -0.255323 1.51597
v 0.467663 -0.255323 1.62792
v 0.467663 -0.255323 0.508449
v 0.467663 -0.255323 0.620396
v 0.467663 -0.255323 0.732343
v 0.467663 -0.255323 0.84429
v 0.467663 -0.255323 0.956238
v 0.467663 -0.255323 2.18766
v 0.467663 -0.255323 2.2996
v 0.467663 -0.255323 1.96376
v 0.467663 -0.255323 2.07571
v 0.467663 -0.255323 2.41155
v 0.327 -0.198825 0.609201
v 0.327 -0.198825 1.0346
v 0.327 -0.198825 0.821901
v 0.327 -0.198825 1.2473
v 0.327 -0.198825 1.6727
v 0.327 -0.198825 1.46
v 0.327 -0.198825 1.8854
v 0.327 -0.198825 2.3108
v 0.327 -0.198825 2.0981
v 0.467663 -0.198825 0.428729
v 0.467663 -0.198825 0.493183
v 0.467663 -0.198825 0.460956
v 0.467663 -0.198825 0.52541
v 0.467663 -0.198825 0.589865
v 0.467663 -0.198825 0.557638
v 0.467663 -0.198825 0.654319
v 0.467663 -0.198825 0.622092
v 0.467663 -0.198825 0.686547
v 0.467663 -0.198825 0.751001
v 0.467663 -0.198825 0.718774
v 0.467663 -0.198825 0.815455
v 0.467663 -0.198825 0.783228
v 0.467663 -0.198825 0.847683
v 0.467663 -0.198825 0.912137
v 0.467663 -0.198825 0.87991
v 0.467663 -0.198825 0.976592
v 0.467663 -0.198825 0.944364
v 0.467663 -0.198825 1.00882
v 0.467663 -0.198825 1.07327
v 0.467663 -0.198825 1.04105
v 0.467663 -0.198825 1.13773
v 0.467663 -0.198825 1.1055
v 0.467663 -0.198825 1.16995
v 0.467663 -0.198825 1.23441
v 0.467663 -0.198825 1.20218
v 0.467663 -0.198825 1.29886
v 0.467663 -0.198825 1.26664
v 0.467663 -0.198825 1.33109
v 0.467663 -0.198825 1.39555
v 0.467663 -0.198825 1.36332
v 0.467663 -0.198825 1.46
v 0.467663 -0.198825 1.42777
v 0.467663 -0.198825 1.49223
v 0.467663 -0.198825 1.55668
v 0.467663 -0.198825 1.52445
v 0.467663 -0.198825 1.62114
v 0.467663 -0.198825 1.58891
v 0.467663 -0.198825 1.65336
v 0.467663 -0.198825 1.71782
v 0.467663 -0.198825 1.68559
v 0.467663 -0.198825 1.78227
v 0.467663 -0.198825 1.75005
v 0.467663 -0.198825 1.8145
v 0.467663 -0.198825 1.87895
v 0.467663 -0.198825 1.84673
v 0.467663 -0.198825 1.94341
v 0.467663 -0.198825 1.91118
v 0.467663 -0.198825 1.97564
v 0.467663 -0.198825 2.04009
v 0.467663 -0.198825 2.00786
v 0.467663 -0.198825 2.10454
v 0.467663 -0.198825 2.07232
v 0.467663 -0.198825 2.13677
v 0.467663 -0.198825 2.20123
v 0.467663 -0.198825 2.169
v 0.467663 -0.198825 2.26568
v 0.467663 -0.198825 2.23345
v 0.467663 -0.198825 2.29791
v 0.467663 -0.198825 2.36236
v 0.467663 -0.198825 2.33014
v 0.467663 -0.198825 2.39459
v 0.467663 -0.198825 2.42682
v 0.467663 -0.198825 2.45904
v 0.467663 -0.198825 2.49127
v 0.467663 -0.206158 2.5235
v 0.467663 -0.229157 2.5235
# </points>

# <edges count="1184">
l 213 1
l 1 214
l 2 215
l 214 2
l 3 216
l 215 3
l 4 213
l 216 4
l 4 217
l 217 218
l 219 220
l 221 222
l 223 219
l 222 224
l 220 225
l 218 221
l 226 223
l 224 227
l 228 226
l 227 229
l 230 228
l 229 231
l 232 230
l 231 233
l 234 235
l 236 237
l 238 234
l 237 239
l 235 240
l 241 236
l 242 243
l 243 5
l 5 244
l 245 238
l 239 242
l 240 232
l 233 241
l 246 1
l 225 246
l 244 6
l 247 245
l 6 247
l 3 248
l 248 249
l 250 251
l 251 252
l 249 250
l 252 253
l 253 254
l 254 255
l 256 257
l 257 258
l 259 260
l 260 261
l 258 259
l 261 262
l 7 263
l 262 7
l 255 256
l 263 5
l 2 264
l 264 265
l 266 267
l 267 268
l 265 266
l 268 269
l 269 270
l 270 271
l 271 272
l 273 274
l 274 275
l 276 273
l 277 278
l 278 8
l 8 279
l 275 277
l 272 276
l 279 7
l 6 280
l 280 8
l 98 4
l 4 3
l 9 97
l 281 10
l 10 9
l 3 281
l 282 98
l 283 282
l 284 283
l 285 286
l 287 288
l 289 290
l 291 289
l 290 284
l 292 291
l 286 292
l 293 285
l 294 293
l 295 296
l 288 295
l 297 287
l 298 297
l 296 294
l 299 298
l 300 301
l 302 303
l 304 305
l 306 299
l 307 308
l 309 310
l 311 312
l 313 314
l 315 316
l 317 306
l 318 319
l 320 318
l 319 317
l 301 321
l 322 323
l 324 322
l 323 300
l 321 320
l 325 324
l 303 325
l 326 302
l 327 326
l 328 329
l 330 328
l 331 332
l 333 331
l 332 330
l 329 327
l 305 334
l 335 304
l 336 335
l 337 338
l 308 337
l 339 307
l 340 339
l 338 336
l 334 333
l 341 342
l 343 309
l 310 341
l 344 345
l 316 344
l 346 315
l 347 346
l 345 343
l 348 349
l 312 348
l 350 311
l 351 350
l 352 353
l 314 352
l 354 313
l 100 354
l 353 351
l 349 347
l 342 340
l 9 355
l 355 356
l 357 358
l 356 357
l 358 359
l 359 360
l 360 361
l 362 363
l 11 99
l 364 11
l 363 364
l 361 362
l 10 365
l 365 366
l 367 368
l 368 369
l 366 367
l 370 371
l 371 372
l 373 374
l 12 11
l 374 12
l 372 373
l 369 370
l 3 375
l 376 377
l 377 378
l 375 376
l 378 379
l 379 380
l 380 381
l 382 383
l 384 382
l 385 386
l 383 385
l 386 7
l 7 387
l 381 384
l 387 12
l 5 7
l 100 5
l 388 101
l 102 389
l 97 388
l 389 98
l 99 390
l 390 125
l 98 391
l 391 392
l 393 394
l 395 396
l 394 395
l 392 393
l 397 398
l 398 399
l 400 401
l 402 100
l 401 402
l 399 400
l 396 397
l 126 403
l 403 100
l 13 404
l 405 13
l 404 406
l 406 14
l 14 102
l 15 405
l 16 15
l 101 16
l 15 407
l 408 409
l 410 411
l 409 412
l 407 408
l 413 414
l 412 415
l 416 417
l 418 419
l 419 420
l 420 421
l 421 17
l 17 422
l 423 424
l 415 418
l 425 426
l 427 425
l 428 427
l 426 13
l 429 428
l 411 429
l 414 410
l 424 413
l 417 423
l 430 431
l 432 416
l 433 432
l 431 433
l 434 430
l 18 434
l 422 18
l 16 435
l 436 437
l 437 438
l 435 436
l 439 440
l 440 441
l 442 443
l 19 17
l 443 19
l 441 442
l 438 439
l 125 19
l 14 444
l 445 446
l 446 447
l 444 445
l 448 449
l 450 451
l 451 452
l 449 450
l 447 448
l 453 454
l 455 456
l 456 457
l 454 455
l 458 459
l 460 461
l 461 462
l 459 460
l 457 458
l 452 453
l 463 464
l 465 466
l 466 467
l 464 465
l 468 469
l 470 471
l 471 472
l 469 470
l 467 468
l 473 474
l 475 476
l 476 477
l 474 475
l 478 479
l 480 481
l 481 482
l 479 480
l 477 478
l 472 473
l 462 463
l 483 484
l 485 486
l 486 487
l 484 485
l 488 489
l 490 491
l 491 492
l 489 490
l 487 488
l 482 483
l 493 494
l 495 496
l 496 497
l 494 495
l 498 499
l 500 501
l 501 502
l 499 500
l 497 498
l 503 504
l 502 503
l 504 505
l 505 506
l 506 507
l 508 20
l 20 126
l 507 508
l 492 493
l 509 20
l 510 509
l 18 510
l 511 129
l 130 512
l 22 511
l 21 22
l 512 21
l 22 513
l 514 515
l 513 514
l 515 516
l 517 23
l 23 518
l 516 517
l 518 139
l 21 519
l 519 520
l 521 522
l 24 23
l 523 24
l 522 523
l 520 521
l 140 524
l 524 24
l 525 25
l 25 526
l 26 527
l 526 26
l 27 528
l 527 27
l 28 525
l 528 28
l 28 529
l 530 531
l 532 533
l 529 532
l 534 530
l 533 535
l 536 534
l 535 537
l 538 539
l 540 541
l 542 538
l 541 543
l 544 29
l 29 545
l 543 544
l 539 536
l 537 540
l 546 25
l 531 546
l 545 30
l 547 542
l 30 547
l 27 548
l 549 550
l 548 549
l 550 551
l 551 552
l 553 554
l 554 555
l 556 31
l 31 557
l 555 556
l 552 553
l 557 29
l 26 558
l 559 560
l 558 559
l 560 561
l 561 562
l 563 564
l 564 565
l 565 566
l 32 567
l 566 32
l 562 563
l 567 31
l 30 568
l 568 32
l 569 33
l 34 569
l 33 35
l 35 130
l 36 34
l 28 36
l 25 28
l 129 25
l 34 570
l 570 571
l 571 37
l 37 572
l 573 574
l 38 573
l 572 38
l 574 33
l 36 575
l 575 576
l 577 578
l 578 579
l 576 577
l 580 581
l 581 582
l 583 584
l 584 585
l 582 583
l 579 580
l 586 587
l 587 588
l 589 590
l 590 591
l 588 589
l 592 593
l 593 594
l 595 596
l 597 598
l 596 597
l 594 595
l 591 592
l 585 586
l 599 600
l 600 601
l 602 603
l 603 604
l 601 602
l 604 39
l 39 37
l 598 599
l 29 39
l 30 29
l 139 30
l 35 605
l 605 606
l 607 608
l 40 140
l 609 40
l 608 609
l 606 607
l 38 40
l 610 41
l 41 42
l 42 611
l 44 610
l 43 44
l 611 43
l 612 42
l 41 613
l 614 615
l 616 617
l 615 612
l 613 616
l 618 619
l 620 621
l 46 622
l 45 46
l 623 45
l 622 618
l 621 623
l 619 614
l 617 620
l 44 624
l 625 626
l 624 625
l 626 627
l 628 629
l 629 47
l 47 630
l 627 628
l 630 45
l 43 631
l 632 633
l 631 632
l 634 635
l 48 47
l 636 48
l 635 636
l 633 634
l 46 637
l 637 48
l 638 49
l 49 50
l 50 639
l 52 638
l 51 52
l 639 51
l 640 50
l 49 641
l 642 640
l 641 643
l 644 645
l 646 647
l 54 648
l 53 54
l 649 53
l 648 644
l 647 649
l 645 642
l 643 646
l 52 650
l 651 652
l 650 651
l 652 653
l 654 55
l 55 655
l 653 654
l 655 53
l 51 656
l 656 657
l 658 659
l 56 55
l 660 56
l 659 660
l 657 658
l 54 661
l 661 56
l 662 57
l 57 58
l 58 663
l 144 662
l 663 143
l 664 58
l 57 665
l 666 664
l 665 667
l 668 669
l 670 671
l 60 672
l 59 60
l 673 59
l 672 668
l 671 673
l 669 666
l 667 670
l 150 674
l 674 59
l 60 675
l 675 155
l 143 61
l 62 144
l 61 63
l 63 676
l 64 65
l 65 62
l 66 64
l 676 66
l 677 61
l 678 677
l 679 680
l 67 681
l 155 67
l 681 679
l 680 678
l 68 150
l 69 68
l 64 682
l 683 684
l 682 683
l 685 686
l 687 688
l 686 687
l 684 685
l 689 690
l 691 692
l 690 691
l 693 694
l 695 696
l 694 695
l 692 693
l 688 689
l 697 698
l 699 700
l 698 699
l 701 702
l 703 704
l 702 703
l 700 701
l 705 706
l 707 708
l 706 707
l 709 710
l 70 69
l 711 70
l 710 711
l 708 709
l 704 705
l 696 697
l 66 712
l 712 713
l 713 71
l 71 70
l 63 714
l 714 715
l 715 72
l 72 716
l 716 71
l 67 72
l 717 73
l 73 718
l 62 719
l 718 62
l 720 74
l 74 717
l 65 720
l 719 65
l 74 721
l 722 723
l 724 725
l 721 724
l 726 722
l 725 727
l 728 726
l 727 729
l 730 731
l 732 733
l 734 730
l 733 735
l 736 75
l 75 737
l 735 736
l 731 728
l 729 732
l 738 73
l 723 738
l 737 76
l 739 734
l 76 739
l 65 740
l 741 742
l 740 741
l 742 743
l 743 744
l 745 746
l 746 747
l 69 748
l 749 69
l 747 749
l 744 745
l 748 75
l 62 750
l 751 752
l 750 751
l 752 753
l 753 754
l 755 756
l 756 757
l 757 758
l 68 759
l 758 68
l 754 755
l 759 69
l 76 760
l 760 68
l 77 761
l 762 77
l 763 78
l 78 762
l 764 79
l 79 763
l 761 80
l 80 764
l 765 80
l 766 765
l 767 768
l 769 770
l 771 767
l 770 772
l 768 766
l 773 769
l 774 771
l 772 775
l 776 774
l 775 777
l 778 776
l 777 779
l 780 778
l 779 781
l 782 783
l 784 785
l 786 782
l 785 787
l 783 788
l 789 784
l 790 791
l 81 790
l 792 81
l 791 786
l 787 793
l 788 780
l 781 789
l 77 794
l 794 773
l 82 792
l 793 795
l 795 82
l 796 79
l 797 796
l 798 799
l 800 798
l 799 797
l 801 800
l 802 801
l 803 802
l 804 805
l 806 804
l 807 808
l 809 807
l 808 806
l 810 809
l 811 83
l 83 810
l 805 803
l 81 811
l 812 78
l 813 812
l 814 815
l 816 814
l 815 813
l 817 816
l 818 817
l 819 818
l 820 819
l 821 822
l 823 821
l 822 824
l 825 826
l 84 825
l 827 84
l 826 823
l 824 820
l 83 827
l 828 82
l 84 828
l 80 158
l 79 80
l 157 85
l 86 829
l 85 86
l 829 79
l 158 830
l 830 831
l 831 832
l 833 834
l 835 836
l 837 838
l 838 839
l 832 837
l 839 840
l 840 833
l 834 841
l 841 842
l 843 844
l 844 835
l 836 845
l 845 846
l 842 843
l 846 847
l 848 849
l 850 851
l 852 853
l 847 854
l 855 856
l 857 858
l 859 860
l 861 862
l 863 864
l 854 865
l 866 867
l 867 868
l 865 866
l 869 848
l 870 871
l 871 872
l 849 870
l 868 869
l 872 873
l 873 850
l 851 874
l 874 875
l 876 877
l 877 878
l 879 880
l 880 881
l 878 879
l 875 876
l 882 852
l 853 883
l 883 884
l 885 886
l 886 855
l 856 887
l 887 888
l 884 885
l 881 882
l 889 890
l 858 891
l 890 857
l 892 893
l 893 863
l 864 894
l 894 895
l 891 892
l 896 897
l 897 859
l 860 898
l 898 899
l 900 901
l 901 861
l 862 902
l 902 160
l 899 900
l 895 896
l 888 889
l 903 85
l 904 903
l 905 906
l 906 904
l 907 905
l 908 907
l 909 908
l 910 911
l 87 912
l 159 87
l 912 910
l 911 909
l 913 86
l 914 913
l 915 916
l 917 915
l 916 914
l 918 919
l 920 918
l 921 922
l 88 921
l 87 88
l 922 920
l 919 917
l 923 79
l 924 925
l 926 924
l 925 923
l 927 926
l 928 927
l 929 928
l 930 931
l 931 932
l 933 934
l 934 930
l 83 933
l 935 83
l 932 929
l 88 935
l 83 81
l 81 160
l 936 161
l 162 937
l 158 936
l 937 157
l 938 159
l 185 938
l 939 158
l 940 939
l 941 942
l 943 944
l 944 941
l 942 940
l 945 946
l 947 945
l 948 949
l 160 950
l 950 948
l 949 947
l 946 943
l 951 188
l 160 951
l 952 89
l 89 953
l 954 952
l 90 954
l 161 90
l 953 91
l 91 92
l 92 162
l 955 91
l 956 957
l 958 956
l 959 960
l 957 955
l 961 958
l 962 963
l 964 965
l 966 967
l 968 964
l 969 968
l 93 969
l 970 93
l 965 961
l 971 972
l 973 974
l 974 975
l 975 976
l 89 973
l 976 977
l 977 959
l 960 962
l 963 971
l 972 966
l 978 979
l 967 980
l 980 981
l 981 978
l 979 982
l 982 94
l 94 970
l 983 92
l 984 985
l 986 984
l 985 983
l 987 988
l 989 987
l 990 991
l 95 990
l 93 95
l 991 989
l 988 986
l 95 185
l 992 90
l 993 994
l 995 993
l 994 992
l 996 997
l 998 999
l 1000 998
l 999 996
l 997 995
l 1001 1002
l 1003 1004
l 1005 1003
l 1004 1001
l 1006 1007
l 1008 1009
l 1010 1008
l 1009 1006
l 1007 1005
l 1002 1000
l 1011 1012
l 1013 1014
l 1015 1013
l 1014 1011
l 1016 1017
l 1018 1019
l 1020 1018
l 1019 1016
l 1017 1015
l 1021 1022
l 1023 1024
l 1025 1023
l 1024 1021
l 1026 1027
l 1028 1029
l 1030 1028
l 1029 1026
l 1027 1025
l 1022 1020
l 1012 1010
l 1031 1032
l 1033 1034
l 1035 1033
l 1034 1031
l 1036 1037
l 1038 1039
l 1040 1038
l 1039 1036
l 1037 1035
l 1032 1030
l 1041 1042
l 1043 1044
l 1045 1043
l 1044 1041
l 1046 1047
l 1048 1049
l 1050 1048
l 1049 1046
l 1047 1045
l 1051 1052
l 1052 1050
l 1053 1051
l 1054 1053
l 1055 1054
l 96 1056
l 188 96
l 1056 1055
l 1042 1040
l 96 1057
l 1057 1058
l 1058 94
l 97 98
l 97 189
l 189 190
l 190 191
l 192 193
l 194 195
l 193 194
l 195 196
l 196 197
l 197 198
l 199 200
l 200 99
l 198 199
l 191 192
l 99 100
l 101 102
l 103 104
l 104 102
l 101 103
l 105 106
l 106 104
l 103 105
l 107 108
l 108 109
l 109 110
l 110 107
l 111 112
l 112 113
l 113 114
l 114 111
l 113 108
l 107 114
l 109 106
l 105 110
l 115 116
l 116 117
l 117 118
l 118 115
l 119 120
l 120 116
l 115 119
l 121 122
l 122 123
l 123 124
l 124 121
l 126 127
l 125 126
l 127 128
l 128 125
l 127 122
l 121 128
l 123 120
l 119 124
l 117 112
l 111 118
l 129 130
l 131 132
l 132 130
l 129 131
l 133 134
l 134 132
l 131 133
l 135 136
l 136 137
l 137 138
l 138 135
l 140 141
l 139 140
l 141 142
l 142 139
l 141 136
l 135 142
l 137 134
l 133 138
l 143 144
l 144 145
l 145 146
l 146 147
l 148 149
l 149 150
l 147 148
l 151 145
l 143 151
l 152 146
l 151 152
l 153 148
l 147 154
l 154 153
l 155 150
l 149 156
l 156 155
l 153 156
l 152 154
l 158 157
l 201 157
l 202 201
l 203 202
l 204 205
l 206 207
l 207 204
l 208 206
l 209 208
l 210 209
l 211 212
l 159 211
l 212 210
l 205 203
l 160 159
l 161 162
l 163 162
l 164 163
l 161 164
l 165 163
l 166 165
l 164 166
l 168 169
l 167 168
l 170 167
l 169 170
l 172 173
l 171 172
l 174 171
l 173 174
l 172 167
l 170 173
l 168 165
l 166 169
l 176 177
l 175 176
l 178 175
l 177 178
l 179 175
l 180 179
l 178 180
l 182 183
l 181 182
l 184 181
l 183 184
l 186 187
l 185 186
l 187 188
l 188 185
l 186 181
l 184 187
l 182 179
l 180 183
l 176 171
l 174 177
# </edges>
