solid OBJECT
  facet normal 0 1 0
    outer loop
      vertex 1.5323367118835449 -0.21899068355560303 0.67966258525848389
      vertex 0.46766328811645508 -0.21899068355560303 0.67966258525848389
      vertex 0.46766328811645508 -0.21899068355560303 1.6860029697418213
    endloop
  endfacet
  facet normal 0 1 0
    outer loop
      vertex 1.5323367118835449 -0.21899068355560303 0.67966258525848389
      vertex 0.46766328811645508 -0.21899068355560303 1.6860029697418213
      vertex 1.5323367118835449 -0.21899068355560303 1.6860029697418213
    endloop
  endfacet
endsolid OBJECT
