solid OBJECT
  facet normal -0 -0.99999991449792058 -0.00041352648210450475
    outer loop
      vertex 1.5323367118835449 -0.21907401084899902 2.062666654586792
      vertex 0.46766328811645508 -0.21907401084899902 2.062666654586792
      vertex 0.46766328811645508 -0.21899068355560303 1.861162543296814
    endloop
  endfacet
  facet normal 0 -0.99999991449792047 -0.00041352648210450475
    outer loop
      vertex 1.5323367118835449 -0.21907401084899902 2.062666654586792
      vertex 0.46766328811645508 -0.21899068355560303 1.861162543296814
      vertex 1.5323367118835449 -0.21899068355560303 1.861162543296814
    endloop
  endfacet
  facet normal -0 -0.99999991449781955 -0.00041352672674576079
    outer loop
      vertex 1.5323367118835449 -0.21915733814239502 2.2641706466674805
      vertex 0.46766328811645508 -0.21915733814239502 2.2641706466674805
      vertex 0.46766328811645508 -0.21907401084899902 2.062666654586792
    endloop
  endfacet
  facet normal 0 -0.99999991449781955 -0.00041352672674576084
    outer loop
      vertex 1.5323367118835449 -0.21915733814239502 2.2641706466674805
      vertex 0.46766328811645508 -0.21907401084899902 2.062666654586792
      vertex 1.5323367118835449 -0.21907401084899902 2.062666654586792
    endloop
  endfacet
endsolid OBJECT
