solid OBJECT
  facet normal -0 1 -0
    outer loop
      vertex 1.5 1 0.10000000149011612
      vertex 2 1 0.10000000149011612
      vertex 2 1 0
    endloop
  endfacet
  facet normal -0 1 -0
    outer loop
      vertex 1.5 1 0.10000000149011612
      vertex 2 1 0
      vertex 1.5 1 0
    endloop
  endfacet
  facet normal -0 1 -0
    outer loop
      vertex 1 1 0.10000000149011612
      vertex 1.5 1 0.10000000149011612
      vertex 1.5 1 0
    endloop
  endfacet
  facet normal -0 1 -0
    outer loop
      vertex 1 1 0.10000000149011612
      vertex 1.5 1 0
      vertex 1 1 0
    endloop
  endfacet
  facet normal -0 1 -0
    outer loop
      vertex 0.5 1 0.10000000149011612
      vertex 1 1 0.10000000149011612
      vertex 1 1 0
    endloop
  endfacet
  facet normal -0 1 -0
    outer loop
      vertex 0.5 1 0.10000000149011612
      vertex 1 1 0
      vertex 0.5 1 0
    endloop
  endfacet
  facet normal -0 1 -0
    outer loop
      vertex 0 1 0.10000000149011612
      vertex 0.5 1 0.10000000149011612
      vertex 0.5 1 0
    endloop
  endfacet
  facet normal -0 1 -0
    outer loop
      vertex 0 1 0.10000000149011612
      vertex 0.5 1 0
      vertex 0 1 0
    endloop
  endfacet
endsolid OBJECT
