solid OBJECT
  facet normal -0 1 -0
    outer loop
      vertex 2 1 0.10000000149011612
      vertex 0 1 0.10000000149011612
      vertex 0 1 3
    endloop
  endfacet
  facet normal 0 1 0
    outer loop
      vertex 2 1 0.10000000149011612
      vertex 0 1 3
      vertex 2 1 3
    endloop
  endfacet
  facet normal 0 -0 1
    outer loop
      vertex 2 1 0
      vertex 0 1 0
      vertex 0 0 0
    endloop
  endfacet
  facet normal 0 -0 1
    outer loop
      vertex 2 1 0
      vertex 0 0 0
      vertex 2 0 0
    endloop
  endfacet
  facet normal 0 -0 1
    outer loop
      vertex 2 1 3
      vertex 0 1 3
      vertex 0 0 3
    endloop
  endfacet
  facet normal 0 -0 1
    outer loop
      vertex 2 1 3
      vertex 0 0 3
      vertex 2 0 3
    endloop
  endfacet
  facet normal 1 0 -0
    outer loop
      vertex 0 0 0
      vertex 0 1 0
      vertex 0 1 3
    endloop
  endfacet
  facet normal 1 -0 0
    outer loop
      vertex 0 0 0
      vertex 0 1 3
      vertex 0 0 3
    endloop
  endfacet
  facet normal 1 0 -0
    outer loop
      vertex 2 0 0
      vertex 2 1 0
      vertex 2 1 3
    endloop
  endfacet
  facet normal 1 -0 0
    outer loop
      vertex 2 0 0
      vertex 2 1 3
      vertex 2 0 3
    endloop
  endfacet
  facet normal 9.6353567568002514e-13 1 -6.4235709478566228e-13
    outer loop
      vertex 0.2720000147819519 -2.9286989500221239e-13 2.52349853515625
      vertex 0 0 2.5714285373687744
      vertex 0.28571429848670959 0 3
    endloop
  endfacet
  facet normal 0 1 0
    outer loop
      vertex 0 0 3
      vertex 0.28571429848670959 0 3
      vertex 0 0 2.5714285373687744
    endloop
  endfacet
  facet normal 1.0767321154540538e-12 1 -3.3005271974607017e-18
    outer loop
      vertex 0.2720000147819519 -2.9286989500221239e-13 2.52349853515625
      vertex 0.2720000147819519 -2.9287089788922194e-13 2.2196419239044189
      vertex 0 0 2.1428570747375488
    endloop
  endfacet
  facet normal 1.0767274966399937e-12 1 -0
    outer loop
      vertex 0.2720000147819519 -2.9286989500221239e-13 2.52349853515625
      vertex 0 0 2.1428570747375488
      vertex 0 0 2.5714285373687744
    endloop
  endfacet
  facet normal 1.0767311837243873e-12 1 4.7860770898655598e-29
    outer loop
      vertex 0 0 1.7142857313156128
      vertex 0 0 2.1428570747375488
      vertex 0.2720000147819519 -2.9287089788922194e-13 2.2196419239044189
    endloop
  endfacet
  facet normal 1.076737150125074e-12 1 -3.2113212399041616e-18
    outer loop
      vertex 0 0 1.7142857313156128
      vertex 0.2720000147819519 -2.9287089788922194e-13 2.2196419239044189
      vertex 0.2720000147819519 -2.9287187367117717e-13 1.9157850742340088
    endloop
  endfacet
  facet normal 1.0767372162084562e-12 1 -3.3005259025434492e-18
    outer loop
      vertex 0.2720000147819519 -2.9287287655818672e-13 1.6119283437728882
      vertex 0 0 1.7142857313156128
      vertex 0.2720000147819519 -2.9287187367117717e-13 1.9157850742340088
    endloop
  endfacet
  facet normal 0 1 0
    outer loop
      vertex 0.57142859697341919 0 2.5714285373687744
      vertex 0.28571429848670959 0 3
      vertex 0.57142859697341919 0 3
    endloop
  endfacet
  facet normal -0 1 0
    outer loop
      vertex 0.8571428656578064 0 3
      vertex 0.8571428656578064 0 2.5714285373687744
      vertex 0.57142859697341919 0 2.5714285373687744
    endloop
  endfacet
  facet normal -0 1 0
    outer loop
      vertex 0.8571428656578064 0 3
      vertex 0.57142859697341919 0 2.5714285373687744
      vertex 0.57142859697341919 0 3
    endloop
  endfacet
  facet normal 0 1 -6.1103668158330194e-12
    outer loop
      vertex 0.85439997911453247 -2.9286989500221239e-13 2.52349853515625
      vertex 0.56319999694824219 -2.9286989500221239e-13 2.52349853515625
      vertex 0.57142859697341919 0 2.5714285373687744
    endloop
  endfacet
  facet normal -0 1 -6.1103668158330194e-12
    outer loop
      vertex 0.85439997911453247 -2.9286989500221239e-13 2.52349853515625
      vertex 0.57142859697341919 0 2.5714285373687744
      vertex 0.8571428656578064 0 2.5714285373687744
    endloop
  endfacet
  facet normal 0 1 -6.1103668158330194e-12
    outer loop
      vertex 0.57142859697341919 0 2.5714285373687744
      vertex 0.56319999694824219 -2.9286989500221239e-13 2.52349853515625
      vertex 0.2720000147819519 -2.9286989500221239e-13 2.52349853515625
    endloop
  endfacet
  facet normal 0 1 -0
    outer loop
      vertex 0.8571428656578064 0 2.5714285373687744
      vertex 0.8571428656578064 0 3
      vertex 1.1428571939468384 0 3
    endloop
  endfacet
  facet normal 0 1 -0
    outer loop
      vertex 0.8571428656578064 0 2.5714285373687744
      vertex 1.1428571939468384 0 3
      vertex 1.1428571939468384 0 2.5714285373687744
    endloop
  endfacet
  facet normal -8.8378357707507459e-13 1 -5.8918903089764901e-13
    outer loop
      vertex 0.28571429848670959 0 3
      vertex 0.57142859697341919 0 2.5714285373687744
      vertex 0.2720000147819519 -2.9286989500221239e-13 2.52349853515625
    endloop
  endfacet
  facet normal 1.076742309633944e-12 1 -3.2113224997720048e-18
    outer loop
      vertex 0.2720000147819519 -2.9287287655818672e-13 1.6119283437728882
      vertex 0.2720000147819519 -2.9287385234014196e-13 1.3080716133117676
      vertex 0 0 1.2857142686843872
    endloop
  endfacet
  facet normal 1.0767384582422449e-12 1 -0
    outer loop
      vertex 0.2720000147819519 -2.9287287655818672e-13 1.6119283437728882
      vertex 0 0 1.2857142686843872
      vertex 0 0 1.7142857313156128
    endloop
  endfacet
  facet normal 1.0767475173739845e-12 1 -3.3005259025434492e-18
    outer loop
      vertex 0.2720000147819519 -2.9287385234014196e-13 1.3080716133117676
      vertex 0.2720000147819519 -2.9287485522715151e-13 1.004214882850647
      vertex 0 0 0.8571428656578064
    endloop
  endfacet
  facet normal 1.0767420456757091e-12 1 -0
    outer loop
      vertex 0.2720000147819519 -2.9287385234014196e-13 1.3080716133117676
      vertex 0 0 0.8571428656578064
      vertex 0 0 1.2857142686843872
    endloop
  endfacet
  facet normal 1.0767493201935665e-12 1 -0
    outer loop
      vertex 0 0 0.4285714328289032
      vertex 0 0 0.8571428656578064
      vertex 0.2720000147819519 -2.9287583100910675e-13 0.70035821199417114
    endloop
  endfacet
  facet normal 1.0767526181316836e-12 1 -3.3005255788273109e-18
    outer loop
      vertex 0 0 0.4285714328289032
      vertex 0.2720000147819519 -2.9287583100910675e-13 0.70035821199417114
      vertex 0.2720000147819519 -2.928768338961163e-13 0.39650145173072815
    endloop
  endfacet
  facet normal 1.0767474691415175e-12 1 -3.2113231297062965e-18
    outer loop
      vertex 0 0 0.8571428656578064
      vertex 0.2720000147819519 -2.9287485522715151e-13 1.004214882850647
      vertex 0.2720000147819519 -2.9287583100910675e-13 0.70035821199417114
    endloop
  endfacet
  facet normal 1.0767530072779601e-12 1 -0
    outer loop
      vertex 0 0 0
      vertex 0 0 0.4285714328289032
      vertex 0.2720000147819519 -2.928768338961163e-13 0.39650145173072815
    endloop
  endfacet
  facet normal -4.7471080171609386e-18 1 7.3864902939924319e-13
    outer loop
      vertex 0.2720000147819519 -2.928768338961163e-13 0.39650145173072815
      vertex 0.56319999694824219 -2.9287545153834638e-13 0.39650145173072815
      vertex 0.57142859697341919 0 0
    endloop
  endfacet
  facet normal 0 1 7.3865261430370406e-13
    outer loop
      vertex 0.2720000147819519 -2.928768338961163e-13 0.39650145173072815
      vertex 0.57142859697341919 0 0
      vertex 0.28571429848670959 0 0
    endloop
  endfacet
  facet normal 0 1 7.3864912791604056e-13
    outer loop
      vertex 0.8571428656578064 0 0
      vertex 0.57142859697341919 0 0
      vertex 0.56319999694824219 -2.9287545153834638e-13 0.39650145173072815
    endloop
  endfacet
  facet normal -4.7471080170256312e-18 1 7.3864560868920656e-13
    outer loop
      vertex 0.8571428656578064 0 0
      vertex 0.56319999694824219 -2.9287545153834638e-13 0.39650145173072815
      vertex 0.85439997911453247 -2.9287406918057646e-13 0.39650145173072815
    endloop
  endfacet
  facet normal 0 1 7.3864564152837695e-13
    outer loop
      vertex 1.1428571939468384 0 0
      vertex 0.8571428656578064 0 0
      vertex 0.85439997911453247 -2.9287406918057646e-13 0.39650145173072815
    endloop
  endfacet
  facet normal -4.8401885664480552e-18 1 7.386421202617913e-13
    outer loop
      vertex 1.1428571939468384 0 0
      vertex 0.85439997911453247 -2.9287406918057646e-13 0.39650145173072815
      vertex 1.1455999612808228 -2.9287265971775223e-13 0.39650145173072815
    endloop
  endfacet
  facet normal 0 1 7.3865261430370416e-13
    outer loop
      vertex 0 0 0
      vertex 0.2720000147819519 -2.928768338961163e-13 0.39650145173072815
      vertex 0.28571429848670959 0 0
    endloop
  endfacet
  facet normal 0 1 -6.1103668158330194e-12
    outer loop
      vertex 1.1455999612808228 -2.9286989500221239e-13 2.52349853515625
      vertex 0.85439997911453247 -2.9286989500221239e-13 2.52349853515625
      vertex 0.8571428656578064 0 2.5714285373687744
    endloop
  endfacet
  facet normal -9.7032282282365837e-29 1 -6.1103668158330202e-12
    outer loop
      vertex 1.1455999612808228 -2.9286989500221239e-13 2.52349853515625
      vertex 0.8571428656578064 0 2.5714285373687744
      vertex 1.1428571939468384 0 2.5714285373687744
    endloop
  endfacet
  facet normal -0 1 0
    outer loop
      vertex 1.4285714626312256 0 3
      vertex 1.4285714626312256 0 2.5714285373687744
      vertex 1.1428571939468384 0 2.5714285373687744
    endloop
  endfacet
  facet normal -0 1 0
    outer loop
      vertex 1.4285714626312256 0 3
      vertex 1.1428571939468384 0 2.5714285373687744
      vertex 1.1428571939468384 0 3
    endloop
  endfacet
  facet normal 0 1 -0
    outer loop
      vertex 1.4285714626312256 0 2.5714285373687744
      vertex 1.4285714626312256 0 3
      vertex 1.7142857313156128 0 3
    endloop
  endfacet
  facet normal 0 1 -0
    outer loop
      vertex 1.4285714626312256 0 2.5714285373687744
      vertex 1.7142857313156128 0 3
      vertex 1.7142857313156128 0 2.5714285373687744
    endloop
  endfacet
  facet normal 4.706318547736006e-29 1 -6.1103668158330202e-12
    outer loop
      vertex 1.1428571939468384 0 2.5714285373687744
      vertex 1.4285714626312256 0 2.5714285373687744
      vertex 1.4368000030517578 -2.9286989500221239e-13 2.52349853515625
    endloop
  endfacet
  facet normal 1.7878114642662806e-28 1 -6.1103668158330194e-12
    outer loop
      vertex 1.1428571939468384 0 2.5714285373687744
      vertex 1.4368000030517578 -2.9286989500221239e-13 2.52349853515625
      vertex 1.1455999612808228 -2.9286989500221239e-13 2.52349853515625
    endloop
  endfacet
  facet normal -2.4183583297151469e-29 1 -6.1103668158330194e-12
    outer loop
      vertex 1.4285714626312256 0 2.5714285373687744
      vertex 1.7142857313156128 0 2.5714285373687744
      vertex 1.7279999256134033 -2.9286989500221239e-13 2.52349853515625
    endloop
  endfacet
  facet normal 0 1 -6.1103668158330202e-12
    outer loop
      vertex 1.4285714626312256 0 2.5714285373687744
      vertex 1.7279999256134033 -2.9286989500221239e-13 2.52349853515625
      vertex 1.4368000030517578 -2.9286989500221239e-13 2.52349853515625
    endloop
  endfacet
  facet normal -0 1 0
    outer loop
      vertex 2 0 3
      vertex 2 0 2.5714285373687744
      vertex 1.7142857313156128 0 2.5714285373687744
    endloop
  endfacet
  facet normal -0 1 0
    outer loop
      vertex 2 0 3
      vertex 1.7142857313156128 0 2.5714285373687744
      vertex 1.7142857313156128 0 3
    endloop
  endfacet
  facet normal -0 1 -6.1103668158330194e-12
    outer loop
      vertex 1.7279999256134033 -2.9286989500221239e-13 2.52349853515625
      vertex 1.7142857313156128 0 2.5714285373687744
      vertex 2 0 2.5714285373687744
    endloop
  endfacet
  facet normal -1.0767272606916762e-12 1 0
    outer loop
      vertex 1.7279999256134033 -2.9286989500221239e-13 2.2196419239044189
      vertex 1.7279999256134033 -2.9286989500221239e-13 2.52349853515625
      vertex 2 0 2.5714285373687744
    endloop
  endfacet
  facet normal -1.0767272606916762e-12 1 0
    outer loop
      vertex 1.7279999256134033 -2.9286989500221239e-13 2.2196419239044189
      vertex 2 0 2.5714285373687744
      vertex 2 0 2.1428570747375488
    endloop
  endfacet
  facet normal -1.076727260691676e-12 0.99999999999999989 0
    outer loop
      vertex 2 0 2.1428570747375488
      vertex 2 0 1.7142857313156128
      vertex 1.7279999256134033 -2.9286989500221239e-13 1.9157850742340088
    endloop
  endfacet
  facet normal -1.0767272606916762e-12 1 -0
    outer loop
      vertex 2 0 2.1428570747375488
      vertex 1.7279999256134033 -2.9286989500221239e-13 1.9157850742340088
      vertex 1.7279999256134033 -2.9286989500221239e-13 2.2196419239044189
    endloop
  endfacet
  facet normal -1.0767272606916762e-12 1 0
    outer loop
      vertex 1.7279999256134033 -2.9286989500221239e-13 1.3080716133117676
      vertex 1.7279999256134033 -2.9286989500221239e-13 1.6119283437728882
      vertex 2 0 1.7142857313156128
    endloop
  endfacet
  facet normal -1.0767272606916762e-12 1 0
    outer loop
      vertex 1.7279999256134033 -2.9286989500221239e-13 1.3080716133117676
      vertex 2 0 1.7142857313156128
      vertex 2 0 1.2857142686843872
    endloop
  endfacet
  facet normal 0 1 7.3864208678017088e-13
    outer loop
      vertex 1.4285714626312256 0 0
      vertex 1.1428571939468384 0 0
      vertex 1.1455999612808228 -2.9287265971775223e-13 0.39650145173072815
    endloop
  endfacet
  facet normal -4.7471070454255426e-18 1 7.3863869890857075e-13
    outer loop
      vertex 1.4285714626312256 0 0
      vertex 1.1455999612808228 -2.9287265971775223e-13 0.39650145173072815
      vertex 1.4368000030517578 -2.9287127735998231e-13 0.39650145173072815
    endloop
  endfacet
  facet normal 0 1 7.3863860039250727e-13
    outer loop
      vertex 1.7142857313156128 0 0
      vertex 1.4285714626312256 0 0
      vertex 1.4368000030517578 -2.9287127735998231e-13 0.39650145173072815
    endloop
  endfacet
  facet normal -4.7471089888021227e-18 1 7.3863527819787426e-13
    outer loop
      vertex 1.7142857313156128 0 0
      vertex 1.4368000030517578 -2.9287127735998231e-13 0.39650145173072815
      vertex 1.7279999256134033 -2.9286989500221239e-13 0.39650145173072815
    endloop
  endfacet
  facet normal -1.0767272606916762e-12 1 -0
    outer loop
      vertex 1.7279999256134033 -2.9286989500221239e-13 1.004214882850647
      vertex 1.7279999256134033 -2.9286989500221239e-13 1.3080716133117676
      vertex 2 0 1.2857142686843872
    endloop
  endfacet
  facet normal -1.0767272606916762e-12 1 0
    outer loop
      vertex 1.7279999256134033 -2.9286989500221239e-13 1.004214882850647
      vertex 2 0 1.2857142686843872
      vertex 2 0 0.8571428656578064
    endloop
  endfacet
  facet normal -1.0767272606916762e-12 1 -0
    outer loop
      vertex 1.7279999256134033 -2.9286989500221239e-13 0.70035821199417114
      vertex 1.7279999256134033 -2.9286989500221239e-13 1.004214882850647
      vertex 2 0 0.8571428656578064
    endloop
  endfacet
  facet normal -1.0767272606916762e-12 1 -0
    outer loop
      vertex 2 0 0.4285714328289032
      vertex 1.7279999256134033 -2.9286989500221239e-13 0.39650145173072815
      vertex 1.7279999256134033 -2.9286989500221239e-13 0.70035821199417114
    endloop
  endfacet
  facet normal -1.0767272606916762e-12 1 0
    outer loop
      vertex 1.7279999256134033 -2.9286989500221239e-13 0.39650145173072815
      vertex 2 0 0.4285714328289032
      vertex 2 0 0
    endloop
  endfacet
  facet normal -1.0767272606916762e-12 1 0
    outer loop
      vertex 2 0 0.4285714328289032
      vertex 1.7279999256134033 -2.9286989500221239e-13 0.70035821199417114
      vertex 2 0 0.8571428656578064
    endloop
  endfacet
  facet normal 0 1 7.3863511400484366e-13
    outer loop
      vertex 1.7142857313156128 0 0
      vertex 1.7279999256134033 -2.9286989500221239e-13 0.39650145173072815
      vertex 2 0 0
    endloop
  endfacet
  facet normal -1.0767272606916762e-12 1 -0
    outer loop
      vertex 2 0 1.7142857313156128
      vertex 1.7279999256134033 -2.9286989500221239e-13 1.6119283437728882
      vertex 1.7279999256134033 -2.9286989500221239e-13 1.9157850742340088
    endloop
  endfacet
endsolid OBJECT
