solid OBJECT
  facet normal 0 -0 -1
    outer loop
      vertex 0.73000001907348633 -1.3126559257507324 0
      vertex 0.73000001907348633 -0.31265592575073242 0
      vertex 2.7300000190734863 -0.31265592575073242 0
    endloop
  endfacet
  facet normal -2.7755575615628914e-17 5.5511151231257827e-17 -1
    outer loop
      vertex 0.73000001907348633 -1.3126559257507324 0
      vertex 2.7300000190734863 -0.31265592575073242 0
      vertex 2.7300000190734863 -1.3126559257507324 -5.5511151231257827e-17
    endloop
  endfacet
endsolid OBJECT
