solid OBJECT
  facet normal -0 -1 -0
    outer loop
      vertex 0.73000001907348633 -0.31265592575073242 0.4285714328289032
      vertex 0.73000001907348633 -0.31265592575073242 0
      vertex 1.0019999742507935 -0.31265592575073242 0.39650145173072815
    endloop
  endfacet
  facet normal 0 -1 0
    outer loop
      vertex 1.0157142877578735 -0.31265592575073242 0
      vertex 1.0019999742507935 -0.31265592575073242 0.39650145173072815
      vertex 0.73000001907348633 -0.31265592575073242 0
    endloop
  endfacet
  facet normal -0 -1 0
    outer loop
      vertex 1.0019999742507935 -0.31265592575073242 0.70035821199417114
      vertex 0.73000001907348633 -0.31265592575073242 0.4285714328289032
      vertex 1.0019999742507935 -0.31265592575073242 0.39650145173072815
    endloop
  endfacet
  facet normal -0 -1 -0
    outer loop
      vertex 0.73000001907348633 -0.31265592575073242 1.2857142686843872
      vertex 0.73000001907348633 -0.31265592575073242 0.8571428656578064
      vertex 1.0019999742507935 -0.31265592575073242 1.004214882850647
    endloop
  endfacet
  facet normal -0 -1 0
    outer loop
      vertex 0.73000001907348633 -0.31265592575073242 1.2857142686843872
      vertex 1.0019999742507935 -0.31265592575073242 1.004214882850647
      vertex 1.0019999742507935 -0.31265592575073242 1.3080716133117676
    endloop
  endfacet
  facet normal -0 -1 0
    outer loop
      vertex 0.73000001907348633 -0.31265592575073242 0.8571428656578064
      vertex 1.0019999742507935 -0.31265592575073242 0.70035821199417114
      vertex 1.0019999742507935 -0.31265592575073242 1.004214882850647
    endloop
  endfacet
  facet normal 0 -1 -0
    outer loop
      vertex 1.0019999742507935 -0.31265592575073242 0.70035821199417114
      vertex 0.73000001907348633 -0.31265592575073242 0.8571428656578064
      vertex 0.73000001907348633 -0.31265592575073242 0.4285714328289032
    endloop
  endfacet
  facet normal -0 -1 0
    outer loop
      vertex 1.0157142877578735 -0.31265592575073242 0
      vertex 1.3014285564422607 -0.31265592575073242 0
      vertex 1.2932000160217285 -0.31265592575073242 0.39650145173072815
    endloop
  endfacet
  facet normal 0 -1 0
    outer loop
      vertex 1.0157142877578735 -0.31265592575073242 0
      vertex 1.2932000160217285 -0.31265592575073242 0.39650145173072815
      vertex 1.0019999742507935 -0.31265592575073242 0.39650145173072815
    endloop
  endfacet
  facet normal -0 -1 0
    outer loop
      vertex 1.5844000577926636 -0.31265592575073242 0.39650145173072815
      vertex 1.3014285564422607 -0.31265592575073242 0
      vertex 1.5871428251266479 -0.31265592575073242 0
    endloop
  endfacet
  facet normal 0 -1 0
    outer loop
      vertex 1.0019999742507935 -0.31265592575073242 1.3080716133117676
      vertex 1.0019999742507935 -0.31265592575073242 1.6119283437728882
      vertex 0.73000001907348633 -0.31265592575073242 1.7142857313156128
    endloop
  endfacet
  facet normal 0 -1 -0
    outer loop
      vertex 1.0019999742507935 -0.31265592575073242 1.3080716133117676
      vertex 0.73000001907348633 -0.31265592575073242 1.7142857313156128
      vertex 0.73000001907348633 -0.31265592575073242 1.2857142686843872
    endloop
  endfacet
  facet normal 0 -1 0
    outer loop
      vertex 1.3014285564422607 -0.31265592575073242 0
      vertex 1.5844000577926636 -0.31265592575073242 0.39650145173072815
      vertex 1.2932000160217285 -0.31265592575073242 0.39650145173072815
    endloop
  endfacet
  facet normal -0 -1 -0
    outer loop
      vertex 0.73000001907348633 -0.31265592575073242 2.1428570747375488
      vertex 0.73000001907348633 -0.31265592575073242 1.7142857313156128
      vertex 1.0019999742507935 -0.31265592575073242 1.9157850742340088
    endloop
  endfacet
  facet normal -0 -1 0
    outer loop
      vertex 0.73000001907348633 -0.31265592575073242 2.1428570747375488
      vertex 1.0019999742507935 -0.31265592575073242 1.9157850742340088
      vertex 1.0019999742507935 -0.31265592575073242 2.2196419239044189
    endloop
  endfacet
  facet normal 0 -1 0
    outer loop
      vertex 1.0019999742507935 -0.31265592575073242 1.6119283437728882
      vertex 1.0019999742507935 -0.31265592575073242 1.9157850742340088
      vertex 0.73000001907348633 -0.31265592575073242 1.7142857313156128
    endloop
  endfacet
  facet normal 0 -1 0
    outer loop
      vertex 0.73000001907348633 -0.31265592575073242 2.5714285373687744
      vertex 1.0157142877578735 -0.31265592575073242 3
      vertex 0.73000001907348633 -0.31265592575073242 3
    endloop
  endfacet
  facet normal 0 -1 0
    outer loop
      vertex 1.0019999742507935 -0.31265592575073242 2.2196419239044189
      vertex 1.0019999742507935 -0.31265592575073242 2.52349853515625
      vertex 0.73000001907348633 -0.31265592575073242 2.5714285373687744
    endloop
  endfacet
  facet normal 0 -1 -0
    outer loop
      vertex 1.0019999742507935 -0.31265592575073242 2.2196419239044189
      vertex 0.73000001907348633 -0.31265592575073242 2.5714285373687744
      vertex 0.73000001907348633 -0.31265592575073242 2.1428570747375488
    endloop
  endfacet
  facet normal 0 -1 0
    outer loop
      vertex 1.0019999742507935 -0.31265592575073242 2.52349853515625
      vertex 1.0157142877578735 -0.31265592575073242 3
      vertex 0.73000001907348633 -0.31265592575073242 2.5714285373687744
    endloop
  endfacet
  facet normal -0 -1 0
    outer loop
      vertex 1.2932000160217285 -0.31265592575073242 2.52349853515625
      vertex 1.5844000577926636 -0.31265592575073242 2.52349853515625
      vertex 1.5871428251266479 -0.31265592575073242 2.5714285373687744
    endloop
  endfacet
  facet normal 0 -1 -0
    outer loop
      vertex 1.2932000160217285 -0.31265592575073242 2.52349853515625
      vertex 1.5871428251266479 -0.31265592575073242 2.5714285373687744
      vertex 1.3014285564422607 -0.31265592575073242 2.5714285373687744
    endloop
  endfacet
  facet normal 0 -1 -0
    outer loop
      vertex 1.0019999742507935 -0.31265592575073242 2.52349853515625
      vertex 1.3014285564422607 -0.31265592575073242 2.5714285373687744
      vertex 1.0157142877578735 -0.31265592575073242 3
    endloop
  endfacet
  facet normal 0 -1 0
    outer loop
      vertex 1.3014285564422607 -0.31265592575073242 3
      vertex 1.0157142877578735 -0.31265592575073242 3
      vertex 1.3014285564422607 -0.31265592575073242 2.5714285373687744
    endloop
  endfacet
  facet normal 0 -1 0
    outer loop
      vertex 1.5871428251266479 -0.31265592575073242 2.5714285373687744
      vertex 1.5871428251266479 -0.31265592575073242 3
      vertex 1.3014285564422607 -0.31265592575073242 3
    endloop
  endfacet
  facet normal 0 -1 0
    outer loop
      vertex 1.5871428251266479 -0.31265592575073242 2.5714285373687744
      vertex 1.3014285564422607 -0.31265592575073242 3
      vertex 1.3014285564422607 -0.31265592575073242 2.5714285373687744
    endloop
  endfacet
  facet normal -0 -1 -0
    outer loop
      vertex 1.5871428251266479 -0.31265592575073242 3
      vertex 1.5871428251266479 -0.31265592575073242 2.5714285373687744
      vertex 1.8728570938110352 -0.31265592575073242 2.5714285373687744
    endloop
  endfacet
  facet normal -0 -1 -0
    outer loop
      vertex 1.5871428251266479 -0.31265592575073242 3
      vertex 1.8728570938110352 -0.31265592575073242 2.5714285373687744
      vertex 1.8728570938110352 -0.31265592575073242 3
    endloop
  endfacet
  facet normal 0 -1 0
    outer loop
      vertex 1.8728570938110352 -0.31265592575073242 2.5714285373687744
      vertex 1.5871428251266479 -0.31265592575073242 2.5714285373687744
      vertex 1.5844000577926636 -0.31265592575073242 2.52349853515625
    endloop
  endfacet
  facet normal 0 -1 0
    outer loop
      vertex 1.8728570938110352 -0.31265592575073242 2.5714285373687744
      vertex 1.5844000577926636 -0.31265592575073242 2.52349853515625
      vertex 1.8755999803543091 -0.31265592575073242 2.52349853515625
    endloop
  endfacet
  facet normal 0 -1 -0
    outer loop
      vertex 1.2932000160217285 -0.31265592575073242 2.52349853515625
      vertex 1.3014285564422607 -0.31265592575073242 2.5714285373687744
      vertex 1.0019999742507935 -0.31265592575073242 2.52349853515625
    endloop
  endfacet
  facet normal -0 -1 0
    outer loop
      vertex 1.5871428251266479 -0.31265592575073242 0
      vertex 1.8728570938110352 -0.31265592575073242 0
      vertex 1.8755999803543091 -0.31265592575073242 0.39650145173072815
    endloop
  endfacet
  facet normal 0 -1 0
    outer loop
      vertex 1.5871428251266479 -0.31265592575073242 0
      vertex 1.8755999803543091 -0.31265592575073242 0.39650145173072815
      vertex 1.5844000577926636 -0.31265592575073242 0.39650145173072815
    endloop
  endfacet
  facet normal -0 -1 0
    outer loop
      vertex 1.8728570938110352 -0.31265592575073242 0
      vertex 2.1585714817047119 -0.31265592575073242 0
      vertex 2.1668000221252441 -0.31265592575073242 0.39650145173072815
    endloop
  endfacet
  facet normal 0 -1 0
    outer loop
      vertex 1.8728570938110352 -0.31265592575073242 0
      vertex 2.1668000221252441 -0.31265592575073242 0.39650145173072815
      vertex 1.8755999803543091 -0.31265592575073242 0.39650145173072815
    endloop
  endfacet
  facet normal -0 -1 0
    outer loop
      vertex 2.1585714817047119 -0.31265592575073242 0
      vertex 2.4442856311798096 -0.31265592575073242 0
      vertex 2.4579999446868896 -0.31265592575073242 0.39650145173072815
    endloop
  endfacet
  facet normal 0 -1 0
    outer loop
      vertex 2.1585714817047119 -0.31265592575073242 0
      vertex 2.4579999446868896 -0.31265592575073242 0.39650145173072815
      vertex 2.1668000221252441 -0.31265592575073242 0.39650145173072815
    endloop
  endfacet
  facet normal 0 -1 -0
    outer loop
      vertex 2.7300000190734863 -0.31265592575073242 0.4285714328289032
      vertex 2.4579999446868896 -0.31265592575073242 0.70035821199417114
      vertex 2.4579999446868896 -0.31265592575073242 0.39650145173072815
    endloop
  endfacet
  facet normal -0 -1 0
    outer loop
      vertex 2.4579999446868896 -0.31265592575073242 0.39650145173072815
      vertex 2.4442856311798096 -0.31265592575073242 0
      vertex 2.7300000190734863 -0.31265592575073242 0
    endloop
  endfacet
  facet normal 0 -1 0
    outer loop
      vertex 2.7300000190734863 -0.31265592575073242 0.4285714328289032
      vertex 2.7300000190734863 -0.31265592575073242 0.8571428656578064
      vertex 2.4579999446868896 -0.31265592575073242 0.70035821199417114
    endloop
  endfacet
  facet normal 0 -1 -0
    outer loop
      vertex 2.4579999446868896 -0.31265592575073242 0.70035821199417114
      vertex 2.7300000190734863 -0.31265592575073242 0.8571428656578064
      vertex 2.4579999446868896 -0.31265592575073242 1.004214882850647
    endloop
  endfacet
  facet normal -0 -1 0
    outer loop
      vertex 2.4579999446868896 -0.31265592575073242 1.3080716133117676
      vertex 2.4579999446868896 -0.31265592575073242 1.004214882850647
      vertex 2.7300000190734863 -0.31265592575073242 0.8571428656578064
    endloop
  endfacet
  facet normal 0 -1 0
    outer loop
      vertex 2.4579999446868896 -0.31265592575073242 1.3080716133117676
      vertex 2.7300000190734863 -0.31265592575073242 0.8571428656578064
      vertex 2.7300000190734863 -0.31265592575073242 1.2857142686843872
    endloop
  endfacet
  facet normal 0 -1 0
    outer loop
      vertex 2.7300000190734863 -0.31265592575073242 1.2857142686843872
      vertex 2.7300000190734863 -0.31265592575073242 1.7142857313156128
      vertex 2.4579999446868896 -0.31265592575073242 1.6119283437728882
    endloop
  endfacet
  facet normal 0 -1 0
    outer loop
      vertex 2.7300000190734863 -0.31265592575073242 1.2857142686843872
      vertex 2.4579999446868896 -0.31265592575073242 1.6119283437728882
      vertex 2.4579999446868896 -0.31265592575073242 1.3080716133117676
    endloop
  endfacet
  facet normal 0 -1 0
    outer loop
      vertex 2.7300000190734863 -0.31265592575073242 0
      vertex 2.7300000190734863 -0.31265592575073242 0.4285714328289032
      vertex 2.4579999446868896 -0.31265592575073242 0.39650145173072815
    endloop
  endfacet
  facet normal -0 -1 0
    outer loop
      vertex 2.1585714817047119 -0.31265592575073242 2.5714285373687744
      vertex 1.8728570938110352 -0.31265592575073242 2.5714285373687744
      vertex 1.8755999803543091 -0.31265592575073242 2.52349853515625
    endloop
  endfacet
  facet normal 0 -1 0
    outer loop
      vertex 2.1585714817047119 -0.31265592575073242 2.5714285373687744
      vertex 1.8755999803543091 -0.31265592575073242 2.52349853515625
      vertex 2.1668000221252441 -0.31265592575073242 2.52349853515625
    endloop
  endfacet
  facet normal 0 -1 0
    outer loop
      vertex 2.1585714817047119 -0.31265592575073242 2.5714285373687744
      vertex 2.1585714817047119 -0.31265592575073242 3
      vertex 1.8728570938110352 -0.31265592575073242 3
    endloop
  endfacet
  facet normal 0 -1 0
    outer loop
      vertex 2.1585714817047119 -0.31265592575073242 2.5714285373687744
      vertex 1.8728570938110352 -0.31265592575073242 3
      vertex 1.8728570938110352 -0.31265592575073242 2.5714285373687744
    endloop
  endfacet
  facet normal 0 -1 0
    outer loop
      vertex 2.4442856311798096 -0.31265592575073242 2.5714285373687744
      vertex 2.4442856311798096 -0.31265592575073242 3
      vertex 2.1585714817047119 -0.31265592575073242 3
    endloop
  endfacet
  facet normal 0 -1 0
    outer loop
      vertex 2.4442856311798096 -0.31265592575073242 2.5714285373687744
      vertex 2.1585714817047119 -0.31265592575073242 3
      vertex 2.1585714817047119 -0.31265592575073242 2.5714285373687744
    endloop
  endfacet
  facet normal -0 -1 0
    outer loop
      vertex 2.4442856311798096 -0.31265592575073242 2.5714285373687744
      vertex 2.1585714817047119 -0.31265592575073242 2.5714285373687744
      vertex 2.1668000221252441 -0.31265592575073242 2.52349853515625
    endloop
  endfacet
  facet normal 0 -1 0
    outer loop
      vertex 2.4442856311798096 -0.31265592575073242 2.5714285373687744
      vertex 2.1668000221252441 -0.31265592575073242 2.52349853515625
      vertex 2.4579999446868896 -0.31265592575073242 2.52349853515625
    endloop
  endfacet
  facet normal 0 -1 -0
    outer loop
      vertex 2.7300000190734863 -0.31265592575073242 2.1428570747375488
      vertex 2.4579999446868896 -0.31265592575073242 2.2196419239044189
      vertex 2.4579999446868896 -0.31265592575073242 1.9157850742340088
    endloop
  endfacet
  facet normal -0 -1 0
    outer loop
      vertex 2.4579999446868896 -0.31265592575073242 1.9157850742340088
      vertex 2.7300000190734863 -0.31265592575073242 1.7142857313156128
      vertex 2.7300000190734863 -0.31265592575073242 2.1428570747375488
    endloop
  endfacet
  facet normal 0 -1 -0
    outer loop
      vertex 2.7300000190734863 -0.31265592575073242 1.7142857313156128
      vertex 2.4579999446868896 -0.31265592575073242 1.9157850742340088
      vertex 2.4579999446868896 -0.31265592575073242 1.6119283437728882
    endloop
  endfacet
  facet normal 0 -1 0
    outer loop
      vertex 2.7300000190734863 -0.31265592575073242 2.1428570747375488
      vertex 2.7300000190734863 -0.31265592575073242 2.5714285373687744
      vertex 2.4579999446868896 -0.31265592575073242 2.52349853515625
    endloop
  endfacet
  facet normal 0 -1 0
    outer loop
      vertex 2.7300000190734863 -0.31265592575073242 2.1428570747375488
      vertex 2.4579999446868896 -0.31265592575073242 2.52349853515625
      vertex 2.4579999446868896 -0.31265592575073242 2.2196419239044189
    endloop
  endfacet
  facet normal -0 -1 -0
    outer loop
      vertex 2.4442856311798096 -0.31265592575073242 3
      vertex 2.4442856311798096 -0.31265592575073242 2.5714285373687744
      vertex 2.7300000190734863 -0.31265592575073242 2.5714285373687744
    endloop
  endfacet
  facet normal -0 -1 -0
    outer loop
      vertex 2.4442856311798096 -0.31265592575073242 3
      vertex 2.7300000190734863 -0.31265592575073242 2.5714285373687744
      vertex 2.7300000190734863 -0.31265592575073242 3
    endloop
  endfacet
  facet normal -0 -1 0
    outer loop
      vertex 2.7300000190734863 -0.31265592575073242 2.5714285373687744
      vertex 2.4442856311798096 -0.31265592575073242 2.5714285373687744
      vertex 2.4579999446868896 -0.31265592575073242 2.52349853515625
    endloop
  endfacet
  facet normal 1 -0 0
    outer loop
      vertex 2.7300000190734863 -0.31265592575073242 3
      vertex 2.7300000190734863 -1.3126559257507324 3
      vertex 2.7300000190734863 -1.3126559257507324 -5.5511151231257827e-17
    endloop
  endfacet
  facet normal 1 0 0
    outer loop
      vertex 2.7300000190734863 -0.31265592575073242 3
      vertex 2.7300000190734863 -1.3126559257507324 -5.5511151231257827e-17
      vertex 2.7300000190734863 -0.31265592575073242 0
    endloop
  endfacet
  facet normal 0 1 0
    outer loop
      vertex 0.73000001907348633 -1.3126559257507324 3
      vertex 2.7300000190734863 -1.3126559257507324 3
      vertex 2.7300000190734863 -1.3126559257507324 -5.5511151231257827e-17
    endloop
  endfacet
  facet normal -0 1 0
    outer loop
      vertex 0.73000001907348633 -1.3126559257507324 3
      vertex 2.7300000190734863 -1.3126559257507324 -5.5511151231257827e-17
      vertex 0.73000001907348633 -1.3126559257507324 0
    endloop
  endfacet
  facet normal -1 -0 -0
    outer loop
      vertex 0.73000001907348633 -1.3126559257507324 3
      vertex 0.73000001907348633 -0.31265592575073242 3
      vertex 0.73000001907348633 -0.31265592575073242 -5.5511151231257827e-17
    endloop
  endfacet
  facet normal -1 0 0
    outer loop
      vertex 0.73000001907348633 -1.3126559257507324 3
      vertex 0.73000001907348633 -0.31265592575073242 -5.5511151231257827e-17
      vertex 0.73000001907348633 -1.3126559257507324 0
    endloop
  endfacet
  facet normal 0 -0 -1
    outer loop
      vertex 0.73000001907348633 -1.3126559257507324 3
      vertex 0.73000001907348633 -0.31265592575073242 3
      vertex 2.7300000190734863 -0.31265592575073242 3
    endloop
  endfacet
  facet normal 0 0 -1
    outer loop
      vertex 0.73000001907348633 -1.3126559257507324 3
      vertex 2.7300000190734863 -0.31265592575073242 3
      vertex 2.7300000190734863 -1.3126559257507324 3
    endloop
  endfacet
endsolid OBJECT
