solid OBJECT
  facet normal -0 1 -0
    outer loop
      vertex 2.2596702575683594 0.0041562840342521667 0.60983133316040039
      vertex 1.2003298997879028 0.0041562840342521667 0.60983133316040039
      vertex 1.2003298997879028 0.0041562840342521667 1.6693370342254639
    endloop
  endfacet
  facet normal 0 1 0
    outer loop
      vertex 2.2596702575683594 0.0041562840342521667 0.60983133316040039
      vertex 1.2003298997879028 0.0041562840342521667 1.6693370342254639
      vertex 2.2596702575683594 0.0041562840342521667 1.6693370342254639
    endloop
  endfacet
endsolid OBJECT
