solid OBJECT
  facet normal 0.00017653868725615819 -0.99999998441704596 0
    outer loop
      vertex 1.7300000190734863 -0.21457460522651672 0.68149548768997192
      vertex 2.2020058631896973 -0.21449127793312073 0.68149548768997192
      vertex 2.2020058631896973 -0.21449127793312073 1.6735035181045532
    endloop
  endfacet
  facet normal 0.00017653868725615819 -0.99999998441704607 0
    outer loop
      vertex 1.7300000190734863 -0.21457460522651672 0.68149548768997192
      vertex 2.2020058631896973 -0.21449127793312073 1.6735035181045532
      vertex 1.7300000190734863 -0.21457460522651672 1.6735035181045532
    endloop
  endfacet
  facet normal 0.00017653868725615819 -0.99999998441704596 0
    outer loop
      vertex 1.2579941749572754 -0.21465793251991272 0.68149548768997192
      vertex 1.7300000190734863 -0.21457460522651672 0.68149548768997192
      vertex 1.7300000190734863 -0.21457460522651672 1.6735035181045532
    endloop
  endfacet
  facet normal 0.00017653868725615819 -0.99999998441704607 0
    outer loop
      vertex 1.2579941749572754 -0.21465793251991272 0.68149548768997192
      vertex 1.7300000190734863 -0.21457460522651672 1.6735035181045532
      vertex 1.2579941749572754 -0.21465793251991272 1.6735035181045532
    endloop
  endfacet
endsolid OBJECT
