solid OBJECT
  facet normal -0 -1 0
    outer loop
      vertex 2.2020058631896973 -0.20200198888778687 2.2523376941680908
      vertex 1.2579941749572754 -0.20200198888778687 2.2523376941680908
      vertex 1.2579941749572754 -0.20200198888778687 1.8729953765869141
    endloop
  endfacet
  facet normal -0 -1 0
    outer loop
      vertex 2.2020058631896973 -0.20200198888778687 2.2523376941680908
      vertex 1.2579941749572754 -0.20200198888778687 1.8729953765869141
      vertex 2.2020058631896973 -0.20200198888778687 1.8729953765869141
    endloop
  endfacet
endsolid OBJECT
