solid OBJECT
  facet normal -0 0 1
    outer loop
      vertex 4.7940001487731934 3.6630001068115234 2.690000057220459
      vertex 4.8940000534057617 3.6630001068115234 2.690000057220459
      vertex 4.8940000534057617 3.7630000114440918 2.690000057220459
    endloop
  endfacet
  facet normal -0 0 1
    outer loop
      vertex 4.7940001487731934 3.6630001068115234 2.690000057220459
      vertex 4.8940000534057617 3.7630000114440918 2.690000057220459
      vertex 4.7940001487731934 3.7630000114440918 2.690000057220459
    endloop
  endfacet
endsolid OBJECT
