solid OBJECT
  facet normal 0 1 1.3702812466792483e-16
    outer loop
      vertex 0.69914287328720093 -3.1594776271860671e-16 2.3057143688201904
      vertex 0 -3.1594776271860671e-16 2.3057143688201904
      vertex 0 -3.6860570993681803e-16 2.690000057220459
    endloop
  endfacet
  facet normal -0 1 1.3702812466792483e-16
    outer loop
      vertex 0.69914287328720093 -3.1594776271860671e-16 2.3057143688201904
      vertex 0 -3.6860570993681803e-16 2.690000057220459
      vertex 0.69914287328720093 -3.6860570993681803e-16 2.690000057220459
    endloop
  endfacet
  facet normal 0 1 1.3702815104088478e-16
    outer loop
      vertex 0.69914287328720093 -2.6328978903061579e-16 1.9214285612106323
      vertex 0 -2.6328978903061579e-16 1.9214285612106323
      vertex 0 -3.1594776271860671e-16 2.3057143688201904
    endloop
  endfacet
  facet normal -0 1 1.3702815104088478e-16
    outer loop
      vertex 0.69914287328720093 -2.6328978903061579e-16 1.9214285612106323
      vertex 0 -3.1594776271860671e-16 2.3057143688201904
      vertex 0.69914287328720093 -3.1594776271860671e-16 2.3057143688201904
    endloop
  endfacet
  facet normal 0 1 1.3702812466792483e-16
    outer loop
      vertex 0.69914287328720093 -2.1063184181240448e-16 1.5371428728103638
      vertex 0 -2.1063184181240448e-16 1.5371428728103638
      vertex 0 -2.6328978903061579e-16 1.9214285612106323
    endloop
  endfacet
  facet normal -0 1 1.3702812466792483e-16
    outer loop
      vertex 0.69914287328720093 -2.1063184181240448e-16 1.5371428728103638
      vertex 0 -2.6328978903061579e-16 1.9214285612106323
      vertex 0.69914287328720093 -2.6328978903061579e-16 1.9214285612106323
    endloop
  endfacet
  facet normal 0 1 1.3702815910816084e-16
    outer loop
      vertex 0.69914287328720093 -1.5797388135930336e-16 1.1528571844100952
      vertex 0 -1.5797388135930336e-16 1.1528571844100952
      vertex 0 -2.1063184181240448e-16 1.5371428728103638
    endloop
  endfacet
  facet normal -0 1 1.3702815910816084e-16
    outer loop
      vertex 0.69914287328720093 -1.5797388135930336e-16 1.1528571844100952
      vertex 0 -2.1063184181240448e-16 1.5371428728103638
      vertex 0.69914287328720093 -2.1063184181240448e-16 1.5371428728103638
    endloop
  endfacet
  facet normal 0 1 1.3702813785440685e-16
    outer loop
      vertex 0.69914287328720093 -1.0531592090620224e-16 0.76857143640518188
      vertex 0 -1.0531592090620224e-16 0.76857143640518188
      vertex 0 -1.5797388135930336e-16 1.1528571844100952
    endloop
  endfacet
  facet normal -1.1662639401117949e-32 1 1.3702813785440685e-16
    outer loop
      vertex 0.69914287328720093 -1.0531592090620224e-16 0.76857143640518188
      vertex 0 -1.5797388135930336e-16 1.1528571844100952
      vertex 0.69914287328720093 -1.5797388135930336e-16 1.1528571844100952
    endloop
  endfacet
  facet normal 0 1 1.3702814848128303e-16
    outer loop
      vertex 0.69914287328720093 -5.2657960453101119e-17 0.38428571820259094
      vertex 0 -5.2657960453101119e-17 0.38428571820259094
      vertex 0 -1.0531592090620224e-16 0.76857143640518188
    endloop
  endfacet
  facet normal -0 1 1.3702814848128303e-16
    outer loop
      vertex 0.69914287328720093 -5.2657960453101119e-17 0.38428571820259094
      vertex 0 -1.0531592090620224e-16 0.76857143640518188
      vertex 0.69914287328720093 -1.0531592090620224e-16 0.76857143640518188
    endloop
  endfacet
  facet normal 0 1 1.3702814848128303e-16
    outer loop
      vertex 0.69914287328720093 0 0
      vertex 0 0 0
      vertex 0 -5.2657960453101119e-17 0.38428571820259094
    endloop
  endfacet
  facet normal -0 1 1.3702814848128303e-16
    outer loop
      vertex 0.69914287328720093 0 0
      vertex 0 -5.2657960453101119e-17 0.38428571820259094
      vertex 0.69914287328720093 -5.2657960453101119e-17 0.38428571820259094
    endloop
  endfacet
  facet normal 0 1 1.3702812466792483e-16
    outer loop
      vertex 3.4957141876220703 -3.1594776271860671e-16 2.3057143688201904
      vertex 2.7965714931488037 -3.1594776271860671e-16 2.3057143688201904
      vertex 2.7965714931488037 -3.6860570993681803e-16 2.690000057220459
    endloop
  endfacet
  facet normal -0 1 1.3702812466792483e-16
    outer loop
      vertex 3.4957141876220703 -3.1594776271860671e-16 2.3057143688201904
      vertex 2.7965714931488037 -3.6860570993681803e-16 2.690000057220459
      vertex 3.4957141876220703 -3.6860570993681803e-16 2.690000057220459
    endloop
  endfacet
  facet normal 0 1 1.3702815104088478e-16
    outer loop
      vertex 3.4957141876220703 -2.6328978903061579e-16 1.9214285612106323
      vertex 2.7965714931488037 -2.6328978903061579e-16 1.9214285612106323
      vertex 2.7965714931488037 -3.1594776271860671e-16 2.3057143688201904
    endloop
  endfacet
  facet normal -5.1673008150215333e-33 1 1.3702815104088478e-16
    outer loop
      vertex 3.4957141876220703 -2.6328978903061579e-16 1.9214285612106323
      vertex 2.7965714931488037 -3.1594776271860671e-16 2.3057143688201904
      vertex 3.4957141876220703 -3.1594776271860671e-16 2.3057143688201904
    endloop
  endfacet
  facet normal 0 1 1.3702812466792483e-16
    outer loop
      vertex 3.4957141876220703 -2.1063184181240448e-16 1.5371428728103638
      vertex 2.7965714931488037 -2.1063184181240448e-16 1.5371428728103638
      vertex 2.7965714931488037 -2.6328978903061579e-16 1.9214285612106323
    endloop
  endfacet
  facet normal -0 1 1.3702812466792483e-16
    outer loop
      vertex 3.4957141876220703 -2.1063184181240448e-16 1.5371428728103638
      vertex 2.7965714931488037 -2.6328978903061579e-16 1.9214285612106323
      vertex 3.4957141876220703 -2.6328978903061579e-16 1.9214285612106323
    endloop
  endfacet
  facet normal 0 1 1.3702815910816084e-16
    outer loop
      vertex 3.4957141876220703 -1.5797388135930336e-16 1.1528571844100952
      vertex 2.7965714931488037 -1.5797388135930336e-16 1.1528571844100952
      vertex 2.7965714931488037 -2.1063184181240448e-16 1.5371428728103638
    endloop
  endfacet
  facet normal -0 1 1.3702815910816084e-16
    outer loop
      vertex 3.4957141876220703 -1.5797388135930336e-16 1.1528571844100952
      vertex 2.7965714931488037 -2.1063184181240448e-16 1.5371428728103638
      vertex 3.4957141876220703 -2.1063184181240448e-16 1.5371428728103638
    endloop
  endfacet
  facet normal 0 1 1.3702813785440685e-16
    outer loop
      vertex 3.4957141876220703 -1.0531592090620224e-16 0.76857143640518188
      vertex 2.7965714931488037 -1.0531592090620224e-16 0.76857143640518188
      vertex 2.7965714931488037 -1.5797388135930336e-16 1.1528571844100952
    endloop
  endfacet
  facet normal -0 1 1.3702813785440685e-16
    outer loop
      vertex 3.4957141876220703 -1.0531592090620224e-16 0.76857143640518188
      vertex 2.7965714931488037 -1.5797388135930336e-16 1.1528571844100952
      vertex 3.4957141876220703 -1.5797388135930336e-16 1.1528571844100952
    endloop
  endfacet
  facet normal 0 1 1.3702814848128303e-16
    outer loop
      vertex 3.4957141876220703 -5.2657960453101119e-17 0.38428571820259094
      vertex 2.7965714931488037 -5.2657960453101119e-17 0.38428571820259094
      vertex 2.7965714931488037 -1.0531592090620224e-16 0.76857143640518188
    endloop
  endfacet
  facet normal -0 1 1.3702814848128303e-16
    outer loop
      vertex 3.4957141876220703 -5.2657960453101119e-17 0.38428571820259094
      vertex 2.7965714931488037 -1.0531592090620224e-16 0.76857143640518188
      vertex 3.4957141876220703 -1.0531592090620224e-16 0.76857143640518188
    endloop
  endfacet
  facet normal 0 1 1.3702814848128303e-16
    outer loop
      vertex 3.4957141876220703 0 0
      vertex 2.7965714931488037 0 0
      vertex 2.7965714931488037 -5.2657960453101119e-17 0.38428571820259094
    endloop
  endfacet
  facet normal -0 1 1.3702814848128303e-16
    outer loop
      vertex 3.4957141876220703 0 0
      vertex 2.7965714931488037 -5.2657960453101119e-17 0.38428571820259094
      vertex 3.4957141876220703 -5.2657960453101119e-17 0.38428571820259094
    endloop
  endfacet
  facet normal 0 1 1.3702812466792483e-16
    outer loop
      vertex 4.194857120513916 -3.1594776271860671e-16 2.3057143688201904
      vertex 3.4957141876220703 -3.1594776271860671e-16 2.3057143688201904
      vertex 3.4957141876220703 -3.6860570993681803e-16 2.690000057220459
    endloop
  endfacet
  facet normal -0 1 1.3702812466792483e-16
    outer loop
      vertex 4.194857120513916 -3.1594776271860671e-16 2.3057143688201904
      vertex 3.4957141876220703 -3.6860570993681803e-16 2.690000057220459
      vertex 4.194857120513916 -3.6860570993681803e-16 2.690000057220459
    endloop
  endfacet
  facet normal 0 1 1.3702815104088478e-16
    outer loop
      vertex 4.194857120513916 -2.6328978903061579e-16 1.9214285612106323
      vertex 3.4957141876220703 -2.6328978903061579e-16 1.9214285612106323
      vertex 3.4957141876220703 -3.1594776271860671e-16 2.3057143688201904
    endloop
  endfacet
  facet normal -0 1 1.3702815104088478e-16
    outer loop
      vertex 4.194857120513916 -2.6328978903061579e-16 1.9214285612106323
      vertex 3.4957141876220703 -3.1594776271860671e-16 2.3057143688201904
      vertex 4.194857120513916 -3.1594776271860671e-16 2.3057143688201904
    endloop
  endfacet
  facet normal 0 1 1.3702812466792483e-16
    outer loop
      vertex 4.194857120513916 -2.1063184181240448e-16 1.5371428728103638
      vertex 3.4957141876220703 -2.1063184181240448e-16 1.5371428728103638
      vertex 3.4957141876220703 -2.6328978903061579e-16 1.9214285612106323
    endloop
  endfacet
  facet normal -0 1 1.3702812466792483e-16
    outer loop
      vertex 4.194857120513916 -2.1063184181240448e-16 1.5371428728103638
      vertex 3.4957141876220703 -2.6328978903061579e-16 1.9214285612106323
      vertex 4.194857120513916 -2.6328978903061579e-16 1.9214285612106323
    endloop
  endfacet
  facet normal 0 1 1.3702815910816084e-16
    outer loop
      vertex 4.194857120513916 -1.5797388135930336e-16 1.1528571844100952
      vertex 3.4957141876220703 -1.5797388135930336e-16 1.1528571844100952
      vertex 3.4957141876220703 -2.1063184181240448e-16 1.5371428728103638
    endloop
  endfacet
  facet normal -0 1 1.3702815910816084e-16
    outer loop
      vertex 4.194857120513916 -1.5797388135930336e-16 1.1528571844100952
      vertex 3.4957141876220703 -2.1063184181240448e-16 1.5371428728103638
      vertex 4.194857120513916 -2.1063184181240448e-16 1.5371428728103638
    endloop
  endfacet
  facet normal 0 1 1.3702813785440685e-16
    outer loop
      vertex 4.194857120513916 -1.0531592090620224e-16 0.76857143640518188
      vertex 3.4957141876220703 -1.0531592090620224e-16 0.76857143640518188
      vertex 3.4957141876220703 -1.5797388135930336e-16 1.1528571844100952
    endloop
  endfacet
  facet normal -0 1 1.3702813785440685e-16
    outer loop
      vertex 4.194857120513916 -1.0531592090620224e-16 0.76857143640518188
      vertex 3.4957141876220703 -1.5797388135930336e-16 1.1528571844100952
      vertex 4.194857120513916 -1.5797388135930336e-16 1.1528571844100952
    endloop
  endfacet
  facet normal 0 1 1.3702814848128303e-16
    outer loop
      vertex 4.194857120513916 -5.2657960453101119e-17 0.38428571820259094
      vertex 3.4957141876220703 -5.2657960453101119e-17 0.38428571820259094
      vertex 3.4957141876220703 -1.0531592090620224e-16 0.76857143640518188
    endloop
  endfacet
  facet normal -0 1 1.3702814848128303e-16
    outer loop
      vertex 4.194857120513916 -5.2657960453101119e-17 0.38428571820259094
      vertex 3.4957141876220703 -1.0531592090620224e-16 0.76857143640518188
      vertex 4.194857120513916 -1.0531592090620224e-16 0.76857143640518188
    endloop
  endfacet
  facet normal 0 1 1.3702814848128303e-16
    outer loop
      vertex 4.194857120513916 0 0
      vertex 3.4957141876220703 0 0
      vertex 3.4957141876220703 -5.2657960453101119e-17 0.38428571820259094
    endloop
  endfacet
  facet normal -0 1 1.3702814848128303e-16
    outer loop
      vertex 4.194857120513916 0 0
      vertex 3.4957141876220703 -5.2657960453101119e-17 0.38428571820259094
      vertex 4.194857120513916 -5.2657960453101119e-17 0.38428571820259094
    endloop
  endfacet
  facet normal 0 1 1.3702812466792483e-16
    outer loop
      vertex 4.8940000534057617 -3.1594776271860671e-16 2.3057143688201904
      vertex 4.194857120513916 -3.1594776271860671e-16 2.3057143688201904
      vertex 4.194857120513916 -3.6860570993681803e-16 2.690000057220459
    endloop
  endfacet
  facet normal -0 1 1.3702812466792483e-16
    outer loop
      vertex 4.8940000534057617 -3.1594776271860671e-16 2.3057143688201904
      vertex 4.194857120513916 -3.6860570993681803e-16 2.690000057220459
      vertex 4.8940000534057617 -3.6860570993681803e-16 2.690000057220459
    endloop
  endfacet
  facet normal 0 1 1.3702815104088478e-16
    outer loop
      vertex 4.8940000534057617 -2.6328978903061579e-16 1.9214285612106323
      vertex 4.194857120513916 -2.6328978903061579e-16 1.9214285612106323
      vertex 4.194857120513916 -3.1594776271860671e-16 2.3057143688201904
    endloop
  endfacet
  facet normal -0 1 1.3702815104088478e-16
    outer loop
      vertex 4.8940000534057617 -2.6328978903061579e-16 1.9214285612106323
      vertex 4.194857120513916 -3.1594776271860671e-16 2.3057143688201904
      vertex 4.8940000534057617 -3.1594776271860671e-16 2.3057143688201904
    endloop
  endfacet
  facet normal 0 1 1.3702812466792483e-16
    outer loop
      vertex 4.8940000534057617 -2.1063184181240448e-16 1.5371428728103638
      vertex 4.194857120513916 -2.1063184181240448e-16 1.5371428728103638
      vertex 4.194857120513916 -2.6328978903061579e-16 1.9214285612106323
    endloop
  endfacet
  facet normal -0 1 1.3702812466792483e-16
    outer loop
      vertex 4.8940000534057617 -2.1063184181240448e-16 1.5371428728103638
      vertex 4.194857120513916 -2.6328978903061579e-16 1.9214285612106323
      vertex 4.8940000534057617 -2.6328978903061579e-16 1.9214285612106323
    endloop
  endfacet
  facet normal 0 1 1.3702815910816084e-16
    outer loop
      vertex 4.8940000534057617 -1.5797388135930336e-16 1.1528571844100952
      vertex 4.194857120513916 -1.5797388135930336e-16 1.1528571844100952
      vertex 4.194857120513916 -2.1063184181240448e-16 1.5371428728103638
    endloop
  endfacet
  facet normal -0 1 1.3702815910816084e-16
    outer loop
      vertex 4.8940000534057617 -1.5797388135930336e-16 1.1528571844100952
      vertex 4.194857120513916 -2.1063184181240448e-16 1.5371428728103638
      vertex 4.8940000534057617 -2.1063184181240448e-16 1.5371428728103638
    endloop
  endfacet
  facet normal 0 1 1.3702813785440685e-16
    outer loop
      vertex 4.8940000534057617 -1.0531592090620224e-16 0.76857143640518188
      vertex 4.194857120513916 -1.0531592090620224e-16 0.76857143640518188
      vertex 4.194857120513916 -1.5797388135930336e-16 1.1528571844100952
    endloop
  endfacet
  facet normal -0 1 1.3702813785440685e-16
    outer loop
      vertex 4.8940000534057617 -1.0531592090620224e-16 0.76857143640518188
      vertex 4.194857120513916 -1.5797388135930336e-16 1.1528571844100952
      vertex 4.8940000534057617 -1.5797388135930336e-16 1.1528571844100952
    endloop
  endfacet
  facet normal 0 1 1.3702814848128303e-16
    outer loop
      vertex 4.8940000534057617 -5.2657960453101119e-17 0.38428571820259094
      vertex 4.194857120513916 -5.2657960453101119e-17 0.38428571820259094
      vertex 4.194857120513916 -1.0531592090620224e-16 0.76857143640518188
    endloop
  endfacet
  facet normal -0 1 1.3702814848128303e-16
    outer loop
      vertex 4.8940000534057617 -5.2657960453101119e-17 0.38428571820259094
      vertex 4.194857120513916 -1.0531592090620224e-16 0.76857143640518188
      vertex 4.8940000534057617 -1.0531592090620224e-16 0.76857143640518188
    endloop
  endfacet
  facet normal 0 1 1.3702814848128303e-16
    outer loop
      vertex 4.8940000534057617 0 0
      vertex 4.194857120513916 0 0
      vertex 4.194857120513916 -5.2657960453101119e-17 0.38428571820259094
    endloop
  endfacet
  facet normal -0 1 1.3702814848128303e-16
    outer loop
      vertex 4.8940000534057617 0 0
      vertex 4.194857120513916 -5.2657960453101119e-17 0.38428571820259094
      vertex 4.8940000534057617 -5.2657960453101119e-17 0.38428571820259094
    endloop
  endfacet
  facet normal -8.0860777841528508e-16 1 1.3702812466792483e-16
    outer loop
      vertex 1.0019999742507935 -1.008977110265401e-16 2.52349853515625
      vertex 0.69914287328720093 -3.1594776271860671e-16 2.3057143688201904
      vertex 0.69914287328720093 -3.6860570993681803e-16 2.690000057220459
    endloop
  endfacet
  facet normal -6.149896504209787e-16 1 1.3702812466792481e-16
    outer loop
      vertex 0.69914287328720093 -2.1063184181240448e-16 1.5371428728103638
      vertex 0.69914287328720093 -2.6328978903061579e-16 1.9214285612106323
      vertex 1.0019999742507935 -1.0124465704522444e-16 2.0980992317199707
    endloop
  endfacet
  facet normal -3.5967352721780956e-16 1 -8.155768508155186e-19
    outer loop
      vertex 0.69914287328720093 -2.1063184181240448e-16 1.5371428728103638
      vertex 1.0019999742507935 -1.0124465704522444e-16 2.0980992317199707
      vertex 1.0019999742507935 -1.0159160306390878e-16 1.6726996898651123
    endloop
  endfacet
  facet normal -6.1498966580555618e-16 1 1.3702815104088478e-16
    outer loop
      vertex 0.69914287328720093 -2.6328978903061579e-16 1.9214285612106323
      vertex 0.69914287328720093 -3.1594776271860671e-16 2.3057143688201904
      vertex 1.0019999742507935 -1.0124465704522444e-16 2.0980992317199707
    endloop
  endfacet
  facet normal -4.4881548362883914e-18 1 1.6185232872043096e-15
    outer loop
      vertex 1.0019999742507935 -1.008977110265401e-16 2.52349853515625
      vertex 1.3982857465744019 -3.6860570993681803e-16 2.690000057220459
      vertex 1.4873332977294922 -9.8719459923557262e-17 2.52349853515625
    endloop
  endfacet
  facet normal -4.4881548362883914e-18 1 1.6185232872043096e-15
    outer loop
      vertex 1.9726666212081909 -9.6541208820574421e-17 2.52349853515625
      vertex 1.4873332977294922 -9.8719459923557262e-17 2.52349853515625
      vertex 1.3982857465744019 -3.6860570993681803e-16 2.690000057220459
    endloop
  endfacet
  facet normal -0 1 1.6340060904147515e-15
    outer loop
      vertex 1.9726666212081909 -9.6541208820574421e-17 2.52349853515625
      vertex 1.3982857465744019 -3.6860570993681803e-16 2.690000057220459
      vertex 2.097428560256958 -3.6860570993681803e-16 2.690000057220459
    endloop
  endfacet
  facet normal -7.0948454298851278e-16 1 -8.1557730791233108e-19
    outer loop
      vertex 0.69914287328720093 -3.1594776271860671e-16 2.3057143688201904
      vertex 1.0019999742507935 -1.008977110265401e-16 2.52349853515625
      vertex 1.0019999742507935 -1.0124465704522444e-16 2.0980992317199707
    endloop
  endfacet
  facet normal -0 1 1.6078411511880359e-15
    outer loop
      vertex 0.69914287328720093 -3.6860570993681803e-16 2.690000057220459
      vertex 1.3982857465744019 -3.6860570993681803e-16 2.690000057220459
      vertex 1.0019999742507935 -1.008977110265401e-16 2.52349853515625
    endloop
  endfacet
  facet normal -1.8476801925735042e-16 1 -8.1557707936385103e-19
    outer loop
      vertex 1.0019999742507935 -1.0159160306390878e-16 1.6726996898651123
      vertex 1.0019999742507935 -1.0193854908259313e-16 1.2473002672195435
      vertex 0.69914287328720093 -1.5797388135930336e-16 1.1528571844100952
    endloop
  endfacet
  facet normal -4.2137146343288375e-16 1 1.3702815910816084e-16
    outer loop
      vertex 1.0019999742507935 -1.0159160306390878e-16 1.6726996898651123
      vertex 0.69914287328720093 -1.5797388135930336e-16 1.1528571844100952
      vertex 0.69914287328720093 -2.1063184181240448e-16 1.5371428728103638
    endloop
  endfacet
  facet normal -2.2775325996272539e-16 1 1.3702813785440685e-16
    outer loop
      vertex 0.69914287328720093 -1.0531592090620224e-16 0.76857143640518188
      vertex 0.69914287328720093 -1.5797388135930336e-16 1.1528571844100952
      vertex 1.0019999742507935 -1.0193854908259313e-16 1.2473002672195435
    endloop
  endfacet
  facet normal -9.8625110580417497e-18 1 -8.1557719363807498e-19
    outer loop
      vertex 0.69914287328720093 -1.0531592090620224e-16 0.76857143640518188
      vertex 1.0019999742507935 -1.0193854908259313e-16 1.2473002672195435
      vertex 1.0019999742507935 -1.0228549510127747e-16 0.82190090417861938
    endloop
  endfacet
  facet normal -5.679581274307026e-18 1 4.231802818043502e-15
    outer loop
      vertex 0.69914287328720093 -5.2657960453101119e-17 0.38428571820259094
      vertex 1.0019999742507935 -1.0263243450251691e-16 0.39650145173072815
      vertex 1.4873332977294922 -9.98759444466901e-17 0.39650145173072815
    endloop
  endfacet
  facet normal -3.4135121813286902e-17 0.99999999999999989 1.3702814848128301e-16
    outer loop
      vertex 0.69914287328720093 -5.2657960453101119e-17 0.38428571820259094
      vertex 0.69914287328720093 -1.0531592090620224e-16 0.76857143640518188
      vertex 1.0019999742507935 -1.0228549510127747e-16 0.82190090417861938
    endloop
  endfacet
  facet normal 1.6504297430019252e-16 1 -8.1556146638890888e-19
    outer loop
      vertex 0.69914287328720093 -5.2657960453101119e-17 0.38428571820259094
      vertex 1.0019999742507935 -1.0228549510127747e-16 0.82190090417861938
      vertex 1.0019999742507935 -1.0263243450251691e-16 0.39650145173072815
    endloop
  endfacet
  facet normal -5.679594909152559e-18 1 3.5816834040838663e-15
    outer loop
      vertex 1.9726666212081909 -9.711944777341839e-17 0.39650145173072815
      vertex 2.097428560256958 -5.2657960453101119e-17 0.38428571820259094
      vertex 1.4873332977294922 -9.98759444466901e-17 0.39650145173072815
    endloop
  endfacet
  facet normal 0 1 3.8653416829066435e-15
    outer loop
      vertex 2.097428560256958 -5.2657960453101119e-17 0.38428571820259094
      vertex 0.69914287328720093 -5.2657960453101119e-17 0.38428571820259094
      vertex 1.4873332977294922 -9.98759444466901e-17 0.39650145173072815
    endloop
  endfacet
  facet normal 0 1 1.3702814848128303e-16
    outer loop
      vertex 0.69914287328720093 -5.2657960453101119e-17 0.38428571820259094
      vertex 1.3982857465744019 0 0
      vertex 0.69914287328720093 0 0
    endloop
  endfacet
  facet normal -4.4881684711339306e-18 1 1.637369138357462e-15
    outer loop
      vertex 2.4579999446868896 -9.4362951100146681e-17 2.52349853515625
      vertex 1.9726666212081909 -9.6541208820574421e-17 2.52349853515625
      vertex 2.097428560256958 -3.6860570993681803e-16 2.690000057220459
    endloop
  endfacet
  facet normal 8.0999942281777679e-16 1 2.2422137868264938e-32
    outer loop
      vertex 2.4579999446868896 -9.4362951100146681e-17 2.0980992317199707
      vertex 2.4579999446868896 -9.4362951100146681e-17 2.52349853515625
      vertex 2.7965714931488037 -3.6860570993681803e-16 2.690000057220459
    endloop
  endfacet
  facet normal 5.7044279002867445e-16 1 1.3702812466792483e-16
    outer loop
      vertex 2.4579999446868896 -9.4362951100146681e-17 2.0980992317199707
      vertex 2.7965714931488037 -3.6860570993681803e-16 2.690000057220459
      vertex 2.7965714931488037 -3.1594776271860671e-16 2.3057143688201904
    endloop
  endfacet
  facet normal -0 1 1.6470885997721598e-15
    outer loop
      vertex 2.4579999446868896 -9.4362951100146681e-17 2.52349853515625
      vertex 2.097428560256958 -3.6860570993681803e-16 2.690000057220459
      vertex 2.7965714931488037 -3.6860570993681803e-16 2.690000057220459
    endloop
  endfacet
  facet normal 5.704427738565368e-16 1 1.3702815104088478e-16
    outer loop
      vertex 2.7965714931488037 -3.1594776271860671e-16 2.3057143688201904
      vertex 2.7965714931488037 -2.6328978903061579e-16 1.9214285612106323
      vertex 2.4579999446868896 -9.4362951100146681e-17 2.0980992317199707
    endloop
  endfacet
  facet normal 3.9827323870479203e-16 1 1.3702812466792483e-16
    outer loop
      vertex 2.7965714931488037 -2.6328978903061579e-16 1.9214285612106323
      vertex 2.7965714931488037 -2.1063184181240448e-16 1.5371428728103638
      vertex 2.4579999446868896 -9.4362951100146681e-17 1.6726996898651123
    endloop
  endfacet
  facet normal 4.9893985096468233e-16 1 -0
    outer loop
      vertex 2.7965714931488037 -2.6328978903061579e-16 1.9214285612106323
      vertex 2.4579999446868896 -9.4362951100146681e-17 1.6726996898651123
      vertex 2.4579999446868896 -9.4362951100146681e-17 2.0980992317199707
    endloop
  endfacet
  facet normal 3.4341010412851299e-16 1 -0
    outer loop
      vertex 2.4579999446868896 -9.4362951100146681e-17 1.2473002672195435
      vertex 2.4579999446868896 -9.4362951100146681e-17 1.6726996898651123
      vertex 2.7965714931488037 -2.1063184181240448e-16 1.5371428728103638
    endloop
  endfacet
  facet normal 2.2610373607824386e-16 1 1.3702815910816084e-16
    outer loop
      vertex 2.4579999446868896 -9.4362951100146681e-17 1.2473002672195435
      vertex 2.7965714931488037 -2.1063184181240448e-16 1.5371428728103638
      vertex 2.7965714931488037 -1.5797388135930336e-16 1.1528571844100952
    endloop
  endfacet
  facet normal 1.8788031820196573e-16 1 -0
    outer loop
      vertex 2.4579999446868896 -9.4362951100146681e-17 0.82190090417861938
      vertex 2.4579999446868896 -9.4362951100146681e-17 1.2473002672195435
      vertex 2.7965714931488037 -1.5797388135930336e-16 1.1528571844100952
    endloop
  endfacet
  facet normal 5.3934264561720657e-17 1 1.3702813785440685e-16
    outer loop
      vertex 2.4579999446868896 -9.4362951100146681e-17 0.82190090417861938
      vertex 2.7965714931488037 -1.5797388135930336e-16 1.1528571844100952
      vertex 2.7965714931488037 -1.0531592090620224e-16 0.76857143640518188
    endloop
  endfacet
  facet normal 0 1 1.3702814848128303e-16
    outer loop
      vertex 2.097428560256958 -5.2657960453101119e-17 0.38428571820259094
      vertex 2.097428560256958 0 0
      vertex 1.3982857465744019 0 0
    endloop
  endfacet
  facet normal 0 1 3.4140389974113336e-15
    outer loop
      vertex 2.7965714931488037 -5.2657960453101119e-17 0.38428571820259094
      vertex 2.097428560256958 -5.2657960453101119e-17 0.38428571820259094
      vertex 2.4579999446868896 -9.4362951100146681e-17 0.39650145173072815
    endloop
  endfacet
  facet normal -0 1 1.3702814848128303e-16
    outer loop
      vertex 2.097428560256958 -5.2657960453101119e-17 0.38428571820259094
      vertex 1.3982857465744019 0 0
      vertex 0.69914287328720093 -5.2657960453101119e-17 0.38428571820259094
    endloop
  endfacet
  facet normal -5.679594909152559e-18 1 3.5816834040838663e-15
    outer loop
      vertex 2.097428560256958 -5.2657960453101119e-17 0.38428571820259094
      vertex 1.9726666212081909 -9.711944777341839e-17 0.39650145173072815
      vertex 2.4579999446868896 -9.4362951100146681e-17 0.39650145173072815
    endloop
  endfacet
  facet normal 3.2350532275418463e-17 1 -0
    outer loop
      vertex 2.4579999446868896 -9.4362951100146681e-17 0.39650145173072815
      vertex 2.4579999446868896 -9.4362951100146681e-17 0.82190090417861938
      vertex 2.7965714931488037 -1.0531592090620224e-16 0.76857143640518188
    endloop
  endfacet
  facet normal -1.1823524888963695e-16 1 1.3702814848128303e-16
    outer loop
      vertex 2.4579999446868896 -9.4362951100146681e-17 0.39650145173072815
      vertex 2.7965714931488037 -1.0531592090620224e-16 0.76857143640518188
      vertex 2.7965714931488037 -5.2657960453101119e-17 0.38428571820259094
    endloop
  endfacet
  facet normal 0 1 1.3702814848128303e-16
    outer loop
      vertex 2.7965714931488037 -5.2657960453101119e-17 0.38428571820259094
      vertex 2.7965714931488037 0 0
      vertex 2.097428560256958 0 0
    endloop
  endfacet
  facet normal -0 1 1.3702814848128303e-16
    outer loop
      vertex 2.7965714931488037 -5.2657960453101119e-17 0.38428571820259094
      vertex 2.097428560256958 0 0
      vertex 2.097428560256958 -5.2657960453101119e-17 0.38428571820259094
    endloop
  endfacet
  facet normal -0 -0 -1
    outer loop
      vertex 3.6949698925018311 1.8815000057220459 2.690000057220459
      vertex 2.4470000267028809 1.8815000057220459 2.690000057220459
      vertex 2.4470000267028809 2.8410649299621582 2.690000057220459
    endloop
  endfacet
  facet normal -0 -0 -1
    outer loop
      vertex 3.6949698925018311 1.8815000057220459 2.690000057220459
      vertex 2.4470000267028809 2.8410649299621582 2.690000057220459
      vertex 3.6949698925018311 2.8410649299621582 2.690000057220459
    endloop
  endfacet
  facet normal -0 -0 -1
    outer loop
      vertex 4.3189549446105957 2.8410649299621582 2.690000057220459
      vertex 3.6949698925018311 2.8410649299621582 2.690000057220459
      vertex 3.6949698925018311 3.3208475112915039 2.690000057220459
    endloop
  endfacet
  facet normal -0 -0 -1
    outer loop
      vertex 4.3189549446105957 2.8410649299621582 2.690000057220459
      vertex 3.6949698925018311 3.3208475112915039 2.690000057220459
      vertex 4.3189549446105957 3.3208475112915039 2.690000057220459
    endloop
  endfacet
  facet normal -0 -0 -1
    outer loop
      vertex 4.6309475898742676 3.3208475112915039 2.690000057220459
      vertex 4.3189549446105957 3.3208475112915039 2.690000057220459
      vertex 4.3189549446105957 3.5607388019561768 2.690000057220459
    endloop
  endfacet
  facet normal -0 -0 -1
    outer loop
      vertex 4.6309475898742676 3.3208475112915039 2.690000057220459
      vertex 4.3189549446105957 3.5607388019561768 2.690000057220459
      vertex 4.6309475898742676 3.5607388019561768 2.690000057220459
    endloop
  endfacet
  facet normal -0 -0 -1
    outer loop
      vertex 2.4470000267028809 2.8410649299621582 2.690000057220459
      vertex 3.4146050096902465e-16 3.7630000114440918 2.690000057220459
      vertex 2.3970000743865967 3.7630000114440918 2.690000057220459
    endloop
  endfacet
  facet normal -0 -0 -1
    outer loop
      vertex 3.6949698925018311 2.8410649299621582 2.690000057220459
      vertex 2.4470000267028809 2.8410649299621582 2.690000057220459
      vertex 3.6949698925018311 3.3208475112915039 2.690000057220459
    endloop
  endfacet
  facet normal 0 0 -1
    outer loop
      vertex 2.3970000743865967 3.7630000114440918 2.690000057220459
      vertex 3.6949698925018311 3.3208475112915039 2.690000057220459
      vertex 2.4470000267028809 2.8410649299621582 2.690000057220459
    endloop
  endfacet
  facet normal 0 -0 -1
    outer loop
      vertex 3.6949698925018311 3.3208475112915039 2.690000057220459
      vertex 2.3970000743865967 3.7630000114440918 2.690000057220459
      vertex 4.3189549446105957 3.5607388019561768 2.690000057220459
    endloop
  endfacet
  facet normal -0 0 -1
    outer loop
      vertex 1.7073025048451232e-16 1.8815000057220459 2.690000057220459
      vertex 3.4146050096902465e-16 3.7630000114440918 2.690000057220459
      vertex 2.4470000267028809 2.8410649299621582 2.690000057220459
    endloop
  endfacet
  facet normal 0 0 -1
    outer loop
      vertex 1.7073025048451232e-16 1.8815000057220459 2.690000057220459
      vertex 2.4470000267028809 2.8410649299621582 2.690000057220459
      vertex 2.4470000267028809 1.8815000057220459 2.690000057220459
    endloop
  endfacet
  facet normal 0 -0 -1
    outer loop
      vertex 0 -4.4408920985006262e-16 2.690000057220459
      vertex 1.7073025048451232e-16 1.8815000057220459 2.690000057220459
      vertex 2.4470000267028809 1.8815000057220459 2.690000057220459
    endloop
  endfacet
  facet normal 0 0 -1
    outer loop
      vertex 0 -4.4408920985006262e-16 2.690000057220459
      vertex 2.4470000267028809 1.8815000057220459 2.690000057220459
      vertex 2.4470000267028809 -4.8183093333690531e-16 2.690000057220459
    endloop
  endfacet
  facet normal 0 -0 -1
    outer loop
      vertex 3.6949698925018311 1.8815000057220459 2.690000057220459
      vertex 2.4470000267028809 -4.8183093333690531e-16 2.690000057220459
      vertex 2.4470000267028809 1.8815000057220459 2.690000057220459
    endloop
  endfacet
  facet normal 0 -0 -1
    outer loop
      vertex 4.7940001487731934 3.7630000114440918 2.690000057220459
      vertex 4.6309475898742676 3.5607388019561768 2.690000057220459
      vertex 4.3189549446105957 3.5607388019561768 2.690000057220459
    endloop
  endfacet
  facet normal -0 0 -1
    outer loop
      vertex 4.6309475898742676 3.5607388019561768 2.690000057220459
      vertex 4.7940001487731934 3.6630001068115234 2.690000057220459
      vertex 4.8940000534057617 3.6630001068115234 2.690000057220459
    endloop
  endfacet
  facet normal -0 0 -1
    outer loop
      vertex 4.6309475898742676 3.5607388019561768 2.690000057220459
      vertex 4.7940001487731934 3.7630000114440918 2.690000057220459
      vertex 4.7940001487731934 3.6630001068115234 2.690000057220459
    endloop
  endfacet
  facet normal 0 -0 -1
    outer loop
      vertex 4.7940001487731934 3.7630000114440918 2.690000057220459
      vertex 4.3189549446105957 3.5607388019561768 2.690000057220459
      vertex 2.3970000743865967 3.7630000114440918 2.690000057220459
    endloop
  endfacet
  facet normal -0 0 -1
    outer loop
      vertex 4.6309475898742676 3.3208475112915039 2.690000057220459
      vertex 4.6309475898742676 3.5607388019561768 2.690000057220459
      vertex 4.8940000534057617 3.6630001068115234 2.690000057220459
    endloop
  endfacet
  facet normal -0 0 -1
    outer loop
      vertex 3.6949698925018311 1.8815000057220459 2.690000057220459
      vertex 3.6949698925018311 2.8410649299621582 2.690000057220459
      vertex 4.3189549446105957 2.8410649299621582 2.690000057220459
    endloop
  endfacet
  facet normal -0 -0 -1
    outer loop
      vertex 4.8940000534057617 -5.195727097633072e-16 2.690000057220459
      vertex 4.3189549446105957 2.8410649299621582 2.690000057220459
      vertex 4.6309475898742676 3.3208475112915039 2.690000057220459
    endloop
  endfacet
  facet normal -0 0 -1
    outer loop
      vertex 4.3189549446105957 3.3208475112915039 2.690000057220459
      vertex 4.6309475898742676 3.3208475112915039 2.690000057220459
      vertex 4.3189549446105957 2.8410649299621582 2.690000057220459
    endloop
  endfacet
  facet normal 0 -0 -1
    outer loop
      vertex 4.8940000534057617 3.6630001068115234 2.690000057220459
      vertex 4.8940000534057617 -5.195727097633072e-16 2.690000057220459
      vertex 4.6309475898742676 3.3208475112915039 2.690000057220459
    endloop
  endfacet
  facet normal -0 -0 -1
    outer loop
      vertex 3.6949698925018311 1.8815000057220459 2.690000057220459
      vertex 4.3189549446105957 2.8410649299621582 2.690000057220459
      vertex 4.8940000534057617 -5.195727097633072e-16 2.690000057220459
    endloop
  endfacet
  facet normal 0 0 -1
    outer loop
      vertex 2.4470000267028809 -4.8183093333690531e-16 2.690000057220459
      vertex 3.6949698925018311 1.8815000057220459 2.690000057220459
      vertex 4.8940000534057617 -5.195727097633072e-16 2.690000057220459
    endloop
  endfacet
  facet normal -0 0 -1
    outer loop
      vertex 4.3189549446105957 3.5607388019561768 2.690000057220459
      vertex 4.3189549446105957 3.3208475112915039 2.690000057220459
      vertex 3.6949698925018311 3.3208475112915039 2.690000057220459
    endloop
  endfacet
  facet normal 0 0 -1
    outer loop
      vertex 4.8940000534057617 3.7630000114440918 0
      vertex 4.8940000534057617 -5.195727097633072e-16 0
      vertex 0 0 0
    endloop
  endfacet
  facet normal 0 -0 -1
    outer loop
      vertex 4.8940000534057617 3.7630000114440918 0
      vertex 0 0 0
      vertex 3.9949980731982014e-16 3.7630000114440918 0
    endloop
  endfacet
  facet normal -1 1.0616524212193871e-16 3.4073647624811296e-33
    outer loop
      vertex 3.9949980731982014e-16 3.7630000114440918 2.690000057220459
      vertex 3.9949980731982014e-16 3.7630000114440918 6.2122963362582807e-16
      vertex 0 0 0
    endloop
  endfacet
  facet normal -1 1.061652421219387e-16 1.9482914892353976e-32
    outer loop
      vertex 3.9949980731982014e-16 3.7630000114440918 2.690000057220459
      vertex 0 0 0
      vertex 0 -4.4408920985006262e-16 2.690000057220459
    endloop
  endfacet
  facet normal -0 1 -0
    outer loop
      vertex 3.4146050096902465e-16 3.7630000114440918 2.690000057220459
      vertex 4.8940000534057617 3.7630000114440918 2.690000057220459
      vertex 4.8940000534057617 3.7630000114440918 0
    endloop
  endfacet
  facet normal 0 1 0
    outer loop
      vertex 3.4146050096902465e-16 3.7630000114440918 2.690000057220459
      vertex 4.8940000534057617 3.7630000114440918 0
      vertex 0 3.7630000114440918 6.2122963362582807e-16
    endloop
  endfacet
  facet normal 1 0 -0
    outer loop
      vertex 4.8940000534057617 3.7630000114440918 2.690000057220459
      vertex 4.8940000534057617 -5.195727097633072e-16 2.690000057220459
      vertex 4.8940000534057617 -5.195727097633072e-16 0
    endloop
  endfacet
  facet normal 1 0 -0
    outer loop
      vertex 4.8940000534057617 3.7630000114440918 2.690000057220459
      vertex 4.8940000534057617 -5.195727097633072e-16 0
      vertex 4.8940000534057617 3.7630000114440918 0
    endloop
  endfacet
endsolid OBJECT
