solid OBJECT
  facet normal 3.4877326356644764e-05 0.38577051221053499 -0.92259477057503059
    outer loop
      vertex 1.3427360057830811 0.02099914476275444 2.3198332786560059
      vertex 1.3516641855239868 -0.0025135802570730448 2.3100020885467529
      vertex 1.2003298997879028 -0.0024998981971293688 2.3100020885467529
    endloop
  endfacet
  facet normal 0 0.38595039559234973 -0.92251953482953897
    outer loop
      vertex 1.3427360057830811 0.02099914476275444 2.3198332786560059
      vertex 1.2003298997879028 -0.0024998981971293688 2.3100020885467529
      vertex 1.1878303289413452 0.02099914476275444 2.3198332786560059
    endloop
  endfacet
  facet normal 3.4859651440665401e-05 0.38557501381364201 -0.92267649125108564
    outer loop
      vertex 1.4976415634155273 0.02099914476275444 2.3198332786560059
      vertex 1.5029984712600708 -0.0025272623170167208 2.3100020885467529
      vertex 1.3516641855239868 -0.0025135802570730448 2.3100020885467529
    endloop
  endfacet
  facet normal 0 0.3857592397321335 -0.92259948458758989
    outer loop
      vertex 1.4976415634155273 0.02099914476275444 2.3198332786560059
      vertex 1.3516641855239868 -0.0025135802570730448 2.3100020885467529
      vertex 1.3427360057830811 0.02099914476275444 2.3198332786560059
    endloop
  endfacet
  facet normal 3.4841965422095932e-05 0.3853796961850991 -0.92275808777507773
    outer loop
      vertex 1.6525472402572632 0.02099914476275444 2.3198332786560059
      vertex 1.6543328762054443 -0.0025409443769603968 2.3100020885467529
      vertex 1.5029984712600708 -0.0025272623170167208 2.3100020885467529
    endloop
  endfacet
  facet normal 0 0.38556825660301108 -0.92267931563469785
    outer loop
      vertex 1.6525472402572632 0.02099914476275444 2.3198332786560059
      vertex 1.5029984712600708 -0.0025272623170167208 2.3100020885467529
      vertex 1.4976415634155273 0.02099914476275444 2.3198332786560059
    endloop
  endfacet
  facet normal 3.4824350618645598e-05 0.38518455910811844 -0.92283956038519988
    outer loop
      vertex 1.8074527978897095 0.02099914476275444 2.3198332786560059
      vertex 1.8056671619415283 -0.0025546264369040728 2.3100020885467529
      vertex 1.6543328762054443 -0.0025409443769603968 2.3100020885467529
    endloop
  endfacet
  facet normal 0 0.38537744599762302 -0.92275902819552458
    outer loop
      vertex 1.8074527978897095 0.02099914476275444 2.3198332786560059
      vertex 1.6543328762054443 -0.0025409443769603968 2.3100020885467529
      vertex 1.6525472402572632 0.02099914476275444 2.3198332786560059
    endloop
  endfacet
  facet normal 3.4807316682944341e-05 0.3849895990012529 -0.9229209107227474
    outer loop
      vertex 1.9623583555221558 0.02099914476275444 2.3198332786560059
      vertex 1.9570014476776123 -0.0025683087296783924 2.3100020885467529
      vertex 1.8056671619415283 -0.0025546264369040728 2.3100020885467529
    endloop
  endfacet
  facet normal 0 0.38518680770888075 -0.92283862249422643
    outer loop
      vertex 1.9623583555221558 0.02099914476275444 2.3198332786560059
      vertex 1.8056671619415283 -0.0025546264369040728 2.3100020885467529
      vertex 1.8074527978897095 0.02099914476275444 2.3198332786560059
    endloop
  endfacet
  facet normal 3.4789114703307015e-05 0.38479482232126233 -0.92300213624046701
    outer loop
      vertex 2.1172640323638916 0.02099914476275444 2.3198332786560059
      vertex 2.1083357334136963 -0.0025819907896220684 2.3100020885467529
      vertex 1.9570014476776123 -0.0025683087296783924 2.3100020885467529
    endloop
  endfacet
  facet normal 0 0.38499633829022495 -0.92291810010591879
    outer loop
      vertex 2.1172640323638916 0.02099914476275444 2.3198332786560059
      vertex 1.9570014476776123 -0.0025683087296783924 2.3100020885467529
      vertex 1.9623583555221558 0.02099914476275444 2.3198332786560059
    endloop
  endfacet
  facet normal 3.4771466552603046e-05 0.38460022588412784 -0.92308323841397044
    outer loop
      vertex 2.2721695899963379 0.02099914476275444 2.3198332786560059
      vertex 2.2596702575683594 -0.0025956728495657444 2.3100020885467529
      vertex 2.1083357334136963 -0.0025819907896220684 2.3100020885467529
    endloop
  endfacet
  facet normal 0 0.38480604401751567 -0.92299745854882498
    outer loop
      vertex 2.2721695899963379 0.02099914476275444 2.3198332786560059
      vertex 2.1083357334136963 -0.0025819907896220684 2.3100020885467529
      vertex 2.1172640323638916 0.02099914476275444 2.3198332786560059
    endloop
  endfacet
  facet normal 0 0 -1
    outer loop
      vertex 1.406996488571167 -0.18632575869560242 0.67149543762207031
      vertex 1.4153294563293457 -0.21451905369758606 0.67149543762207031
      vertex 1.2579941749572754 -0.21449127793312073 0.67149543762207031
    endloop
  endfacet
  facet normal 0 -0 -1
    outer loop
      vertex 1.406996488571167 -0.18632575869560242 0.67149543762207031
      vertex 1.2579941749572754 -0.21449127793312073 0.67149543762207031
      vertex 1.2454947233200073 -0.18632575869560242 0.67149543762207031
    endloop
  endfacet
  facet normal 0 0 -1
    outer loop
      vertex 1.5684982538223267 -0.18632575869560242 0.67149543762207031
      vertex 1.572664737701416 -0.21454682946205139 0.67149543762207031
      vertex 1.4153294563293457 -0.21451905369758606 0.67149543762207031
    endloop
  endfacet
  facet normal 0 -0 -1
    outer loop
      vertex 1.5684982538223267 -0.18632575869560242 0.67149543762207031
      vertex 1.4153294563293457 -0.21451905369758606 0.67149543762207031
      vertex 1.406996488571167 -0.18632575869560242 0.67149543762207031
    endloop
  endfacet
  facet normal 0 0 -1
    outer loop
      vertex 1.7300000190734863 -0.18632575869560242 0.67149543762207031
      vertex 1.7300000190734863 -0.21457460522651672 0.67149543762207031
      vertex 1.572664737701416 -0.21454682946205139 0.67149543762207031
    endloop
  endfacet
  facet normal 0 -0 -1
    outer loop
      vertex 1.7300000190734863 -0.18632575869560242 0.67149543762207031
      vertex 1.572664737701416 -0.21454682946205139 0.67149543762207031
      vertex 1.5684982538223267 -0.18632575869560242 0.67149543762207031
    endloop
  endfacet
  facet normal 0 -0 -1
    outer loop
      vertex 1.891501784324646 -0.18632575869560242 0.67149543762207031
      vertex 1.8873353004455566 -0.21460238099098206 0.67149543762207031
      vertex 1.7300000190734863 -0.21457460522651672 0.67149543762207031
    endloop
  endfacet
  facet normal -0 0 -1
    outer loop
      vertex 1.891501784324646 -0.18632575869560242 0.67149543762207031
      vertex 1.7300000190734863 -0.21457460522651672 0.67149543762207031
      vertex 1.7300000190734863 -0.18632575869560242 0.67149543762207031
    endloop
  endfacet
  facet normal 0 -0 -1
    outer loop
      vertex 2.0530035495758057 -0.18632575869560242 0.67149543762207031
      vertex 2.044670581817627 -0.21463015675544739 0.67149543762207031
      vertex 1.8873353004455566 -0.21460238099098206 0.67149543762207031
    endloop
  endfacet
  facet normal 0 -0 -1
    outer loop
      vertex 2.0530035495758057 -0.18632575869560242 0.67149543762207031
      vertex 1.8873353004455566 -0.21460238099098206 0.67149543762207031
      vertex 1.891501784324646 -0.18632575869560242 0.67149543762207031
    endloop
  endfacet
  facet normal 0 -0 -1
    outer loop
      vertex 2.2145051956176758 -0.18632575869560242 0.67149543762207031
      vertex 2.2020058631896973 -0.21465793251991272 0.67149543762207031
      vertex 2.044670581817627 -0.21463015675544739 0.67149543762207031
    endloop
  endfacet
  facet normal 0 -0 -1
    outer loop
      vertex 2.2145051956176758 -0.18632575869560242 0.67149543762207031
      vertex 2.044670581817627 -0.21463015675544739 0.67149543762207031
      vertex 2.0530035495758057 -0.18632575869560242 0.67149543762207031
    endloop
  endfacet
  facet normal -0.00017656990036613759 -0.99999998441153504 0
    outer loop
      vertex 2.1345763206481934 -0.21464602649211884 0.67149543762207031
      vertex 2.1345763206481934 -0.21464602649211884 0.65966260433197021
      vertex 2.2020058631896973 -0.21465793251991272 0.65966260433197021
    endloop
  endfacet
  facet normal -0.00017656990036613759 -0.99999998441153504 0
    outer loop
      vertex 2.1345763206481934 -0.21464602649211884 0.67149543762207031
      vertex 2.2020058631896973 -0.21465793251991272 0.65966260433197021
      vertex 2.2020058631896973 -0.21465793251991272 0.67149543762207031
    endloop
  endfacet
  facet normal -0.00017657052468732841 -0.9999999844114249 0
    outer loop
      vertex 2.0671470165252686 -0.21463412046432495 0.67149543762207031
      vertex 2.0671470165252686 -0.21463412046432495 0.65966260433197021
      vertex 2.1345763206481934 -0.21464602649211884 0.65966260433197021
    endloop
  endfacet
  facet normal -0.00017657052468732841 -0.9999999844114249 0
    outer loop
      vertex 2.0671470165252686 -0.21463412046432495 0.67149543762207031
      vertex 2.1345763206481934 -0.21464602649211884 0.65966260433197021
      vertex 2.1345763206481934 -0.21464602649211884 0.67149543762207031
    endloop
  endfacet
  facet normal -0.00017657021252618114 -0.99999998441148008 0
    outer loop
      vertex 1.9997175931930542 -0.21462221443653107 0.67149543762207031
      vertex 1.9997175931930542 -0.21462221443653107 0.65966260433197021
      vertex 2.0671470165252686 -0.21463412046432495 0.65966260433197021
    endloop
  endfacet
  facet normal -0.00017657021252618114 -0.99999998441148008 0
    outer loop
      vertex 1.9997175931930542 -0.21462221443653107 0.67149543762207031
      vertex 2.0671470165252686 -0.21463412046432495 0.65966260433197021
      vertex 2.0671470165252686 -0.21463412046432495 0.67149543762207031
    endloop
  endfacet
  facet normal -0.00017657021252618114 -0.99999998441148008 0
    outer loop
      vertex 1.9322881698608398 -0.21461030840873718 0.67149543762207031
      vertex 1.9322881698608398 -0.21461030840873718 0.65966260433197021
      vertex 1.9997175931930542 -0.21462221443653107 0.65966260433197021
    endloop
  endfacet
  facet normal -0.00017657021252618114 -0.99999998441148008 0
    outer loop
      vertex 1.9322881698608398 -0.21461030840873718 0.67149543762207031
      vertex 1.9997175931930542 -0.21462221443653107 0.65966260433197021
      vertex 1.9997175931930542 -0.21462221443653107 0.67149543762207031
    endloop
  endfacet
  facet normal -0.00017634922353114787 -0.99999998445047567 0
    outer loop
      vertex 1.8648587465286255 -0.21459841728210449 0.67149543762207031
      vertex 1.8648587465286255 -0.21459841728210449 0.65966260433197021
      vertex 1.9322881698608398 -0.21461030840873718 0.65966260433197021
    endloop
  endfacet
  facet normal -0.00017634922353114787 -0.99999998445047567 0
    outer loop
      vertex 1.8648587465286255 -0.21459841728210449 0.67149543762207031
      vertex 1.9322881698608398 -0.21461030840873718 0.65966260433197021
      vertex 1.9322881698608398 -0.21461030840873718 0.67149543762207031
    endloop
  endfacet
  facet normal -0.00017657052468732841 -0.9999999844114249 0
    outer loop
      vertex 1.7974294424057007 -0.21458651125431061 0.67149543762207031
      vertex 1.7974294424057007 -0.21458651125431061 0.65966260433197021
      vertex 1.8648587465286255 -0.21459841728210449 0.65966260433197021
    endloop
  endfacet
  facet normal -0.00017657052468732841 -0.9999999844114249 0
    outer loop
      vertex 1.7974294424057007 -0.21458651125431061 0.67149543762207031
      vertex 1.8648587465286255 -0.21459841728210449 0.65966260433197021
      vertex 1.8648587465286255 -0.21459841728210449 0.67149543762207031
    endloop
  endfacet
  facet normal -0.00017657021252618114 -0.99999998441148008 0
    outer loop
      vertex 1.7300000190734863 -0.21457460522651672 0.67149543762207031
      vertex 1.7300000190734863 -0.21457460522651672 0.65966260433197021
      vertex 1.7974294424057007 -0.21458651125431061 0.65966260433197021
    endloop
  endfacet
  facet normal -0.00017657021252618114 -0.99999998441148008 0
    outer loop
      vertex 1.7300000190734863 -0.21457460522651672 0.67149543762207031
      vertex 1.7974294424057007 -0.21458651125431061 0.65966260433197021
      vertex 1.7974294424057007 -0.21458651125431061 0.67149543762207031
    endloop
  endfacet
  facet normal -0.00017657021252618114 -0.99999998441148008 0
    outer loop
      vertex 1.662570595741272 -0.21456269919872284 0.67149543762207031
      vertex 1.662570595741272 -0.21456269919872284 0.65966260433197021
      vertex 1.7300000190734863 -0.21457460522651672 0.65966260433197021
    endloop
  endfacet
  facet normal -0.00017657021252618114 -0.99999998441148008 0
    outer loop
      vertex 1.662570595741272 -0.21456269919872284 0.67149543762207031
      vertex 1.7300000190734863 -0.21457460522651672 0.65966260433197021
      vertex 1.7300000190734863 -0.21457460522651672 0.67149543762207031
    endloop
  endfacet
  facet normal -0.00017657021252618114 -0.99999998441148008 0
    outer loop
      vertex 1.5951411724090576 -0.21455079317092896 0.67149543762207031
      vertex 1.5951411724090576 -0.21455079317092896 0.65966260433197021
      vertex 1.662570595741272 -0.21456269919872284 0.65966260433197021
    endloop
  endfacet
  facet normal -0.00017657021252618114 -0.99999998441148008 0
    outer loop
      vertex 1.5951411724090576 -0.21455079317092896 0.67149543762207031
      vertex 1.662570595741272 -0.21456269919872284 0.65966260433197021
      vertex 1.662570595741272 -0.21456269919872284 0.67149543762207031
    endloop
  endfacet
  facet normal -0.00017657021252618114 -0.99999998441148008 0
    outer loop
      vertex 1.5277117490768433 -0.21453888714313507 0.67149543762207031
      vertex 1.5277117490768433 -0.21453888714313507 0.65966260433197021
      vertex 1.5951411724090576 -0.21455079317092896 0.65966260433197021
    endloop
  endfacet
  facet normal -0.00017657021252618114 -0.99999998441148008 0
    outer loop
      vertex 1.5277117490768433 -0.21453888714313507 0.67149543762207031
      vertex 1.5951411724090576 -0.21455079317092896 0.65966260433197021
      vertex 1.5951411724090576 -0.21455079317092896 0.67149543762207031
    endloop
  endfacet
  facet normal -0.00017657052468732841 -0.9999999844114249 0
    outer loop
      vertex 1.4602824449539185 -0.21452698111534119 0.67149543762207031
      vertex 1.4602824449539185 -0.21452698111534119 0.65966260433197021
      vertex 1.5277117490768433 -0.21453888714313507 0.65966260433197021
    endloop
  endfacet
  facet normal -0.00017657052468732841 -0.9999999844114249 0
    outer loop
      vertex 1.4602824449539185 -0.21452698111534119 0.67149543762207031
      vertex 1.5277117490768433 -0.21453888714313507 0.65966260433197021
      vertex 1.5277117490768433 -0.21453888714313507 0.67149543762207031
    endloop
  endfacet
  facet normal -0.00017657021252618114 -0.99999998441148008 0
    outer loop
      vertex 1.3928530216217041 -0.2145150750875473 0.67149543762207031
      vertex 1.3928530216217041 -0.2145150750875473 0.65966260433197021
      vertex 1.4602824449539185 -0.21452698111534119 0.65966260433197021
    endloop
  endfacet
  facet normal -0.00017657021252618114 -0.99999998441148008 0
    outer loop
      vertex 1.3928530216217041 -0.2145150750875473 0.67149543762207031
      vertex 1.4602824449539185 -0.21452698111534119 0.65966260433197021
      vertex 1.4602824449539185 -0.21452698111534119 0.67149543762207031
    endloop
  endfacet
  facet normal -0.00017657021252618114 -0.99999998441148008 0
    outer loop
      vertex 1.3254235982894897 -0.21450316905975342 0.67149543762207031
      vertex 1.3254235982894897 -0.21450316905975342 0.65966260433197021
      vertex 1.3928530216217041 -0.2145150750875473 0.65966260433197021
    endloop
  endfacet
  facet normal -0.00017657021252618114 -0.99999998441148008 0
    outer loop
      vertex 1.3254235982894897 -0.21450316905975342 0.67149543762207031
      vertex 1.3928530216217041 -0.2145150750875473 0.65966260433197021
      vertex 1.3928530216217041 -0.2145150750875473 0.67149543762207031
    endloop
  endfacet
  facet normal -0.00017634922353114787 -0.99999998445047567 0
    outer loop
      vertex 1.2579941749572754 -0.21449127793312073 0.67149543762207031
      vertex 1.2579941749572754 -0.21449127793312073 0.65966260433197021
      vertex 1.3254235982894897 -0.21450316905975342 0.65966260433197021
    endloop
  endfacet
  facet normal -0.00017634922353114787 -0.99999998445047567 0
    outer loop
      vertex 1.2579941749572754 -0.21449127793312073 0.67149543762207031
      vertex 1.3254235982894897 -0.21450316905975342 0.65966260433197021
      vertex 1.3254235982894897 -0.21450316905975342 0.67149543762207031
    endloop
  endfacet
  facet normal -0 -0 1
    outer loop
      vertex 2.2243587970733643 -0.0025924802757799625 2.3100020885467529
      vertex 2.2243587970733643 -0.0084996540099382401 2.3100020885467529
      vertex 2.2596702575683594 -0.0084996540099382401 2.3100020885467529
    endloop
  endfacet
  facet normal 0 0 1
    outer loop
      vertex 2.2243587970733643 -0.0025924802757799625 2.3100020885467529
      vertex 2.2596702575683594 -0.0084996540099382401 2.3100020885467529
      vertex 2.2596702575683594 -0.0025956728495657444 2.3100020885467529
    endloop
  endfacet
  facet normal -0 -0 1
    outer loop
      vertex 2.1890473365783691 -0.0025892877019941807 2.3100020885467529
      vertex 2.1890473365783691 -0.0084996540099382401 2.3100020885467529
      vertex 2.2243587970733643 -0.0084996540099382401 2.3100020885467529
    endloop
  endfacet
  facet normal 0 0 1
    outer loop
      vertex 2.1890473365783691 -0.0025892877019941807 2.3100020885467529
      vertex 2.2243587970733643 -0.0084996540099382401 2.3100020885467529
      vertex 2.2243587970733643 -0.0025924802757799625 2.3100020885467529
    endloop
  endfacet
  facet normal -0 -0 1
    outer loop
      vertex 2.1537361145019531 -0.0025860953610390425 2.3100020885467529
      vertex 2.1537361145019531 -0.0084996540099382401 2.3100020885467529
      vertex 2.1890473365783691 -0.0084996540099382401 2.3100020885467529
    endloop
  endfacet
  facet normal 0 0 1
    outer loop
      vertex 2.1537361145019531 -0.0025860953610390425 2.3100020885467529
      vertex 2.1890473365783691 -0.0084996540099382401 2.3100020885467529
      vertex 2.1890473365783691 -0.0025892877019941807 2.3100020885467529
    endloop
  endfacet
  facet normal -0 -0 1
    outer loop
      vertex 2.118424654006958 -0.0025829027872532606 2.3100020885467529
      vertex 2.118424654006958 -0.0084996540099382401 2.3100020885467529
      vertex 2.1537361145019531 -0.0084996540099382401 2.3100020885467529
    endloop
  endfacet
  facet normal 0 0 1
    outer loop
      vertex 2.118424654006958 -0.0025829027872532606 2.3100020885467529
      vertex 2.1537361145019531 -0.0084996540099382401 2.3100020885467529
      vertex 2.1537361145019531 -0.0025860953610390425 2.3100020885467529
    endloop
  endfacet
  facet normal -0 -0 1
    outer loop
      vertex 2.083113431930542 -0.0025797104462981224 2.3100020885467529
      vertex 2.083113431930542 -0.0084996540099382401 2.3100020885467529
      vertex 2.118424654006958 -0.0084996540099382401 2.3100020885467529
    endloop
  endfacet
  facet normal -0 -0 1
    outer loop
      vertex 2.083113431930542 -0.0025797104462981224 2.3100020885467529
      vertex 2.118424654006958 -0.0084996540099382401 2.3100020885467529
      vertex 2.118424654006958 -0.0025829027872532606 2.3100020885467529
    endloop
  endfacet
  facet normal -0 -0 1
    outer loop
      vertex 2.0478019714355469 -0.0025765178725123405 2.3100020885467529
      vertex 2.0478019714355469 -0.0084996540099382401 2.3100020885467529
      vertex 2.083113431930542 -0.0084996540099382401 2.3100020885467529
    endloop
  endfacet
  facet normal 0 0 1
    outer loop
      vertex 2.0478019714355469 -0.0025765178725123405 2.3100020885467529
      vertex 2.083113431930542 -0.0084996540099382401 2.3100020885467529
      vertex 2.083113431930542 -0.0025797104462981224 2.3100020885467529
    endloop
  endfacet
  facet normal -0 -0 1
    outer loop
      vertex 2.0124907493591309 -0.0025733252987265587 2.3100020885467529
      vertex 2.0124907493591309 -0.0084996540099382401 2.3100020885467529
      vertex 2.0478019714355469 -0.0084996540099382401 2.3100020885467529
    endloop
  endfacet
  facet normal 0 0 1
    outer loop
      vertex 2.0124907493591309 -0.0025733252987265587 2.3100020885467529
      vertex 2.0478019714355469 -0.0084996540099382401 2.3100020885467529
      vertex 2.0478019714355469 -0.0025765178725123405 2.3100020885467529
    endloop
  endfacet
  facet normal -0 -0 1
    outer loop
      vertex 1.9771794080734253 -0.0025701329577714205 2.3100020885467529
      vertex 1.9771794080734253 -0.0084996540099382401 2.3100020885467529
      vertex 2.0124907493591309 -0.0084996540099382401 2.3100020885467529
    endloop
  endfacet
  facet normal 0 0 1
    outer loop
      vertex 1.9771794080734253 -0.0025701329577714205 2.3100020885467529
      vertex 2.0124907493591309 -0.0084996540099382401 2.3100020885467529
      vertex 2.0124907493591309 -0.0025733252987265587 2.3100020885467529
    endloop
  endfacet
  facet normal -0 -0 1
    outer loop
      vertex 1.9418680667877197 -0.0025669403839856386 2.3100020885467529
      vertex 1.9418680667877197 -0.0084996540099382401 2.3100020885467529
      vertex 1.9771794080734253 -0.0084996540099382401 2.3100020885467529
    endloop
  endfacet
  facet normal 0 0 1
    outer loop
      vertex 1.9418680667877197 -0.0025669403839856386 2.3100020885467529
      vertex 1.9771794080734253 -0.0084996540099382401 2.3100020885467529
      vertex 1.9771794080734253 -0.0025701329577714205 2.3100020885467529
    endloop
  endfacet
  facet normal -0 -0 1
    outer loop
      vertex 1.9065567255020142 -0.0025637480430305004 2.3100020885467529
      vertex 1.9065567255020142 -0.0084996540099382401 2.3100020885467529
      vertex 1.9418680667877197 -0.0084996540099382401 2.3100020885467529
    endloop
  endfacet
  facet normal 0 0 1
    outer loop
      vertex 1.9065567255020142 -0.0025637480430305004 2.3100020885467529
      vertex 1.9418680667877197 -0.0084996540099382401 2.3100020885467529
      vertex 1.9418680667877197 -0.0025669403839856386 2.3100020885467529
    endloop
  endfacet
  facet normal -0 -0 1
    outer loop
      vertex 1.8712453842163086 -0.0025605554692447186 2.3100020885467529
      vertex 1.8712453842163086 -0.0084996540099382401 2.3100020885467529
      vertex 1.9065567255020142 -0.0084996540099382401 2.3100020885467529
    endloop
  endfacet
  facet normal 0 0 1
    outer loop
      vertex 1.8712453842163086 -0.0025605554692447186 2.3100020885467529
      vertex 1.9065567255020142 -0.0084996540099382401 2.3100020885467529
      vertex 1.9065567255020142 -0.0025637480430305004 2.3100020885467529
    endloop
  endfacet
  facet normal -0 -0 1
    outer loop
      vertex 1.835934042930603 -0.0025573628954589367 2.3100020885467529
      vertex 1.835934042930603 -0.0084996540099382401 2.3100020885467529
      vertex 1.8712453842163086 -0.0084996540099382401 2.3100020885467529
    endloop
  endfacet
  facet normal 0 0 1
    outer loop
      vertex 1.835934042930603 -0.0025573628954589367 2.3100020885467529
      vertex 1.8712453842163086 -0.0084996540099382401 2.3100020885467529
      vertex 1.8712453842163086 -0.0025605554692447186 2.3100020885467529
    endloop
  endfacet
  facet normal -0 -0 1
    outer loop
      vertex 1.8006227016448975 -0.0025541705545037985 2.3100020885467529
      vertex 1.8006227016448975 -0.0084996540099382401 2.3100020885467529
      vertex 1.835934042930603 -0.0084996540099382401 2.3100020885467529
    endloop
  endfacet
  facet normal 0 0 1
    outer loop
      vertex 1.8006227016448975 -0.0025541705545037985 2.3100020885467529
      vertex 1.835934042930603 -0.0084996540099382401 2.3100020885467529
      vertex 1.835934042930603 -0.0025573628954589367 2.3100020885467529
    endloop
  endfacet
  facet normal -0 -0 1
    outer loop
      vertex 1.7653113603591919 -0.0025509779807180166 2.3100020885467529
      vertex 1.7653113603591919 -0.0084996540099382401 2.3100020885467529
      vertex 1.8006227016448975 -0.0084996540099382401 2.3100020885467529
    endloop
  endfacet
  facet normal 0 0 1
    outer loop
      vertex 1.7653113603591919 -0.0025509779807180166 2.3100020885467529
      vertex 1.8006227016448975 -0.0084996540099382401 2.3100020885467529
      vertex 1.8006227016448975 -0.0025541705545037985 2.3100020885467529
    endloop
  endfacet
  facet normal -0 -0 1
    outer loop
      vertex 1.7300000190734863 -0.0025477854069322348 2.3100020885467529
      vertex 1.7300000190734863 -0.0084996540099382401 2.3100020885467529
      vertex 1.7653113603591919 -0.0084996540099382401 2.3100020885467529
    endloop
  endfacet
  facet normal 0 0 1
    outer loop
      vertex 1.7300000190734863 -0.0025477854069322348 2.3100020885467529
      vertex 1.7653113603591919 -0.0084996540099382401 2.3100020885467529
      vertex 1.7653113603591919 -0.0025509779807180166 2.3100020885467529
    endloop
  endfacet
  facet normal -0 -0 1
    outer loop
      vertex 1.6946886777877808 -0.0025445930659770966 2.3100020885467529
      vertex 1.6946886777877808 -0.0084996540099382401 2.3100020885467529
      vertex 1.7300000190734863 -0.0084996540099382401 2.3100020885467529
    endloop
  endfacet
  facet normal 0 0 1
    outer loop
      vertex 1.6946886777877808 -0.0025445930659770966 2.3100020885467529
      vertex 1.7300000190734863 -0.0084996540099382401 2.3100020885467529
      vertex 1.7300000190734863 -0.0025477854069322348 2.3100020885467529
    endloop
  endfacet
  facet normal -0 -0 1
    outer loop
      vertex 1.6593773365020752 -0.0025414004921913147 2.3100020885467529
      vertex 1.6593773365020752 -0.0084996540099382401 2.3100020885467529
      vertex 1.6946886777877808 -0.0084996540099382401 2.3100020885467529
    endloop
  endfacet
  facet normal 0 0 1
    outer loop
      vertex 1.6593773365020752 -0.0025414004921913147 2.3100020885467529
      vertex 1.6946886777877808 -0.0084996540099382401 2.3100020885467529
      vertex 1.6946886777877808 -0.0025445930659770966 2.3100020885467529
    endloop
  endfacet
  facet normal -0 -0 1
    outer loop
      vertex 1.6240659952163696 -0.0025382081512361765 2.3100020885467529
      vertex 1.6240659952163696 -0.0084996540099382401 2.3100020885467529
      vertex 1.6593773365020752 -0.0084996540099382401 2.3100020885467529
    endloop
  endfacet
  facet normal 0 0 1
    outer loop
      vertex 1.6240659952163696 -0.0025382081512361765 2.3100020885467529
      vertex 1.6593773365020752 -0.0084996540099382401 2.3100020885467529
      vertex 1.6593773365020752 -0.0025414004921913147 2.3100020885467529
    endloop
  endfacet
  facet normal -0 -0 1
    outer loop
      vertex 1.5887546539306641 -0.0025350155774503946 2.3100020885467529
      vertex 1.5887546539306641 -0.0084996540099382401 2.3100020885467529
      vertex 1.6240659952163696 -0.0084996540099382401 2.3100020885467529
    endloop
  endfacet
  facet normal 0 0 1
    outer loop
      vertex 1.5887546539306641 -0.0025350155774503946 2.3100020885467529
      vertex 1.6240659952163696 -0.0084996540099382401 2.3100020885467529
      vertex 1.6240659952163696 -0.0025382081512361765 2.3100020885467529
    endloop
  endfacet
  facet normal -0 -0 1
    outer loop
      vertex 1.5534433126449585 -0.0025318230036646128 2.3100020885467529
      vertex 1.5534433126449585 -0.0084996540099382401 2.3100020885467529
      vertex 1.5887546539306641 -0.0084996540099382401 2.3100020885467529
    endloop
  endfacet
  facet normal 0 0 1
    outer loop
      vertex 1.5534433126449585 -0.0025318230036646128 2.3100020885467529
      vertex 1.5887546539306641 -0.0084996540099382401 2.3100020885467529
      vertex 1.5887546539306641 -0.0025350155774503946 2.3100020885467529
    endloop
  endfacet
  facet normal -0 -0 1
    outer loop
      vertex 1.5181319713592529 -0.0025286306627094746 2.3100020885467529
      vertex 1.5181319713592529 -0.0084996540099382401 2.3100020885467529
      vertex 1.5534433126449585 -0.0084996540099382401 2.3100020885467529
    endloop
  endfacet
  facet normal 0 0 1
    outer loop
      vertex 1.5181319713592529 -0.0025286306627094746 2.3100020885467529
      vertex 1.5534433126449585 -0.0084996540099382401 2.3100020885467529
      vertex 1.5534433126449585 -0.0025318230036646128 2.3100020885467529
    endloop
  endfacet
  facet normal -0 -0 1
    outer loop
      vertex 1.4828206300735474 -0.0025254380889236927 2.3100020885467529
      vertex 1.4828206300735474 -0.0084996540099382401 2.3100020885467529
      vertex 1.5181319713592529 -0.0084996540099382401 2.3100020885467529
    endloop
  endfacet
  facet normal 0 0 1
    outer loop
      vertex 1.4828206300735474 -0.0025254380889236927 2.3100020885467529
      vertex 1.5181319713592529 -0.0084996540099382401 2.3100020885467529
      vertex 1.5181319713592529 -0.0025286306627094746 2.3100020885467529
    endloop
  endfacet
  facet normal -0 -0 1
    outer loop
      vertex 1.4475092887878418 -0.0025222457479685545 2.3100020885467529
      vertex 1.4475092887878418 -0.0084996540099382401 2.3100020885467529
      vertex 1.4828206300735474 -0.0084996540099382401 2.3100020885467529
    endloop
  endfacet
  facet normal 0 0 1
    outer loop
      vertex 1.4475092887878418 -0.0025222457479685545 2.3100020885467529
      vertex 1.4828206300735474 -0.0084996540099382401 2.3100020885467529
      vertex 1.4828206300735474 -0.0025254380889236927 2.3100020885467529
    endloop
  endfacet
  facet normal -0 -0 1
    outer loop
      vertex 1.4121979475021362 -0.0025190531741827726 2.3100020885467529
      vertex 1.4121979475021362 -0.0084996540099382401 2.3100020885467529
      vertex 1.4475092887878418 -0.0084996540099382401 2.3100020885467529
    endloop
  endfacet
  facet normal 0 0 1
    outer loop
      vertex 1.4121979475021362 -0.0025190531741827726 2.3100020885467529
      vertex 1.4475092887878418 -0.0084996540099382401 2.3100020885467529
      vertex 1.4475092887878418 -0.0025222457479685545 2.3100020885467529
    endloop
  endfacet
  facet normal -0 -0 1
    outer loop
      vertex 1.3768866062164307 -0.0025158606003969908 2.3100020885467529
      vertex 1.3768866062164307 -0.0084996540099382401 2.3100020885467529
      vertex 1.4121979475021362 -0.0084996540099382401 2.3100020885467529
    endloop
  endfacet
  facet normal 0 0 1
    outer loop
      vertex 1.3768866062164307 -0.0025158606003969908 2.3100020885467529
      vertex 1.4121979475021362 -0.0084996540099382401 2.3100020885467529
      vertex 1.4121979475021362 -0.0025190531741827726 2.3100020885467529
    endloop
  endfacet
  facet normal -0 -0 1
    outer loop
      vertex 1.3415752649307251 -0.0025126682594418526 2.3100020885467529
      vertex 1.3415752649307251 -0.0084996540099382401 2.3100020885467529
      vertex 1.3768866062164307 -0.0084996540099382401 2.3100020885467529
    endloop
  endfacet
  facet normal -0 -0 1
    outer loop
      vertex 1.3415752649307251 -0.0025126682594418526 2.3100020885467529
      vertex 1.3768866062164307 -0.0084996540099382401 2.3100020885467529
      vertex 1.3768866062164307 -0.0025158606003969908 2.3100020885467529
    endloop
  endfacet
  facet normal -0 -0 1
    outer loop
      vertex 1.3062639236450195 -0.0025094756856560707 2.3100020885467529
      vertex 1.3062639236450195 -0.0084996540099382401 2.3100020885467529
      vertex 1.3415752649307251 -0.0084996540099382401 2.3100020885467529
    endloop
  endfacet
  facet normal 0 0 1
    outer loop
      vertex 1.3062639236450195 -0.0025094756856560707 2.3100020885467529
      vertex 1.3415752649307251 -0.0084996540099382401 2.3100020885467529
      vertex 1.3415752649307251 -0.0025126682594418526 2.3100020885467529
    endloop
  endfacet
  facet normal -0 -0 1
    outer loop
      vertex 1.270952582359314 -0.0025062833447009325 2.3100020885467529
      vertex 1.270952582359314 -0.0084996540099382401 2.3100020885467529
      vertex 1.3062639236450195 -0.0084996540099382401 2.3100020885467529
    endloop
  endfacet
  facet normal 0 0 1
    outer loop
      vertex 1.270952582359314 -0.0025062833447009325 2.3100020885467529
      vertex 1.3062639236450195 -0.0084996540099382401 2.3100020885467529
      vertex 1.3062639236450195 -0.0025094756856560707 2.3100020885467529
    endloop
  endfacet
  facet normal -0 -0 1
    outer loop
      vertex 1.2356412410736084 -0.0025030907709151506 2.3100020885467529
      vertex 1.2356412410736084 -0.0084996540099382401 2.3100020885467529
      vertex 1.270952582359314 -0.0084996540099382401 2.3100020885467529
    endloop
  endfacet
  facet normal 0 0 1
    outer loop
      vertex 1.2356412410736084 -0.0025030907709151506 2.3100020885467529
      vertex 1.270952582359314 -0.0084996540099382401 2.3100020885467529
      vertex 1.270952582359314 -0.0025062833447009325 2.3100020885467529
    endloop
  endfacet
  facet normal -0 -0 1
    outer loop
      vertex 1.2003298997879028 -0.0024998981971293688 2.3100020885467529
      vertex 1.2003298997879028 -0.0084996540099382401 2.3100020885467529
      vertex 1.2356412410736084 -0.0084996540099382401 2.3100020885467529
    endloop
  endfacet
  facet normal 0 0 1
    outer loop
      vertex 1.2003298997879028 -0.0024998981971293688 2.3100020885467529
      vertex 1.2356412410736084 -0.0084996540099382401 2.3100020885467529
      vertex 1.2356412410736084 -0.0025030907709151506 2.3100020885467529
    endloop
  endfacet
  facet normal 0 1 -0
    outer loop
      vertex 1.2759970426559448 -0.0084996540099382401 2.3231682777404785
      vertex 1.2759970426559448 -0.0084996540099382401 2.3100020885467529
      vertex 1.2003298997879028 -0.0084996540099382401 2.3100020885467529
    endloop
  endfacet
  facet normal 0 1 0
    outer loop
      vertex 1.2759970426559448 -0.0084996540099382401 2.3231682777404785
      vertex 1.2003298997879028 -0.0084996540099382401 2.3100020885467529
      vertex 1.2003298997879028 -0.0084996540099382401 2.3231682777404785
    endloop
  endfacet
  facet normal 0 1 -0
    outer loop
      vertex 1.3516641855239868 -0.0084996540099382401 2.3231682777404785
      vertex 1.3516641855239868 -0.0084996540099382401 2.3100020885467529
      vertex 1.2759970426559448 -0.0084996540099382401 2.3100020885467529
    endloop
  endfacet
  facet normal 0 1 0
    outer loop
      vertex 1.3516641855239868 -0.0084996540099382401 2.3231682777404785
      vertex 1.2759970426559448 -0.0084996540099382401 2.3100020885467529
      vertex 1.2759970426559448 -0.0084996540099382401 2.3231682777404785
    endloop
  endfacet
  facet normal 0 1 -0
    outer loop
      vertex 1.4273313283920288 -0.0084996540099382401 2.3231682777404785
      vertex 1.4273313283920288 -0.0084996540099382401 2.3100020885467529
      vertex 1.3516641855239868 -0.0084996540099382401 2.3100020885467529
    endloop
  endfacet
  facet normal 0 1 0
    outer loop
      vertex 1.4273313283920288 -0.0084996540099382401 2.3231682777404785
      vertex 1.3516641855239868 -0.0084996540099382401 2.3100020885467529
      vertex 1.3516641855239868 -0.0084996540099382401 2.3231682777404785
    endloop
  endfacet
  facet normal 0 1 -0
    outer loop
      vertex 1.5029984712600708 -0.0084996540099382401 2.3231682777404785
      vertex 1.5029984712600708 -0.0084996540099382401 2.3100020885467529
      vertex 1.4273313283920288 -0.0084996540099382401 2.3100020885467529
    endloop
  endfacet
  facet normal 0 1 0
    outer loop
      vertex 1.5029984712600708 -0.0084996540099382401 2.3231682777404785
      vertex 1.4273313283920288 -0.0084996540099382401 2.3100020885467529
      vertex 1.4273313283920288 -0.0084996540099382401 2.3231682777404785
    endloop
  endfacet
  facet normal 0 1 -0
    outer loop
      vertex 1.5786657333374023 -0.0084996540099382401 2.3231682777404785
      vertex 1.5786657333374023 -0.0084996540099382401 2.3100020885467529
      vertex 1.5029984712600708 -0.0084996540099382401 2.3100020885467529
    endloop
  endfacet
  facet normal 0 1 0
    outer loop
      vertex 1.5786657333374023 -0.0084996540099382401 2.3231682777404785
      vertex 1.5029984712600708 -0.0084996540099382401 2.3100020885467529
      vertex 1.5029984712600708 -0.0084996540099382401 2.3231682777404785
    endloop
  endfacet
  facet normal 0 1 -0
    outer loop
      vertex 1.6543328762054443 -0.0084996540099382401 2.3231682777404785
      vertex 1.6543328762054443 -0.0084996540099382401 2.3100020885467529
      vertex 1.5786657333374023 -0.0084996540099382401 2.3100020885467529
    endloop
  endfacet
  facet normal 0 1 0
    outer loop
      vertex 1.6543328762054443 -0.0084996540099382401 2.3231682777404785
      vertex 1.5786657333374023 -0.0084996540099382401 2.3100020885467529
      vertex 1.5786657333374023 -0.0084996540099382401 2.3231682777404785
    endloop
  endfacet
  facet normal 0 1 -0
    outer loop
      vertex 1.7300000190734863 -0.0084996540099382401 2.3231682777404785
      vertex 1.7300000190734863 -0.0084996540099382401 2.3100020885467529
      vertex 1.6543328762054443 -0.0084996540099382401 2.3100020885467529
    endloop
  endfacet
  facet normal 0 1 0
    outer loop
      vertex 1.7300000190734863 -0.0084996540099382401 2.3231682777404785
      vertex 1.6543328762054443 -0.0084996540099382401 2.3100020885467529
      vertex 1.6543328762054443 -0.0084996540099382401 2.3231682777404785
    endloop
  endfacet
  facet normal 0 1 -0
    outer loop
      vertex 1.8056671619415283 -0.0084996540099382401 2.3231682777404785
      vertex 1.8056671619415283 -0.0084996540099382401 2.3100020885467529
      vertex 1.7300000190734863 -0.0084996540099382401 2.3100020885467529
    endloop
  endfacet
  facet normal 0 1 0
    outer loop
      vertex 1.8056671619415283 -0.0084996540099382401 2.3231682777404785
      vertex 1.7300000190734863 -0.0084996540099382401 2.3100020885467529
      vertex 1.7300000190734863 -0.0084996540099382401 2.3231682777404785
    endloop
  endfacet
  facet normal 0 1 -0
    outer loop
      vertex 1.8813343048095703 -0.0084996540099382401 2.3231682777404785
      vertex 1.8813343048095703 -0.0084996540099382401 2.3100020885467529
      vertex 1.8056671619415283 -0.0084996540099382401 2.3100020885467529
    endloop
  endfacet
  facet normal 0 1 0
    outer loop
      vertex 1.8813343048095703 -0.0084996540099382401 2.3231682777404785
      vertex 1.8056671619415283 -0.0084996540099382401 2.3100020885467529
      vertex 1.8056671619415283 -0.0084996540099382401 2.3231682777404785
    endloop
  endfacet
  facet normal 0 1 -0
    outer loop
      vertex 1.9570014476776123 -0.0084996540099382401 2.3231682777404785
      vertex 1.9570014476776123 -0.0084996540099382401 2.3100020885467529
      vertex 1.8813343048095703 -0.0084996540099382401 2.3100020885467529
    endloop
  endfacet
  facet normal 0 1 0
    outer loop
      vertex 1.9570014476776123 -0.0084996540099382401 2.3231682777404785
      vertex 1.8813343048095703 -0.0084996540099382401 2.3100020885467529
      vertex 1.8813343048095703 -0.0084996540099382401 2.3231682777404785
    endloop
  endfacet
  facet normal 0 1 -0
    outer loop
      vertex 2.0326685905456543 -0.0084996540099382401 2.3231682777404785
      vertex 2.0326685905456543 -0.0084996540099382401 2.3100020885467529
      vertex 1.9570014476776123 -0.0084996540099382401 2.3100020885467529
    endloop
  endfacet
  facet normal 0 1 0
    outer loop
      vertex 2.0326685905456543 -0.0084996540099382401 2.3231682777404785
      vertex 1.9570014476776123 -0.0084996540099382401 2.3100020885467529
      vertex 1.9570014476776123 -0.0084996540099382401 2.3231682777404785
    endloop
  endfacet
  facet normal 0 1 -0
    outer loop
      vertex 2.1083357334136963 -0.0084996540099382401 2.3231682777404785
      vertex 2.1083357334136963 -0.0084996540099382401 2.3100020885467529
      vertex 2.0326685905456543 -0.0084996540099382401 2.3100020885467529
    endloop
  endfacet
  facet normal 0 1 0
    outer loop
      vertex 2.1083357334136963 -0.0084996540099382401 2.3231682777404785
      vertex 2.0326685905456543 -0.0084996540099382401 2.3100020885467529
      vertex 2.0326685905456543 -0.0084996540099382401 2.3231682777404785
    endloop
  endfacet
  facet normal 0 1 -0
    outer loop
      vertex 2.1840028762817383 -0.0084996540099382401 2.3231682777404785
      vertex 2.1840028762817383 -0.0084996540099382401 2.3100020885467529
      vertex 2.1083357334136963 -0.0084996540099382401 2.3100020885467529
    endloop
  endfacet
  facet normal 0 1 0
    outer loop
      vertex 2.1840028762817383 -0.0084996540099382401 2.3231682777404785
      vertex 2.1083357334136963 -0.0084996540099382401 2.3100020885467529
      vertex 2.1083357334136963 -0.0084996540099382401 2.3231682777404785
    endloop
  endfacet
  facet normal 0 1 -0
    outer loop
      vertex 2.2596702575683594 -0.0084996540099382401 2.3231682777404785
      vertex 2.2596702575683594 -0.0084996540099382401 2.3100020885467529
      vertex 2.1840028762817383 -0.0084996540099382401 2.3100020885467529
    endloop
  endfacet
  facet normal 0 1 0
    outer loop
      vertex 2.2596702575683594 -0.0084996540099382401 2.3231682777404785
      vertex 2.1840028762817383 -0.0084996540099382401 2.3100020885467529
      vertex 2.1840028762817383 -0.0084996540099382401 2.3231682777404785
    endloop
  endfacet
endsolid OBJECT
