# Wavefront OBJ file written 2025-10-06T12:45:21
o atmosphere_outlet_edgeMesh

# points : 46
# lines  : 53

# <points count="46">
v 2.73 -1.202 5
v 0.73 -0.202 5
v 0.73 -0.202 0
v 2.73 -0.202 5
v 2.73 -0.202 0
v 1.05 -0.202 2.47491
v 1.05 -0.202 0.837332
v 2.41 -0.202 2.47491
v 2.41 -0.202 0.837332
v 0.73 -1.202 5
v 0.73 -1.202 0
v 2.73 -1.202 0
v 0.73 -0.202 4.28571
v 1.01571 -0.202 5
v 0.73 -0.202 3.57143
v 0.73 -0.202 2.85714
v 1.01571 -0.202 -5.55112e-17
v 0.73 -0.202 0.714286
v 1.30143 -0.202 5
v 1.30143 -0.202 -5.55112e-17
v 1.58714 -0.202 5
v 1.87286 -0.202 5
v 1.87286 -0.202 -5.55112e-17
v 1.58714 -0.202 -5.55112e-17
v 2.15857 -0.202 5
v 2.44429 -0.202 5
v 2.44429 -0.202 -5.55112e-17
v 2.15857 -0.202 -5.55112e-17
v 2.73 -0.202 4.28571
v 2.73 -0.202 3.57143
v 2.73 -0.202 2.85714
v 2.73 -0.202 0.714286
v 0.73 -0.202 2.14286
v 0.73 -0.202 1.42857
v 1.05 -0.202 2.06551
v 1.50333 -0.202 2.47491
v 1.05 -0.202 1.65612
v 1.05 -0.202 1.24673
v 1.50333 -0.202 0.837332
v 1.95667 -0.202 0.837332
v 1.95667 -0.202 2.47491
v 2.73 -0.202 2.14286
v 2.41 -0.202 1.65612
v 2.41 -0.202 2.06551
v 2.73 -0.202 1.42857
v 2.41 -0.202 1.24673
# </points>

# <edges count="53">
l 1 10
l 12 1
l 1 4
l 10 11
l 2 10
l 13 2
l 2 14
l 15 13
l 16 15
l 17 3
l 3 18
l 14 19
l 20 17
l 19 21
l 21 22
l 23 24
l 22 25
l 25 26
l 27 28
l 26 4
l 4 29
l 29 30
l 30 31
l 32 5
l 5 27
l 33 16
l 34 33
l 6 35
l 36 6
l 35 37
l 18 34
l 38 7
l 37 38
l 24 20
l 39 40
l 7 39
l 41 36
l 8 41
l 31 42
l 43 44
l 42 45
l 44 8
l 46 43
l 28 23
l 9 46
l 40 9
l 45 32
l 11 3
l 3 2
l 11 12
l 4 2
l 4 5
l 5 12
# </edges>
