# Wavefront OBJ file written 2025-10-06T12:45:21
o walls_edgeMesh

# points : 48
# lines  : 56

# <points count="48">
v 0 3.184 2.69
v 4.183 3.184 2.69
v 0 -4.44089e-16 2.69
v 0 -4.44089e-16 0
v 0 3.184 0
v 4.183 3.184 0
v 4.183 -4.44089e-16 0
v 4.183 -4.44089e-16 2.69
v 1.05 8.88178e-16 2.47491
v 1.05 8.88178e-16 0.837332
v 2.41 8.88178e-16 2.47491
v 2.41 8.88178e-16 0.837332
v 0 -4.44089e-16 2.30571
v 0.597571 -4.44089e-16 2.69
v 0 -4.44089e-16 1.92143
v 0 -4.44089e-16 1.53714
v 0 -4.44089e-16 1.15286
v 0 -4.44089e-16 0.768571
v 0 -4.44089e-16 0.384286
v 0.597571 -4.44089e-16 0
v 1.19514 -4.44089e-16 0
v 1.79271 -4.44089e-16 0
v 2.39029 -4.44089e-16 0
v 2.98786 -4.44089e-16 0
v 2.98786 -4.44089e-16 2.69
v 3.58543 -4.44089e-16 2.69
v 3.58543 -4.44089e-16 0
v 4.183 -4.44089e-16 2.30571
v 4.183 -4.44089e-16 1.92143
v 4.183 -4.44089e-16 1.53714
v 4.183 -4.44089e-16 1.15286
v 4.183 -4.44089e-16 0.768571
v 4.183 -4.44089e-16 0.384286
v 1.05 8.88178e-16 2.06551
v 1.05 8.88178e-16 1.65612
v 1.19514 -4.44089e-16 2.69
v 1.79271 -4.44089e-16 2.69
v 1.73 8.88178e-16 2.47491
v 1.39 8.88178e-16 2.47491
v 1.05 8.88178e-16 1.24673
v 1.39 8.88178e-16 0.837332
v 1.73 8.88178e-16 0.837332
v 2.07 8.88178e-16 2.47491
v 2.39029 -4.44089e-16 2.69
v 2.41 8.88178e-16 2.06551
v 2.41 8.88178e-16 1.65612
v 2.41 8.88178e-16 1.24673
v 2.07 8.88178e-16 0.837332
# </points>

# <edges count="56">
l 5 6
l 6 7
l 4 5
l 1 3
l 5 1
l 1 2
l 2 8
l 2 6
l 3 4
l 7 4
l 8 3
l 7 8
l 13 3
l 3 14
l 15 13
l 16 15
l 17 16
l 18 17
l 19 18
l 20 4
l 4 19
l 21 20
l 22 21
l 23 22
l 24 23
l 25 26
l 27 24
l 26 8
l 8 28
l 28 29
l 29 30
l 30 31
l 31 32
l 32 33
l 7 27
l 33 7
l 9 34
l 34 35
l 36 37
l 38 39
l 39 9
l 14 36
l 40 10
l 10 41
l 35 40
l 41 42
l 43 38
l 11 43
l 37 44
l 45 11
l 44 25
l 46 45
l 47 46
l 48 12
l 42 48
l 12 47
# </edges>
