# Wavefront OBJ file written 2025-10-06T12:45:21
o window_edgeMesh

# points : 16
# lines  : 20

# <points count="16">
v 2.41 8.88178e-16 0.837332
v 2.41 -0.202 0.837332
v 1.05 -0.202 0.837332
v 1.05 8.88178e-16 0.837332
v 1.05 -0.202 2.47491
v 1.05 8.88178e-16 2.47491
v 2.41 -0.202 2.47491
v 2.41 8.88178e-16 2.47491
v 1.73 8.88178e-16 0.837332
v 1.73 -0.202 0.837332
v 1.05 -0.202 1.65612
v 1.05 8.88178e-16 1.65612
v 2.41 -0.202 1.65612
v 2.41 8.88178e-16 1.65612
v 1.73 8.88178e-16 2.47491
v 1.73 -0.202 2.47491
# </points>

# <edges count="20">
l 1 2
l 3 4
l 5 6
l 7 8
l 9 1
l 2 10
l 4 9
l 10 3
l 11 5
l 6 12
l 3 11
l 12 4
l 13 7
l 8 14
l 2 13
l 14 1
l 15 8
l 7 16
l 6 15
l 16 5
# </edges>
