solid OBJECT
  facet normal -1 -0 -0
    outer loop
      vertex 1.8940000534057617 -2.2025001049041748 5
      vertex 1.8940000534057617 -0.20250000059604645 5
      vertex 1.8940000534057617 -0.20250000059604645 1.4210854397564648e-16
    endloop
  endfacet
  facet normal -1 0 0
    outer loop
      vertex 1.8940000534057617 -2.2025001049041748 5
      vertex 1.8940000534057617 -0.20250000059604645 1.4210854397564648e-16
      vertex 1.8940000534057617 -2.2025001049041748 1.4210854397564648e-16
    endloop
  endfacet
  facet normal 0 1 0
    outer loop
      vertex 0.1940000057220459 -2.2025001049041748 5
      vertex 1.8940000534057617 -2.2025001049041748 5
      vertex 1.8940000534057617 -2.2025001049041748 1.4210854397564648e-16
    endloop
  endfacet
  facet normal -0 1 0
    outer loop
      vertex 0.1940000057220459 -2.2025001049041748 5
      vertex 1.8940000534057617 -2.2025001049041748 1.4210854397564648e-16
      vertex 0.1940000057220459 -2.2025001049041748 1.4210854397564648e-16
    endloop
  endfacet
  facet normal -1 -0 -0
    outer loop
      vertex 0.1940000057220459 -2.2025001049041748 5
      vertex 0.1940000057220459 -0.20250000059604645 5
      vertex 0.1940000057220459 -0.20250000059604645 1.4210854397564648e-16
    endloop
  endfacet
  facet normal -1 0 0
    outer loop
      vertex 0.1940000057220459 -2.2025001049041748 5
      vertex 0.1940000057220459 -0.20250000059604645 1.4210854397564648e-16
      vertex 0.1940000057220459 -2.2025001049041748 1.4210854397564648e-16
    endloop
  endfacet
  facet normal 0 -0 1
    outer loop
      vertex 0.1940000057220459 -2.2025001049041748 5
      vertex 1.8940000534057617 -2.2025001049041748 5
      vertex 1.8940000534057617 -0.20250000059604645 5
    endloop
  endfacet
  facet normal -0 0 1
    outer loop
      vertex 0.1940000057220459 -2.2025001049041748 5
      vertex 1.8940000534057617 -0.20250000059604645 5
      vertex 0.1940000057220459 -0.20250000059604645 5
    endloop
  endfacet
  facet normal 0 -1 0
    outer loop
      vertex 0.43685713410377502 -0.20250000059604645 4.2857141494750977
      vertex 0.43685713410377502 -0.20250000059604645 5
      vertex 0.1940000057220459 -0.20250000059604645 5
    endloop
  endfacet
  facet normal 0 -1 0
    outer loop
      vertex 0.43685713410377502 -0.20250000059604645 4.2857141494750977
      vertex 0.1940000057220459 -0.20250000059604645 5
      vertex 0.1940000057220459 -0.20250000059604645 4.2857141494750977
    endloop
  endfacet
  facet normal 0 -1 0
    outer loop
      vertex 0.43685713410377502 -0.20250000059604645 3.5714285373687744
      vertex 0.43685713410377502 -0.20250000059604645 4.2857141494750977
      vertex 0.1940000057220459 -0.20250000059604645 4.2857141494750977
    endloop
  endfacet
  facet normal 0 -1 0
    outer loop
      vertex 0.43685713410377502 -0.20250000059604645 3.5714285373687744
      vertex 0.1940000057220459 -0.20250000059604645 4.2857141494750977
      vertex 0.1940000057220459 -0.20250000059604645 3.5714285373687744
    endloop
  endfacet
  facet normal 0 -1 0
    outer loop
      vertex 0.43685713410377502 -0.20250000059604645 2.8571429252624512
      vertex 0.43685713410377502 -0.20250000059604645 3.5714285373687744
      vertex 0.1940000057220459 -0.20250000059604645 3.5714285373687744
    endloop
  endfacet
  facet normal 0 -1 0
    outer loop
      vertex 0.43685713410377502 -0.20250000059604645 2.8571429252624512
      vertex 0.1940000057220459 -0.20250000059604645 3.5714285373687744
      vertex 0.1940000057220459 -0.20250000059604645 2.8571429252624512
    endloop
  endfacet
  facet normal 0 -1 0
    outer loop
      vertex 0.67971426248550415 -0.20250000059604645 4.2857141494750977
      vertex 0.67971426248550415 -0.20250000059604645 5
      vertex 0.43685713410377502 -0.20250000059604645 5
    endloop
  endfacet
  facet normal 0 -1 0
    outer loop
      vertex 0.67971426248550415 -0.20250000059604645 4.2857141494750977
      vertex 0.43685713410377502 -0.20250000059604645 5
      vertex 0.43685713410377502 -0.20250000059604645 4.2857141494750977
    endloop
  endfacet
  facet normal 0 -1 0
    outer loop
      vertex 0.67971426248550415 -0.20250000059604645 3.5714285373687744
      vertex 0.67971426248550415 -0.20250000059604645 4.2857141494750977
      vertex 0.43685713410377502 -0.20250000059604645 4.2857141494750977
    endloop
  endfacet
  facet normal 0 -1 0
    outer loop
      vertex 0.67971426248550415 -0.20250000059604645 3.5714285373687744
      vertex 0.43685713410377502 -0.20250000059604645 4.2857141494750977
      vertex 0.43685713410377502 -0.20250000059604645 3.5714285373687744
    endloop
  endfacet
  facet normal 0 -1 0
    outer loop
      vertex 0.67971426248550415 -0.20250000059604645 2.8571429252624512
      vertex 0.67971426248550415 -0.20250000059604645 3.5714285373687744
      vertex 0.43685713410377502 -0.20250000059604645 3.5714285373687744
    endloop
  endfacet
  facet normal 0 -1 0
    outer loop
      vertex 0.67971426248550415 -0.20250000059604645 2.8571429252624512
      vertex 0.43685713410377502 -0.20250000059604645 3.5714285373687744
      vertex 0.43685713410377502 -0.20250000059604645 2.8571429252624512
    endloop
  endfacet
  facet normal 0 -1 0
    outer loop
      vertex 0.92257142066955566 -0.20250000059604645 4.2857141494750977
      vertex 0.92257142066955566 -0.20250000059604645 5
      vertex 0.67971426248550415 -0.20250000059604645 5
    endloop
  endfacet
  facet normal 0 -1 0
    outer loop
      vertex 0.92257142066955566 -0.20250000059604645 4.2857141494750977
      vertex 0.67971426248550415 -0.20250000059604645 5
      vertex 0.67971426248550415 -0.20250000059604645 4.2857141494750977
    endloop
  endfacet
  facet normal 0 -1 0
    outer loop
      vertex 0.92257142066955566 -0.20250000059604645 3.5714285373687744
      vertex 0.92257142066955566 -0.20250000059604645 4.2857141494750977
      vertex 0.67971426248550415 -0.20250000059604645 4.2857141494750977
    endloop
  endfacet
  facet normal 0 -1 0
    outer loop
      vertex 0.92257142066955566 -0.20250000059604645 3.5714285373687744
      vertex 0.67971426248550415 -0.20250000059604645 4.2857141494750977
      vertex 0.67971426248550415 -0.20250000059604645 3.5714285373687744
    endloop
  endfacet
  facet normal 0 -1 0
    outer loop
      vertex 0.92257142066955566 -0.20250000059604645 2.8571429252624512
      vertex 0.92257142066955566 -0.20250000059604645 3.5714285373687744
      vertex 0.67971426248550415 -0.20250000059604645 3.5714285373687744
    endloop
  endfacet
  facet normal 0 -1 0
    outer loop
      vertex 0.92257142066955566 -0.20250000059604645 2.8571429252624512
      vertex 0.67971426248550415 -0.20250000059604645 3.5714285373687744
      vertex 0.67971426248550415 -0.20250000059604645 2.8571429252624512
    endloop
  endfacet
  facet normal 0 -1 0
    outer loop
      vertex 1.1654285192489624 -0.20250000059604645 4.2857141494750977
      vertex 1.1654285192489624 -0.20250000059604645 5
      vertex 0.92257142066955566 -0.20250000059604645 5
    endloop
  endfacet
  facet normal 0 -1 0
    outer loop
      vertex 1.1654285192489624 -0.20250000059604645 4.2857141494750977
      vertex 0.92257142066955566 -0.20250000059604645 5
      vertex 0.92257142066955566 -0.20250000059604645 4.2857141494750977
    endloop
  endfacet
  facet normal 0 -1 0
    outer loop
      vertex 1.1654285192489624 -0.20250000059604645 3.5714285373687744
      vertex 1.1654285192489624 -0.20250000059604645 4.2857141494750977
      vertex 0.92257142066955566 -0.20250000059604645 4.2857141494750977
    endloop
  endfacet
  facet normal -0 -1 0
    outer loop
      vertex 1.1654285192489624 -0.20250000059604645 3.5714285373687744
      vertex 0.92257142066955566 -0.20250000059604645 4.2857141494750977
      vertex 0.92257142066955566 -0.20250000059604645 3.5714285373687744
    endloop
  endfacet
  facet normal 0 -1 0
    outer loop
      vertex 1.1654285192489624 -0.20250000059604645 2.8571429252624512
      vertex 1.1654285192489624 -0.20250000059604645 3.5714285373687744
      vertex 0.92257142066955566 -0.20250000059604645 3.5714285373687744
    endloop
  endfacet
  facet normal -0 -1 0
    outer loop
      vertex 1.1654285192489624 -0.20250000059604645 2.8571429252624512
      vertex 0.92257142066955566 -0.20250000059604645 3.5714285373687744
      vertex 0.92257142066955566 -0.20250000059604645 2.8571429252624512
    endloop
  endfacet
  facet normal 0 -1 0
    outer loop
      vertex 1.4082857370376587 -0.20250000059604645 4.2857141494750977
      vertex 1.4082857370376587 -0.20250000059604645 5
      vertex 1.1654285192489624 -0.20250000059604645 5
    endloop
  endfacet
  facet normal 0 -1 0
    outer loop
      vertex 1.4082857370376587 -0.20250000059604645 4.2857141494750977
      vertex 1.1654285192489624 -0.20250000059604645 5
      vertex 1.1654285192489624 -0.20250000059604645 4.2857141494750977
    endloop
  endfacet
  facet normal 0 -1 0
    outer loop
      vertex 1.4082857370376587 -0.20250000059604645 3.5714285373687744
      vertex 1.4082857370376587 -0.20250000059604645 4.2857141494750977
      vertex 1.1654285192489624 -0.20250000059604645 4.2857141494750977
    endloop
  endfacet
  facet normal 0 -1 0
    outer loop
      vertex 1.4082857370376587 -0.20250000059604645 3.5714285373687744
      vertex 1.1654285192489624 -0.20250000059604645 4.2857141494750977
      vertex 1.1654285192489624 -0.20250000059604645 3.5714285373687744
    endloop
  endfacet
  facet normal 0 -1 0
    outer loop
      vertex 1.4082857370376587 -0.20250000059604645 2.8571429252624512
      vertex 1.4082857370376587 -0.20250000059604645 3.5714285373687744
      vertex 1.1654285192489624 -0.20250000059604645 3.5714285373687744
    endloop
  endfacet
  facet normal 0 -1 0
    outer loop
      vertex 1.4082857370376587 -0.20250000059604645 2.8571429252624512
      vertex 1.1654285192489624 -0.20250000059604645 3.5714285373687744
      vertex 1.1654285192489624 -0.20250000059604645 2.8571429252624512
    endloop
  endfacet
  facet normal 0 -1 0
    outer loop
      vertex 1.6511428356170654 -0.20250000059604645 4.2857141494750977
      vertex 1.6511428356170654 -0.20250000059604645 5
      vertex 1.4082857370376587 -0.20250000059604645 5
    endloop
  endfacet
  facet normal 0 -1 0
    outer loop
      vertex 1.6511428356170654 -0.20250000059604645 4.2857141494750977
      vertex 1.4082857370376587 -0.20250000059604645 5
      vertex 1.4082857370376587 -0.20250000059604645 4.2857141494750977
    endloop
  endfacet
  facet normal 0 -1 0
    outer loop
      vertex 1.6511428356170654 -0.20250000059604645 3.5714285373687744
      vertex 1.6511428356170654 -0.20250000059604645 4.2857141494750977
      vertex 1.4082857370376587 -0.20250000059604645 4.2857141494750977
    endloop
  endfacet
  facet normal -0 -1 0
    outer loop
      vertex 1.6511428356170654 -0.20250000059604645 3.5714285373687744
      vertex 1.4082857370376587 -0.20250000059604645 4.2857141494750977
      vertex 1.4082857370376587 -0.20250000059604645 3.5714285373687744
    endloop
  endfacet
  facet normal 0 -1 0
    outer loop
      vertex 1.6511428356170654 -0.20250000059604645 2.8571429252624512
      vertex 1.6511428356170654 -0.20250000059604645 3.5714285373687744
      vertex 1.4082857370376587 -0.20250000059604645 3.5714285373687744
    endloop
  endfacet
  facet normal -0 -1 0
    outer loop
      vertex 1.6511428356170654 -0.20250000059604645 2.8571429252624512
      vertex 1.4082857370376587 -0.20250000059604645 3.5714285373687744
      vertex 1.4082857370376587 -0.20250000059604645 2.8571429252624512
    endloop
  endfacet
  facet normal 0 -1 0
    outer loop
      vertex 1.8940000534057617 -0.20250000059604645 4.2857141494750977
      vertex 1.8940000534057617 -0.20250000059604645 5
      vertex 1.6511428356170654 -0.20250000059604645 5
    endloop
  endfacet
  facet normal 0 -1 0
    outer loop
      vertex 1.8940000534057617 -0.20250000059604645 4.2857141494750977
      vertex 1.6511428356170654 -0.20250000059604645 5
      vertex 1.6511428356170654 -0.20250000059604645 4.2857141494750977
    endloop
  endfacet
  facet normal 0 -1 0
    outer loop
      vertex 1.8940000534057617 -0.20250000059604645 3.5714285373687744
      vertex 1.8940000534057617 -0.20250000059604645 4.2857141494750977
      vertex 1.6511428356170654 -0.20250000059604645 4.2857141494750977
    endloop
  endfacet
  facet normal 0 -1 0
    outer loop
      vertex 1.8940000534057617 -0.20250000059604645 3.5714285373687744
      vertex 1.6511428356170654 -0.20250000059604645 4.2857141494750977
      vertex 1.6511428356170654 -0.20250000059604645 3.5714285373687744
    endloop
  endfacet
  facet normal 0 -1 0
    outer loop
      vertex 1.8940000534057617 -0.20250000059604645 2.8571429252624512
      vertex 1.8940000534057617 -0.20250000059604645 3.5714285373687744
      vertex 1.6511428356170654 -0.20250000059604645 3.5714285373687744
    endloop
  endfacet
  facet normal 0 -1 0
    outer loop
      vertex 1.8940000534057617 -0.20250000059604645 2.8571429252624512
      vertex 1.6511428356170654 -0.20250000059604645 3.5714285373687744
      vertex 1.6511428356170654 -0.20250000059604645 2.8571429252624512
    endloop
  endfacet
  facet normal 0 -1 -0
    outer loop
      vertex 0.1940000057220459 -0.20250000059604645 2.1428570747375488
      vertex 0.40000000596046448 -0.20250000059604645 2.2885000705718994
      vertex 0.1940000057220459 -0.20250000059604645 2.8571429252624512
    endloop
  endfacet
  facet normal 0 -1 0
    outer loop
      vertex 0.43685713410377502 -0.20250000059604645 2.8571429252624512
      vertex 0.1940000057220459 -0.20250000059604645 2.8571429252624512
      vertex 0.40000000596046448 -0.20250000059604645 2.2885000705718994
    endloop
  endfacet
  facet normal 0 -1 -0
    outer loop
      vertex 0.1940000057220459 -0.20250000059604645 1.4285714626312256
      vertex 0.40000000596046448 -0.20250000059604645 1.7711666822433472
      vertex 0.40000000596046448 -0.20250000059604645 2.2885000705718994
    endloop
  endfacet
  facet normal 0 -1 0
    outer loop
      vertex 0.1940000057220459 -0.20250000059604645 1.4285714626312256
      vertex 0.40000000596046448 -0.20250000059604645 2.2885000705718994
      vertex 0.1940000057220459 -0.20250000059604645 2.1428570747375488
    endloop
  endfacet
  facet normal 0 -1 0
    outer loop
      vertex 0.83399999141693115 -0.20250000059604645 2.2885000705718994
      vertex 0.67971426248550415 -0.20250000059604645 2.8571429252624512
      vertex 0.43685713410377502 -0.20250000059604645 2.8571429252624512
    endloop
  endfacet
  facet normal 0 -1 0
    outer loop
      vertex 0.83399999141693115 -0.20250000059604645 2.2885000705718994
      vertex 0.43685713410377502 -0.20250000059604645 2.8571429252624512
      vertex 0.40000000596046448 -0.20250000059604645 2.2885000705718994
    endloop
  endfacet
  facet normal 0 -1 0
    outer loop
      vertex 0.92257142066955566 -0.20250000059604645 2.8571429252624512
      vertex 0.67971426248550415 -0.20250000059604645 2.8571429252624512
      vertex 0.83399999141693115 -0.20250000059604645 2.2885000705718994
    endloop
  endfacet
  facet normal -0 -1 -0
    outer loop
      vertex 1.1654285192489624 -0.20250000059604645 0.71428573131561279
      vertex 1.2680000066757202 -0.20250000059604645 0.73650002479553223
      vertex 0.83399999141693115 -0.20250000059604645 0.73650002479553223
    endloop
  endfacet
  facet normal 0 -1 0
    outer loop
      vertex 1.1654285192489624 -0.20250000059604645 0.71428573131561279
      vertex 0.83399999141693115 -0.20250000059604645 0.73650002479553223
      vertex 0.92257142066955566 -0.20250000059604645 0.71428573131561279
    endloop
  endfacet
  facet normal 0 -1 0
    outer loop
      vertex 0.40000000596046448 -0.20250000059604645 1.2538332939147949
      vertex 0.40000000596046448 -0.20250000059604645 1.7711666822433472
      vertex 0.1940000057220459 -0.20250000059604645 1.4285714626312256
    endloop
  endfacet
  facet normal 0 -1 -0
    outer loop
      vertex 0.40000000596046448 -0.20250000059604645 1.2538332939147949
      vertex 0.1940000057220459 -0.20250000059604645 1.4285714626312256
      vertex 0.1940000057220459 -0.20250000059604645 0.71428573131561279
    endloop
  endfacet
  facet normal -0 -1 0
    outer loop
      vertex 0.40000000596046448 -0.20250000059604645 1.2538332939147949
      vertex 0.1940000057220459 -0.20250000059604645 0.71428573131561279
      vertex 0.40000000596046448 -0.20250000059604645 0.73650002479553223
    endloop
  endfacet
  facet normal 0 -1 0
    outer loop
      vertex 0.67971426248550415 -0.20250000059604645 0.71428573131561279
      vertex 0.40000000596046448 -0.20250000059604645 0.73650002479553223
      vertex 0.43685713410377502 -0.20250000059604645 0
    endloop
  endfacet
  facet normal -0 -1 0
    outer loop
      vertex 0.1940000057220459 -0.20250000059604645 0.71428573131561279
      vertex 0.1940000057220459 -0.20250000059604645 0
      vertex 0.40000000596046448 -0.20250000059604645 0.73650002479553223
    endloop
  endfacet
  facet normal 0 -1 0
    outer loop
      vertex 0.43685713410377502 -0.20250000059604645 0
      vertex 0.40000000596046448 -0.20250000059604645 0.73650002479553223
      vertex 0.1940000057220459 -0.20250000059604645 0
    endloop
  endfacet
  facet normal 0 -1 0
    outer loop
      vertex 0.83399999141693115 -0.20250000059604645 0.73650002479553223
      vertex 0.67971426248550415 -0.20250000059604645 0.71428573131561279
      vertex 0.92257142066955566 -0.20250000059604645 0.71428573131561279
    endloop
  endfacet
  facet normal -0 -1 0
    outer loop
      vertex 0.67971426248550415 -0.20250000059604645 0
      vertex 0.92257142066955566 -0.20250000059604645 0
      vertex 0.92257142066955566 -0.20250000059604645 0.71428573131561279
    endloop
  endfacet
  facet normal -0 -1 0
    outer loop
      vertex 0.67971426248550415 -0.20250000059604645 0
      vertex 0.92257142066955566 -0.20250000059604645 0.71428573131561279
      vertex 0.67971426248550415 -0.20250000059604645 0.71428573131561279
    endloop
  endfacet
  facet normal -0 -1 0
    outer loop
      vertex 0.92257142066955566 -0.20250000059604645 0
      vertex 1.1654285192489624 -0.20250000059604645 0
      vertex 1.1654285192489624 -0.20250000059604645 0.71428573131561279
    endloop
  endfacet
  facet normal 0 -1 0
    outer loop
      vertex 0.92257142066955566 -0.20250000059604645 0
      vertex 1.1654285192489624 -0.20250000059604645 0.71428573131561279
      vertex 0.92257142066955566 -0.20250000059604645 0.71428573131561279
    endloop
  endfacet
  facet normal -0 -1 -0
    outer loop
      vertex 0.40000000596046448 -0.20250000059604645 0.73650002479553223
      vertex 0.67971426248550415 -0.20250000059604645 0.71428573131561279
      vertex 0.83399999141693115 -0.20250000059604645 0.73650002479553223
    endloop
  endfacet
  facet normal -0 -1 0
    outer loop
      vertex 0.43685713410377502 -0.20250000059604645 0
      vertex 0.67971426248550415 -0.20250000059604645 0
      vertex 0.67971426248550415 -0.20250000059604645 0.71428573131561279
    endloop
  endfacet
  facet normal -0 -1 0
    outer loop
      vertex 0.92257142066955566 -0.20250000059604645 2.8571429252624512
      vertex 0.83399999141693115 -0.20250000059604645 2.2885000705718994
      vertex 1.2680000066757202 -0.20250000059604645 2.2885000705718994
    endloop
  endfacet
  facet normal 0 -1 0
    outer loop
      vertex 0.92257142066955566 -0.20250000059604645 2.8571429252624512
      vertex 1.2680000066757202 -0.20250000059604645 2.2885000705718994
      vertex 1.1654285192489624 -0.20250000059604645 2.8571429252624512
    endloop
  endfacet
  facet normal 0 -1 0
    outer loop
      vertex 1.2680000066757202 -0.20250000059604645 2.2885000705718994
      vertex 1.4082857370376587 -0.20250000059604645 2.8571429252624512
      vertex 1.1654285192489624 -0.20250000059604645 2.8571429252624512
    endloop
  endfacet
  facet normal 0 -1 0
    outer loop
      vertex 1.7020000219345093 -0.20250000059604645 2.2885000705718994
      vertex 1.6511428356170654 -0.20250000059604645 2.8571429252624512
      vertex 1.4082857370376587 -0.20250000059604645 2.8571429252624512
    endloop
  endfacet
  facet normal 0 -1 0
    outer loop
      vertex 1.7020000219345093 -0.20250000059604645 2.2885000705718994
      vertex 1.4082857370376587 -0.20250000059604645 2.8571429252624512
      vertex 1.2680000066757202 -0.20250000059604645 2.2885000705718994
    endloop
  endfacet
  facet normal 0 -1 0
    outer loop
      vertex 1.8940000534057617 -0.20250000059604645 2.8571429252624512
      vertex 1.6511428356170654 -0.20250000059604645 2.8571429252624512
      vertex 1.7020000219345093 -0.20250000059604645 2.2885000705718994
    endloop
  endfacet
  facet normal -0 -1 -0
    outer loop
      vertex 1.7020000219345093 -0.20250000059604645 2.2885000705718994
      vertex 1.7020000219345093 -0.20250000059604645 1.7711666822433472
      vertex 1.8940000534057617 -0.20250000059604645 2.1428570747375488
    endloop
  endfacet
  facet normal 0 -1 -0
    outer loop
      vertex 1.7020000219345093 -0.20250000059604645 1.2538332939147949
      vertex 1.8940000534057617 -0.20250000059604645 1.4285714626312256
      vertex 1.7020000219345093 -0.20250000059604645 1.7711666822433472
    endloop
  endfacet
  facet normal -0 -1 0
    outer loop
      vertex 1.8940000534057617 -0.20250000059604645 2.1428570747375488
      vertex 1.7020000219345093 -0.20250000059604645 1.7711666822433472
      vertex 1.8940000534057617 -0.20250000059604645 1.4285714626312256
    endloop
  endfacet
  facet normal -0 -1 0
    outer loop
      vertex 1.8940000534057617 -0.20250000059604645 1.4285714626312256
      vertex 1.7020000219345093 -0.20250000059604645 1.2538332939147949
      vertex 1.7020000219345093 -0.20250000059604645 0.73650002479553223
    endloop
  endfacet
  facet normal -0 -1 0
    outer loop
      vertex 1.8940000534057617 -0.20250000059604645 1.4285714626312256
      vertex 1.7020000219345093 -0.20250000059604645 0.73650002479553223
      vertex 1.8940000534057617 -0.20250000059604645 0.71428573131561279
    endloop
  endfacet
  facet normal -0 -1 0
    outer loop
      vertex 1.8940000534057617 -0.20250000059604645 2.8571429252624512
      vertex 1.7020000219345093 -0.20250000059604645 2.2885000705718994
      vertex 1.8940000534057617 -0.20250000059604645 2.1428570747375488
    endloop
  endfacet
  facet normal 0 -1 0
    outer loop
      vertex 1.2680000066757202 -0.20250000059604645 0.73650002479553223
      vertex 1.1654285192489624 -0.20250000059604645 0.71428573131561279
      vertex 1.4082857370376587 -0.20250000059604645 0.71428573131561279
    endloop
  endfacet
  facet normal -0 -1 0
    outer loop
      vertex 1.1654285192489624 -0.20250000059604645 0
      vertex 1.4082857370376587 -0.20250000059604645 0
      vertex 1.4082857370376587 -0.20250000059604645 0.71428573131561279
    endloop
  endfacet
  facet normal 0 -1 0
    outer loop
      vertex 1.1654285192489624 -0.20250000059604645 0
      vertex 1.4082857370376587 -0.20250000059604645 0.71428573131561279
      vertex 1.1654285192489624 -0.20250000059604645 0.71428573131561279
    endloop
  endfacet
  facet normal -0 -1 0
    outer loop
      vertex 1.4082857370376587 -0.20250000059604645 0
      vertex 1.6511428356170654 -0.20250000059604645 0
      vertex 1.6511428356170654 -0.20250000059604645 0.71428573131561279
    endloop
  endfacet
  facet normal 0 -1 0
    outer loop
      vertex 1.4082857370376587 -0.20250000059604645 0
      vertex 1.6511428356170654 -0.20250000059604645 0.71428573131561279
      vertex 1.4082857370376587 -0.20250000059604645 0.71428573131561279
    endloop
  endfacet
  facet normal 0 -1 0
    outer loop
      vertex 1.6511428356170654 -0.20250000059604645 0
      vertex 1.7020000219345093 -0.20250000059604645 0.73650002479553223
      vertex 1.6511428356170654 -0.20250000059604645 0.71428573131561279
    endloop
  endfacet
  facet normal -0 -1 -0
    outer loop
      vertex 1.2680000066757202 -0.20250000059604645 0.73650002479553223
      vertex 1.4082857370376587 -0.20250000059604645 0.71428573131561279
      vertex 1.6511428356170654 -0.20250000059604645 0.71428573131561279
    endloop
  endfacet
  facet normal -0 -1 -0
    outer loop
      vertex 1.2680000066757202 -0.20250000059604645 0.73650002479553223
      vertex 1.6511428356170654 -0.20250000059604645 0.71428573131561279
      vertex 1.7020000219345093 -0.20250000059604645 0.73650002479553223
    endloop
  endfacet
  facet normal -0 -1 0
    outer loop
      vertex 1.6511428356170654 -0.20250000059604645 0
      vertex 1.8940000534057617 -0.20250000059604645 0
      vertex 1.7020000219345093 -0.20250000059604645 0.73650002479553223
    endloop
  endfacet
  facet normal 0 -1 0
    outer loop
      vertex 1.8940000534057617 -0.20250000059604645 0.71428573131561279
      vertex 1.7020000219345093 -0.20250000059604645 0.73650002479553223
      vertex 1.8940000534057617 -0.20250000059604645 0
    endloop
  endfacet
endsolid OBJECT
