solid OBJECT
  facet normal 0 -0 1
    outer loop
      vertex 0.1940000057220459 -2.2025001049041748 1.4210854397564648e-16
      vertex 1.8940000534057617 -2.2025001049041748 1.4210854397564648e-16
      vertex 1.8940000534057617 -0.20250000059604645 1.4210854397564648e-16
    endloop
  endfacet
  facet normal -0 0 1
    outer loop
      vertex 0.1940000057220459 -2.2025001049041748 1.4210854397564648e-16
      vertex 1.8940000534057617 -0.20250000059604645 1.4210854397564648e-16
      vertex 0.1940000057220459 -0.20250000059604645 1.4210854397564648e-16
    endloop
  endfacet
endsolid OBJECT
