solid OBJECT
  facet normal 1 0 -0
    outer loop
      vertex 0 3.2999999523162842 2.7000000476837158
      vertex 0 0 2.7000000476837158
      vertex 0 0 0
    endloop
  endfacet
  facet normal 1 0 -0
    outer loop
      vertex 0 3.2999999523162842 2.7000000476837158
      vertex 0 0 0
      vertex 0 3.2999999523162842 0
    endloop
  endfacet
  facet normal -0 0 1
    outer loop
      vertex 1.7250000238418579 3.2999999523162842 0
      vertex 0 3.2999999523162842 0
      vertex 0 0 0
    endloop
  endfacet
  facet normal 0 0 1
    outer loop
      vertex 1.7250000238418579 3.2999999523162842 0
      vertex 0 0 0
      vertex 1.7250000238418579 0 0
    endloop
  endfacet
  facet normal -0 0 1
    outer loop
      vertex 1.7250000238418579 3.2999999523162842 2.7000000476837158
      vertex 0 3.2999999523162842 2.7000000476837158
      vertex 0 0 2.7000000476837158
    endloop
  endfacet
  facet normal 0 0 1
    outer loop
      vertex 1.7250000238418579 3.2999999523162842 2.7000000476837158
      vertex 0 0 2.7000000476837158
      vertex 1.7250000238418579 0 2.7000000476837158
    endloop
  endfacet
  facet normal 1 0 -0
    outer loop
      vertex 1.7250000238418579 3.2999999523162842 2.7000000476837158
      vertex 1.7250000238418579 0 2.7000000476837158
      vertex 1.7250000238418579 0 0
    endloop
  endfacet
  facet normal 1 0 -0
    outer loop
      vertex 1.7250000238418579 3.2999999523162842 2.7000000476837158
      vertex 1.7250000238418579 0 0
      vertex 1.7250000238418579 3.2999999523162842 0
    endloop
  endfacet
  facet normal 0 -1 -0
    outer loop
      vertex 1.7250000238418579 3.2999999523162842 2.7000000476837158
      vertex 0 3.2999999523162842 2.7000000476837158
      vertex 0 3.2999999523162842 0
    endloop
  endfacet
  facet normal -0 -1 0
    outer loop
      vertex 1.7250000238418579 3.2999999523162842 2.7000000476837158
      vertex 0 3.2999999523162842 0
      vertex 1.7250000238418579 3.2999999523162842 0
    endloop
  endfacet
  facet normal -0 1 -0
    outer loop
      vertex 0.24642856419086456 0 2.3142857551574707
      vertex 0 0 2.3142857551574707
      vertex 0 0 2.7000000476837158
    endloop
  endfacet
  facet normal 0 1 0
    outer loop
      vertex 0.24642856419086456 0 2.3142857551574707
      vertex 0 0 2.7000000476837158
      vertex 0.24642856419086456 0 2.7000000476837158
    endloop
  endfacet
  facet normal -0 1 -0
    outer loop
      vertex 0.24642856419086456 0 1.9285714626312256
      vertex 0 0 1.9285714626312256
      vertex 0 0 2.3142857551574707
    endloop
  endfacet
  facet normal 0 1 0
    outer loop
      vertex 0.24642856419086456 0 1.9285714626312256
      vertex 0 0 2.3142857551574707
      vertex 0.24642856419086456 0 2.3142857551574707
    endloop
  endfacet
  facet normal -0 1 -0
    outer loop
      vertex 0.24642856419086456 0 1.5428571701049805
      vertex 0 0 1.5428571701049805
      vertex 0 0 1.9285714626312256
    endloop
  endfacet
  facet normal 0 1 0
    outer loop
      vertex 0.24642856419086456 0 1.5428571701049805
      vertex 0 0 1.9285714626312256
      vertex 0.24642856419086456 0 1.9285714626312256
    endloop
  endfacet
  facet normal -0 1 -0
    outer loop
      vertex 0.24642856419086456 0 1.1571428775787354
      vertex 0 0 1.1571428775787354
      vertex 0 0 1.5428571701049805
    endloop
  endfacet
  facet normal 0 1 0
    outer loop
      vertex 0.24642856419086456 0 1.1571428775787354
      vertex 0 0 1.5428571701049805
      vertex 0.24642856419086456 0 1.5428571701049805
    endloop
  endfacet
  facet normal -0 1 -0
    outer loop
      vertex 0.24642856419086456 0 0.77142858505249023
      vertex 0 0 0.77142858505249023
      vertex 0 0 1.1571428775787354
    endloop
  endfacet
  facet normal 0 1 0
    outer loop
      vertex 0.24642856419086456 0 0.77142858505249023
      vertex 0 0 1.1571428775787354
      vertex 0.24642856419086456 0 1.1571428775787354
    endloop
  endfacet
  facet normal -0 1 -0
    outer loop
      vertex 0.24642856419086456 0 0.38571429252624512
      vertex 0 0 0.38571429252624512
      vertex 0 0 0.77142858505249023
    endloop
  endfacet
  facet normal 0 1 0
    outer loop
      vertex 0.24642856419086456 0 0.38571429252624512
      vertex 0 0 0.77142858505249023
      vertex 0.24642856419086456 0 0.77142858505249023
    endloop
  endfacet
  facet normal -0 1 -0
    outer loop
      vertex 0.24642856419086456 0 0
      vertex 0 0 0
      vertex 0 0 0.38571429252624512
    endloop
  endfacet
  facet normal 0 1 0
    outer loop
      vertex 0.24642856419086456 0 0
      vertex 0 0 0.38571429252624512
      vertex 0.24642856419086456 0 0.38571429252624512
    endloop
  endfacet
  facet normal -0 1 -0
    outer loop
      vertex 0.49285712838172913 0 0
      vertex 0.24642856419086456 0 0
      vertex 0.24642856419086456 0 0.38571429252624512
    endloop
  endfacet
  facet normal 0 1 0
    outer loop
      vertex 0.49285712838172913 0 0
      vertex 0.24642856419086456 0 0.38571429252624512
      vertex 0.49285712838172913 0 0.38571429252624512
    endloop
  endfacet
  facet normal -0 1 -0
    outer loop
      vertex 0.73928570747375488 0 0
      vertex 0.49285712838172913 0 0
      vertex 0.49285712838172913 0 0.38571429252624512
    endloop
  endfacet
  facet normal 0 1 0
    outer loop
      vertex 0.73928570747375488 0 0
      vertex 0.49285712838172913 0 0.38571429252624512
      vertex 0.73928570747375488 0 0.38571429252624512
    endloop
  endfacet
  facet normal -0 1 -0
    outer loop
      vertex 0.98571425676345825 0 0
      vertex 0.73928570747375488 0 0
      vertex 0.73928570747375488 0 0.38571429252624512
    endloop
  endfacet
  facet normal 0 1 0
    outer loop
      vertex 0.98571425676345825 0 0
      vertex 0.73928570747375488 0 0.38571429252624512
      vertex 0.98571425676345825 0 0.38571429252624512
    endloop
  endfacet
  facet normal -0 1 -0
    outer loop
      vertex 1.2321428060531616 0 0
      vertex 0.98571425676345825 0 0
      vertex 0.98571425676345825 0 0.38571429252624512
    endloop
  endfacet
  facet normal 0 1 0
    outer loop
      vertex 1.2321428060531616 0 0
      vertex 0.98571425676345825 0 0.38571429252624512
      vertex 1.2321428060531616 0 0.38571429252624512
    endloop
  endfacet
  facet normal -0 1 -0
    outer loop
      vertex 1.4785714149475098 0 0
      vertex 1.2321428060531616 0 0
      vertex 1.2321428060531616 0 0.38571429252624512
    endloop
  endfacet
  facet normal 0 1 0
    outer loop
      vertex 1.4785714149475098 0 0
      vertex 1.2321428060531616 0 0.38571429252624512
      vertex 1.4785714149475098 0 0.38571429252624512
    endloop
  endfacet
  facet normal -0 1 -0
    outer loop
      vertex 1.7250000238418579 0 0
      vertex 1.4785714149475098 0 0
      vertex 1.4785714149475098 0 0.38571429252624512
    endloop
  endfacet
  facet normal 0 1 0
    outer loop
      vertex 1.7250000238418579 0 0
      vertex 1.4785714149475098 0 0.38571429252624512
      vertex 1.7250000238418579 0 0.38571429252624512
    endloop
  endfacet
  facet normal 0 1 -0
    outer loop
      vertex 0.24642856419086456 0 2.3142857551574707
      vertex 0.24642856419086456 0 2.7000000476837158
      vertex 0.49285712838172913 0 2.7000000476837158
    endloop
  endfacet
  facet normal -0 1 0
    outer loop
      vertex 0.73928570747375488 0 2.7000000476837158
      vertex 0.73928570747375488 0 2.3142857551574707
      vertex 0.49285712838172913 0 2.7000000476837158
    endloop
  endfacet
  facet normal 0 1 -0
    outer loop
      vertex 0.24642856419086456 0 1.9285714626312256
      vertex 0.24642856419086456 0 2.3142857551574707
      vertex 0.40000000596046448 0 2.2885000705718994
    endloop
  endfacet
  facet normal -0 1 0
    outer loop
      vertex 0.24642856419086456 0 1.9285714626312256
      vertex 0.40000000596046448 0 2.2885000705718994
      vertex 0.40000000596046448 0 2.0298333168029785
    endloop
  endfacet
  facet normal -0 1 0
    outer loop
      vertex 0.40000000596046448 0 2.0298333168029785
      vertex 0.40000000596046448 0 1.7711666822433472
      vertex 0.24642856419086456 0 1.9285714626312256
    endloop
  endfacet
  facet normal -0 1 -0
    outer loop
      vertex 0.24642856419086456 0 2.3142857551574707
      vertex 0.73928570747375488 0 2.3142857551574707
      vertex 0.66039997339248657 0 2.2885000705718994
    endloop
  endfacet
  facet normal -0 1 -0
    outer loop
      vertex 0.24642856419086456 0 2.3142857551574707
      vertex 0.66039997339248657 0 2.2885000705718994
      vertex 0.40000000596046448 0 2.2885000705718994
    endloop
  endfacet
  facet normal 0 1 -0
    outer loop
      vertex 0.73928570747375488 0 2.3142857551574707
      vertex 0.73928570747375488 0 2.7000000476837158
      vertex 0.98571425676345825 0 2.7000000476837158
    endloop
  endfacet
  facet normal -0 1 0
    outer loop
      vertex 0.73928570747375488 0 2.3142857551574707
      vertex 0.98571425676345825 0 2.7000000476837158
      vertex 0.98571425676345825 0 2.3142857551574707
    endloop
  endfacet
  facet normal 0 1 0
    outer loop
      vertex 0.92079997062683105 0 2.2885000705718994
      vertex 0.66039997339248657 0 2.2885000705718994
      vertex 0.73928570747375488 0 2.3142857551574707
    endloop
  endfacet
  facet normal -0 1 0
    outer loop
      vertex 0.92079997062683105 0 2.2885000705718994
      vertex 0.73928570747375488 0 2.3142857551574707
      vertex 0.98571425676345825 0 2.3142857551574707
    endloop
  endfacet
  facet normal 0 1 -0
    outer loop
      vertex 0.98571425676345825 0 2.3142857551574707
      vertex 0.98571425676345825 0 2.7000000476837158
      vertex 1.2321428060531616 0 2.7000000476837158
    endloop
  endfacet
  facet normal -0 1 0
    outer loop
      vertex 0.98571425676345825 0 2.3142857551574707
      vertex 1.2321428060531616 0 2.7000000476837158
      vertex 1.2321428060531616 0 2.3142857551574707
    endloop
  endfacet
  facet normal 0 1 -0
    outer loop
      vertex 0.24642856419086456 0 2.3142857551574707
      vertex 0.49285712838172913 0 2.7000000476837158
      vertex 0.73928570747375488 0 2.3142857551574707
    endloop
  endfacet
  facet normal 0 1 0
    outer loop
      vertex 0.40000000596046448 0 1.5125000476837158
      vertex 0.24642856419086456 0 1.5428571701049805
      vertex 0.40000000596046448 0 1.7711666822433472
    endloop
  endfacet
  facet normal -0 1 -0
    outer loop
      vertex 0.24642856419086456 0 1.9285714626312256
      vertex 0.40000000596046448 0 1.7711666822433472
      vertex 0.24642856419086456 0 1.5428571701049805
    endloop
  endfacet
  facet normal 0 1 -0
    outer loop
      vertex 0.24642856419086456 0 1.1571428775787354
      vertex 0.24642856419086456 0 1.5428571701049805
      vertex 0.40000000596046448 0 1.5125000476837158
    endloop
  endfacet
  facet normal -0 1 0
    outer loop
      vertex 0.24642856419086456 0 1.1571428775787354
      vertex 0.40000000596046448 0 1.5125000476837158
      vertex 0.40000000596046448 0 1.2538332939147949
    endloop
  endfacet
  facet normal 0 1 -0
    outer loop
      vertex 0.24642856419086456 0 0.77142858505249023
      vertex 0.24642856419086456 0 1.1571428775787354
      vertex 0.40000000596046448 0 0.99516665935516357
    endloop
  endfacet
  facet normal 0 1 0
    outer loop
      vertex 0.24642856419086456 0 0.77142858505249023
      vertex 0.40000000596046448 0 0.99516665935516357
      vertex 0.40000000596046448 0 0.73650002479553223
    endloop
  endfacet
  facet normal -0 1 -0
    outer loop
      vertex 0.24642856419086456 0 0.77142858505249023
      vertex 0.40000000596046448 0 0.73650002479553223
      vertex 0.24642856419086456 0 0.38571429252624512
    endloop
  endfacet
  facet normal 0 1 0
    outer loop
      vertex 0.24642856419086456 0 1.1571428775787354
      vertex 0.40000000596046448 0 1.2538332939147949
      vertex 0.40000000596046448 0 0.99516665935516357
    endloop
  endfacet
  facet normal -0 1 -0
    outer loop
      vertex 0.73928570747375488 0 0.38571429252624512
      vertex 0.49285712838172913 0 0.38571429252624512
      vertex 0.40000000596046448 0 0.73650002479553223
    endloop
  endfacet
  facet normal 0 1 0
    outer loop
      vertex 0.73928570747375488 0 0.38571429252624512
      vertex 0.40000000596046448 0 0.73650002479553223
      vertex 0.66039997339248657 0 0.73650002479553223
    endloop
  endfacet
  facet normal -0 1 -0
    outer loop
      vertex 0.98571425676345825 0 0.38571429252624512
      vertex 0.73928570747375488 0 0.38571429252624512
      vertex 0.66039997339248657 0 0.73650002479553223
    endloop
  endfacet
  facet normal 0 1 0
    outer loop
      vertex 0.98571425676345825 0 0.38571429252624512
      vertex 0.66039997339248657 0 0.73650002479553223
      vertex 0.92079997062683105 0 0.73650002479553223
    endloop
  endfacet
  facet normal 0 1 -0
    outer loop
      vertex 0.24642856419086456 0 0.38571429252624512
      vertex 0.40000000596046448 0 0.73650002479553223
      vertex 0.49285712838172913 0 0.38571429252624512
    endloop
  endfacet
  facet normal 0 1 0
    outer loop
      vertex 1.1812000274658203 0 2.2885000705718994
      vertex 0.92079997062683105 0 2.2885000705718994
      vertex 0.98571425676345825 0 2.3142857551574707
    endloop
  endfacet
  facet normal -0 1 0
    outer loop
      vertex 1.1812000274658203 0 2.2885000705718994
      vertex 0.98571425676345825 0 2.3142857551574707
      vertex 1.2321428060531616 0 2.3142857551574707
    endloop
  endfacet
  facet normal 0 1 -0
    outer loop
      vertex 1.2321428060531616 0 2.3142857551574707
      vertex 1.2321428060531616 0 2.7000000476837158
      vertex 1.4785714149475098 0 2.7000000476837158
    endloop
  endfacet
  facet normal 0 1 -0
    outer loop
      vertex 1.2321428060531616 0 2.3142857551574707
      vertex 1.4785714149475098 0 2.7000000476837158
      vertex 1.4785714149475098 0 2.3142857551574707
    endloop
  endfacet
  facet normal 0 1 0
    outer loop
      vertex 1.44159996509552 0 2.2885000705718994
      vertex 1.1812000274658203 0 2.2885000705718994
      vertex 1.2321428060531616 0 2.3142857551574707
    endloop
  endfacet
  facet normal -0 1 0
    outer loop
      vertex 1.44159996509552 0 2.2885000705718994
      vertex 1.2321428060531616 0 2.3142857551574707
      vertex 1.4785714149475098 0 2.3142857551574707
    endloop
  endfacet
  facet normal 0 1 -0
    outer loop
      vertex 1.44159996509552 0 2.2885000705718994
      vertex 1.4785714149475098 0 2.3142857551574707
      vertex 1.7020000219345093 0 2.2885000705718994
    endloop
  endfacet
  facet normal 0 1 0
    outer loop
      vertex 1.4785714149475098 0 2.3142857551574707
      vertex 1.4785714149475098 0 2.7000000476837158
      vertex 1.7020000219345093 0 2.2885000705718994
    endloop
  endfacet
  facet normal 0 1 -0
    outer loop
      vertex 1.7250000238418579 0 2.3142857551574707
      vertex 1.7020000219345093 0 2.2885000705718994
      vertex 1.7250000238418579 0 2.7000000476837158
    endloop
  endfacet
  facet normal 0 1 0
    outer loop
      vertex 1.4785714149475098 0 2.7000000476837158
      vertex 1.7250000238418579 0 2.7000000476837158
      vertex 1.7020000219345093 0 2.2885000705718994
    endloop
  endfacet
  facet normal 0 1 0
    outer loop
      vertex 1.7020000219345093 0 2.0298333168029785
      vertex 1.7020000219345093 0 2.2885000705718994
      vertex 1.7250000238418579 0 2.3142857551574707
    endloop
  endfacet
  facet normal 0 1 0
    outer loop
      vertex 1.7020000219345093 0 2.0298333168029785
      vertex 1.7250000238418579 0 2.3142857551574707
      vertex 1.7250000238418579 0 1.9285714626312256
    endloop
  endfacet
  facet normal 0 1 -0
    outer loop
      vertex 1.7020000219345093 0 1.7711666822433472
      vertex 1.7020000219345093 0 2.0298333168029785
      vertex 1.7250000238418579 0 1.9285714626312256
    endloop
  endfacet
  facet normal -0 1 0
    outer loop
      vertex 1.7250000238418579 0 1.9285714626312256
      vertex 1.7250000238418579 0 1.5428571701049805
      vertex 1.7020000219345093 0 1.5125000476837158
    endloop
  endfacet
  facet normal -0 1 0
    outer loop
      vertex 1.7250000238418579 0 1.9285714626312256
      vertex 1.7020000219345093 0 1.5125000476837158
      vertex 1.7020000219345093 0 1.7711666822433472
    endloop
  endfacet
  facet normal 0 1 0
    outer loop
      vertex 1.44159996509552 0 0.73650002479553223
      vertex 1.7020000219345093 0 0.73650002479553223
      vertex 1.7250000238418579 0 0.38571429252624512
    endloop
  endfacet
  facet normal -0 1 0
    outer loop
      vertex 1.44159996509552 0 0.73650002479553223
      vertex 1.7250000238418579 0 0.38571429252624512
      vertex 1.4785714149475098 0 0.38571429252624512
    endloop
  endfacet
  facet normal 0 1 0
    outer loop
      vertex 1.1812000274658203 0 0.73650002479553223
      vertex 1.44159996509552 0 0.73650002479553223
      vertex 1.4785714149475098 0 0.38571429252624512
    endloop
  endfacet
  facet normal -0 1 0
    outer loop
      vertex 1.1812000274658203 0 0.73650002479553223
      vertex 1.4785714149475098 0 0.38571429252624512
      vertex 1.2321428060531616 0 0.38571429252624512
    endloop
  endfacet
  facet normal -0 1 -0
    outer loop
      vertex 1.2321428060531616 0 0.38571429252624512
      vertex 0.98571425676345825 0 0.38571429252624512
      vertex 0.92079997062683105 0 0.73650002479553223
    endloop
  endfacet
  facet normal 0 1 0
    outer loop
      vertex 1.2321428060531616 0 0.38571429252624512
      vertex 0.92079997062683105 0 0.73650002479553223
      vertex 1.1812000274658203 0 0.73650002479553223
    endloop
  endfacet
  facet normal -0 1 0
    outer loop
      vertex 1.7250000238418579 0 1.5428571701049805
      vertex 1.7250000238418579 0 1.1571428775787354
      vertex 1.7020000219345093 0 1.2538332939147949
    endloop
  endfacet
  facet normal -0 1 0
    outer loop
      vertex 1.7250000238418579 0 1.5428571701049805
      vertex 1.7020000219345093 0 1.2538332939147949
      vertex 1.7020000219345093 0 1.5125000476837158
    endloop
  endfacet
  facet normal 0 1 -0
    outer loop
      vertex 1.7020000219345093 0 0.99516665935516357
      vertex 1.7020000219345093 0 1.2538332939147949
      vertex 1.7250000238418579 0 1.1571428775787354
    endloop
  endfacet
  facet normal -0 1 -0
    outer loop
      vertex 1.7250000238418579 0 0.77142858505249023
      vertex 1.7020000219345093 0 0.73650002479553223
      vertex 1.7020000219345093 0 0.99516665935516357
    endloop
  endfacet
  facet normal 0 1 0
    outer loop
      vertex 1.7020000219345093 0 0.73650002479553223
      vertex 1.7250000238418579 0 0.77142858505249023
      vertex 1.7250000238418579 0 0.38571429252624512
    endloop
  endfacet
  facet normal 0 1 0
    outer loop
      vertex 1.7250000238418579 0 0.77142858505249023
      vertex 1.7020000219345093 0 0.99516665935516357
      vertex 1.7250000238418579 0 1.1571428775787354
    endloop
  endfacet
endsolid OBJECT
