solid OBJECT
  facet normal 0 -1 -0
    outer loop
      vertex 1 -0.05000000074505806 1
      vertex 0 -0.05000000074505806 1
      vertex 0 -0.05000000074505806 0
    endloop
  endfacet
  facet normal -0 -1 0
    outer loop
      vertex 1 -0.05000000074505806 1
      vertex 0 -0.05000000074505806 0
      vertex 1 -0.05000000074505806 0
    endloop
  endfacet
  facet normal 0 -1 -0
    outer loop
      vertex 1 -0.15000000596046448 1
      vertex 0 -0.15000000596046448 1
      vertex 0 -0.15000000596046448 0
    endloop
  endfacet
  facet normal -0 -1 0
    outer loop
      vertex 1 -0.15000000596046448 1
      vertex 0 -0.15000000596046448 0
      vertex 1 -0.15000000596046448 0
    endloop
  endfacet
endsolid OBJECT
