solid OBJECT
  facet normal 1 -0 0
    outer loop
      vertex 3 1 2.690000057220459
      vertex 3 -4.4408920985006262e-16 2.690000057220459
      vertex 3 -4.4408920985006262e-16 0
    endloop
  endfacet
  facet normal 1 0 0
    outer loop
      vertex 3 1 2.690000057220459
      vertex 3 -4.4408920985006262e-16 0
      vertex 3 1 0
    endloop
  endfacet
  facet normal 0 1 0
    outer loop
      vertex 0.4285714328289032 -4.4408920985006262e-16 2.3057143688201904
      vertex 0 -4.4408920985006262e-16 2.3057143688201904
      vertex 0 -4.4408920985006262e-16 2.690000057220459
    endloop
  endfacet
  facet normal 0 1 0
    outer loop
      vertex 0.4285714328289032 -4.4408920985006262e-16 2.3057143688201904
      vertex 0 -4.4408920985006262e-16 2.690000057220459
      vertex 0.4285714328289032 -4.4408920985006262e-16 2.690000057220459
    endloop
  endfacet
  facet normal 0 1 0
    outer loop
      vertex 0.4285714328289032 -4.4408920985006262e-16 1.9214285612106323
      vertex 0 -4.4408920985006262e-16 1.9214285612106323
      vertex 0 -4.4408920985006262e-16 2.3057143688201904
    endloop
  endfacet
  facet normal 0 1 0
    outer loop
      vertex 0.4285714328289032 -4.4408920985006262e-16 1.9214285612106323
      vertex 0 -4.4408920985006262e-16 2.3057143688201904
      vertex 0.4285714328289032 -4.4408920985006262e-16 2.3057143688201904
    endloop
  endfacet
  facet normal 0 1 0
    outer loop
      vertex 0.4285714328289032 -4.4408920985006262e-16 1.5371428728103638
      vertex 0 -4.4408920985006262e-16 1.5371428728103638
      vertex 0 -4.4408920985006262e-16 1.9214285612106323
    endloop
  endfacet
  facet normal 0 1 0
    outer loop
      vertex 0.4285714328289032 -4.4408920985006262e-16 1.5371428728103638
      vertex 0 -4.4408920985006262e-16 1.9214285612106323
      vertex 0.4285714328289032 -4.4408920985006262e-16 1.9214285612106323
    endloop
  endfacet
  facet normal 0 1 0
    outer loop
      vertex 0.4285714328289032 -4.4408920985006262e-16 1.1528571844100952
      vertex 0 -4.4408920985006262e-16 1.1528571844100952
      vertex 0 -4.4408920985006262e-16 1.5371428728103638
    endloop
  endfacet
  facet normal 0 1 0
    outer loop
      vertex 0.4285714328289032 -4.4408920985006262e-16 1.1528571844100952
      vertex 0 -4.4408920985006262e-16 1.5371428728103638
      vertex 0.4285714328289032 -4.4408920985006262e-16 1.5371428728103638
    endloop
  endfacet
  facet normal 0 1 0
    outer loop
      vertex 0.4285714328289032 -4.4408920985006262e-16 0.76857143640518188
      vertex 0 -4.4408920985006262e-16 0.76857143640518188
      vertex 0 -4.4408920985006262e-16 1.1528571844100952
    endloop
  endfacet
  facet normal 0 1 0
    outer loop
      vertex 0.4285714328289032 -4.4408920985006262e-16 0.76857143640518188
      vertex 0 -4.4408920985006262e-16 1.1528571844100952
      vertex 0.4285714328289032 -4.4408920985006262e-16 1.1528571844100952
    endloop
  endfacet
  facet normal 0 1 0
    outer loop
      vertex 0.4285714328289032 -4.4408920985006262e-16 0.38428571820259094
      vertex 0 -4.4408920985006262e-16 0.38428571820259094
      vertex 0 -4.4408920985006262e-16 0.76857143640518188
    endloop
  endfacet
  facet normal 0 1 0
    outer loop
      vertex 0.4285714328289032 -4.4408920985006262e-16 0.38428571820259094
      vertex 0 -4.4408920985006262e-16 0.76857143640518188
      vertex 0.4285714328289032 -4.4408920985006262e-16 0.76857143640518188
    endloop
  endfacet
  facet normal 0 1 0
    outer loop
      vertex 0.4285714328289032 -4.4408920985006262e-16 0
      vertex 0 -4.4408920985006262e-16 0
      vertex 0 -4.4408920985006262e-16 0.38428571820259094
    endloop
  endfacet
  facet normal 0 1 0
    outer loop
      vertex 0.4285714328289032 -4.4408920985006262e-16 0
      vertex 0 -4.4408920985006262e-16 0.38428571820259094
      vertex 0.4285714328289032 -4.4408920985006262e-16 0.38428571820259094
    endloop
  endfacet
  facet normal 0 1 0
    outer loop
      vertex 0.8571428656578064 -4.4408920985006262e-16 2.3057143688201904
      vertex 0.4285714328289032 -4.4408920985006262e-16 2.3057143688201904
      vertex 0.4285714328289032 -4.4408920985006262e-16 2.690000057220459
    endloop
  endfacet
  facet normal 0 1 0
    outer loop
      vertex 0.8571428656578064 -4.4408920985006262e-16 2.3057143688201904
      vertex 0.4285714328289032 -4.4408920985006262e-16 2.690000057220459
      vertex 0.8571428656578064 -4.4408920985006262e-16 2.690000057220459
    endloop
  endfacet
  facet normal 0 1 0
    outer loop
      vertex 0.8571428656578064 -4.4408920985006262e-16 1.9214285612106323
      vertex 0.4285714328289032 -4.4408920985006262e-16 1.9214285612106323
      vertex 0.4285714328289032 -4.4408920985006262e-16 2.3057143688201904
    endloop
  endfacet
  facet normal 0 1 0
    outer loop
      vertex 0.8571428656578064 -4.4408920985006262e-16 1.9214285612106323
      vertex 0.4285714328289032 -4.4408920985006262e-16 2.3057143688201904
      vertex 0.8571428656578064 -4.4408920985006262e-16 2.3057143688201904
    endloop
  endfacet
  facet normal 0 1 0
    outer loop
      vertex 0.8571428656578064 -4.4408920985006262e-16 1.5371428728103638
      vertex 0.4285714328289032 -4.4408920985006262e-16 1.5371428728103638
      vertex 0.4285714328289032 -4.4408920985006262e-16 1.9214285612106323
    endloop
  endfacet
  facet normal 0 1 0
    outer loop
      vertex 0.8571428656578064 -4.4408920985006262e-16 1.5371428728103638
      vertex 0.4285714328289032 -4.4408920985006262e-16 1.9214285612106323
      vertex 0.8571428656578064 -4.4408920985006262e-16 1.9214285612106323
    endloop
  endfacet
  facet normal 0 1 0
    outer loop
      vertex 0.8571428656578064 -4.4408920985006262e-16 1.1528571844100952
      vertex 0.4285714328289032 -4.4408920985006262e-16 1.1528571844100952
      vertex 0.4285714328289032 -4.4408920985006262e-16 1.5371428728103638
    endloop
  endfacet
  facet normal 0 1 0
    outer loop
      vertex 0.8571428656578064 -4.4408920985006262e-16 1.1528571844100952
      vertex 0.4285714328289032 -4.4408920985006262e-16 1.5371428728103638
      vertex 0.8571428656578064 -4.4408920985006262e-16 1.5371428728103638
    endloop
  endfacet
  facet normal 0 1 0
    outer loop
      vertex 0.8571428656578064 -4.4408920985006262e-16 0.76857143640518188
      vertex 0.4285714328289032 -4.4408920985006262e-16 0.76857143640518188
      vertex 0.4285714328289032 -4.4408920985006262e-16 1.1528571844100952
    endloop
  endfacet
  facet normal 0 1 0
    outer loop
      vertex 0.8571428656578064 -4.4408920985006262e-16 0.76857143640518188
      vertex 0.4285714328289032 -4.4408920985006262e-16 1.1528571844100952
      vertex 0.8571428656578064 -4.4408920985006262e-16 1.1528571844100952
    endloop
  endfacet
  facet normal 0 1 0
    outer loop
      vertex 0.8571428656578064 -4.4408920985006262e-16 0.38428571820259094
      vertex 0.4285714328289032 -4.4408920985006262e-16 0.38428571820259094
      vertex 0.4285714328289032 -4.4408920985006262e-16 0.76857143640518188
    endloop
  endfacet
  facet normal 0 1 0
    outer loop
      vertex 0.8571428656578064 -4.4408920985006262e-16 0.38428571820259094
      vertex 0.4285714328289032 -4.4408920985006262e-16 0.76857143640518188
      vertex 0.8571428656578064 -4.4408920985006262e-16 0.76857143640518188
    endloop
  endfacet
  facet normal 0 1 0
    outer loop
      vertex 0.8571428656578064 -4.4408920985006262e-16 0
      vertex 0.4285714328289032 -4.4408920985006262e-16 0
      vertex 0.4285714328289032 -4.4408920985006262e-16 0.38428571820259094
    endloop
  endfacet
  facet normal 0 1 0
    outer loop
      vertex 0.8571428656578064 -4.4408920985006262e-16 0
      vertex 0.4285714328289032 -4.4408920985006262e-16 0.38428571820259094
      vertex 0.8571428656578064 -4.4408920985006262e-16 0.38428571820259094
    endloop
  endfacet
  facet normal 0 1 0
    outer loop
      vertex 3 -4.4408920985006262e-16 2.3057143688201904
      vertex 2.5714285373687744 -4.4408920985006262e-16 2.3057143688201904
      vertex 2.5714285373687744 -4.4408920985006262e-16 2.690000057220459
    endloop
  endfacet
  facet normal 0 1 0
    outer loop
      vertex 3 -4.4408920985006262e-16 2.3057143688201904
      vertex 2.5714285373687744 -4.4408920985006262e-16 2.690000057220459
      vertex 3 -4.4408920985006262e-16 2.690000057220459
    endloop
  endfacet
  facet normal 0 1 0
    outer loop
      vertex 3 -4.4408920985006262e-16 1.9214285612106323
      vertex 2.5714285373687744 -4.4408920985006262e-16 1.9214285612106323
      vertex 2.5714285373687744 -4.4408920985006262e-16 2.3057143688201904
    endloop
  endfacet
  facet normal 0 1 0
    outer loop
      vertex 3 -4.4408920985006262e-16 1.9214285612106323
      vertex 2.5714285373687744 -4.4408920985006262e-16 2.3057143688201904
      vertex 3 -4.4408920985006262e-16 2.3057143688201904
    endloop
  endfacet
  facet normal 0 1 0
    outer loop
      vertex 3 -4.4408920985006262e-16 1.5371428728103638
      vertex 2.5714285373687744 -4.4408920985006262e-16 1.5371428728103638
      vertex 2.5714285373687744 -4.4408920985006262e-16 1.9214285612106323
    endloop
  endfacet
  facet normal 0 1 0
    outer loop
      vertex 3 -4.4408920985006262e-16 1.5371428728103638
      vertex 2.5714285373687744 -4.4408920985006262e-16 1.9214285612106323
      vertex 3 -4.4408920985006262e-16 1.9214285612106323
    endloop
  endfacet
  facet normal 0 1 0
    outer loop
      vertex 3 -4.4408920985006262e-16 1.1528571844100952
      vertex 2.5714285373687744 -4.4408920985006262e-16 1.1528571844100952
      vertex 2.5714285373687744 -4.4408920985006262e-16 1.5371428728103638
    endloop
  endfacet
  facet normal 0 1 0
    outer loop
      vertex 3 -4.4408920985006262e-16 1.1528571844100952
      vertex 2.5714285373687744 -4.4408920985006262e-16 1.5371428728103638
      vertex 3 -4.4408920985006262e-16 1.5371428728103638
    endloop
  endfacet
  facet normal 0 1 0
    outer loop
      vertex 3 -4.4408920985006262e-16 0.76857143640518188
      vertex 2.5714285373687744 -4.4408920985006262e-16 0.76857143640518188
      vertex 2.5714285373687744 -4.4408920985006262e-16 1.1528571844100952
    endloop
  endfacet
  facet normal 0 1 0
    outer loop
      vertex 3 -4.4408920985006262e-16 0.76857143640518188
      vertex 2.5714285373687744 -4.4408920985006262e-16 1.1528571844100952
      vertex 3 -4.4408920985006262e-16 1.1528571844100952
    endloop
  endfacet
  facet normal 0 1 0
    outer loop
      vertex 3 -4.4408920985006262e-16 0.38428571820259094
      vertex 2.5714285373687744 -4.4408920985006262e-16 0.38428571820259094
      vertex 2.5714285373687744 -4.4408920985006262e-16 0.76857143640518188
    endloop
  endfacet
  facet normal 0 1 0
    outer loop
      vertex 3 -4.4408920985006262e-16 0.38428571820259094
      vertex 2.5714285373687744 -4.4408920985006262e-16 0.76857143640518188
      vertex 3 -4.4408920985006262e-16 0.76857143640518188
    endloop
  endfacet
  facet normal 0 1 0
    outer loop
      vertex 3 -4.4408920985006262e-16 0
      vertex 2.5714285373687744 -4.4408920985006262e-16 0
      vertex 2.5714285373687744 -4.4408920985006262e-16 0.38428571820259094
    endloop
  endfacet
  facet normal 0 1 0
    outer loop
      vertex 3 -4.4408920985006262e-16 0
      vertex 2.5714285373687744 -4.4408920985006262e-16 0.38428571820259094
      vertex 3 -4.4408920985006262e-16 0.38428571820259094
    endloop
  endfacet
  facet normal -6.9080563884564046e-15 1 -0
    outer loop
      vertex 0.8571428656578064 -4.4408920985006262e-16 2.3057143688201904
      vertex 1.0499999523162842 8.8817841970012523e-16 2.1851344108581543
      vertex 0.8571428656578064 -4.4408920985006262e-16 1.9214285612106323
    endloop
  endfacet
  facet normal -6.9080563884564046e-15 1 0
    outer loop
      vertex 1.0499999523162842 8.8817841970012523e-16 2.1851344108581543
      vertex 1.0499999523162842 8.8817841970012523e-16 1.8953620195388794
      vertex 0.8571428656578064 -4.4408920985006262e-16 1.9214285612106323
    endloop
  endfacet
  facet normal -6.9080563884564046e-15 1 -0
    outer loop
      vertex 0.8571428656578064 -4.4408920985006262e-16 1.5371428728103638
      vertex 0.8571428656578064 -4.4408920985006262e-16 1.9214285612106323
      vertex 1.0499999523162842 8.8817841970012523e-16 1.8953620195388794
    endloop
  endfacet
  facet normal -6.9080563884564046e-15 1 0
    outer loop
      vertex 0.8571428656578064 -4.4408920985006262e-16 1.5371428728103638
      vertex 1.0499999523162842 8.8817841970012523e-16 1.8953620195388794
      vertex 1.0499999523162842 8.8817841970012523e-16 1.6055896282196045
    endloop
  endfacet
  facet normal -6.9080563884564046e-15 1 0
    outer loop
      vertex 1.0499999523162842 8.8817841970012523e-16 1.3158172369003296
      vertex 0.8571428656578064 -4.4408920985006262e-16 1.5371428728103638
      vertex 1.0499999523162842 8.8817841970012523e-16 1.6055896282196045
    endloop
  endfacet
  facet normal -6.9080563884564046e-15 1 -0
    outer loop
      vertex 1.0499999523162842 8.8817841970012523e-16 2.4749069213867188
      vertex 0.8571428656578064 -4.4408920985006262e-16 2.3057143688201904
      vertex 0.8571428656578064 -4.4408920985006262e-16 2.690000057220459
    endloop
  endfacet
  facet normal 0 1 6.1939104861997364e-15
    outer loop
      vertex 1.2857142686843872 -4.4408920985006262e-16 2.690000057220459
      vertex 1.3220000267028809 8.8817841970012523e-16 2.4749069213867188
      vertex 1.0499999523162842 8.8817841970012523e-16 2.4749069213867188
    endloop
  endfacet
  facet normal -0 1 6.1939104861997364e-15
    outer loop
      vertex 0.8571428656578064 -4.4408920985006262e-16 2.690000057220459
      vertex 1.2857142686843872 -4.4408920985006262e-16 2.690000057220459
      vertex 1.0499999523162842 8.8817841970012523e-16 2.4749069213867188
    endloop
  endfacet
  facet normal -0 1 6.1939104861997364e-15
    outer loop
      vertex 1.2857142686843872 -4.4408920985006262e-16 2.690000057220459
      vertex 1.7142857313156128 -4.4408920985006262e-16 2.690000057220459
      vertex 1.593999981880188 8.8817841970012523e-16 2.4749069213867188
    endloop
  endfacet
  facet normal 0 1 6.1939104861997364e-15
    outer loop
      vertex 1.2857142686843872 -4.4408920985006262e-16 2.690000057220459
      vertex 1.593999981880188 8.8817841970012523e-16 2.4749069213867188
      vertex 1.3220000267028809 8.8817841970012523e-16 2.4749069213867188
    endloop
  endfacet
  facet normal -6.9080563884564046e-15 1 0
    outer loop
      vertex 0.8571428656578064 -4.4408920985006262e-16 2.3057143688201904
      vertex 1.0499999523162842 8.8817841970012523e-16 2.4749069213867188
      vertex 1.0499999523162842 8.8817841970012523e-16 2.1851344108581543
    endloop
  endfacet
  facet normal -6.9080563884564046e-15 1 0
    outer loop
      vertex 1.0499999523162842 8.8817841970012523e-16 0.73627239465713501
      vertex 0.8571428656578064 -4.4408920985006262e-16 0.76857143640518188
      vertex 1.0499999523162842 8.8817841970012523e-16 1.0260448455810547
    endloop
  endfacet
  facet normal -6.9080563884564046e-15 1 -0
    outer loop
      vertex 0.8571428656578064 -4.4408920985006262e-16 1.1528571844100952
      vertex 1.0499999523162842 8.8817841970012523e-16 1.0260448455810547
      vertex 0.8571428656578064 -4.4408920985006262e-16 0.76857143640518188
    endloop
  endfacet
  facet normal -6.9080563884564046e-15 1 0
    outer loop
      vertex 1.0499999523162842 8.8817841970012523e-16 0.73627239465713501
      vertex 1.0499999523162842 8.8817841970012523e-16 0.44650000333786011
      vertex 0.8571428656578064 -4.4408920985006262e-16 0.38428571820259094
    endloop
  endfacet
  facet normal -6.9080563884564046e-15 1 -0
    outer loop
      vertex 1.0499999523162842 8.8817841970012523e-16 0.73627239465713501
      vertex 0.8571428656578064 -4.4408920985006262e-16 0.38428571820259094
      vertex 0.8571428656578064 -4.4408920985006262e-16 0.76857143640518188
    endloop
  endfacet
  facet normal 0 1 -2.1414175645569345e-14
    outer loop
      vertex 1.0499999523162842 8.8817841970012523e-16 0.44650000333786011
      vertex 1.3220000267028809 8.8817841970012523e-16 0.44650000333786011
      vertex 0.8571428656578064 -4.4408920985006262e-16 0.38428571820259094
    endloop
  endfacet
  facet normal 0 1 0
    outer loop
      vertex 0.8571428656578064 -4.4408920985006262e-16 0
      vertex 0.8571428656578064 -4.4408920985006262e-16 0.38428571820259094
      vertex 1.2857142686843872 -4.4408920985006262e-16 0
    endloop
  endfacet
  facet normal 0 1 -2.1414175645569345e-14
    outer loop
      vertex 1.7142857313156128 -4.4408920985006262e-16 0.38428571820259094
      vertex 1.3220000267028809 8.8817841970012523e-16 0.44650000333786011
      vertex 1.593999981880188 8.8817841970012523e-16 0.44650000333786011
    endloop
  endfacet
  facet normal -6.9080563884564046e-15 1 0
    outer loop
      vertex 0.8571428656578064 -4.4408920985006262e-16 1.1528571844100952
      vertex 1.0499999523162842 8.8817841970012523e-16 1.3158172369003296
      vertex 1.0499999523162842 8.8817841970012523e-16 1.0260448455810547
    endloop
  endfacet
  facet normal -0 1 0
    outer loop
      vertex 1.2857142686843872 -4.4408920985006262e-16 0
      vertex 0.8571428656578064 -4.4408920985006262e-16 0.38428571820259094
      vertex 1.7142857313156128 -4.4408920985006262e-16 0.38428571820259094
    endloop
  endfacet
  facet normal 0 1 -2.1414175645569345e-14
    outer loop
      vertex 1.3220000267028809 8.8817841970012523e-16 0.44650000333786011
      vertex 1.7142857313156128 -4.4408920985006262e-16 0.38428571820259094
      vertex 0.8571428656578064 -4.4408920985006262e-16 0.38428571820259094
    endloop
  endfacet
  facet normal -0 1 -2.1414175645569345e-14
    outer loop
      vertex 1.593999981880188 8.8817841970012523e-16 0.44650000333786011
      vertex 1.8660000562667847 8.8817841970012523e-16 0.44650000333786011
      vertex 1.7142857313156128 -4.4408920985006262e-16 0.38428571820259094
    endloop
  endfacet
  facet normal 0 1 -0
    outer loop
      vertex 1.2857142686843872 -4.4408920985006262e-16 0
      vertex 1.7142857313156128 -4.4408920985006262e-16 0.38428571820259094
      vertex 1.7142857313156128 -4.4408920985006262e-16 0
    endloop
  endfacet
  facet normal -6.9080563884564046e-15 1 -0
    outer loop
      vertex 1.0499999523162842 8.8817841970012523e-16 1.3158172369003296
      vertex 0.8571428656578064 -4.4408920985006262e-16 1.1528571844100952
      vertex 0.8571428656578064 -4.4408920985006262e-16 1.5371428728103638
    endloop
  endfacet
  facet normal 0 1 6.1939104861997364e-15
    outer loop
      vertex 1.8660000562667847 8.8817841970012523e-16 2.4749069213867188
      vertex 1.593999981880188 8.8817841970012523e-16 2.4749069213867188
      vertex 1.7142857313156128 -4.4408920985006262e-16 2.690000057220459
    endloop
  endfacet
  facet normal 0 1 6.1939104861997364e-15
    outer loop
      vertex 2.1380000114440918 8.8817841970012523e-16 2.4749069213867188
      vertex 1.8660000562667847 8.8817841970012523e-16 2.4749069213867188
      vertex 2.1428570747375488 -4.4408920985006262e-16 2.690000057220459
    endloop
  endfacet
  facet normal -0 1 6.1939104861997364e-15
    outer loop
      vertex 1.7142857313156128 -4.4408920985006262e-16 2.690000057220459
      vertex 2.1428570747375488 -4.4408920985006262e-16 2.690000057220459
      vertex 1.8660000562667847 8.8817841970012523e-16 2.4749069213867188
    endloop
  endfacet
  facet normal 0 1 6.1939104861997364e-15
    outer loop
      vertex 2.4100000858306885 8.8817841970012523e-16 2.4749069213867188
      vertex 2.1380000114440918 8.8817841970012523e-16 2.4749069213867188
      vertex 2.1428570747375488 -4.4408920985006262e-16 2.690000057220459
    endloop
  endfacet
  facet normal 8.2529914451658167e-15 1 -0
    outer loop
      vertex 2.5714285373687744 -4.4408920985006262e-16 2.3057143688201904
      vertex 2.4100000858306885 8.8817841970012523e-16 2.1851344108581543
      vertex 2.4100000858306885 8.8817841970012523e-16 2.4749069213867188
    endloop
  endfacet
  facet normal 8.2529914451658167e-15 1 -0
    outer loop
      vertex 2.4100000858306885 8.8817841970012523e-16 1.8953620195388794
      vertex 2.4100000858306885 8.8817841970012523e-16 2.1851344108581543
      vertex 2.5714285373687744 -4.4408920985006262e-16 2.3057143688201904
    endloop
  endfacet
  facet normal 8.2529914451658167e-15 1 0
    outer loop
      vertex 2.4100000858306885 8.8817841970012523e-16 1.8953620195388794
      vertex 2.5714285373687744 -4.4408920985006262e-16 2.3057143688201904
      vertex 2.5714285373687744 -4.4408920985006262e-16 1.9214285612106323
    endloop
  endfacet
  facet normal -0 1 6.1939104861997364e-15
    outer loop
      vertex 2.4100000858306885 8.8817841970012523e-16 2.4749069213867188
      vertex 2.1428570747375488 -4.4408920985006262e-16 2.690000057220459
      vertex 2.5714285373687744 -4.4408920985006262e-16 2.690000057220459
    endloop
  endfacet
  facet normal 8.2529914451658167e-15 1 -0
    outer loop
      vertex 2.4100000858306885 8.8817841970012523e-16 1.6055896282196045
      vertex 2.4100000858306885 8.8817841970012523e-16 1.8953620195388794
      vertex 2.5714285373687744 -4.4408920985006262e-16 1.9214285612106323
    endloop
  endfacet
  facet normal 8.2529914451658167e-15 1 0
    outer loop
      vertex 2.4100000858306885 8.8817841970012523e-16 1.6055896282196045
      vertex 2.5714285373687744 -4.4408920985006262e-16 1.9214285612106323
      vertex 2.5714285373687744 -4.4408920985006262e-16 1.5371428728103638
    endloop
  endfacet
  facet normal 8.2529914451658167e-15 1 -0
    outer loop
      vertex 2.4100000858306885 8.8817841970012523e-16 1.3158172369003296
      vertex 2.4100000858306885 8.8817841970012523e-16 1.6055896282196045
      vertex 2.5714285373687744 -4.4408920985006262e-16 1.5371428728103638
    endloop
  endfacet
  facet normal 8.2529914451658167e-15 1 0
    outer loop
      vertex 2.5714285373687744 -4.4408920985006262e-16 1.1528571844100952
      vertex 2.4100000858306885 8.8817841970012523e-16 1.3158172369003296
      vertex 2.5714285373687744 -4.4408920985006262e-16 1.5371428728103638
    endloop
  endfacet
  facet normal 8.2529914451658167e-15 1 0
    outer loop
      vertex 2.5714285373687744 -4.4408920985006262e-16 2.690000057220459
      vertex 2.5714285373687744 -4.4408920985006262e-16 2.3057143688201904
      vertex 2.4100000858306885 8.8817841970012523e-16 2.4749069213867188
    endloop
  endfacet
  facet normal -0 1 -2.1414175645569345e-14
    outer loop
      vertex 2.4100000858306885 8.8817841970012523e-16 0.44650000333786011
      vertex 2.1428570747375488 -4.4408920985006262e-16 0.38428571820259094
      vertex 2.1380000114440918 8.8817841970012523e-16 0.44650000333786011
    endloop
  endfacet
  facet normal 0 1 -2.1414175645569345e-14
    outer loop
      vertex 2.1428570747375488 -4.4408920985006262e-16 0.38428571820259094
      vertex 1.8660000562667847 8.8817841970012523e-16 0.44650000333786011
      vertex 2.1380000114440918 8.8817841970012523e-16 0.44650000333786011
    endloop
  endfacet
  facet normal -0 1 0
    outer loop
      vertex 1.7142857313156128 -4.4408920985006262e-16 0
      vertex 1.7142857313156128 -4.4408920985006262e-16 0.38428571820259094
      vertex 2.1428570747375488 -4.4408920985006262e-16 0.38428571820259094
    endloop
  endfacet
  facet normal 0 1 -0
    outer loop
      vertex 1.7142857313156128 -4.4408920985006262e-16 0
      vertex 2.1428570747375488 -4.4408920985006262e-16 0.38428571820259094
      vertex 2.1428570747375488 -4.4408920985006262e-16 0
    endloop
  endfacet
  facet normal 0 1 -2.1414175645569345e-14
    outer loop
      vertex 2.5714285373687744 -4.4408920985006262e-16 0.38428571820259094
      vertex 2.1428570747375488 -4.4408920985006262e-16 0.38428571820259094
      vertex 2.4100000858306885 8.8817841970012523e-16 0.44650000333786011
    endloop
  endfacet
  facet normal 0 1 -2.1414175645569345e-14
    outer loop
      vertex 1.7142857313156128 -4.4408920985006262e-16 0.38428571820259094
      vertex 1.8660000562667847 8.8817841970012523e-16 0.44650000333786011
      vertex 2.1428570747375488 -4.4408920985006262e-16 0.38428571820259094
    endloop
  endfacet
  facet normal 8.2529914451658167e-15 1 -0
    outer loop
      vertex 2.4100000858306885 8.8817841970012523e-16 0.73627239465713501
      vertex 2.4100000858306885 8.8817841970012523e-16 1.0260448455810547
      vertex 2.5714285373687744 -4.4408920985006262e-16 1.1528571844100952
    endloop
  endfacet
  facet normal 8.2529914451658167e-15 1 0
    outer loop
      vertex 2.4100000858306885 8.8817841970012523e-16 0.73627239465713501
      vertex 2.5714285373687744 -4.4408920985006262e-16 1.1528571844100952
      vertex 2.5714285373687744 -4.4408920985006262e-16 0.76857143640518188
    endloop
  endfacet
  facet normal 8.2529914451658167e-15 1 -0
    outer loop
      vertex 2.4100000858306885 8.8817841970012523e-16 0.44650000333786011
      vertex 2.4100000858306885 8.8817841970012523e-16 0.73627239465713501
      vertex 2.5714285373687744 -4.4408920985006262e-16 0.76857143640518188
    endloop
  endfacet
  facet normal 8.2529914451658167e-15 1 0
    outer loop
      vertex 2.4100000858306885 8.8817841970012523e-16 0.44650000333786011
      vertex 2.5714285373687744 -4.4408920985006262e-16 0.76857143640518188
      vertex 2.5714285373687744 -4.4408920985006262e-16 0.38428571820259094
    endloop
  endfacet
  facet normal 0 1 -0
    outer loop
      vertex 2.5714285373687744 -4.4408920985006262e-16 0.38428571820259094
      vertex 2.5714285373687744 -4.4408920985006262e-16 0
      vertex 2.1428570747375488 -4.4408920985006262e-16 0
    endloop
  endfacet
  facet normal 0 1 0
    outer loop
      vertex 2.5714285373687744 -4.4408920985006262e-16 0.38428571820259094
      vertex 2.1428570747375488 -4.4408920985006262e-16 0
      vertex 2.1428570747375488 -4.4408920985006262e-16 0.38428571820259094
    endloop
  endfacet
  facet normal 8.2529914451658167e-15 1 -0
    outer loop
      vertex 2.5714285373687744 -4.4408920985006262e-16 1.1528571844100952
      vertex 2.4100000858306885 8.8817841970012523e-16 1.0260448455810547
      vertex 2.4100000858306885 8.8817841970012523e-16 1.3158172369003296
    endloop
  endfacet
  facet normal -0 0 -1
    outer loop
      vertex 3 1 2.690000057220459
      vertex 3 -4.4408920985006262e-16 2.690000057220459
      vertex 0 -4.4408920985006262e-16 2.690000057220459
    endloop
  endfacet
  facet normal 0 -0 -1
    outer loop
      vertex 3 1 2.690000057220459
      vertex 0 -4.4408920985006262e-16 2.690000057220459
      vertex 0 1 2.690000057220459
    endloop
  endfacet
  facet normal -0 -1 0
    outer loop
      vertex 3 1 2.690000057220459
      vertex 0 1 2.690000057220459
      vertex 0 1 0
    endloop
  endfacet
  facet normal -0 -1 0
    outer loop
      vertex 3 1 2.690000057220459
      vertex 0 1 0
      vertex 3 1 0
    endloop
  endfacet
  facet normal 1 -0 -0
    outer loop
      vertex 0 1 0
      vertex 0 1 2.690000057220459
      vertex 0 -4.4408920985006262e-16 2.690000057220459
    endloop
  endfacet
  facet normal 1 -0 -0
    outer loop
      vertex 0 1 0
      vertex 0 -4.4408920985006262e-16 2.690000057220459
      vertex 0 -4.4408920985006262e-16 0
    endloop
  endfacet
  facet normal 0 -0 1
    outer loop
      vertex 3 1 0
      vertex 0 1 0
      vertex 0 -4.4408920985006262e-16 0
    endloop
  endfacet
  facet normal 0 -0 1
    outer loop
      vertex 3 1 0
      vertex 0 -4.4408920985006262e-16 0
      vertex 3 -4.4408920985006262e-16 0
    endloop
  endfacet
endsolid OBJECT
