# Wavefront OBJ file written 2025-10-08T21:23:16
o glass_edgeMesh

# points : 336
# lines  : 344

# <points count="336">
v 2.21384 -0.201835 1.86116
v 2.21384 -0.207168 2.26417
v 2.21384 -0.201835 2.26417
v 2.21384 -0.207168 1.86116
v 1.24616 -0.201835 1.86116
v 1.24616 -0.201835 2.26417
v 1.24616 -0.207168 2.26417
v 1.24616 -0.207168 1.86116
v 1.1845 -0.0220093 1.83733
v 1.1845 0.00415628 1.83733
v 1.1845 -0.0220093 2.32317
v 1.1845 0.00415628 2.32317
v 2.2755 0.00415628 1.83733
v 2.2755 0.00415628 2.32317
v 2.2755 -0.0220093 1.83733
v 2.2755 -0.0220093 2.32317
v 2.21384 -0.201835 1.96191
v 2.21384 -0.201835 1.9871
v 2.21384 -0.201835 2.01229
v 2.21384 -0.201835 2.03748
v 2.21384 -0.201835 1.88635
v 2.21384 -0.201835 1.91154
v 2.21384 -0.201835 1.93673
v 2.21384 -0.201835 2.18861
v 2.21384 -0.201835 2.21379
v 2.21384 -0.201835 2.23898
v 2.21384 -0.201835 2.06267
v 2.21384 -0.201835 2.08785
v 2.21384 -0.201835 2.11304
v 2.21384 -0.201835 2.13823
v 2.21384 -0.201835 2.16342
v 2.21384 -0.207168 1.9871
v 2.21384 -0.207168 1.96191
v 2.21384 -0.207168 2.01229
v 2.21384 -0.207168 2.03748
v 2.21384 -0.207168 1.91154
v 2.21384 -0.207168 1.88635
v 2.21384 -0.207168 1.93673
v 2.21384 -0.207168 2.06267
v 2.21384 -0.207168 2.21379
v 2.21384 -0.207168 2.18861
v 2.21384 -0.207168 2.23898
v 2.21384 -0.207168 2.11304
v 2.21384 -0.207168 2.08785
v 2.21384 -0.207168 2.16342
v 2.21384 -0.207168 2.13823
v 2.1908 -0.201835 1.86116
v 2.16776 -0.201835 1.86116
v 2.14472 -0.201835 1.86116
v 2.12168 -0.201835 1.86116
v 2.09864 -0.201835 1.86116
v 2.0756 -0.201835 1.86116
v 2.05256 -0.201835 1.86116
v 2.02952 -0.201835 1.86116
v 2.00648 -0.201835 1.86116
v 1.98344 -0.201835 1.86116
v 1.9604 -0.201835 1.86116
v 1.93736 -0.201835 1.86116
v 1.91432 -0.201835 1.86116
v 1.89128 -0.201835 1.86116
v 1.86824 -0.201835 1.86116
v 1.8452 -0.201835 1.86116
v 1.82216 -0.201835 1.86116
v 1.79912 -0.201835 1.86116
v 1.77608 -0.201835 1.86116
v 1.75304 -0.201835 1.86116
v 1.73 -0.201835 1.86116
v 1.70696 -0.201835 1.86116
v 1.68392 -0.201835 1.86116
v 1.66088 -0.201835 1.86116
v 1.63784 -0.201835 1.86116
v 1.6148 -0.201835 1.86116
v 1.59176 -0.201835 1.86116
v 1.56872 -0.201835 1.86116
v 1.54568 -0.201835 1.86116
v 1.52264 -0.201835 1.86116
v 1.4996 -0.201835 1.86116
v 1.47656 -0.201835 1.86116
v 1.45352 -0.201835 1.86116
v 1.43048 -0.201835 1.86116
v 1.40744 -0.201835 1.86116
v 1.3844 -0.201835 1.86116
v 1.36136 -0.201835 1.86116
v 1.33832 -0.201835 1.86116
v 1.31528 -0.201835 1.86116
v 1.29224 -0.201835 1.86116
v 1.2692 -0.201835 1.86116
v 1.24616 -0.201835 1.88635
v 1.24616 -0.201835 1.91154
v 1.24616 -0.201835 1.93673
v 1.24616 -0.201835 1.96191
v 1.24616 -0.201835 1.9871
v 1.24616 -0.201835 2.01229
v 1.24616 -0.201835 2.03748
v 1.24616 -0.201835 2.06267
v 2.05256 -0.201835 2.26417
v 2.0756 -0.201835 2.26417
v 1.98344 -0.201835 2.26417
v 2.00648 -0.201835 2.26417
v 1.86824 -0.201835 2.26417
v 1.89128 -0.201835 2.26417
v 1.79912 -0.201835 2.26417
v 1.82216 -0.201835 2.26417
v 1.93736 -0.201835 2.26417
v 1.9604 -0.201835 2.26417
v 2.12168 -0.201835 2.26417
v 2.14472 -0.201835 2.26417
v 2.16776 -0.201835 2.26417
v 2.1908 -0.201835 2.26417
v 2.09864 -0.201835 2.26417
v 2.02952 -0.201835 2.26417
v 1.91432 -0.201835 2.26417
v 1.8452 -0.201835 2.26417
v 1.75304 -0.201835 2.26417
v 1.77608 -0.201835 2.26417
v 1.73 -0.201835 2.26417
v 1.68392 -0.201835 2.26417
v 1.70696 -0.201835 2.26417
v 1.24616 -0.201835 2.08785
v 1.24616 -0.201835 2.11304
v 1.56872 -0.201835 2.26417
v 1.59176 -0.201835 2.26417
v 1.45352 -0.201835 2.26417
v 1.47656 -0.201835 2.26417
v 1.3844 -0.201835 2.26417
v 1.40744 -0.201835 2.26417
v 1.4996 -0.201835 2.26417
v 1.52264 -0.201835 2.26417
v 1.63784 -0.201835 2.26417
v 1.66088 -0.201835 2.26417
v 1.24616 -0.201835 2.13823
v 1.24616 -0.201835 2.16342
v 1.24616 -0.201835 2.18861
v 1.24616 -0.201835 2.21379
v 1.24616 -0.201835 2.23898
v 1.6148 -0.201835 2.26417
v 1.54568 -0.201835 2.26417
v 1.43048 -0.201835 2.26417
v 1.36136 -0.201835 2.26417
v 1.33832 -0.201835 2.26417
v 1.31528 -0.201835 2.26417
v 1.2692 -0.201835 2.26417
v 1.29224 -0.201835 2.26417
v 1.24616 -0.207168 1.96191
v 1.24616 -0.207168 1.9871
v 1.24616 -0.207168 2.01229
v 1.24616 -0.207168 2.03748
v 1.24616 -0.207168 1.88635
v 1.24616 -0.207168 1.91154
v 1.24616 -0.207168 1.93673
v 1.24616 -0.207168 2.06267
v 1.24616 -0.207168 2.18861
v 1.24616 -0.207168 2.21379
v 1.24616 -0.207168 2.23898
v 1.24616 -0.207168 2.08785
v 1.24616 -0.207168 2.11304
v 1.24616 -0.207168 2.13823
v 1.24616 -0.207168 2.16342
v 2.1908 -0.207168 2.26417
v 2.14472 -0.207168 2.26417
v 2.16776 -0.207168 2.26417
v 2.12168 -0.207168 2.26417
v 2.0756 -0.207168 2.26417
v 2.09864 -0.207168 2.26417
v 2.02952 -0.207168 2.26417
v 2.05256 -0.207168 2.26417
v 2.00648 -0.207168 2.26417
v 1.9604 -0.207168 2.26417
v 1.98344 -0.207168 2.26417
v 1.91432 -0.207168 2.26417
v 1.93736 -0.207168 2.26417
v 1.89128 -0.207168 2.26417
v 1.8452 -0.207168 2.26417
v 1.86824 -0.207168 2.26417
v 1.82216 -0.207168 2.26417
v 1.77608 -0.207168 2.26417
v 1.79912 -0.207168 2.26417
v 1.75304 -0.207168 2.26417
v 1.70696 -0.207168 2.26417
v 1.73 -0.207168 2.26417
v 1.66088 -0.207168 2.26417
v 1.68392 -0.207168 2.26417
v 1.63784 -0.207168 2.26417
v 1.59176 -0.207168 2.26417
v 1.6148 -0.207168 2.26417
v 1.56872 -0.207168 2.26417
v 1.52264 -0.207168 2.26417
v 1.54568 -0.207168 2.26417
v 1.4996 -0.207168 2.26417
v 1.45352 -0.207168 2.26417
v 1.47656 -0.207168 2.26417
v 1.40744 -0.207168 2.26417
v 1.43048 -0.207168 2.26417
v 1.3844 -0.207168 2.26417
v 1.33832 -0.207168 2.26417
v 1.36136 -0.207168 2.26417
v 1.31528 -0.207168 2.26417
v 1.2692 -0.207168 2.26417
v 1.29224 -0.207168 2.26417
v 2.05256 -0.207168 1.86116
v 2.0756 -0.207168 1.86116
v 1.98344 -0.207168 1.86116
v 2.00648 -0.207168 1.86116
v 1.86824 -0.207168 1.86116
v 1.89128 -0.207168 1.86116
v 1.79912 -0.207168 1.86116
v 1.82216 -0.207168 1.86116
v 1.93736 -0.207168 1.86116
v 1.9604 -0.207168 1.86116
v 2.12168 -0.207168 1.86116
v 2.14472 -0.207168 1.86116
v 2.1908 -0.207168 1.86116
v 2.16776 -0.207168 1.86116
v 2.09864 -0.207168 1.86116
v 2.02952 -0.207168 1.86116
v 1.91432 -0.207168 1.86116
v 1.8452 -0.207168 1.86116
v 1.75304 -0.207168 1.86116
v 1.77608 -0.207168 1.86116
v 1.73 -0.207168 1.86116
v 1.68392 -0.207168 1.86116
v 1.70696 -0.207168 1.86116
v 1.56872 -0.207168 1.86116
v 1.59176 -0.207168 1.86116
v 1.45352 -0.207168 1.86116
v 1.47656 -0.207168 1.86116
v 1.3844 -0.207168 1.86116
v 1.40744 -0.207168 1.86116
v 1.4996 -0.207168 1.86116
v 1.52264 -0.207168 1.86116
v 1.63784 -0.207168 1.86116
v 1.66088 -0.207168 1.86116
v 1.6148 -0.207168 1.86116
v 1.54568 -0.207168 1.86116
v 1.43048 -0.207168 1.86116
v 1.36136 -0.207168 1.86116
v 1.33832 -0.207168 1.86116
v 1.31528 -0.207168 1.86116
v 1.2692 -0.207168 1.86116
v 1.29224 -0.207168 1.86116
v 1.1845 -0.0220093 1.86769
v 1.1845 -0.0220093 1.89806
v 1.1845 -0.0220093 1.92842
v 1.1845 -0.0220093 1.95879
v 1.1845 -0.0220093 1.98915
v 1.1845 -0.0220093 2.01952
v 1.1845 -0.0220093 2.04988
v 1.1845 -0.0220093 2.08025
v 1.1845 0.00415629 1.92842
v 1.1845 0.00415629 1.89806
v 1.1845 0.00415629 1.95879
v 1.1845 0.00415629 1.86769
v 1.1845 0.0041563 2.04988
v 1.1845 0.00415629 2.01952
v 1.1845 0.0041563 2.08025
v 1.1845 0.00415629 1.98915
v 1.1845 -0.0220093 2.11061
v 1.1845 -0.0220093 2.14098
v 1.1845 -0.0220093 2.17134
v 1.1845 -0.0220093 2.20171
v 1.1845 -0.0220093 2.26244
v 1.1845 -0.0220093 2.2928
v 1.1845 -0.0220093 2.23207
v 1.1845 0.00415629 2.20171
v 1.1845 0.00415629 2.17134
v 1.1845 0.0041563 2.11061
v 1.1845 0.00415629 2.14098
v 1.1845 0.00415629 2.2928
v 1.1845 0.00415629 2.26244
v 1.1845 0.00415629 2.23207
v 1.2936 0.00415628 1.83733
v 1.5118 0.00415628 1.83733
v 1.4027 0.00415628 1.83733
v 1.6209 0.00415628 1.83733
v 1.9482 0.00415628 1.83733
v 1.8391 0.00415628 1.83733
v 2.0573 0.00415628 1.83733
v 2.1664 0.00415628 1.83733
v 1.73 0.00415628 1.83733
v 2.2755 0.00415629 1.86769
v 2.2755 0.00415629 1.89806
v 2.2755 0.00415629 1.92842
v 2.2755 0.00415629 1.98915
v 2.2755 0.00415629 1.95879
v 2.2755 0.00415629 2.01952
v 2.2755 0.0041563 2.04988
v 2.2755 0.0041563 2.08025
v 1.2936 0.00415628 2.32317
v 1.4027 0.00415628 2.32317
v 1.5118 0.00415628 2.32317
v 1.6209 0.00415628 2.32317
v 1.73 0.00415628 2.32317
v 1.8391 0.00415628 2.32317
v 2.2755 0.0041563 2.11061
v 2.2755 0.00415629 2.14098
v 2.2755 0.00415629 2.20171
v 2.2755 0.00415629 2.17134
v 2.2755 0.00415629 2.23207
v 1.9482 0.00415628 2.32317
v 2.0573 0.00415628 2.32317
v 2.1664 0.00415628 2.32317
v 2.2755 0.00415629 2.26244
v 2.2755 0.00415629 2.2928
v 2.2755 -0.0220093 1.86769
v 2.2755 -0.0220093 1.89806
v 2.2755 -0.0220093 1.92842
v 2.2755 -0.0220093 1.98915
v 2.2755 -0.0220093 1.95879
v 2.2755 -0.0220093 2.04988
v 2.2755 -0.0220093 2.01952
v 2.2755 -0.0220093 2.08025
v 2.2755 -0.0220093 2.14098
v 2.2755 -0.0220093 2.11061
v 2.2755 -0.0220093 2.17134
v 2.2755 -0.0220093 2.20171
v 2.2755 -0.0220093 2.2928
v 2.2755 -0.0220093 2.26244
v 2.2755 -0.0220093 2.23207
v 1.2936 -0.0220093 2.32317
v 1.4027 -0.0220093 2.32317
v 1.5118 -0.0220093 2.32317
v 1.6209 -0.0220093 2.32317
v 1.73 -0.0220093 2.32317
v 1.8391 -0.0220093 2.32317
v 1.9482 -0.0220093 2.32317
v 2.0573 -0.0220093 2.32317
v 2.1664 -0.0220093 2.32317
v 1.2936 -0.0220093 1.83733
v 1.4027 -0.0220093 1.83733
v 1.5118 -0.0220093 1.83733
v 1.6209 -0.0220093 1.83733
v 1.73 -0.0220093 1.83733
v 1.8391 -0.0220093 1.83733
v 1.9482 -0.0220093 1.83733
v 2.0573 -0.0220093 1.83733
v 2.1664 -0.0220093 1.83733
# </points>

# <edges count="344">
l 17 18
l 19 20
l 18 19
l 21 22
l 22 23
l 1 21
l 23 17
l 24 25
l 26 3
l 3 2
l 25 26
l 27 28
l 29 30
l 30 31
l 28 29
l 31 24
l 20 27
l 32 33
l 34 32
l 35 34
l 36 37
l 38 36
l 33 38
l 39 35
l 40 41
l 2 42
l 42 40
l 43 44
l 45 46
l 46 43
l 41 45
l 44 39
l 37 4
l 4 1
l 1 47
l 48 49
l 49 50
l 47 48
l 51 52
l 53 54
l 54 55
l 52 53
l 50 51
l 56 57
l 58 59
l 59 60
l 57 58
l 61 62
l 62 63
l 64 65
l 65 66
l 63 64
l 60 61
l 55 56
l 66 67
l 67 68
l 69 70
l 70 71
l 68 69
l 72 73
l 74 75
l 75 76
l 73 74
l 71 72
l 77 78
l 79 80
l 80 81
l 78 79
l 82 83
l 83 84
l 85 86
l 86 87
l 84 85
l 81 82
l 76 77
l 88 89
l 90 91
l 91 92
l 89 90
l 5 88
l 87 5
l 92 93
l 93 94
l 94 95
l 96 97
l 98 99
l 100 101
l 102 103
l 104 105
l 106 107
l 108 109
l 109 3
l 107 108
l 97 110
l 99 111
l 111 96
l 110 106
l 101 112
l 112 104
l 103 113
l 114 115
l 115 102
l 113 100
l 105 98
l 116 114
l 117 118
l 95 119
l 119 120
l 121 122
l 123 124
l 125 126
l 127 128
l 129 130
l 131 132
l 120 131
l 132 133
l 133 134
l 134 135
l 130 117
l 136 129
l 122 136
l 137 121
l 128 137
l 124 127
l 126 138
l 139 125
l 140 139
l 138 123
l 141 140
l 142 143
l 135 6
l 6 142
l 143 141
l 118 116
l 7 6
l 144 145
l 145 146
l 146 147
l 148 149
l 149 150
l 150 144
l 147 151
l 152 153
l 154 7
l 153 154
l 155 156
l 157 158
l 156 157
l 158 152
l 151 155
l 8 148
l 5 8
l 159 2
l 160 161
l 162 160
l 161 159
l 163 164
l 165 166
l 167 165
l 166 163
l 164 162
l 168 169
l 170 171
l 172 170
l 171 168
l 173 174
l 175 173
l 176 177
l 178 176
l 177 175
l 174 172
l 169 167
l 179 180
l 181 182
l 183 181
l 182 179
l 184 185
l 186 184
l 187 188
l 189 187
l 188 186
l 185 183
l 190 191
l 192 193
l 194 192
l 193 190
l 195 196
l 197 195
l 198 199
l 7 198
l 199 197
l 196 194
l 191 189
l 180 178
l 200 201
l 202 203
l 204 205
l 206 207
l 208 209
l 210 211
l 212 4
l 211 213
l 213 212
l 201 214
l 203 215
l 215 200
l 214 210
l 205 216
l 216 208
l 207 217
l 218 219
l 219 206
l 217 204
l 209 202
l 220 218
l 221 222
l 223 224
l 225 226
l 227 228
l 229 230
l 231 232
l 232 221
l 233 231
l 224 233
l 234 223
l 230 234
l 226 229
l 228 235
l 236 227
l 237 236
l 235 225
l 238 237
l 239 240
l 8 239
l 240 238
l 222 220
l 9 241
l 241 242
l 242 243
l 244 245
l 246 247
l 247 248
l 243 244
l 245 246
l 249 250
l 251 249
l 252 10
l 250 252
l 10 9
l 253 254
l 255 253
l 256 251
l 254 256
l 257 258
l 258 259
l 259 260
l 261 262
l 263 261
l 260 263
l 262 11
l 264 265
l 266 255
l 267 266
l 265 267
l 12 268
l 11 12
l 269 270
l 268 269
l 270 264
l 248 257
l 271 10
l 272 273
l 274 272
l 273 271
l 275 276
l 277 275
l 278 277
l 276 279
l 13 278
l 280 13
l 281 280
l 282 281
l 283 284
l 285 283
l 284 282
l 286 285
l 287 286
l 279 274
l 12 288
l 289 290
l 291 292
l 290 291
l 288 289
l 292 293
l 294 287
l 295 294
l 296 297
l 297 295
l 298 296
l 293 299
l 299 300
l 300 301
l 302 298
l 303 302
l 301 14
l 14 303
l 304 15
l 305 304
l 306 305
l 307 308
l 309 310
l 311 309
l 308 306
l 310 307
l 15 13
l 312 313
l 314 312
l 315 314
l 316 317
l 317 318
l 318 315
l 16 316
l 14 16
l 313 311
l 11 319
l 320 321
l 321 322
l 319 320
l 323 324
l 324 325
l 326 327
l 327 16
l 325 326
l 322 323
l 9 328
l 329 330
l 331 332
l 330 331
l 328 329
l 332 333
l 333 334
l 334 335
l 335 336
l 336 15
# </edges>
