# Wavefront OBJ file written 2025-10-08T21:23:16
o walls_edgeMesh

# points : 56
# lines  : 64

# <points count="56">
v 0 1 2.69
v 0 1 0
v 3 1 2.69
v 3 -4.44089e-16 2.69
v 3 -4.44089e-16 0
v 3 1 0
v 0 -4.44089e-16 2.69
v 0 -4.44089e-16 0
v 1.05 8.88178e-16 2.47491
v 1.05 8.88178e-16 0.4465
v 2.41 8.88178e-16 2.47491
v 2.41 8.88178e-16 0.4465
v 0 -4.44089e-16 2.30571
v 0.428571 -4.44089e-16 2.69
v 0 -4.44089e-16 1.92143
v 0 -4.44089e-16 1.53714
v 0 -4.44089e-16 1.15286
v 0 -4.44089e-16 0.768571
v 0 -4.44089e-16 0.384286
v 0.428571 -4.44089e-16 0
v 0.857143 -4.44089e-16 2.69
v 0.857143 -4.44089e-16 0
v 2.57143 -4.44089e-16 2.69
v 3 -4.44089e-16 2.30571
v 3 -4.44089e-16 1.92143
v 3 -4.44089e-16 1.53714
v 3 -4.44089e-16 1.15286
v 3 -4.44089e-16 0.768571
v 3 -4.44089e-16 0.384286
v 2.57143 -4.44089e-16 0
v 1.05 8.88178e-16 2.18513
v 1.05 8.88178e-16 1.89536
v 1.05 8.88178e-16 1.60559
v 1.05 8.88178e-16 1.31582
v 1.322 8.88178e-16 2.47491
v 1.28571 -4.44089e-16 2.69
v 1.71429 -4.44089e-16 2.69
v 1.594 8.88178e-16 2.47491
v 1.05 8.88178e-16 1.02604
v 1.05 8.88178e-16 0.736272
v 1.322 8.88178e-16 0.4465
v 1.28571 -4.44089e-16 0
v 1.594 8.88178e-16 0.4465
v 1.866 8.88178e-16 0.4465
v 1.71429 -4.44089e-16 0
v 1.866 8.88178e-16 2.47491
v 2.138 8.88178e-16 2.47491
v 2.14286 -4.44089e-16 2.69
v 2.41 8.88178e-16 2.18513
v 2.41 8.88178e-16 1.89536
v 2.41 8.88178e-16 1.60559
v 2.41 8.88178e-16 1.31582
v 2.138 8.88178e-16 0.4465
v 2.14286 -4.44089e-16 0
v 2.41 8.88178e-16 0.736272
v 2.41 8.88178e-16 1.02604
# </points>

# <edges count="64">
l 3 4
l 6 3
l 5 6
l 1 3
l 7 1
l 1 2
l 2 6
l 8 2
l 4 5
l 13 7
l 7 14
l 15 13
l 16 15
l 17 16
l 18 17
l 19 18
l 20 8
l 8 19
l 14 21
l 22 20
l 23 4
l 4 24
l 24 25
l 25 26
l 26 27
l 27 28
l 28 29
l 5 30
l 29 5
l 31 32
l 32 33
l 33 34
l 35 9
l 21 36
l 36 37
l 38 35
l 9 31
l 39 40
l 40 10
l 10 41
l 42 22
l 41 43
l 34 39
l 43 44
l 45 42
l 46 38
l 47 46
l 37 48
l 11 47
l 49 11
l 50 49
l 48 23
l 51 50
l 52 51
l 53 12
l 44 53
l 54 45
l 55 56
l 12 55
l 30 54
l 56 52
l 4 7
l 7 8
l 8 5
# </edges>
