# Wavefront OBJ file written 2025-10-08T21:23:16
o window_edgeMesh

# points : 16
# lines  : 20

# <points count="16">
v 1.05 8.88178e-16 2.47491
v 1.05 -0.202 2.47491
v 1.05 -0.202 0.4465
v 1.05 8.88178e-16 0.4465
v 2.41 -0.202 2.47491
v 2.41 8.88178e-16 2.47491
v 2.41 -0.202 0.4465
v 2.41 8.88178e-16 0.4465
v 1.05 8.88178e-16 1.4607
v 1.05 -0.202 1.4607
v 2.41 -0.202 1.4607
v 2.41 8.88178e-16 1.4607
v 1.73 8.88178e-16 0.4465
v 1.73 -0.202 0.4465
v 1.73 8.88178e-16 2.47491
v 1.73 -0.202 2.47491
# </points>

# <edges count="20">
l 1 2
l 3 4
l 5 6
l 8 7
l 9 1
l 2 10
l 4 9
l 10 3
l 11 5
l 6 12
l 7 11
l 12 8
l 13 8
l 7 14
l 4 13
l 14 3
l 15 6
l 5 16
l 1 15
l 16 2
# </edges>
