# Wavefront OBJ file written 2025-10-16T10:27:54
o outflow_edgeMesh

# points : 20
# lines  : 20

# <points count="20">
v 0 0.2 0.98
v 0 0.2 1
v 1 0.2 0.98
v 1 0.2 1
v 0.111111 0.2 0.98
v 0.111111 0.2 1
v 0.222222 0.2 0.98
v 0.222222 0.2 1
v 0.333333 0.2 0.98
v 0.333333 0.2 1
v 0.444444 0.2 0.98
v 0.444444 0.2 1
v 0.555556 0.2 0.98
v 0.555556 0.2 1
v 0.666667 0.2 0.98
v 0.666667 0.2 1
v 0.777778 0.2 0.98
v 0.777778 0.2 1
v 0.888889 0.2 0.98
v 0.888889 0.2 1
# </points>

# <edges count="20">
l 5 1
l 1 2
l 2 6
l 7 5
l 6 8
l 9 7
l 8 10
l 11 9
l 10 12
l 13 11
l 12 14
l 15 13
l 14 16
l 17 15
l 16 18
l 19 17
l 18 20
l 3 19
l 20 4
l 4 3
# </edges>
