solid OBJECT
  facet normal -0 1 -0
    outer loop
      vertex 1.0157142877578735 -0.20200000703334808 4.2857141494750977
      vertex 0.73000001907348633 -0.20200000703334808 4.2857141494750977
      vertex 0.73000001907348633 -0.20200000703334808 5
    endloop
  endfacet
  facet normal 0 1 0
    outer loop
      vertex 1.0157142877578735 -0.20200000703334808 4.2857141494750977
      vertex 0.73000001907348633 -0.20200000703334808 5
      vertex 1.0157142877578735 -0.20200000703334808 5
    endloop
  endfacet
  facet normal -0 1 -0
    outer loop
      vertex 1.0157142877578735 -0.20200000703334808 3.5714285373687744
      vertex 0.73000001907348633 -0.20200000703334808 3.5714285373687744
      vertex 0.73000001907348633 -0.20200000703334808 4.2857141494750977
    endloop
  endfacet
  facet normal 0 1 0
    outer loop
      vertex 1.0157142877578735 -0.20200000703334808 3.5714285373687744
      vertex 0.73000001907348633 -0.20200000703334808 4.2857141494750977
      vertex 1.0157142877578735 -0.20200000703334808 4.2857141494750977
    endloop
  endfacet
  facet normal -0 1 -0
    outer loop
      vertex 1.0157142877578735 -0.20200000703334808 2.8571429252624512
      vertex 0.73000001907348633 -0.20200000703334808 2.8571429252624512
      vertex 0.73000001907348633 -0.20200000703334808 3.5714285373687744
    endloop
  endfacet
  facet normal 0 1 0
    outer loop
      vertex 1.0157142877578735 -0.20200000703334808 2.8571429252624512
      vertex 0.73000001907348633 -0.20200000703334808 3.5714285373687744
      vertex 1.0157142877578735 -0.20200000703334808 3.5714285373687744
    endloop
  endfacet
  facet normal -0 1 -0
    outer loop
      vertex 1.0157142877578735 -0.20200000703334808 -5.5511151231257827e-17
      vertex 0.73000001907348633 -0.20200000703334808 -5.5511151231257827e-17
      vertex 0.73000001907348633 -0.20200000703334808 0.71428573131561279
    endloop
  endfacet
  facet normal -0 1 -0
    outer loop
      vertex 1.3014285564422607 -0.20200000703334808 4.2857141494750977
      vertex 1.0157142877578735 -0.20200000703334808 4.2857141494750977
      vertex 1.0157142877578735 -0.20200000703334808 5
    endloop
  endfacet
  facet normal 0 1 0
    outer loop
      vertex 1.3014285564422607 -0.20200000703334808 4.2857141494750977
      vertex 1.0157142877578735 -0.20200000703334808 5
      vertex 1.3014285564422607 -0.20200000703334808 5
    endloop
  endfacet
  facet normal -0 1 -0
    outer loop
      vertex 1.3014285564422607 -0.20200000703334808 3.5714285373687744
      vertex 1.0157142877578735 -0.20200000703334808 3.5714285373687744
      vertex 1.0157142877578735 -0.20200000703334808 4.2857141494750977
    endloop
  endfacet
  facet normal 0 1 0
    outer loop
      vertex 1.3014285564422607 -0.20200000703334808 3.5714285373687744
      vertex 1.0157142877578735 -0.20200000703334808 4.2857141494750977
      vertex 1.3014285564422607 -0.20200000703334808 4.2857141494750977
    endloop
  endfacet
  facet normal -0 1 -0
    outer loop
      vertex 1.3014285564422607 -0.20200000703334808 2.8571429252624512
      vertex 1.0157142877578735 -0.20200000703334808 2.8571429252624512
      vertex 1.0157142877578735 -0.20200000703334808 3.5714285373687744
    endloop
  endfacet
  facet normal 0 1 0
    outer loop
      vertex 1.3014285564422607 -0.20200000703334808 2.8571429252624512
      vertex 1.0157142877578735 -0.20200000703334808 3.5714285373687744
      vertex 1.3014285564422607 -0.20200000703334808 3.5714285373687744
    endloop
  endfacet
  facet normal -0 1 0
    outer loop
      vertex 1.3014285564422607 -0.20200000703334808 0.71428573131561279
      vertex 1.3014285564422607 -0.20200000703334808 -5.5511151231257827e-17
      vertex 1.0157142877578735 -0.20200000703334808 -5.5511151231257827e-17
    endloop
  endfacet
  facet normal -0 1 -0
    outer loop
      vertex 1.5871428251266479 -0.20200000703334808 4.2857141494750977
      vertex 1.3014285564422607 -0.20200000703334808 4.2857141494750977
      vertex 1.3014285564422607 -0.20200000703334808 5
    endloop
  endfacet
  facet normal 0 1 0
    outer loop
      vertex 1.5871428251266479 -0.20200000703334808 4.2857141494750977
      vertex 1.3014285564422607 -0.20200000703334808 5
      vertex 1.5871428251266479 -0.20200000703334808 5
    endloop
  endfacet
  facet normal -0 1 -0
    outer loop
      vertex 1.5871428251266479 -0.20200000703334808 3.5714285373687744
      vertex 1.3014285564422607 -0.20200000703334808 3.5714285373687744
      vertex 1.3014285564422607 -0.20200000703334808 4.2857141494750977
    endloop
  endfacet
  facet normal 0 1 0
    outer loop
      vertex 1.5871428251266479 -0.20200000703334808 3.5714285373687744
      vertex 1.3014285564422607 -0.20200000703334808 4.2857141494750977
      vertex 1.5871428251266479 -0.20200000703334808 4.2857141494750977
    endloop
  endfacet
  facet normal -0 1 -0
    outer loop
      vertex 1.5871428251266479 -0.20200000703334808 2.8571429252624512
      vertex 1.3014285564422607 -0.20200000703334808 2.8571429252624512
      vertex 1.3014285564422607 -0.20200000703334808 3.5714285373687744
    endloop
  endfacet
  facet normal 0 1 0
    outer loop
      vertex 1.5871428251266479 -0.20200000703334808 2.8571429252624512
      vertex 1.3014285564422607 -0.20200000703334808 3.5714285373687744
      vertex 1.5871428251266479 -0.20200000703334808 3.5714285373687744
    endloop
  endfacet
  facet normal -0 1 -0
    outer loop
      vertex 1.8728570938110352 -0.20200000703334808 4.2857141494750977
      vertex 1.5871428251266479 -0.20200000703334808 4.2857141494750977
      vertex 1.5871428251266479 -0.20200000703334808 5
    endloop
  endfacet
  facet normal 0 1 0
    outer loop
      vertex 1.8728570938110352 -0.20200000703334808 4.2857141494750977
      vertex 1.5871428251266479 -0.20200000703334808 5
      vertex 1.8728570938110352 -0.20200000703334808 5
    endloop
  endfacet
  facet normal -0 1 -0
    outer loop
      vertex 1.8728570938110352 -0.20200000703334808 3.5714285373687744
      vertex 1.5871428251266479 -0.20200000703334808 3.5714285373687744
      vertex 1.5871428251266479 -0.20200000703334808 4.2857141494750977
    endloop
  endfacet
  facet normal 0 1 0
    outer loop
      vertex 1.8728570938110352 -0.20200000703334808 3.5714285373687744
      vertex 1.5871428251266479 -0.20200000703334808 4.2857141494750977
      vertex 1.8728570938110352 -0.20200000703334808 4.2857141494750977
    endloop
  endfacet
  facet normal -0 1 -0
    outer loop
      vertex 1.8728570938110352 -0.20200000703334808 2.8571429252624512
      vertex 1.5871428251266479 -0.20200000703334808 2.8571429252624512
      vertex 1.5871428251266479 -0.20200000703334808 3.5714285373687744
    endloop
  endfacet
  facet normal 0 1 0
    outer loop
      vertex 1.8728570938110352 -0.20200000703334808 2.8571429252624512
      vertex 1.5871428251266479 -0.20200000703334808 3.5714285373687744
      vertex 1.8728570938110352 -0.20200000703334808 3.5714285373687744
    endloop
  endfacet
  facet normal -0 1 -0
    outer loop
      vertex 1.8728570938110352 -0.20200000703334808 -5.5511151231257827e-17
      vertex 1.5871428251266479 -0.20200000703334808 -5.5511151231257827e-17
      vertex 1.5871428251266479 -0.20200000703334808 0.71428573131561279
    endloop
  endfacet
  facet normal 0 1 0
    outer loop
      vertex 1.8728570938110352 -0.20200000703334808 -5.5511151231257827e-17
      vertex 1.5871428251266479 -0.20200000703334808 0.71428573131561279
      vertex 1.8728570938110352 -0.20200000703334808 0.71428573131561279
    endloop
  endfacet
  facet normal -0 1 -0
    outer loop
      vertex 2.1585714817047119 -0.20200000703334808 4.2857141494750977
      vertex 1.8728570938110352 -0.20200000703334808 4.2857141494750977
      vertex 1.8728570938110352 -0.20200000703334808 5
    endloop
  endfacet
  facet normal 0 1 0
    outer loop
      vertex 2.1585714817047119 -0.20200000703334808 4.2857141494750977
      vertex 1.8728570938110352 -0.20200000703334808 5
      vertex 2.1585714817047119 -0.20200000703334808 5
    endloop
  endfacet
  facet normal -0 1 -0
    outer loop
      vertex 2.1585714817047119 -0.20200000703334808 3.5714285373687744
      vertex 1.8728570938110352 -0.20200000703334808 3.5714285373687744
      vertex 1.8728570938110352 -0.20200000703334808 4.2857141494750977
    endloop
  endfacet
  facet normal 0 1 0
    outer loop
      vertex 2.1585714817047119 -0.20200000703334808 3.5714285373687744
      vertex 1.8728570938110352 -0.20200000703334808 4.2857141494750977
      vertex 2.1585714817047119 -0.20200000703334808 4.2857141494750977
    endloop
  endfacet
  facet normal -0 1 -0
    outer loop
      vertex 2.1585714817047119 -0.20200000703334808 2.8571429252624512
      vertex 1.8728570938110352 -0.20200000703334808 2.8571429252624512
      vertex 1.8728570938110352 -0.20200000703334808 3.5714285373687744
    endloop
  endfacet
  facet normal 0 1 0
    outer loop
      vertex 2.1585714817047119 -0.20200000703334808 2.8571429252624512
      vertex 1.8728570938110352 -0.20200000703334808 3.5714285373687744
      vertex 2.1585714817047119 -0.20200000703334808 3.5714285373687744
    endloop
  endfacet
  facet normal -0 1 -0
    outer loop
      vertex 2.4442856311798096 -0.20200000703334808 4.2857141494750977
      vertex 2.1585714817047119 -0.20200000703334808 4.2857141494750977
      vertex 2.1585714817047119 -0.20200000703334808 5
    endloop
  endfacet
  facet normal 0 1 0
    outer loop
      vertex 2.4442856311798096 -0.20200000703334808 4.2857141494750977
      vertex 2.1585714817047119 -0.20200000703334808 5
      vertex 2.4442856311798096 -0.20200000703334808 5
    endloop
  endfacet
  facet normal -0 1 -0
    outer loop
      vertex 2.4442856311798096 -0.20200000703334808 3.5714285373687744
      vertex 2.1585714817047119 -0.20200000703334808 3.5714285373687744
      vertex 2.1585714817047119 -0.20200000703334808 4.2857141494750977
    endloop
  endfacet
  facet normal 0 1 0
    outer loop
      vertex 2.4442856311798096 -0.20200000703334808 3.5714285373687744
      vertex 2.1585714817047119 -0.20200000703334808 4.2857141494750977
      vertex 2.4442856311798096 -0.20200000703334808 4.2857141494750977
    endloop
  endfacet
  facet normal -0 1 -0
    outer loop
      vertex 2.4442856311798096 -0.20200000703334808 2.8571429252624512
      vertex 2.1585714817047119 -0.20200000703334808 2.8571429252624512
      vertex 2.1585714817047119 -0.20200000703334808 3.5714285373687744
    endloop
  endfacet
  facet normal 0 1 0
    outer loop
      vertex 2.4442856311798096 -0.20200000703334808 2.8571429252624512
      vertex 2.1585714817047119 -0.20200000703334808 3.5714285373687744
      vertex 2.4442856311798096 -0.20200000703334808 3.5714285373687744
    endloop
  endfacet
  facet normal -0 1 -0
    outer loop
      vertex 2.4442856311798096 -0.20200000703334808 -5.5511151231257827e-17
      vertex 2.1585714817047119 -0.20200000703334808 -5.5511151231257827e-17
      vertex 2.1585714817047119 -0.20200000703334808 0.71428573131561279
    endloop
  endfacet
  facet normal -0 1 -0
    outer loop
      vertex 2.7300000190734863 -0.20200000703334808 4.2857141494750977
      vertex 2.4442856311798096 -0.20200000703334808 4.2857141494750977
      vertex 2.4442856311798096 -0.20200000703334808 5
    endloop
  endfacet
  facet normal 0 1 0
    outer loop
      vertex 2.7300000190734863 -0.20200000703334808 4.2857141494750977
      vertex 2.4442856311798096 -0.20200000703334808 5
      vertex 2.7300000190734863 -0.20200000703334808 5
    endloop
  endfacet
  facet normal -0 1 -0
    outer loop
      vertex 2.7300000190734863 -0.20200000703334808 3.5714285373687744
      vertex 2.4442856311798096 -0.20200000703334808 3.5714285373687744
      vertex 2.4442856311798096 -0.20200000703334808 4.2857141494750977
    endloop
  endfacet
  facet normal 0 1 0
    outer loop
      vertex 2.7300000190734863 -0.20200000703334808 3.5714285373687744
      vertex 2.4442856311798096 -0.20200000703334808 4.2857141494750977
      vertex 2.7300000190734863 -0.20200000703334808 4.2857141494750977
    endloop
  endfacet
  facet normal -0 1 -0
    outer loop
      vertex 2.7300000190734863 -0.20200000703334808 2.8571429252624512
      vertex 2.4442856311798096 -0.20200000703334808 2.8571429252624512
      vertex 2.4442856311798096 -0.20200000703334808 3.5714285373687744
    endloop
  endfacet
  facet normal 0 1 0
    outer loop
      vertex 2.7300000190734863 -0.20200000703334808 2.8571429252624512
      vertex 2.4442856311798096 -0.20200000703334808 3.5714285373687744
      vertex 2.7300000190734863 -0.20200000703334808 3.5714285373687744
    endloop
  endfacet
  facet normal -0 1 0
    outer loop
      vertex 2.7300000190734863 -0.20200000703334808 0.71428573131561279
      vertex 2.7300000190734863 -0.20200000703334808 -5.5511151231257827e-17
      vertex 2.4442856311798096 -0.20200000703334808 -5.5511151231257827e-17
    endloop
  endfacet
  facet normal 0 1 -0
    outer loop
      vertex 0.73000001907348633 -0.20200000703334808 2.1428570747375488
      vertex 0.73000001907348633 -0.20200000703334808 2.8571429252624512
      vertex 1.0157142877578735 -0.20200000703334808 2.8571429252624512
    endloop
  endfacet
  facet normal -0 1 0
    outer loop
      vertex 1.0157142877578735 -0.20200000703334808 2.8571429252624512
      vertex 1.0157142877578735 -0.20200000703334808 1.4285714626312256
      vertex 0.73000001907348633 -0.20200000703334808 1.4285714626312256
    endloop
  endfacet
  facet normal -0 1 0
    outer loop
      vertex 1.0157142877578735 -0.20200000703334808 2.8571429252624512
      vertex 0.73000001907348633 -0.20200000703334808 1.4285714626312256
      vertex 0.73000001907348633 -0.20200000703334808 2.1428570747375488
    endloop
  endfacet
  facet normal -0 1 -0
    outer loop
      vertex 1.0157142877578735 -0.20200000703334808 2.8571429252624512
      vertex 1.0499999523162842 -0.20200000703334808 2.0655131340026855
      vertex 1.0157142877578735 -0.20200000703334808 1.4285714626312256
    endloop
  endfacet
  facet normal 0 1 0
    outer loop
      vertex 1.0499999523162842 -0.20200000703334808 2.0655131340026855
      vertex 1.0157142877578735 -0.20200000703334808 2.8571429252624512
      vertex 1.0499999523162842 -0.20200000703334808 2.4749069213867188
    endloop
  endfacet
  facet normal 0 1 0
    outer loop
      vertex 1.5033333301544189 -0.20200000703334808 2.4749069213867188
      vertex 1.3014285564422607 -0.20200000703334808 2.8571429252624512
      vertex 1.5871428251266479 -0.20200000703334808 2.8571429252624512
    endloop
  endfacet
  facet normal 0 1 0
    outer loop
      vertex 1.5033333301544189 -0.20200000703334808 2.4749069213867188
      vertex 1.0499999523162842 -0.20200000703334808 2.4749069213867188
      vertex 1.0157142877578735 -0.20200000703334808 2.8571429252624512
    endloop
  endfacet
  facet normal 0 1 -0
    outer loop
      vertex 1.5033333301544189 -0.20200000703334808 2.4749069213867188
      vertex 1.0157142877578735 -0.20200000703334808 2.8571429252624512
      vertex 1.3014285564422607 -0.20200000703334808 2.8571429252624512
    endloop
  endfacet
  facet normal -0 1 0
    outer loop
      vertex 1.0499999523162842 -0.20200000703334808 1.6561193466186523
      vertex 1.0157142877578735 -0.20200000703334808 1.4285714626312256
      vertex 1.0499999523162842 -0.20200000703334808 2.0655131340026855
    endloop
  endfacet
  facet normal -0 1 0
    outer loop
      vertex 1.0157142877578735 -0.20200000703334808 1.4285714626312256
      vertex 1.0157142877578735 -0.20200000703334808 0.71428573131561279
      vertex 0.73000001907348633 -0.20200000703334808 0.71428573131561279
    endloop
  endfacet
  facet normal -0 1 0
    outer loop
      vertex 1.0157142877578735 -0.20200000703334808 1.4285714626312256
      vertex 0.73000001907348633 -0.20200000703334808 0.71428573131561279
      vertex 0.73000001907348633 -0.20200000703334808 1.4285714626312256
    endloop
  endfacet
  facet normal 0 1 0
    outer loop
      vertex 1.0157142877578735 -0.20200000703334808 -5.5511151231257827e-17
      vertex 0.73000001907348633 -0.20200000703334808 0.71428573131561279
      vertex 1.0157142877578735 -0.20200000703334808 0.71428573131561279
    endloop
  endfacet
  facet normal -0 1 0
    outer loop
      vertex 1.0499999523162842 -0.20200000703334808 1.2467256784439087
      vertex 1.0499999523162842 -0.20200000703334808 0.83733189105987549
      vertex 1.0157142877578735 -0.20200000703334808 0.71428573131561279
    endloop
  endfacet
  facet normal 0 1 0
    outer loop
      vertex 1.0157142877578735 -0.20200000703334808 0.71428573131561279
      vertex 1.3014285564422607 -0.20200000703334808 0.71428573131561279
      vertex 1.0157142877578735 -0.20200000703334808 -5.5511151231257827e-17
    endloop
  endfacet
  facet normal 0 1 0
    outer loop
      vertex 1.3014285564422607 -0.20200000703334808 0.71428573131561279
      vertex 1.0157142877578735 -0.20200000703334808 0.71428573131561279
      vertex 1.0499999523162842 -0.20200000703334808 0.83733189105987549
    endloop
  endfacet
  facet normal 0 1 -0
    outer loop
      vertex 1.0157142877578735 -0.20200000703334808 0.71428573131561279
      vertex 1.0157142877578735 -0.20200000703334808 1.4285714626312256
      vertex 1.0499999523162842 -0.20200000703334808 1.2467256784439087
    endloop
  endfacet
  facet normal -0 1 0
    outer loop
      vertex 1.0499999523162842 -0.20200000703334808 1.6561193466186523
      vertex 1.0499999523162842 -0.20200000703334808 1.2467256784439087
      vertex 1.0157142877578735 -0.20200000703334808 1.4285714626312256
    endloop
  endfacet
  facet normal 0 1 0
    outer loop
      vertex 1.3014285564422607 -0.20200000703334808 -5.5511151231257827e-17
      vertex 1.3014285564422607 -0.20200000703334808 0.71428573131561279
      vertex 1.5033333301544189 -0.20200000703334808 0.83733189105987549
    endloop
  endfacet
  facet normal 0 1 -0
    outer loop
      vertex 1.3014285564422607 -0.20200000703334808 -5.5511151231257827e-17
      vertex 1.5033333301544189 -0.20200000703334808 0.83733189105987549
      vertex 1.5871428251266479 -0.20200000703334808 -5.5511151231257827e-17
    endloop
  endfacet
  facet normal 0 1 0
    outer loop
      vertex 1.5871428251266479 -0.20200000703334808 0.71428573131561279
      vertex 1.5871428251266479 -0.20200000703334808 -5.5511151231257827e-17
      vertex 1.5033333301544189 -0.20200000703334808 0.83733189105987549
    endloop
  endfacet
  facet normal -0 1 -0
    outer loop
      vertex 1.5033333301544189 -0.20200000703334808 0.83733189105987549
      vertex 1.9566667079925537 -0.20200000703334808 0.83733189105987549
      vertex 1.8728570938110352 -0.20200000703334808 0.71428573131561279
    endloop
  endfacet
  facet normal -0 1 -0
    outer loop
      vertex 1.5033333301544189 -0.20200000703334808 0.83733189105987549
      vertex 1.8728570938110352 -0.20200000703334808 0.71428573131561279
      vertex 1.5871428251266479 -0.20200000703334808 0.71428573131561279
    endloop
  endfacet
  facet normal -0 1 0
    outer loop
      vertex 1.5033333301544189 -0.20200000703334808 0.83733189105987549
      vertex 1.3014285564422607 -0.20200000703334808 0.71428573131561279
      vertex 1.0499999523162842 -0.20200000703334808 0.83733189105987549
    endloop
  endfacet
  facet normal 0 1 0
    outer loop
      vertex 1.5871428251266479 -0.20200000703334808 2.8571429252624512
      vertex 1.8728570938110352 -0.20200000703334808 2.8571429252624512
      vertex 1.9566667079925537 -0.20200000703334808 2.4749069213867188
    endloop
  endfacet
  facet normal 0 1 -0
    outer loop
      vertex 1.5871428251266479 -0.20200000703334808 2.8571429252624512
      vertex 1.9566667079925537 -0.20200000703334808 2.4749069213867188
      vertex 1.5033333301544189 -0.20200000703334808 2.4749069213867188
    endloop
  endfacet
  facet normal 0 1 0
    outer loop
      vertex 1.9566667079925537 -0.20200000703334808 2.4749069213867188
      vertex 1.8728570938110352 -0.20200000703334808 2.8571429252624512
      vertex 2.1585714817047119 -0.20200000703334808 2.8571429252624512
    endloop
  endfacet
  facet normal 0 1 0
    outer loop
      vertex 2.4100000858306885 -0.20200000703334808 2.4749069213867188
      vertex 1.9566667079925537 -0.20200000703334808 2.4749069213867188
      vertex 2.1585714817047119 -0.20200000703334808 2.8571429252624512
    endloop
  endfacet
  facet normal 0 1 0
    outer loop
      vertex 2.4100000858306885 -0.20200000703334808 2.4749069213867188
      vertex 2.1585714817047119 -0.20200000703334808 2.8571429252624512
      vertex 2.4442856311798096 -0.20200000703334808 2.8571429252624512
    endloop
  endfacet
  facet normal 0 1 0
    outer loop
      vertex 2.4100000858306885 -0.20200000703334808 2.0655131340026855
      vertex 2.4442856311798096 -0.20200000703334808 2.8571429252624512
      vertex 2.4442856311798096 -0.20200000703334808 1.4285714626312256
    endloop
  endfacet
  facet normal 0 1 0
    outer loop
      vertex 2.4442856311798096 -0.20200000703334808 2.8571429252624512
      vertex 2.7300000190734863 -0.20200000703334808 2.8571429252624512
      vertex 2.7300000190734863 -0.20200000703334808 2.1428570747375488
    endloop
  endfacet
  facet normal -0 1 0
    outer loop
      vertex 2.4100000858306885 -0.20200000703334808 2.0655131340026855
      vertex 2.4442856311798096 -0.20200000703334808 1.4285714626312256
      vertex 2.4100000858306885 -0.20200000703334808 1.6561193466186523
    endloop
  endfacet
  facet normal -0 1 0
    outer loop
      vertex 2.7300000190734863 -0.20200000703334808 1.4285714626312256
      vertex 2.4442856311798096 -0.20200000703334808 1.4285714626312256
      vertex 2.7300000190734863 -0.20200000703334808 2.1428570747375488
    endloop
  endfacet
  facet normal -0 1 -0
    outer loop
      vertex 2.4442856311798096 -0.20200000703334808 2.8571429252624512
      vertex 2.7300000190734863 -0.20200000703334808 2.1428570747375488
      vertex 2.4442856311798096 -0.20200000703334808 1.4285714626312256
    endloop
  endfacet
  facet normal -0 1 0
    outer loop
      vertex 2.4442856311798096 -0.20200000703334808 2.8571429252624512
      vertex 2.4100000858306885 -0.20200000703334808 2.0655131340026855
      vertex 2.4100000858306885 -0.20200000703334808 2.4749069213867188
    endloop
  endfacet
  facet normal -0 1 -0
    outer loop
      vertex 2.4442856311798096 -0.20200000703334808 1.4285714626312256
      vertex 2.4100000858306885 -0.20200000703334808 1.2467256784439087
      vertex 2.4100000858306885 -0.20200000703334808 1.6561193466186523
    endloop
  endfacet
  facet normal 0 1 0
    outer loop
      vertex 1.8728570938110352 -0.20200000703334808 -5.5511151231257827e-17
      vertex 1.8728570938110352 -0.20200000703334808 0.71428573131561279
      vertex 1.9566667079925537 -0.20200000703334808 0.83733189105987549
    endloop
  endfacet
  facet normal 0 1 -0
    outer loop
      vertex 1.8728570938110352 -0.20200000703334808 -5.5511151231257827e-17
      vertex 1.9566667079925537 -0.20200000703334808 0.83733189105987549
      vertex 2.1585714817047119 -0.20200000703334808 -5.5511151231257827e-17
    endloop
  endfacet
  facet normal -0 1 -0
    outer loop
      vertex 2.1585714817047119 -0.20200000703334808 0.71428573131561279
      vertex 2.1585714817047119 -0.20200000703334808 -5.5511151231257827e-17
      vertex 1.9566667079925537 -0.20200000703334808 0.83733189105987549
    endloop
  endfacet
  facet normal 0 1 0
    outer loop
      vertex 2.4442856311798096 -0.20200000703334808 -5.5511151231257827e-17
      vertex 2.1585714817047119 -0.20200000703334808 0.71428573131561279
      vertex 2.4442856311798096 -0.20200000703334808 0.71428573131561279
    endloop
  endfacet
  facet normal -0 1 0
    outer loop
      vertex 2.4100000858306885 -0.20200000703334808 1.2467256784439087
      vertex 2.4442856311798096 -0.20200000703334808 0.71428573131561279
      vertex 2.4100000858306885 -0.20200000703334808 0.83733189105987549
    endloop
  endfacet
  facet normal -0 1 -0
    outer loop
      vertex 1.9566667079925537 -0.20200000703334808 0.83733189105987549
      vertex 2.4100000858306885 -0.20200000703334808 0.83733189105987549
      vertex 2.1585714817047119 -0.20200000703334808 0.71428573131561279
    endloop
  endfacet
  facet normal -0 1 0
    outer loop
      vertex 2.7300000190734863 -0.20200000703334808 1.4285714626312256
      vertex 2.7300000190734863 -0.20200000703334808 0.71428573131561279
      vertex 2.4442856311798096 -0.20200000703334808 0.71428573131561279
    endloop
  endfacet
  facet normal -0 1 0
    outer loop
      vertex 2.7300000190734863 -0.20200000703334808 1.4285714626312256
      vertex 2.4442856311798096 -0.20200000703334808 0.71428573131561279
      vertex 2.4442856311798096 -0.20200000703334808 1.4285714626312256
    endloop
  endfacet
  facet normal 0 1 -0
    outer loop
      vertex 2.4442856311798096 -0.20200000703334808 -5.5511151231257827e-17
      vertex 2.4442856311798096 -0.20200000703334808 0.71428573131561279
      vertex 2.7300000190734863 -0.20200000703334808 0.71428573131561279
    endloop
  endfacet
  facet normal -0 1 0
    outer loop
      vertex 2.4442856311798096 -0.20200000703334808 1.4285714626312256
      vertex 2.4442856311798096 -0.20200000703334808 0.71428573131561279
      vertex 2.4100000858306885 -0.20200000703334808 1.2467256784439087
    endloop
  endfacet
  facet normal 0 1 -0
    outer loop
      vertex 2.4100000858306885 -0.20200000703334808 0.83733189105987549
      vertex 2.4442856311798096 -0.20200000703334808 0.71428573131561279
      vertex 2.1585714817047119 -0.20200000703334808 0.71428573131561279
    endloop
  endfacet
  facet normal 1 0 0
    outer loop
      vertex 0.73000001907348633 -1.2020000219345093 5
      vertex 0.73000001907348633 -1.2020000219345093 0
      vertex 0.73000001907348633 -0.20200000703334808 0
    endloop
  endfacet
  facet normal 1 0 0
    outer loop
      vertex 0.73000001907348633 -1.2020000219345093 5
      vertex 0.73000001907348633 -0.20200000703334808 0
      vertex 0.73000001907348633 -0.20200000703334808 5
    endloop
  endfacet
  facet normal -0 -1 -0
    outer loop
      vertex 0.73000001907348633 -1.2020000219345093 5
      vertex 0.73000001907348633 -1.2020000219345093 0
      vertex 2.7300000190734863 -1.2020000219345093 -5.5511151231257827e-17
    endloop
  endfacet
  facet normal -0 -1 -0
    outer loop
      vertex 0.73000001907348633 -1.2020000219345093 5
      vertex 2.7300000190734863 -1.2020000219345093 -5.5511151231257827e-17
      vertex 2.7300000190734863 -1.2020000219345093 5
    endloop
  endfacet
  facet normal -0 0 1
    outer loop
      vertex 0.73000001907348633 -1.2020000219345093 5
      vertex 2.7300000190734863 -1.2020000219345093 5
      vertex 2.7300000190734863 -0.20200000703334808 5
    endloop
  endfacet
  facet normal -0 0 1
    outer loop
      vertex 0.73000001907348633 -1.2020000219345093 5
      vertex 2.7300000190734863 -0.20200000703334808 5
      vertex 0.73000001907348633 -0.20200000703334808 5
    endloop
  endfacet
  facet normal -1 0 -0
    outer loop
      vertex 2.7300000190734863 -0.20200000703334808 5
      vertex 2.7300000190734863 -0.20200000703334808 0
      vertex 2.7300000190734863 -1.2020000219345093 0
    endloop
  endfacet
  facet normal -1 0 -0
    outer loop
      vertex 2.7300000190734863 -0.20200000703334808 5
      vertex 2.7300000190734863 -1.2020000219345093 0
      vertex 2.7300000190734863 -1.2020000219345093 5
    endloop
  endfacet
endsolid OBJECT
