solid OBJECT
  facet normal 0 1 0
    outer loop
      vertex 0.59757143259048462 -4.4408920985006262e-16 2.3057143688201904
      vertex 0 -4.4408920985006262e-16 2.3057143688201904
      vertex 0 -4.4408920985006262e-16 2.690000057220459
    endloop
  endfacet
  facet normal 0 1 0
    outer loop
      vertex 0.59757143259048462 -4.4408920985006262e-16 2.3057143688201904
      vertex 0 -4.4408920985006262e-16 2.690000057220459
      vertex 0.59757143259048462 -4.4408920985006262e-16 2.690000057220459
    endloop
  endfacet
  facet normal 0 1 0
    outer loop
      vertex 0.59757143259048462 -4.4408920985006262e-16 1.9214285612106323
      vertex 0 -4.4408920985006262e-16 1.9214285612106323
      vertex 0 -4.4408920985006262e-16 2.3057143688201904
    endloop
  endfacet
  facet normal 0 1 0
    outer loop
      vertex 0.59757143259048462 -4.4408920985006262e-16 1.9214285612106323
      vertex 0 -4.4408920985006262e-16 2.3057143688201904
      vertex 0.59757143259048462 -4.4408920985006262e-16 2.3057143688201904
    endloop
  endfacet
  facet normal 0 1 0
    outer loop
      vertex 0.59757143259048462 -4.4408920985006262e-16 1.5371428728103638
      vertex 0 -4.4408920985006262e-16 1.5371428728103638
      vertex 0 -4.4408920985006262e-16 1.9214285612106323
    endloop
  endfacet
  facet normal 0 1 0
    outer loop
      vertex 0.59757143259048462 -4.4408920985006262e-16 1.5371428728103638
      vertex 0 -4.4408920985006262e-16 1.9214285612106323
      vertex 0.59757143259048462 -4.4408920985006262e-16 1.9214285612106323
    endloop
  endfacet
  facet normal 0 1 0
    outer loop
      vertex 0.59757143259048462 -4.4408920985006262e-16 1.1528571844100952
      vertex 0 -4.4408920985006262e-16 1.1528571844100952
      vertex 0 -4.4408920985006262e-16 1.5371428728103638
    endloop
  endfacet
  facet normal 0 1 0
    outer loop
      vertex 0.59757143259048462 -4.4408920985006262e-16 1.1528571844100952
      vertex 0 -4.4408920985006262e-16 1.5371428728103638
      vertex 0.59757143259048462 -4.4408920985006262e-16 1.5371428728103638
    endloop
  endfacet
  facet normal 0 1 0
    outer loop
      vertex 0.59757143259048462 -4.4408920985006262e-16 0.76857143640518188
      vertex 0 -4.4408920985006262e-16 0.76857143640518188
      vertex 0 -4.4408920985006262e-16 1.1528571844100952
    endloop
  endfacet
  facet normal 0 1 -0
    outer loop
      vertex 0.59757143259048462 -4.4408920985006262e-16 0.76857143640518188
      vertex 0 -4.4408920985006262e-16 1.1528571844100952
      vertex 0.59757143259048462 -4.4408920985006262e-16 1.1528571844100952
    endloop
  endfacet
  facet normal 0 1 0
    outer loop
      vertex 0.59757143259048462 -4.4408920985006262e-16 0.38428571820259094
      vertex 0 -4.4408920985006262e-16 0.38428571820259094
      vertex 0 -4.4408920985006262e-16 0.76857143640518188
    endloop
  endfacet
  facet normal 0 1 0
    outer loop
      vertex 0.59757143259048462 -4.4408920985006262e-16 0.38428571820259094
      vertex 0 -4.4408920985006262e-16 0.76857143640518188
      vertex 0.59757143259048462 -4.4408920985006262e-16 0.76857143640518188
    endloop
  endfacet
  facet normal 0 1 0
    outer loop
      vertex 0.59757143259048462 -4.4408920985006262e-16 0
      vertex 0 -4.4408920985006262e-16 0
      vertex 0 -4.4408920985006262e-16 0.38428571820259094
    endloop
  endfacet
  facet normal 0 1 0
    outer loop
      vertex 0.59757143259048462 -4.4408920985006262e-16 0
      vertex 0 -4.4408920985006262e-16 0.38428571820259094
      vertex 0.59757143259048462 -4.4408920985006262e-16 0.38428571820259094
    endloop
  endfacet
  facet normal 0 1 0
    outer loop
      vertex 1.1951428651809692 -4.4408920985006262e-16 0
      vertex 0.59757143259048462 -4.4408920985006262e-16 0
      vertex 0.59757143259048462 -4.4408920985006262e-16 0.38428571820259094
    endloop
  endfacet
  facet normal 0 1 -0
    outer loop
      vertex 2.9878571033477783 -4.4408920985006262e-16 0.38428571820259094
      vertex 2.9878571033477783 -4.4408920985006262e-16 0
      vertex 2.3902857303619385 -4.4408920985006262e-16 0
    endloop
  endfacet
  facet normal 0 1 0
    outer loop
      vertex 3.5854284763336182 -4.4408920985006262e-16 2.3057143688201904
      vertex 2.9878571033477783 -4.4408920985006262e-16 2.3057143688201904
      vertex 2.9878571033477783 -4.4408920985006262e-16 2.690000057220459
    endloop
  endfacet
  facet normal 0 1 0
    outer loop
      vertex 3.5854284763336182 -4.4408920985006262e-16 2.3057143688201904
      vertex 2.9878571033477783 -4.4408920985006262e-16 2.690000057220459
      vertex 3.5854284763336182 -4.4408920985006262e-16 2.690000057220459
    endloop
  endfacet
  facet normal 0 1 0
    outer loop
      vertex 3.5854284763336182 -4.4408920985006262e-16 1.9214285612106323
      vertex 2.9878571033477783 -4.4408920985006262e-16 1.9214285612106323
      vertex 2.9878571033477783 -4.4408920985006262e-16 2.3057143688201904
    endloop
  endfacet
  facet normal 0 1 0
    outer loop
      vertex 3.5854284763336182 -4.4408920985006262e-16 1.9214285612106323
      vertex 2.9878571033477783 -4.4408920985006262e-16 2.3057143688201904
      vertex 3.5854284763336182 -4.4408920985006262e-16 2.3057143688201904
    endloop
  endfacet
  facet normal 0 1 0
    outer loop
      vertex 3.5854284763336182 -4.4408920985006262e-16 1.5371428728103638
      vertex 2.9878571033477783 -4.4408920985006262e-16 1.5371428728103638
      vertex 2.9878571033477783 -4.4408920985006262e-16 1.9214285612106323
    endloop
  endfacet
  facet normal 0 1 0
    outer loop
      vertex 3.5854284763336182 -4.4408920985006262e-16 1.5371428728103638
      vertex 2.9878571033477783 -4.4408920985006262e-16 1.9214285612106323
      vertex 3.5854284763336182 -4.4408920985006262e-16 1.9214285612106323
    endloop
  endfacet
  facet normal 0 1 0
    outer loop
      vertex 3.5854284763336182 -4.4408920985006262e-16 1.1528571844100952
      vertex 2.9878571033477783 -4.4408920985006262e-16 1.1528571844100952
      vertex 2.9878571033477783 -4.4408920985006262e-16 1.5371428728103638
    endloop
  endfacet
  facet normal 0 1 0
    outer loop
      vertex 3.5854284763336182 -4.4408920985006262e-16 1.1528571844100952
      vertex 2.9878571033477783 -4.4408920985006262e-16 1.5371428728103638
      vertex 3.5854284763336182 -4.4408920985006262e-16 1.5371428728103638
    endloop
  endfacet
  facet normal 0 1 0
    outer loop
      vertex 3.5854284763336182 -4.4408920985006262e-16 0.76857143640518188
      vertex 2.9878571033477783 -4.4408920985006262e-16 0.76857143640518188
      vertex 2.9878571033477783 -4.4408920985006262e-16 1.1528571844100952
    endloop
  endfacet
  facet normal 0 1 0
    outer loop
      vertex 3.5854284763336182 -4.4408920985006262e-16 0.76857143640518188
      vertex 2.9878571033477783 -4.4408920985006262e-16 1.1528571844100952
      vertex 3.5854284763336182 -4.4408920985006262e-16 1.1528571844100952
    endloop
  endfacet
  facet normal 0 1 0
    outer loop
      vertex 3.5854284763336182 -4.4408920985006262e-16 0.38428571820259094
      vertex 2.9878571033477783 -4.4408920985006262e-16 0.38428571820259094
      vertex 2.9878571033477783 -4.4408920985006262e-16 0.76857143640518188
    endloop
  endfacet
  facet normal 0 1 0
    outer loop
      vertex 3.5854284763336182 -4.4408920985006262e-16 0.38428571820259094
      vertex 2.9878571033477783 -4.4408920985006262e-16 0.76857143640518188
      vertex 3.5854284763336182 -4.4408920985006262e-16 0.76857143640518188
    endloop
  endfacet
  facet normal 0 1 0
    outer loop
      vertex 3.5854284763336182 -4.4408920985006262e-16 0
      vertex 2.9878571033477783 -4.4408920985006262e-16 0
      vertex 2.9878571033477783 -4.4408920985006262e-16 0.38428571820259094
    endloop
  endfacet
  facet normal 0 1 0
    outer loop
      vertex 3.5854284763336182 -4.4408920985006262e-16 0
      vertex 2.9878571033477783 -4.4408920985006262e-16 0.38428571820259094
      vertex 3.5854284763336182 -4.4408920985006262e-16 0.38428571820259094
    endloop
  endfacet
  facet normal 0 1 0
    outer loop
      vertex 4.1830000877380371 -4.4408920985006262e-16 2.3057143688201904
      vertex 3.5854284763336182 -4.4408920985006262e-16 2.3057143688201904
      vertex 3.5854284763336182 -4.4408920985006262e-16 2.690000057220459
    endloop
  endfacet
  facet normal 0 1 -0
    outer loop
      vertex 4.1830000877380371 -4.4408920985006262e-16 2.3057143688201904
      vertex 3.5854284763336182 -4.4408920985006262e-16 2.690000057220459
      vertex 4.1830000877380371 -4.4408920985006262e-16 2.690000057220459
    endloop
  endfacet
  facet normal 0 1 0
    outer loop
      vertex 4.1830000877380371 -4.4408920985006262e-16 1.9214285612106323
      vertex 3.5854284763336182 -4.4408920985006262e-16 1.9214285612106323
      vertex 3.5854284763336182 -4.4408920985006262e-16 2.3057143688201904
    endloop
  endfacet
  facet normal 0 1 0
    outer loop
      vertex 4.1830000877380371 -4.4408920985006262e-16 1.9214285612106323
      vertex 3.5854284763336182 -4.4408920985006262e-16 2.3057143688201904
      vertex 4.1830000877380371 -4.4408920985006262e-16 2.3057143688201904
    endloop
  endfacet
  facet normal 0 1 0
    outer loop
      vertex 4.1830000877380371 -4.4408920985006262e-16 1.5371428728103638
      vertex 3.5854284763336182 -4.4408920985006262e-16 1.5371428728103638
      vertex 3.5854284763336182 -4.4408920985006262e-16 1.9214285612106323
    endloop
  endfacet
  facet normal 0 1 -0
    outer loop
      vertex 4.1830000877380371 -4.4408920985006262e-16 1.5371428728103638
      vertex 3.5854284763336182 -4.4408920985006262e-16 1.9214285612106323
      vertex 4.1830000877380371 -4.4408920985006262e-16 1.9214285612106323
    endloop
  endfacet
  facet normal 0 1 0
    outer loop
      vertex 4.1830000877380371 -4.4408920985006262e-16 1.1528571844100952
      vertex 3.5854284763336182 -4.4408920985006262e-16 1.1528571844100952
      vertex 3.5854284763336182 -4.4408920985006262e-16 1.5371428728103638
    endloop
  endfacet
  facet normal 0 1 -0
    outer loop
      vertex 4.1830000877380371 -4.4408920985006262e-16 1.1528571844100952
      vertex 3.5854284763336182 -4.4408920985006262e-16 1.5371428728103638
      vertex 4.1830000877380371 -4.4408920985006262e-16 1.5371428728103638
    endloop
  endfacet
  facet normal 0 1 0
    outer loop
      vertex 4.1830000877380371 -4.4408920985006262e-16 0.76857143640518188
      vertex 3.5854284763336182 -4.4408920985006262e-16 0.76857143640518188
      vertex 3.5854284763336182 -4.4408920985006262e-16 1.1528571844100952
    endloop
  endfacet
  facet normal 0 1 0
    outer loop
      vertex 4.1830000877380371 -4.4408920985006262e-16 0.76857143640518188
      vertex 3.5854284763336182 -4.4408920985006262e-16 1.1528571844100952
      vertex 4.1830000877380371 -4.4408920985006262e-16 1.1528571844100952
    endloop
  endfacet
  facet normal 0 1 0
    outer loop
      vertex 4.1830000877380371 -4.4408920985006262e-16 0.38428571820259094
      vertex 3.5854284763336182 -4.4408920985006262e-16 0.38428571820259094
      vertex 3.5854284763336182 -4.4408920985006262e-16 0.76857143640518188
    endloop
  endfacet
  facet normal 0 1 0
    outer loop
      vertex 4.1830000877380371 -4.4408920985006262e-16 0.38428571820259094
      vertex 3.5854284763336182 -4.4408920985006262e-16 0.76857143640518188
      vertex 4.1830000877380371 -4.4408920985006262e-16 0.76857143640518188
    endloop
  endfacet
  facet normal 0 1 0
    outer loop
      vertex 4.1830000877380371 -4.4408920985006262e-16 0
      vertex 3.5854284763336182 -4.4408920985006262e-16 0
      vertex 3.5854284763336182 -4.4408920985006262e-16 0.38428571820259094
    endloop
  endfacet
  facet normal 0 1 0
    outer loop
      vertex 4.1830000877380371 -4.4408920985006262e-16 0
      vertex 3.5854284763336182 -4.4408920985006262e-16 0.38428571820259094
      vertex 4.1830000877380371 -4.4408920985006262e-16 0.38428571820259094
    endloop
  endfacet
  facet normal -2.9447030226070336e-15 1 0
    outer loop
      vertex 0.59757143259048462 -4.4408920985006262e-16 2.3057143688201904
      vertex 0.59757143259048462 -4.4408920985006262e-16 2.690000057220459
      vertex 1.0499999523162842 8.8817841970012523e-16 2.4749069213867188
    endloop
  endfacet
  facet normal -0 1 6.1939104861997364e-15
    outer loop
      vertex 1.1951428651809692 -4.4408920985006262e-16 2.690000057220459
      vertex 1.0499999523162842 8.8817841970012523e-16 2.4749069213867188
      vertex 0.59757143259048462 -4.4408920985006262e-16 2.690000057220459
    endloop
  endfacet
  facet normal -2.9447030226070336e-15 1 0
    outer loop
      vertex 0.59757143259048462 -4.4408920985006262e-16 1.9214285612106323
      vertex 0.59757143259048462 -4.4408920985006262e-16 2.3057143688201904
      vertex 1.0499999523162842 8.8817841970012523e-16 2.4749069213867188
    endloop
  endfacet
  facet normal -2.9447030226070336e-15 1 0
    outer loop
      vertex 0.59757143259048462 -4.4408920985006262e-16 1.9214285612106323
      vertex 1.0499999523162842 8.8817841970012523e-16 2.4749069213867188
      vertex 1.0499999523162842 8.8817841970012523e-16 2.069225549697876
    endloop
  endfacet
  facet normal -2.9447030226070332e-15 0.99999999999999989 0
    outer loop
      vertex 1.0499999523162842 8.8817841970012523e-16 2.069225549697876
      vertex 1.0499999523162842 8.8817841970012523e-16 1.6635440587997437
      vertex 0.59757143259048462 -4.4408920985006262e-16 1.9214285612106323
    endloop
  endfacet
  facet normal -2.9447030226070336e-15 1 0
    outer loop
      vertex 0.59757143259048462 -4.4408920985006262e-16 1.5371428728103638
      vertex 0.59757143259048462 -4.4408920985006262e-16 1.9214285612106323
      vertex 1.0499999523162842 8.8817841970012523e-16 1.6635440587997437
    endloop
  endfacet
  facet normal -0 1 6.1939104861997364e-15
    outer loop
      vertex 1.1951428651809692 -4.4408920985006262e-16 2.690000057220459
      vertex 1.7927142381668091 -4.4408920985006262e-16 2.690000057220459
      vertex 1.7300000190734863 8.8817841970012523e-16 2.4749069213867188
    endloop
  endfacet
  facet normal 0 1 6.1939104861997356e-15
    outer loop
      vertex 1.1951428651809692 -4.4408920985006262e-16 2.690000057220459
      vertex 1.7300000190734863 8.8817841970012523e-16 2.4749069213867188
      vertex 1.3899999856948853 8.8817841970012523e-16 2.4749069213867188
    endloop
  endfacet
  facet normal 0 1 6.1939104861997364e-15
    outer loop
      vertex 1.1951428651809692 -4.4408920985006262e-16 2.690000057220459
      vertex 1.3899999856948853 8.8817841970012523e-16 2.4749069213867188
      vertex 1.0499999523162842 8.8817841970012523e-16 2.4749069213867188
    endloop
  endfacet
  facet normal -2.9447030226070336e-15 1 0
    outer loop
      vertex 1.0499999523162842 8.8817841970012523e-16 1.2578626871109009
      vertex 1.0499999523162842 8.8817841970012523e-16 0.85218137502670288
      vertex 0.59757143259048462 -4.4408920985006262e-16 1.1528571844100952
    endloop
  endfacet
  facet normal -2.9447030226070336e-15 1 0
    outer loop
      vertex 0.59757143259048462 -4.4408920985006262e-16 0.38428571820259094
      vertex 0.59757143259048462 -4.4408920985006262e-16 0.76857143640518188
      vertex 1.0499999523162842 8.8817841970012523e-16 0.85218137502670288
    endloop
  endfacet
  facet normal -2.9447030226070336e-15 1 0
    outer loop
      vertex 0.59757143259048462 -4.4408920985006262e-16 0.38428571820259094
      vertex 1.0499999523162842 8.8817841970012523e-16 0.85218137502670288
      vertex 1.0499999523162842 8.8817841970012523e-16 0.44650000333786011
    endloop
  endfacet
  facet normal -2.9447030226070336e-15 1 -0
    outer loop
      vertex 0.59757143259048462 -4.4408920985006262e-16 1.1528571844100952
      vertex 1.0499999523162842 8.8817841970012523e-16 0.85218137502670288
      vertex 0.59757143259048462 -4.4408920985006262e-16 0.76857143640518188
    endloop
  endfacet
  facet normal -2.9447030226070336e-15 1 0
    outer loop
      vertex 0.59757143259048462 -4.4408920985006262e-16 1.1528571844100952
      vertex 0.59757143259048462 -4.4408920985006262e-16 1.5371428728103638
      vertex 1.0499999523162842 8.8817841970012523e-16 1.6635440587997437
    endloop
  endfacet
  facet normal -2.9447030226070336e-15 1 0
    outer loop
      vertex 0.59757143259048462 -4.4408920985006262e-16 1.1528571844100952
      vertex 1.0499999523162842 8.8817841970012523e-16 1.6635440587997437
      vertex 1.0499999523162842 8.8817841970012523e-16 1.2578626871109009
    endloop
  endfacet
  facet normal -0 1 0
    outer loop
      vertex 1.1951428651809692 -4.4408920985006262e-16 0
      vertex 0.59757143259048462 -4.4408920985006262e-16 0.38428571820259094
      vertex 1.7927142381668091 -4.4408920985006262e-16 0.38428571820259094
    endloop
  endfacet
  facet normal 0 1 -2.1414175645569345e-14
    outer loop
      vertex 1.7927142381668091 -4.4408920985006262e-16 0.38428571820259094
      vertex 0.59757143259048462 -4.4408920985006262e-16 0.38428571820259094
      vertex 1.0499999523162842 8.8817841970012523e-16 0.44650000333786011
    endloop
  endfacet
  facet normal 0 1 -2.1414175645569345e-14
    outer loop
      vertex 1.7927142381668091 -4.4408920985006262e-16 0.38428571820259094
      vertex 1.0499999523162842 8.8817841970012523e-16 0.44650000333786011
      vertex 1.3899999856948853 8.8817841970012523e-16 0.44650000333786011
    endloop
  endfacet
  facet normal 0 1 -2.1414175645569345e-14
    outer loop
      vertex 1.7300000190734863 8.8817841970012523e-16 0.44650000333786011
      vertex 1.7927142381668091 -4.4408920985006262e-16 0.38428571820259094
      vertex 1.3899999856948853 8.8817841970012523e-16 0.44650000333786011
    endloop
  endfacet
  facet normal 0 1 6.1939104861997364e-15
    outer loop
      vertex 2.0699999332427979 8.8817841970012523e-16 2.4749069213867188
      vertex 1.7300000190734863 8.8817841970012523e-16 2.4749069213867188
      vertex 1.7927142381668091 -4.4408920985006262e-16 2.690000057220459
    endloop
  endfacet
  facet normal 0 1 6.1939104861997364e-15
    outer loop
      vertex 2.4100000858306885 8.8817841970012523e-16 2.4749069213867188
      vertex 2.0699999332427979 8.8817841970012523e-16 2.4749069213867188
      vertex 2.3902857303619385 -4.4408920985006262e-16 2.690000057220459
    endloop
  endfacet
  facet normal -0 1 6.1939104861997364e-15
    outer loop
      vertex 1.7927142381668091 -4.4408920985006262e-16 2.690000057220459
      vertex 2.3902857303619385 -4.4408920985006262e-16 2.690000057220459
      vertex 2.0699999332427979 8.8817841970012523e-16 2.4749069213867188
    endloop
  endfacet
  facet normal 2.3055316266203979e-15 1 -1.8243814628955655e-31
    outer loop
      vertex 2.4100000858306885 8.8817841970012523e-16 2.069225549697876
      vertex 2.4100000858306885 8.8817841970012523e-16 2.4749069213867188
      vertex 2.9878571033477783 -4.4408920985006262e-16 2.3057143688201904
    endloop
  endfacet
  facet normal 2.3055316266203979e-15 1 0
    outer loop
      vertex 2.4100000858306885 8.8817841970012523e-16 2.069225549697876
      vertex 2.9878571033477783 -4.4408920985006262e-16 2.3057143688201904
      vertex 2.9878571033477783 -4.4408920985006262e-16 1.9214285612106323
    endloop
  endfacet
  facet normal -0 1 6.1939104861997364e-15
    outer loop
      vertex 2.4100000858306885 8.8817841970012523e-16 2.4749069213867188
      vertex 2.3902857303619385 -4.4408920985006262e-16 2.690000057220459
      vertex 2.9878571033477783 -4.4408920985006262e-16 2.690000057220459
    endloop
  endfacet
  facet normal 2.3055316266203979e-15 1 0
    outer loop
      vertex 2.9878571033477783 -4.4408920985006262e-16 1.9214285612106323
      vertex 2.9878571033477783 -4.4408920985006262e-16 1.5371428728103638
      vertex 2.4100000858306885 8.8817841970012523e-16 1.6635440587997437
    endloop
  endfacet
  facet normal 2.3055316266203975e-15 0.99999999999999989 0
    outer loop
      vertex 2.9878571033477783 -4.4408920985006262e-16 1.9214285612106323
      vertex 2.4100000858306885 8.8817841970012523e-16 1.6635440587997437
      vertex 2.4100000858306885 8.8817841970012523e-16 2.069225549697876
    endloop
  endfacet
  facet normal 2.3055316266203979e-15 1 -1.8243814628955655e-31
    outer loop
      vertex 2.4100000858306885 8.8817841970012523e-16 1.2578626871109009
      vertex 2.4100000858306885 8.8817841970012523e-16 1.6635440587997437
      vertex 2.9878571033477783 -4.4408920985006262e-16 1.5371428728103638
    endloop
  endfacet
  facet normal 2.3055316266203979e-15 1 0
    outer loop
      vertex 2.9878571033477783 -4.4408920985006262e-16 2.690000057220459
      vertex 2.9878571033477783 -4.4408920985006262e-16 2.3057143688201904
      vertex 2.4100000858306885 8.8817841970012523e-16 2.4749069213867188
    endloop
  endfacet
  facet normal 2.3055316266203979e-15 1 0
    outer loop
      vertex 2.9878571033477783 -4.4408920985006262e-16 1.1528571844100952
      vertex 2.4100000858306885 8.8817841970012523e-16 1.2578626871109009
      vertex 2.9878571033477783 -4.4408920985006262e-16 1.5371428728103638
    endloop
  endfacet
  facet normal 0 1 -2.1414175645569345e-14
    outer loop
      vertex 2.3902857303619385 -4.4408920985006262e-16 0.38428571820259094
      vertex 1.7927142381668091 -4.4408920985006262e-16 0.38428571820259094
      vertex 2.0699999332427979 8.8817841970012523e-16 0.44650000333786011
    endloop
  endfacet
  facet normal -0 1 -2.1414175645569345e-14
    outer loop
      vertex 2.3902857303619385 -4.4408920985006262e-16 0.38428571820259094
      vertex 2.0699999332427979 8.8817841970012523e-16 0.44650000333786011
      vertex 2.4100000858306885 8.8817841970012523e-16 0.44650000333786011
    endloop
  endfacet
  facet normal -0 1 -2.1414175645569345e-14
    outer loop
      vertex 2.0699999332427979 8.8817841970012523e-16 0.44650000333786011
      vertex 1.7927142381668091 -4.4408920985006262e-16 0.38428571820259094
      vertex 1.7300000190734863 8.8817841970012523e-16 0.44650000333786011
    endloop
  endfacet
  facet normal -0 1 0
    outer loop
      vertex 1.7927142381668091 -4.4408920985006262e-16 0
      vertex 1.7927142381668091 -4.4408920985006262e-16 0.38428571820259094
      vertex 2.3902857303619385 -4.4408920985006262e-16 0.38428571820259094
    endloop
  endfacet
  facet normal 0 1 -0
    outer loop
      vertex 1.7927142381668091 -4.4408920985006262e-16 0
      vertex 2.3902857303619385 -4.4408920985006262e-16 0.38428571820259094
      vertex 2.3902857303619385 -4.4408920985006262e-16 0
    endloop
  endfacet
  facet normal 0 1 0
    outer loop
      vertex 2.9878571033477783 -4.4408920985006262e-16 0.38428571820259094
      vertex 2.3902857303619385 -4.4408920985006262e-16 0
      vertex 2.3902857303619385 -4.4408920985006262e-16 0.38428571820259094
    endloop
  endfacet
  facet normal 0 1 0
    outer loop
      vertex 1.7927142381668091 -4.4408920985006262e-16 0
      vertex 1.1951428651809692 -4.4408920985006262e-16 0
      vertex 1.7927142381668091 -4.4408920985006262e-16 0.38428571820259094
    endloop
  endfacet
  facet normal 2.3055316266203979e-15 1 0
    outer loop
      vertex 2.9878571033477783 -4.4408920985006262e-16 1.1528571844100952
      vertex 2.9878571033477783 -4.4408920985006262e-16 0.76857143640518188
      vertex 2.4100000858306885 8.8817841970012523e-16 0.85218137502670288
    endloop
  endfacet
  facet normal 2.3055316266203979e-15 1 -0
    outer loop
      vertex 2.9878571033477783 -4.4408920985006262e-16 1.1528571844100952
      vertex 2.4100000858306885 8.8817841970012523e-16 0.85218137502670288
      vertex 2.4100000858306885 8.8817841970012523e-16 1.2578626871109009
    endloop
  endfacet
  facet normal 2.3055316266203975e-15 0.99999999999999989 0
    outer loop
      vertex 2.9878571033477783 -4.4408920985006262e-16 0.76857143640518188
      vertex 2.9878571033477783 -4.4408920985006262e-16 0.38428571820259094
      vertex 2.4100000858306885 8.8817841970012523e-16 0.44650000333786011
    endloop
  endfacet
  facet normal 2.3055316266203979e-15 1 1.8243814628955655e-31
    outer loop
      vertex 2.9878571033477783 -4.4408920985006262e-16 0.76857143640518188
      vertex 2.4100000858306885 8.8817841970012523e-16 0.44650000333786011
      vertex 2.4100000858306885 8.8817841970012523e-16 0.85218137502670288
    endloop
  endfacet
  facet normal 0 1 -2.1414175645569345e-14
    outer loop
      vertex 2.3902857303619385 -4.4408920985006262e-16 0.38428571820259094
      vertex 2.4100000858306885 8.8817841970012523e-16 0.44650000333786011
      vertex 2.9878571033477783 -4.4408920985006262e-16 0.38428571820259094
    endloop
  endfacet
  facet normal 1 -0 -0
    outer loop
      vertex 0 -4.4408920985006262e-16 2.690000057220459
      vertex 0 -4.4408920985006262e-16 0
      vertex 0 3.1840000152587891 0
    endloop
  endfacet
  facet normal 1 0 0
    outer loop
      vertex 0 -4.4408920985006262e-16 2.690000057220459
      vertex 0 3.1840000152587891 0
      vertex 0 3.1840000152587891 2.690000057220459
    endloop
  endfacet
  facet normal 0 -0 -1
    outer loop
      vertex 0 -4.4408920985006262e-16 0
      vertex 0 3.1840000152587891 0
      vertex 4.1830000877380371 3.1840000152587891 0
    endloop
  endfacet
  facet normal 0 0 -1
    outer loop
      vertex 0 -4.4408920985006262e-16 0
      vertex 4.1830000877380371 3.1840000152587891 0
      vertex 4.1830000877380371 -4.4408920985006262e-16 0
    endloop
  endfacet
  facet normal 0 -0 -1
    outer loop
      vertex 0 -4.4408920985006262e-16 2.690000057220459
      vertex 0 3.1840000152587891 2.690000057220459
      vertex 4.1830000877380371 3.1840000152587891 2.690000057220459
    endloop
  endfacet
  facet normal 0 0 -1
    outer loop
      vertex 0 -4.4408920985006262e-16 2.690000057220459
      vertex 4.1830000877380371 3.1840000152587891 2.690000057220459
      vertex 4.1830000877380371 -4.4408920985006262e-16 2.690000057220459
    endloop
  endfacet
  facet normal -1 0 0
    outer loop
      vertex 4.1830000877380371 -4.4408920985006262e-16 2.690000057220459
      vertex 4.1830000877380371 3.1840000152587891 2.690000057220459
      vertex 4.1830000877380371 3.1840000152587891 0
    endloop
  endfacet
  facet normal -1 0 0
    outer loop
      vertex 4.1830000877380371 -4.4408920985006262e-16 2.690000057220459
      vertex 4.1830000877380371 3.1840000152587891 0
      vertex 4.1830000877380371 -4.4408920985006262e-16 0
    endloop
  endfacet
  facet normal 0 -1 0
    outer loop
      vertex 0 3.1840000152587891 2.690000057220459
      vertex 0 3.1840000152587891 0
      vertex 4.1830000877380371 3.1840000152587891 0
    endloop
  endfacet
  facet normal 0 -1 -0
    outer loop
      vertex 0 3.1840000152587891 2.690000057220459
      vertex 4.1830000877380371 3.1840000152587891 0
      vertex 4.1830000877380371 3.1840000152587891 2.690000057220459
    endloop
  endfacet
endsolid OBJECT
