solid OBJECT
  facet normal 0 -0 -1
    outer loop
      vertex 1.7300000190734863 -0.20200000703334808 0.83733189105987549
      vertex 1.7300000190734863 8.8817841970012523e-16 0.83733189105987549
      vertex 2.4100000858306885 8.8817841970012523e-16 0.83733189105987549
    endloop
  endfacet
  facet normal 0 0 -1
    outer loop
      vertex 1.7300000190734863 -0.20200000703334808 0.83733189105987549
      vertex 2.4100000858306885 8.8817841970012523e-16 0.83733189105987549
      vertex 2.4100000858306885 -0.20200000703334808 0.83733189105987549
    endloop
  endfacet
  facet normal 0 -0 -1
    outer loop
      vertex 1.0499999523162842 -0.20200000703334808 0.83733189105987549
      vertex 1.0499999523162842 8.8817841970012523e-16 0.83733189105987549
      vertex 1.7300000190734863 8.8817841970012523e-16 0.83733189105987549
    endloop
  endfacet
  facet normal 0 0 -1
    outer loop
      vertex 1.0499999523162842 -0.20200000703334808 0.83733189105987549
      vertex 1.7300000190734863 8.8817841970012523e-16 0.83733189105987549
      vertex 1.7300000190734863 -0.20200000703334808 0.83733189105987549
    endloop
  endfacet
  facet normal -1 -0 0
    outer loop
      vertex 1.0499999523162842 -0.20200000703334808 1.6561193466186523
      vertex 1.0499999523162842 -0.20200000703334808 2.4749069213867188
      vertex 1.0499999523162842 8.8817841970012523e-16 2.4749069213867188
    endloop
  endfacet
  facet normal -1 -0 0
    outer loop
      vertex 1.0499999523162842 -0.20200000703334808 1.6561193466186523
      vertex 1.0499999523162842 8.8817841970012523e-16 2.4749069213867188
      vertex 1.0499999523162842 8.8817841970012523e-16 1.6561193466186523
    endloop
  endfacet
  facet normal -1 -0 0
    outer loop
      vertex 1.0499999523162842 -0.20200000703334808 0.83733189105987549
      vertex 1.0499999523162842 -0.20200000703334808 1.6561193466186523
      vertex 1.0499999523162842 8.8817841970012523e-16 1.6561193466186523
    endloop
  endfacet
  facet normal -1 -0 0
    outer loop
      vertex 1.0499999523162842 -0.20200000703334808 0.83733189105987549
      vertex 1.0499999523162842 8.8817841970012523e-16 1.6561193466186523
      vertex 1.0499999523162842 8.8817841970012523e-16 0.83733189105987549
    endloop
  endfacet
  facet normal -1 -0 0
    outer loop
      vertex 2.4100000858306885 -0.20200000703334808 1.6561193466186523
      vertex 2.4100000858306885 -0.20200000703334808 2.4749069213867188
      vertex 2.4100000858306885 8.8817841970012523e-16 2.4749069213867188
    endloop
  endfacet
  facet normal -1 -0 0
    outer loop
      vertex 2.4100000858306885 -0.20200000703334808 1.6561193466186523
      vertex 2.4100000858306885 8.8817841970012523e-16 2.4749069213867188
      vertex 2.4100000858306885 8.8817841970012523e-16 1.6561193466186523
    endloop
  endfacet
  facet normal -1 -0 0
    outer loop
      vertex 2.4100000858306885 -0.20200000703334808 0.83733189105987549
      vertex 2.4100000858306885 -0.20200000703334808 1.6561193466186523
      vertex 2.4100000858306885 8.8817841970012523e-16 1.6561193466186523
    endloop
  endfacet
  facet normal -1 -0 0
    outer loop
      vertex 2.4100000858306885 -0.20200000703334808 0.83733189105987549
      vertex 2.4100000858306885 8.8817841970012523e-16 1.6561193466186523
      vertex 2.4100000858306885 8.8817841970012523e-16 0.83733189105987549
    endloop
  endfacet
  facet normal 0 -0 -1
    outer loop
      vertex 1.7300000190734863 -0.20200000703334808 2.4749069213867188
      vertex 1.7300000190734863 8.8817841970012523e-16 2.4749069213867188
      vertex 2.4100000858306885 8.8817841970012523e-16 2.4749069213867188
    endloop
  endfacet
  facet normal 0 0 -1
    outer loop
      vertex 1.7300000190734863 -0.20200000703334808 2.4749069213867188
      vertex 2.4100000858306885 8.8817841970012523e-16 2.4749069213867188
      vertex 2.4100000858306885 -0.20200000703334808 2.4749069213867188
    endloop
  endfacet
  facet normal 0 -0 -1
    outer loop
      vertex 1.0499999523162842 -0.20200000703334808 2.4749069213867188
      vertex 1.0499999523162842 8.8817841970012523e-16 2.4749069213867188
      vertex 1.7300000190734863 8.8817841970012523e-16 2.4749069213867188
    endloop
  endfacet
  facet normal 0 0 -1
    outer loop
      vertex 1.0499999523162842 -0.20200000703334808 2.4749069213867188
      vertex 1.7300000190734863 8.8817841970012523e-16 2.4749069213867188
      vertex 1.7300000190734863 -0.20200000703334808 2.4749069213867188
    endloop
  endfacet
endsolid OBJECT
