# Wavefront OBJ file written 2025-10-26T22:26:25
o atmosphere_outlet_edgeMesh

# points : 56
# lines  : 63

# <points count="56">
v 0.73 -0.202 -5.55112e-17
v 1.002 -0.202 0.396501
v 0.73 -0.202 3
v 1.002 -0.202 2.5235
v 2.458 -0.202 0.396501
v 2.73 -0.202 0
v 2.458 -0.202 2.5235
v 2.73 -0.202 3
v 2.73 -1.202 3
v 2.73 -1.202 -5.55112e-17
v 0.73 -1.202 3
v 0.73 -1.202 0
v 0.73 -0.202 0.428571
v 1.01571 -0.202 0
v 1.002 -0.202 0.700358
v 0.73 -0.202 1.28571
v 0.73 -0.202 0.857143
v 1.002 -0.202 1.00421
v 1.002 -0.202 1.30807
v 1.30143 -0.202 0
v 1.2932 -0.202 0.396501
v 1.58714 -0.202 0
v 1.002 -0.202 1.61193
v 0.73 -0.202 1.71429
v 1.5844 -0.202 0.396501
v 0.73 -0.202 2.14286
v 1.002 -0.202 1.91579
v 1.002 -0.202 2.21964
v 1.01571 -0.202 3
v 0.73 -0.202 2.57143
v 1.2932 -0.202 2.5235
v 1.5844 -0.202 2.5235
v 1.30143 -0.202 3
v 1.58714 -0.202 3
v 1.87286 -0.202 3
v 1.8756 -0.202 2.5235
v 1.87286 -0.202 0
v 1.8756 -0.202 0.396501
v 2.15857 -0.202 0
v 2.1668 -0.202 0.396501
v 2.44429 -0.202 0
v 2.458 -0.202 0.700358
v 2.73 -0.202 0.428571
v 2.73 -0.202 0.857143
v 2.458 -0.202 1.00421
v 2.458 -0.202 1.30807
v 2.73 -0.202 1.28571
v 2.73 -0.202 1.71429
v 2.458 -0.202 1.61193
v 2.1668 -0.202 2.5235
v 2.15857 -0.202 3
v 2.44429 -0.202 3
v 2.458 -0.202 2.21964
v 2.458 -0.202 1.91579
v 2.73 -0.202 2.14286
v 2.73 -0.202 2.57143
# </points>

# <edges count="63">
l 9 10
l 8 9
l 11 3
l 11 9
l 12 11
l 13 1
l 1 14
l 2 15
l 16 17
l 18 19
l 15 18
l 17 13
l 14 20
l 21 2
l 20 22
l 19 23
l 24 16
l 25 21
l 26 24
l 27 28
l 23 27
l 29 3
l 3 30
l 28 4
l 30 26
l 31 32
l 33 29
l 34 33
l 35 34
l 32 36
l 4 31
l 22 37
l 38 25
l 37 39
l 40 38
l 39 41
l 5 40
l 42 5
l 41 6
l 43 44
l 45 42
l 46 45
l 44 47
l 47 48
l 49 46
l 6 43
l 36 50
l 51 35
l 52 51
l 50 7
l 53 54
l 48 55
l 54 49
l 55 56
l 7 53
l 56 8
l 8 52
l 10 6
l 6 8
l 10 12
l 3 1
l 1 12
l 3 8
# </edges>
