# Wavefront OBJ file written 2025-10-26T22:26:25
o walls_edgeMesh

# points : 54
# lines  : 64

# <points count="54">
v 4.894 3.763 0
v 0 3.763 6.2123e-16
v 0 -4.44089e-16 2.69
v 0 0 0
v 4.894 -5.19573e-16 2.69
v 4.894 -5.19573e-16 0
v 1.002 -1.00898e-16 2.5235
v 1.002 -1.02632e-16 0.396501
v 2.458 -9.4363e-17 2.5235
v 2.458 -9.4363e-17 0.396501
v 3.41461e-16 3.763 2.69
v 4.794 3.763 2.69
v 4.794 3.663 2.69
v 4.894 3.663 2.69
v 4.894 3.763 2.69
v 0 -3.15948e-16 2.30571
v 0.699143 -3.68606e-16 2.69
v 0 -2.6329e-16 1.92143
v 0 -2.10632e-16 1.53714
v 0 -1.57974e-16 1.15286
v 0 -1.05316e-16 0.768571
v 0 -5.2658e-17 0.384286
v 0.699143 0 0
v 2.79657 -3.68606e-16 2.69
v 3.49571 -3.68606e-16 2.69
v 3.49571 0 0
v 2.79657 0 0
v 4.19486 -3.68606e-16 2.69
v 4.19486 0 0
v 4.894 -3.15948e-16 2.30571
v 4.894 -2.6329e-16 1.92143
v 4.894 -2.10632e-16 1.53714
v 4.894 -1.57974e-16 1.15286
v 4.894 -1.05316e-16 0.768571
v 4.894 -5.2658e-17 0.384286
v 1.002 -1.01245e-16 2.0981
v 1.002 -1.01592e-16 1.6727
v 1.48733 -9.87195e-17 2.5235
v 1.97267 -9.65412e-17 2.5235
v 1.39829 -3.68606e-16 2.69
v 2.09743 -3.68606e-16 2.69
v 1.002 -1.01939e-16 1.2473
v 1.002 -1.02285e-16 0.821901
v 1.48733 -9.98759e-17 0.396501
v 1.97267 -9.71194e-17 0.396501
v 1.39829 0 0
v 2.458 -9.4363e-17 2.0981
v 2.458 -9.4363e-17 1.6727
v 2.458 -9.4363e-17 1.2473
v 2.458 -9.4363e-17 0.821901
v 2.09743 0 0
v 2.397 3.763 2.69
v 1.7073e-16 1.8815 2.69
v 2.447 -4.81831e-16 2.69
# </points>

# <edges count="64">
l 1 6
l 4 2
l 2 1
l 11 2
l 15 1
l 16 3
l 3 17
l 18 16
l 19 18
l 20 19
l 21 20
l 22 21
l 23 4
l 4 22
l 24 25
l 26 27
l 25 28
l 29 26
l 28 5
l 5 30
l 30 31
l 31 32
l 32 33
l 33 34
l 34 35
l 6 29
l 35 6
l 36 37
l 38 7
l 39 38
l 40 41
l 7 36
l 17 40
l 37 42
l 42 43
l 8 44
l 43 8
l 44 45
l 46 23
l 9 39
l 47 9
l 41 24
l 48 47
l 49 48
l 50 49
l 51 46
l 45 10
l 10 50
l 27 51
l 11 52
l 53 11
l 3 53
l 54 3
l 13 14
l 12 13
l 52 12
l 14 5
l 5 54
l 6 4
l 4 3
l 3 11
l 11 15
l 15 5
l 5 6
# </edges>
