# Wavefront OBJ file written 2025-10-26T22:06:10
o window_refinementface_edgeMesh

# points : 130
# lines  : 136

# <points count="130">
v 1.20033 0.00415628 2.31
v 1.20033 0.00415628 2.32317
v 1.73 0.00415628 2.31
v 2.25967 0.00415628 2.32317
v 2.25967 0.00415628 2.31
v 2.25967 0.0100603 2.31
v 1.20033 0.010156 2.31
v 2.20201 -0.202002 0.659663
v 2.20201 -0.202002 0.671495
v 1.73 -0.201919 0.671495
v 1.25799 -0.201835 0.671495
v 1.25799 -0.201835 0.659663
v 1.24549 -0.17367 0.671495
v 2.21451 -0.17367 0.671495
v 1.276 0.00415628 2.31
v 1.276 0.00415628 2.32317
v 1.35166 0.00415628 2.31
v 1.35166 0.00415628 2.32317
v 1.42733 0.00415628 2.31
v 1.42733 0.00415628 2.32317
v 1.503 0.00415628 2.31
v 1.503 0.00415628 2.32317
v 1.57867 0.00415628 2.31
v 1.57867 0.00415628 2.32317
v 1.65433 0.00415628 2.31
v 1.65433 0.00415628 2.32317
v 1.73 0.00415628 2.32317
v 1.80567 0.00415628 2.31
v 1.80567 0.00415628 2.32317
v 1.88133 0.00415628 2.31
v 1.88133 0.00415628 2.32317
v 1.957 0.00415628 2.31
v 1.957 0.00415628 2.32317
v 2.03267 0.00415628 2.31
v 2.03267 0.00415628 2.32317
v 2.10834 0.00415628 2.31
v 2.10834 0.00415628 2.32317
v 2.184 0.00415628 2.31
v 2.184 0.00415628 2.32317
v 2.22436 0.00415628 2.31
v 2.22436 0.0100635 2.31
v 2.18905 0.00415628 2.31
v 2.18905 0.0100666 2.31
v 2.15374 0.00415628 2.31
v 2.15374 0.0100698 2.31
v 2.11842 0.00415628 2.31
v 2.11842 0.010073 2.31
v 2.08311 0.00415628 2.31
v 2.08311 0.0100762 2.31
v 2.0478 0.00415628 2.31
v 2.0478 0.0100794 2.31
v 2.01249 0.00415628 2.31
v 2.01249 0.0100826 2.31
v 1.97718 0.00415628 2.31
v 1.97718 0.0100858 2.31
v 1.94187 0.00415628 2.31
v 1.94187 0.010089 2.31
v 1.90656 0.00415628 2.31
v 1.90656 0.0100922 2.31
v 1.87125 0.00415628 2.31
v 1.87125 0.0100954 2.31
v 1.83593 0.00415628 2.31
v 1.83593 0.0100986 2.31
v 1.80062 0.00415628 2.31
v 1.80062 0.0101018 2.31
v 1.76531 0.00415628 2.31
v 1.76531 0.010105 2.31
v 1.73 0.0101082 2.31
v 1.69469 0.00415628 2.31
v 1.69469 0.0101113 2.31
v 1.65938 0.00415628 2.31
v 1.65938 0.0101145 2.31
v 1.62407 0.00415628 2.31
v 1.62407 0.0101177 2.31
v 1.58875 0.00415628 2.31
v 1.58875 0.0101209 2.31
v 1.55344 0.00415628 2.31
v 1.55344 0.0101241 2.31
v 1.51813 0.00415628 2.31
v 1.51813 0.0101273 2.31
v 1.48282 0.00415628 2.31
v 1.48282 0.0101305 2.31
v 1.44751 0.00415628 2.31
v 1.44751 0.0101337 2.31
v 1.4122 0.00415628 2.31
v 1.4122 0.0101369 2.31
v 1.37689 0.00415628 2.31
v 1.37689 0.0101401 2.31
v 1.34158 0.00415628 2.31
v 1.34158 0.0101433 2.31
v 1.30626 0.00415628 2.31
v 1.30626 0.0101465 2.31
v 1.27095 0.00415628 2.31
v 1.27095 0.0101497 2.31
v 1.23564 0.00415628 2.31
v 1.23564 0.0101528 2.31
v 2.13458 -0.20199 0.659663
v 2.13458 -0.20199 0.671495
v 2.06715 -0.201978 0.659663
v 2.06715 -0.201978 0.671495
v 1.99972 -0.201966 0.659663
v 1.99972 -0.201966 0.671495
v 1.93229 -0.201954 0.659663
v 1.93229 -0.201954 0.671495
v 1.86486 -0.201942 0.659663
v 1.86486 -0.201942 0.671495
v 1.79743 -0.201931 0.659663
v 1.79743 -0.201931 0.671495
v 1.73 -0.201919 0.659663
v 1.66257 -0.201907 0.659663
v 1.66257 -0.201907 0.671495
v 1.59514 -0.201895 0.659663
v 1.59514 -0.201895 0.671495
v 1.52771 -0.201883 0.659663
v 1.52771 -0.201883 0.671495
v 1.46028 -0.201871 0.659663
v 1.46028 -0.201871 0.671495
v 1.39285 -0.201859 0.659663
v 1.39285 -0.201859 0.671495
v 1.32542 -0.201847 0.659663
v 1.32542 -0.201847 0.671495
v 1.41533 -0.201863 0.671495
v 1.407 -0.17367 0.671495
v 1.57266 -0.201891 0.671495
v 1.5685 -0.17367 0.671495
v 1.73 -0.17367 0.671495
v 1.88734 -0.201946 0.671495
v 1.8915 -0.17367 0.671495
v 2.04467 -0.201974 0.671495
v 2.053 -0.17367 0.671495
# </points>

# <edges count="136">
l 15 1
l 1 2
l 2 16
l 17 15
l 16 18
l 19 17
l 18 20
l 21 19
l 20 22
l 23 21
l 22 24
l 25 23
l 24 26
l 3 25
l 26 27
l 28 3
l 27 29
l 30 28
l 29 31
l 32 30
l 31 33
l 34 32
l 33 35
l 36 34
l 35 37
l 38 36
l 37 39
l 4 5
l 5 38
l 39 4
l 40 5
l 5 6
l 6 41
l 42 40
l 41 43
l 44 42
l 43 45
l 46 44
l 45 47
l 48 46
l 47 49
l 50 48
l 49 51
l 52 50
l 51 53
l 54 52
l 53 55
l 56 54
l 55 57
l 58 56
l 57 59
l 60 58
l 59 61
l 62 60
l 61 63
l 64 62
l 63 65
l 66 64
l 65 67
l 3 66
l 67 68
l 69 3
l 68 70
l 71 69
l 70 72
l 73 71
l 72 74
l 75 73
l 74 76
l 77 75
l 76 78
l 79 77
l 78 80
l 81 79
l 80 82
l 83 81
l 82 84
l 85 83
l 84 86
l 87 85
l 86 88
l 89 87
l 88 90
l 91 89
l 90 92
l 93 91
l 92 94
l 95 93
l 94 96
l 7 1
l 1 95
l 96 7
l 97 8
l 8 9
l 9 98
l 99 97
l 98 100
l 101 99
l 100 102
l 103 101
l 102 104
l 105 103
l 104 106
l 107 105
l 106 108
l 109 107
l 108 10
l 110 109
l 10 111
l 112 110
l 111 113
l 114 112
l 113 115
l 116 114
l 115 117
l 118 116
l 117 119
l 120 118
l 119 121
l 11 12
l 12 120
l 121 11
l 122 11
l 11 13
l 13 123
l 124 122
l 123 125
l 10 124
l 125 126
l 127 10
l 126 128
l 129 127
l 128 130
l 14 9
l 9 129
l 130 14
# </edges>
